<svg xmlns="http://www.w3.org/2000/svg" version="1.0" viewBox="0 0 130 138"><g fill="#fcf6f6ff" stroke-width="0">
<path d="M71.1 40c.1.8.1 3.2 0 5.2-.1 3.6-.2 3.8-3.6 3.8-2.8 0-3.5-.4-3.5-1.9 0-1.1-.6-2.2-1.2-2.4q-1.5-.6 0-.6c.6-.1 1.2-1 1.2-2.1 0-1.7-.7-2-3.9-2h-4l.1 4c0 2.3-.2 4.4-.6 4.7-.4.4-2.5.8-4.7.9-3.8.2-7 1.4-3.6 1.4.9 0 1.7.4 1.7 1 0 .5-.7 1-1.5 1-1 0-1.5 1-1.5 3.1 0 2-.4 2.9-1.2 2.6-.7-.2-2.3 0-3.6.4-1.5.6-2.1.5-1.7-.1.3-.6 0-1-.8-1-1 0-1.5 1.3-1.5 4.6l-.1 4.6 3.8-.6c4.1-.6 5.1.3 5.1 4.6 0 1.7.2 1.8 1.5.8 1.3-1.1 1.4-1 .9.3-.7 2-3 2.9-7.4 3.1-3.2.1-3.5.4-3.7 3.5-.3 3.5 1.2 5.5 3.2 4.3 1.7-1.1 3.5-1.1 2.8 0-.4.7.1.9 1.3.6 1.7-.4 1.9.1 1.8 4.1l-.2 4.6 4.7.5c4.5.5 4.6.6 4.9 4.1.2 2.8.8 3.8 2.5 4.3 4.1 1.1 5.7.7 5.7-1.4 0-1.1-.7-2-1.5-2s-1.5.7-1.5 1.7c0 .9-.3 1.4-.6 1-1.1-1.1.8-4.9 2.2-4.3.9.3 1.4-.1 1.4-1.4 0-1.6.7-2 3.5-2H71v9.9l2.9-.9c1.6-.4 3.2-.6 3.5-.2.3.3.6-.1.6-.9 0-1.2.2-1.1 1.1.1.7 1.1.9.2.6-3.3l-.4-4.7h9.6l-.1-4.3c0-2.3-.5-4.5-1-4.8s1.7-.6 4.9-.5l5.8.1.3-4.4c.3-4.1.2-4.4-1.4-3-1.1.9-1.5.9-1 .1s0-1.2-1.3-1.2c-1.2 0-2.1.6-2.1 1.2 0 1-.2 1-.9 0-.4-.8-1.2-1.2-1.7-1.1-.5.2-1-1.4-1-3.5-.1-4 0-4.1 5.9-5.1 3.7-.6 3.8-.7 3.5-4.2-.2-2.9-.7-3.7-2.5-3.8-1.2-.1-2 .1-1.8.5s-1.3.7-3.3.7-3.2-.2-2.6-.4c1.3-.4.7-5-.8-5.9-.5-.3-.4-1.2.3-2 .9-1.1.8-1.4-.2-1.5-.8-.1-1.8-.2-2.4-.4-.5-.1-1.9-.3-3.1-.3-2.4-.2-5.1-4.8-3.2-5.4.7-.3.9-1.1.5-2-.4-1.1-1.7-1.5-4.1-1.4-2 .1-3.8-.3-4.1-.9-.2-.5-.4-.3-.4.5M60 45.1c0 .5-.4.9-1 .9-.5 0-1-.7-1-1.6 0-.8.5-1.2 1-.9.6.3 1 1 1 1.6m17.7 3.1c-.3.8-.6.5-.6-.6-.1-1.1.2-1.7.5-1.3.3.3.4 1.2.1 1.9M72 61.4c0 .8.4 1.8 1 2.1s.8-.2.5-1.2.1-.5.9 1.1c1.6 3.5 4.5 4.8 6.6 3.2 1.3-.9 1.3-.9.3.5-.7.9-.9 2-.5 2.4.4.5.2.5-.5.1-.8-.4-1.3.5-1.5 2.6-.2 2-.8 3.2-1.6 3-.7-.1-1.5.5-1.8 1.3-.4.8-1.3 1.5-2.1 1.5-1.3 0-1.3.2-.2 1.7 1 1.1 1 1.4.2.9-.7-.4-1.3-.2-1.3.3 0 .6-2.1 1.1-5 1.1-2.7 0-4.9-.3-4.9-.8.3-2-.2-3.2-1.6-3.2-.8 0-1.2-.6-.9-1.4.4-1.1 0-1.3-1.5-.9-1.8.5-2.1.1-2.1-3 0-4.7.9-6.7 2.6-6 .8.3 1.5-.1 1.5-1.1.3-3.5.5-4.1 1.7-3.9.7.2 1.2-.2 1.2-.7 0-.6 2-1 4.5-1 3.3 0 4.5.4 4.5 1.4"/>
</g><g fill="#BFBFBF" stroke-width="0">
<path d="M66.5 12c-1.8.8-1.7.9.8.9 1.5.1 2.7-.4 2.7-.9 0-1.2-.8-1.2-3.5 0M62 15c0 .6-.4.8-1 .5-1.6-1-1.1.1.7 1.6.9.8 1.4.9 1 .2-.4-.6-.2-1.3.5-1.5.9-.3.9-.6 0-1.2-.7-.4-1.2-.2-1.2.4m-2 12.6c0 1-.8 1.5-2.2 1.4-4.8-.4-6 0-5.4 1.6.4.9.1 2.4-.6 3.2-.9 1.1-.9 1.3-.1.9.7-.5 1.3.1 1.7 1.5.2 1.3.4.4.3-2l-.3-4.2h4.8c3.6 0 4.8.4 5.1 1.7.4 1.4.5 1.2.6-.5.1-1.3-.5-2.2-1.4-2.2s-1.2-.6-.9-1.5c.4-.8.1-1.5-.5-1.5s-1.1.7-1.1 1.6m11.3 1.7c-.6 1.1.1 12.6.8 12.2.3-.2.4-2.9.1-6l-.4-5.5h4.6c4.8 0 5.2.6 4.6 6.4-.1 1.6.1 1.6 1.3.5 1.1-1 1.2-1.9.4-3.4-.6-1.1-1.3-2.7-1.7-3.5-.8-1.6-8.8-2.2-9.7-.7M62.7 38c-.3 1.1-.1 2 .4 2s.9-.9.9-2-.2-2-.4-2-.6.9-.9 2m64.4 2.7c1.1 1.9 1.5 2 2.2.7.5-.9.6-1.8.3-2.1-.3-.4-.6-.1-.6.7 0 1-.3 1-1.7-.1-1.5-1.3-1.5-1.2-.2.8M55 44.5c0 2.7.3 4.6.6 4.2.3-.3.6-2.2.6-4.2s-.3-3.9-.6-4.2c-.3-.4-.6 1.5-.6 4.2m36-3.6c0 .6.4 1.3 1 1.6s.7-.1.4-.9c-.7-1.8-1.4-2.1-1.4-.7m-33 3.5c0 .9.5 1.6 1 1.6.6 0 1-.4 1-.9 0-.6-.4-1.3-1-1.6-.5-.3-1 .1-1 .9m20.6 1.1c.4.8.8 1.5 1 1.5s.4-.7.4-1.5-.4-1.5-1-1.5c-.5 0-.7.7-.4 1.5m13 .1c-.8 2.2-.4 2.5 1.1.9.7-.8.9-1.6.4-1.9s-1.2.1-1.5 1m36.4-.4c0 .9.5 2 1 2.3 1.3.8 1.3-.5 0-2.5-.8-1.3-1-1.3-1 .2m-50.9 2.4c0 1.1.3 1.4.6.6.3-.7.2-1.6-.1-1.9-.3-.4-.6.2-.5 1.3m23.6.1c-.4.3-.7 2.6-.7 5V57h4.8q4.65 0 3.3-.9c-.8-.5-2.7-.8-4.3-.6-2.7.4-2.8.2-2.8-3.5 0-3.3.3-3.8 1.7-3.3 1.1.4 1.4.3.9-.5-.8-1.3-1.9-1.5-2.9-.5m-67.1 1.1c-.2.4-.1 1.4.4 2.2.7 1.1.9.9.7-.8-.1-2.4-.3-2.6-1.1-1.4m15.7.9c.9.2 2.3.2 3 0 .6-.3-.1-.5-1.8-.5-1.6 0-2.2.2-1.2.5m38.6.2c.9.6 1 1 .2 1.6-.8.4-.9 1.1-.3 1.8 1.5 2 2 5.6.8 6-.6.3.8.4 3.2.2 2.3-.1 4.5-.5 5-.9.4-.5 0-.7-.8-.6-5.2.8-6 .2-6-4.5 0-3.6-.3-4.5-1.7-4.5s-1.5.2-.4.9M46 52c0 .5.7 1 1.5 1s1.5-.5 1.5-1c0-.6-.7-1-1.5-1s-1.5.4-1.5 1m-17.6 4.1c-1.3.5-.7.8 2.4.8 2.3.1 4.2-.1 4.2-.3 0-.8-4.8-1.2-6.6-.5M44.5 58c-.3.5-.1 1 .4 1 .6 0 1.1-.5 1.1-1 0-.6-.2-1-.4-1-.3 0-.8.4-1.1 1M26 59.3c0 .8-1 1.9-2.2 2.6-1.3.6-1.6 1-.8.8s2 .5 2.7 1.7c1.1 1.9 1.2 1.7 1.3-2.2 0-2.3-.2-4.2-.5-4.2s-.5.6-.5 1.3"/>
<path d="M36 62.4v4.7l-13.2-.2c-7.3-.2-13.5 0-13.8.5-.3.4 7.7.7 17.8.6l18.2-.1V71c0 1.6-.5 3-1.1 3-.5 0-.7.4-.4 1 .7 1.2 4.2-.8 5-2.9.4-1.1.3-1.2-1-.1-1.3 1-1.5.9-1.5-.8 0-4.4-1-5.2-5.1-4.6l-3.9.7.2-4.2c.1-2.2-.2-4.4-.5-4.8-.4-.3-.7 1.5-.7 4.1m3.6-3.5c-.4.5.3.7 1.4.4 2.3-.6 2.6-1.3.6-1.3-.8 0-1.7.4-2 .9m21 3c-.4.5-.2 1.2.3 1.5.5.4 1.2.2 1.5-.3.4-.5.2-1.2-.3-1.5-.5-.4-1.2-.2-1.5.3m12.1.4c-.3.8.1 1.4.8 1.4s1.1-.6.8-1.4c-.3-.7-.6-1.3-.8-1.3s-.5.6-.8 1.3m-16.1 5.3c-.3.9-.6 3.1-.6 5 0 2.6.4 3.4 1.8 3.4s1.4-.2.3-.9c-1-.6-1.2-2.1-.8-5 .5-4.3.3-5.2-.7-2.5M75 67c0 .5.5 1 1.1 1 .5 0 .7-.5.4-1-.3-.6-.8-1-1.1-1-.2 0-.4.4-.4 1m5.5 0c-.4.6-1.1.8-1.6.5-1.6-1-1 .2.9 1.6.9.7 1.4.9 1 .5-.4-.5-.3-1.5.3-2.3.6-.7.9-1.3.6-1.3s-.9.5-1.2 1m13-.2c-1.6.2-3.3.7-3.7 1-.4.4 7.7.6 17.9.4s18.4-.5 18.1-.7c-.5-.6-28.4-1.1-32.3-.7m-4.4 4.8c0 1.1.3 1.4.6.6.3-.7.2-1.6-.1-1.9-.3-.4-.6.2-.5 1.3M8.6 75.5c-.5 1.3-.2 1.4 1.5.5 1.5-.9 2.4-.8 3.5.1.9.8 1.4.8 1.4.1s3.7-1.2 10.3-1.5c10-.3 9.9-.3-2.9-.5-11-.2-13.3.1-13.8 1.3"/>
<path d="M36 78.9c0 5.3 1 6.8 3.8 5.5.9-.4 2-.8 2.4-.8.3-.1.9-.4 1.3-.8.8-.8-1.6-.5-3 .4-1.9 1.2-3.4-.7-3.3-4.1.1-2.3.7-3.5 2.2-4.1 1.9-.8 1.9-.9-.6-.9-2.7-.1-2.8.1-2.8 4.8m53.5-4c.3.6 1 .9 1.5.6.4-.3 1.1 0 1.3.5.3.6.4.5.3-.2s-1.1-1.5-2.1-1.6c-1.1-.3-1.5 0-1 .7m7.1.7c-.5 1.3-.3 1.4.6.7 1.6-1.3 13.6-1.5 14.4-.2.3.5 1.1.9 1.7.9.7 0 .6-.4-.3-1-1.2-.8-1.1-1 .7-1 1.2 0 2.5.5 2.8 1 .5.8 1.1.7 2.1-.1.9-.7 3.1-.9 5.6-.6 2.7.4 3.7.2 2.7-.4-.7-.5-7.8-.9-15.5-.9-12.2 0-14.3.2-14.8 1.6m-70.5 4.2c-.1 1.8-.5 3.1-1 2.7-.5-.3-1.2-.2-1.4.3-.3.4.5 1.2 1.7 1.8 2 .9 2.1.8 1.8-2.5-.5-5.1-1-6.2-1.1-2.3M95.5 83c-1.9.7-1.9.8-.2 1.5 1 .4 2.3.3 2.9-.3 1.4-1.4-.3-2.1-2.7-1.2m-7.7.9c.5.3 1 2.3 1 4.4s.3 4.1.6 4.4c.3.4.6-1.4.6-3.9 0-2.8.5-4.8 1.3-5.1.6-.2-.1-.4-1.7-.4-1.5 0-2.4.2-1.8.6m12.4 5.8L100 94h-4.5c-3.6 0-4.5.3-4.5 1.7 0 1.2.3 1.4.8.7.8-1.4 9.2-2.3 9.2-1.1 0 .4.5.5 1.1.1.8-.4.8-.9.1-1.3-.6-.3-1.2-2.4-1.5-4.6l-.4-4zm-34.4 4c1.2.2 3 .2 4 0 .9-.3-.1-.5-2.3-.4-2.2 0-3 .2-1.7.4M37 95c1.4.4 1.9.8 1.2.9s-1 .6-.6 1.3c.5.8 1 .7 1.8-.4.6-.9 2-1.8 3.1-2.1 1.1-.2-.2-.5-3-.5-3.9 0-4.5.2-2.5.8m18.2 2.7c-.2 4.2-.2 4.3 3.7 4.9 3 .5 4.1 1.2 4.4 2.8.4 1.7.5 1.7.6-.5.1-2.3-.4-2.7-3.8-3.3-3.7-.6-4-.9-4.4-4.4l-.4-3.7z"/>
<path d="M41.7 97.1c.7.7 1.5 1 1.8.7s-.2-.9-1.2-1.2c-1.4-.6-1.5-.5-.6.5m18.8 1c-.4 1.1-.4 2.3-.1 2.6.3.4.6-.1.6-1 0-1 .7-1.7 1.6-1.7.8 0 1.2-.5.9-1-1-1.6-2.3-1.2-3 1.1m17.5 2.7c0 .4-1.2.9-2.7 1-3.9.3-4.5 1.3-4 7.3l.3 5.4.2-5.8.2-5.7 3.3-.1c1.7-.1 3.5-.1 3.9 0 .4 0 .5-.6.2-1.4-.7-1.6-1.4-2-1.4-.7m-32.5 4.1c-.3.5 0 1.3.6 1.7.7.4.9.3.5-.4s.6-1.2 2.6-1.5l3.3-.4-3.2-.1c-1.7-.1-3.4.2-3.8.7m7.4 2.8c-.3 2.5 0 4.4.6 4.7.7.2.9-1 .7-3.3-.5-5.6-.9-6-1.3-1.4m28.8-3c-1.2 1.1-.8 2.5.5 1.7.7-.4 2.8-1.1 4.8-1.5l3.5-.7-4.1-.1c-2.2 0-4.4.2-4.7.6m5.8 2.3c.3.5.8 1 1.1 1 .2 0 .4-.5.4-1 0-.6-.5-1-1.1-1-.5 0-.7.4-.4 1m-6.7 3.3c-.3 1.9-.2 2.5.4 1.9s.8-1.8.6-2.8c-.3-1.4-.5-1.2-1 .9m-17.6.7c0 1.4.2 1.9.5 1.2.2-.6.2-1.8 0-2.5-.3-.6-.5-.1-.5 1.3M61 125.9c0 .6.4 1.3 1 1.6s.7-.1.4-.9c-.7-1.8-1.4-2.1-1.4-.7"/></g>
<path fill="#BF4040" d="M67.7 13.7c2.2.4 2.3.8 2.6 16.9l.3 16.4-.1-16.7V13.5l-2.5-.1q-3.15-.15-.3.3m4.6 20.8c0 2.7.2 3.8.4 2.2.2-1.5.2-3.7 0-5-.2-1.2-.4 0-.4 2.8m8.1 5c-.3.8-.4 2-.2 2.7.3.7.7.1 1-1.5.6-2.9.1-3.6-.8-1.2m9.7 1.1c0 1.1.3 1.4.6.6.3-.7.2-1.6-.1-1.9-.3-.4-.6.2-.5 1.3m.1 4.4c0 1.4.2 1.9.5 1.2.2-.6.2-1.8 0-2.5-.3-.6-.5-.1-.5 1.3m-51.9 3.7c1.5.2 3.7.2 5 0 1.2-.2 0-.4-2.8-.4-2.7 0-3.8.2-2.2.4m14.5 0c.7.3 1.6.2 1.9-.1.4-.3-.2-.6-1.3-.5-1.1 0-1.4.3-.6.6m40 0c1.2.2 3.2.2 4.5 0 1.2-.2.2-.4-2.3-.4s-3.5.2-2.2.4m6.2 7.1c0 .7-1.8 1.3-4.2 1.4l-4.3.1 3.9.4c3.7.4 6.7-.9 5.3-2.4-.4-.3-.7-.1-.7.5m-60.7 1.9c1.5.2 3.7.2 5 0 1.2-.2 0-.4-2.8-.4-2.7 0-3.8.2-2.2.4M71 62.4c0 .8.4 1.7.9 2 .5.4.7-.3.4-1.4-.6-2.3-1.3-2.6-1.3-.6m-41.2 4.3c1.2.2 3 .2 4 0 .9-.3-.1-.5-2.3-.4-2.2 0-3 .2-1.7.4m72 0c1.2.2 3.2.2 4.5 0 1.2-.2.2-.4-2.3-.4s-3.5.2-2.2.4m-83.6 2c4.8.2 12.9.2 18 0 5.1-.1 1.2-.3-8.7-.3s-14.1.2-9.3.3m89.2 0 17.5.3.4 2.8c.5 2.5.5 2.5.3-.3l-.1-3h-17.8L90 68.4zM59.7 76c1 1.1 2.1 2 2.5 2s0-.9-.9-2c-1-1.1-2.1-2-2.5-2s0 .9.9 2m16.1-1.3c.7.3 1.6.2 1.9-.1.4-.3-.2-.6-1.3-.5-1.1 0-1.4.3-.6.6M71 79.8c0 .7-1.7 1.3-3.7 1.4l-3.8.1 3.4.4c3.3.4 6.1-1 4.8-2.4-.4-.3-.7-.1-.7.5m-.6 30.7c0 9.3.2 13.3.3 8.8.2-4.5.2-12.2 0-17-.1-4.8-.3-1.2-.3 8.2M90.2 97c0 1.4.2 1.9.5 1.2.2-.6.2-1.8 0-2.5-.3-.6-.5-.1-.5 1.3m-10 4c0 1.4.2 1.9.5 1.2.2-.6.2-1.8 0-2.5-.3-.6-.5-.1-.5 1.3m9.9.6c0 1.1.3 1.4.6.6.3-.7.2-1.6-.1-1.9-.3-.4-.6.2-.5 1.3m-17.8 5.9c0 2.7.2 3.8.4 2.2.2-1.5.2-3.7 0-5-.2-1.2-.4 0-.4 2.8"/>
<path fill="#BF0000" d="M65 31v17h5.5l-.3-17-.3-17H65zm-10.3-.3c-.4.3-.7 2.4-.7 4.5V39h-9v10h-9v3.9c0 4 0 4-4.2 4.3-4.3.3-4.3.3-4.6 4.5l-.3 4.3H36v-9h9v-4c0-2.2.5-4.1 1-4.1.6-.1 1.9-.3 3-.4s2.9-.3 4-.4c1.7-.1 2-.8 2-4.6V39h8v-9h-3.8c-2.1 0-4.2.3-4.5.7M73 34.4V39h8v4.4c0 4.6 1.1 5.6 6.8 5.6 1.9 0 2.2.5 2.2 4.3v4.2l4.5-.3c4.6-.4 5.7-1.7 5.1-5.7-.2-1.5-1.2-2.1-4.2-2.3-4.5-.4-5.4-1.4-5.4-6.5V39h-8.9l-.3-4.3c-.3-4.1-.4-4.2-4-4.5l-3.8-.3zm27 27.1V66h8v-9h-8zM64 63c0 1.4-.7 2-2.1 2-1.1 0-1.8.4-1.5.8.3.5-.4 1.6-1.5 2.5-2.6 2.3-2.4 3.1 1.6 7 1.9 1.9 3.5 3.9 3.5 4.6 0 .6 1.5 1.1 3.5 1.1 2.4 0 3.5-.5 3.5-1.4 0-.8.9-1.8 2-2.1s2-1.3 2-2.1.7-1.4 1.5-1.4q1.5 0 1.5-3t-1.5-3c-.8 0-1.5-.6-1.5-1.4 0-.7-.9-1.6-2-1.9s-2-1.2-2-2.1c0-1.2-1-1.6-3.5-1.6-2.8 0-3.5.4-3.5 2m-54 8.5V74h35v-5H10zm80 0V74h35v-5H90zm-63 9V85h9v9h9v10h4.4c4.4 0 4.5 0 4.8 3.7s.4 3.8 4.6 4.1l4.2.3V103h-8v-9H45v-9h-9v-9h-9zm73 0V85H90v9h-9v9h-8v9h8v-8h4.5c4 0 4.5-.3 4.6-2.3.3-7.5.1-7.2 4.7-7.5 2.3-.2 4.3-.6 4.3-1 .1-.4.2-2.3.3-4.2.2-3.4.4-3.5 4.4-3.8l4.2-.3V76h-8zm-35 30V127h5V94h-5z"/>
<path fill="#BFBF80" d="M63.1 34.6c0 1.1.3 1.4.6.6.3-.7.2-1.6-.1-1.9-.3-.4-.6.2-.5 1.3m0 28c0 1.1.3 1.4.6.6.3-.7.2-1.6-.1-1.9-.3-.4-.6.2-.5 1.3m0 17c0 1.1.3 1.4.6.6.3-.7.2-1.6-.1-1.9-.3-.4-.6.2-.5 1.3m-22.3 5.1c.6.2 1.8.2 2.5 0 .6-.3.1-.5-1.3-.5s-1.9.2-1.2.5"/>
<path fill="#BF8040" d="M46.8 38.7c.6.2 1.8.2 2.5 0 .6-.3.1-.5-1.3-.5s-1.9.2-1.2.5m37 0c1.2.2 3 .2 4 0 .9-.3-.1-.5-2.3-.4-2.2 0-3 .2-1.7.4m-19.7 65.9c0 1.1.3 1.4.6.6.3-.7.2-1.6-.1-1.9-.3-.4-.6.2-.5 1.3"/></svg>