<svg xmlns="http://www.w3.org/2000/svg" version="1.0" viewBox="0 0 111 94"><g fill="none" stroke-width="0"><path d="M0 24.5C0 40.9.3 49 1 49s.9-1.6.6-4c-.4-4.1.8-6 2.7-4.1.6.6 2.4 1.1 4 1.1 2.4 0 2.8-.4 2.6-2.3-.5-3.6 3.6-9.6 6.6-9.7.6 0 .3.5-.5 1-1.1.8-.8 1 1.4.7 2.7-.3 3-.7 3.1-4 .1-4.4.3-4.7 4.9-5.1 2-.2 3.8-.5 4.1-.7.2-.3.5-2.3.6-4.6.2-3 .7-4 1.8-3.8.9.1 2.2-.3 3-.9 1.2-.8 1.3-.8.7.2s.5 1.2 4.8 1.1c3.3-.1 5.6-.7 5.6-1.3 0-.7.3-.7.8.1.9 1.4 8.4 1.3 9.4-.2.5-.7.8-.6.8.1 0 1.5 5.3 1.5 6.2 0 .6-.8.8-.7.8.1s1.3 1.3 3.1 1.3c1.7 0 2.8-.4 2.4-1-.3-.6-.1-1 .4-1 .6 0 1.1.4 1.1.8 0 .5 1.4.9 3 1 2.1 0 2.8-.3 2.4-1.1-.4-.7-.3-.8.2-.4 1 1 1.1 1.3 1.3 6.7l.1 4h5c5.3 0 5.3 0 5 5.7-.1 1.8.3 3.3.9 3.3s1.1-.6 1.1-1.3c0-.9.2-.9.9.1.4.8 1.1 1.3 1.5 1.3 3.7-.5 4.5.1 5.2 4.1.4 2.4.7 4.6.6 5-.1.5.7.8 1.8.8 1.4 0 1.8-.5 1.4-1.8-.5-1.6-.5-1.6.6.1.8 1.2 2.2 1.7 4.5 1.5l3.4-.2.1-20.8.1-20.8H0zm6.3-6c.4.8.2 1.7-.3 2-.6.4-1-.3-1-1.4 0-2.5.6-2.7 1.3-.6M14.5 29c-.3.5-1.2 1-1.8 1-.7 0-.6-.4.3-1 1.9-1.2 2.3-1.2 1.5 0m85.7 1.4c.7-.4.8-.2.4.4-.9 1.6-3.6.3-3.6-1.7.1-1.4.2-1.4 1.1.2.6.9 1.5 1.4 2.1 1.1"/>
<path d="m54.4 26-20.1.5.1 3.9c.1 3-.3 4-1.7 4.4-1.2.3-1.6 1.1-1.3 2.1.4 1-.1.7-1.3-.7-2.7-3.1-6.1-3-6.1.4 0 2.3.1 2.4 1.6 1 2.1-2.1 3-2 1.3.1-.8.9-1.4 1.9-1.4 2.2s-.4.5-.9.3-.6.6-.3 1.8c.6 2.2-.4 2.4-7.5 2.1-3.7-.2-3.7-.2-3.6 3.8 0 5-.5 5.8-4.1 6.3-1.7.2-2.8.1-2.5-.4.3-.4.1-.8-.5-.8-.5 0-1.2.6-1.4 1.2q-.6 1.5-.6 0C4 53.6 3.4 53 2.6 53S.9 52.2.7 51.2c-.3-.9-.5 7.2-.6 18C0 83.2.3 89 1.1 89c.7 0 .9 1 .7 2.5L1.3 94h109.8l-.3-12.8c-.3-10.7-.5-12.6-1.8-12.4-1.2.3-1.3.1-.2-.9 1.3-1.4 1.6-7.1.6-13.1-.6-3.6-.6-3.7-2.7-1.7-2.3 2.1-3.7 2.4-3.7.8 0-.7-1-.9-2.4-.5-2.8.7-4.1-1.7-3.7-6.7.1-2.7-.1-2.8-3.6-2.7-7.4.4-7.3.5-7.3-5.1v-5.1l-4 .7c-2.9.5-4.4.3-5.5-.8-1.1-1.2-1.2-1.6-.2-2 .9-.3.9-.7-.1-2-.8-.9-1.1-2.1-.8-2.6.4-.5.3-1.1-.1-1.3-.5-.2-9.8-.1-20.9.2m-6.9 3c.3.6-.1.7-.9.4-1.8-.7-2.1-1.4-.7-1.4.6 0 1.3.4 1.6 1M62 30.1c0 .6-.4.7-1 .4-.5-.3-1-1.1-1-1.6 0-.6.5-.7 1-.4.6.3 1 1.1 1 1.6M57.1 32c6.1 0 11.1-.4 11.4-1s1.2-1 1.8-1c.7 0 .6.4-.3 1-1.3.8-1.2 1 .3 1 1.3 0 1.7.8 1.7 3.5 0 3.5 0 3.5 4.5 3.5 3.1 0 4.7.5 5.1 1.5.4.8.9 1.3 1.3 1 .4-.2.8.2.8 1s-.4 1.5-.8 1.5c-.3 0-.9.8-1.1 1.8-.4 1.3.2 1.8 2.4 1.9 1.5 0 2.8-.4 2.8-1 0-.5.8.1 1.8 1.4 2.7 3.8 4.5 7.2 3.3 6.4-.6-.3-1.1-.1-1.1.5 0 .8 1.5 1.1 4.5.8 3.5-.2 4.5 0 4.6 1.2.1.8.2 3.4.3 5.7l.1 4.3h-4.3c-2.4 0-4.1.4-3.8.9.4.5-.1.8-1 .7-2.2-.3-3-1.9-2.8-5.9.2-2.9-.1-3.3-2-3.2-1.1.1-3-.1-4.1-.5q-1.95-.75-3.3.9c-1.1 1.4-1.2 1.3-.3-.5.5-1.1.6-2.6.2-3.3-.5-.7-.6-2.2-.3-3.4.4-1.6.2-1.9-1.1-1.4-1 .4-1.7.2-1.7-.3 0-.6-1.2-1-2.7-1-3.7 0-5.8-1.4-4.7-3.1.4-.8.9-2.2.9-3.2.2-1.6-.9-1.7-14.3-1.5l-14.5.3-.3 3.4c-.3 1.9-.6 3.6-.7 3.8-.2.2-2.3.4-4.6.5s-3.8.4-3.4.7c1 .7.9 1.9-.1 4.2-.8 1.9-.5 4.1.9 5.1.6.4.2.8-.9.8q-1.8 0-1.2-1.5c.7-1.9.1-1.9-1.8.1-.9.8-1.6 1.1-1.6.5S25.7 59 24.1 59c-2.7 0-2.9.3-2.8 3.4 0 1.9.4 3.3.8 3 .9-.5.5 2.3-.4 3.2-.4.4-.7.2-.7-.4s-1.6-1-3.9-.9c-2.6.1-3.7.6-3.4 1.4.3.7 0 1.3-.6 1.3-1.3 0-3.1-3.3-3.1-5.9 0-1.1-1-2.6-2.2-3.2l-2.3-1.2 2.3-1c1.2-.6 2.2-1.4 2.2-1.9 0-.4 1.8-.8 3.9-.8 4.6 0 6-1.5 3.7-3.8-1.6-1.6-1.7-1.6-1 .3.7 1.8.6 1.8-.9.6-2.1-1.6-1.2-3.5 1.4-2.8 1.7.5 4.4-1.4 3.5-2.4-.3-.2 1.2-.4 3.2-.4 3.2 0 3.7-.3 4-2.5.5-5 1.3-7.1 2.3-6.4.6.3 2-.2 3.2-1.3 1.9-1.5 2-1.6.8-.1-1.2 1.6-1 1.8 1.8 1.8 2.9 0 3-.2 2.5-3-.5-2.5-.3-3.1 1.7-3.9 1.3-.4 3-.6 3.8-.3q1.5.6.6-.9c-.6-1.1-.5-1.2.6-.2.9.9 4.8 1.3 12 1.3m10.3 15.4c-.3 1.3-.1 2.6.4 3 .5.3.7 1.7.4 3.1-.4 2.3-.1 2.5 3.1 2.5 2.4 0 4-.6 4.6-1.8.6-.9 1.1-1.1 1.1-.5 0 2.4-.2 2.8-1.2 2.5-.6-.2-.8.6-.4 2 .3 1.3.6 3.1.6 4 0 2.1 3.9 2.5 5.9.5.7-.6 1.2-.8 1.1-.2-.2.5-.2 3.4-.1 6.3.1 3.7.4 5.1 1.3 4.6.7-.4.8-.3.4.4S82.2 75 80.1 75c-2 0-4.3.6-5 1.2-.9.9-1.2.9-.7.1.3-.6 0-1.3-.6-1.6-1.9-.6-3.9.4-3.1 1.6.3.6.1.7-.5.3-.9-.5-.9-1.3-.1-2.8.8-1.6.8-2.3-.2-3q-1.5-.9.9-.3c1.9.5 2.2.3 2.2-1.9 0-2.3-.4-2.6-3.7-2.7-2.1-.1-4.1-.1-4.4-.1-.3.1-.5-1.8-.5-4.1l.1-4.2-9.8-.2-9.7-.2 1.2 2.2c.6 1.2 1.2 2.3 1.2 2.3.1.1-.7 1.1-1.7 2.2-1.1 1.2-2.9 1.9-4.7 1.8-1.6-.1-2.7.2-2.4.6s0 .8-.6.8-.8.4-.5 1c.3.5 1.5 1 2.5 1 1.3 0 1.8.5 1.4 1.5-.5 1.1-1 1.3-1.9.5-1.5-1.3-3 .3-2 2 .3.5.1 1-.5 1s-.9.3-.7.7c.3.5-2.1.6-5.4.5-5.2-.3-5.8-.6-4.9-2.1 1.1-2.2.6-5.7-.9-5.3-.6.1-1.1-.2-1.1-.8 0-.5.7-1 1.6-1 .8 0 1.2-.4.9-1-.4-.6.9-1 3.3-1h3.9l.7-5.2c.5-3.6 1-4.8 1.6-3.8.7 1.1 1.5 1.2 3.7.4 2.2-.7 2.8-1.6 2.8-3.8 0-1.6.6-3.1 1.3-3.4.6-.2.9-.8.6-1.4-.4-.6.1-.6 1.3.1 2.6 1.3 20.5 1.2 19.6-.2-.3-.6-.1-.7.5-.3.7.4 1.2.2 1.2-.3 0-.6.2-1.1.5-1.1s.3 1.1-.1 2.4M109 58c0 .5-.4 1-1 1-.5 0-1-.5-1-1 0-.6.5-1 1-1 .6 0 1 .4 1 1m-51.5 2.8c-.8.8-2.5-1-1.9-2q.6-.9 1.5.3c.4.7.6 1.5.4 1.7M29 62.6c0 .2-1.1.3-2.4.2-1.4-.1-2.3-.5-2-.9.4-.7 4.4 0 4.4.7m33.6 4.6c.4.7.3.8-.4.4s-1.2-.1-1.2.7c0 .7 1.1 2 2.5 2.7 1.8 1 2.2 1.6 1.3 2.2-1 .6-.9.8.3.8 1.9 0 2.9 3 2.3 6.6-.2 1.3-2 4-3.9 6S60 90.5 60 90.9s-1.6.5-3.6.3q-3.6-.45-4.5.9c-.6 1-.9 1.1-.9.1 0-.6-1-1.2-2.2-1.3-1.3 0-1.7-.3-1-.6.6-.2 1.2-.9 1.2-1.4 0-.6-.4-.7-1-.4-.5.3-1 .1-1-.5s-.5-.8-1.2-.4c-.8.5-.9.2-.5-1 .4-1 .3-1.5-.3-1.1-.6.3-1 .1-1-.5s-.4-.9-.8-.6c-.5.3-.8-1.9-.8-4.9.1-5.3.6-6.1 3.9-5.6q.6 0 .6-.6c-.7-4.4 0-5 6.4-5.2 3.4-.1 6.6-.6 7.2-1.2 1.2-1.1 1.2-1.1 2.1.3M25 71.6c0 .2-.7.4-1.5.4s-1.5-.4-1.5-1c0-.5.7-.7 1.5-.4.8.4 1.5.8 1.5 1m71-1.2c0 .3-.4.8-1 1.1-.5.3-1 .1-1-.4 0-.6.5-1.1 1-1.1.6 0 1 .2 1 .4M40.5 75c-.3.5-1.2 1-1.8 1-.7 0-.6-.4.3-1 1.9-1.2 2.3-1.2 1.5 0M69 86.4c0 .3-.4.8-1 1.1-.5.3-1 .1-1-.4 0-.6.5-1.1 1-1.1.6 0 1 .2 1 .4M62.5 91c.3.5.1 1-.4 1-.6 0-1.1-.5-1.1-1 0-.6.2-1 .4-1 .3 0 .8.4 1.1 1m46.8-46.3c.4.3.2 1.2-.5 2-.8 1-.8 1.7 0 2.5.9.9 1.2.8 1.2-.4 0-.9.3-2.3.6-3.2.4-1 .1-1.6-.7-1.6-.7 0-.9.3-.6.7"/></g>
<g fill="none" stroke-width="0">
<path d="M64 12.9c0 1 1.9 2.5 2.5 2 .1-.2-.3-1-1.1-1.7s-1.4-.8-1.4-.3m6.3.6c0 .8.4 1.2.9.9.4-.3.8-.9.8-1.5 0-.5-.4-.9-.8-.9-.5 0-.9.7-.9 1.5m7-.8c.4.6.2 1.3-.5 1.5-.8.3-.6.6.4 1 1.7.7 1.9-1.5.3-2.9-.4-.4-.5-.3-.2.4m-46 2c0 .9.4 1 1.4.2 1.6-1.4 1.6-1.6 0-1.6-.8 0-1.4.6-1.4 1.4m12.2-.7c-.3.5-.1 1 .4 1 .6 0 1.1-.5 1.1-1 0-.6-.2-1-.4-1-.3 0-.8.4-1.1 1M5 19.1c0 1.1.4 1.8 1 1.4.5-.3.7-1.2.3-2-.7-2.1-1.3-1.9-1.3.6m21.8 3.6c.7.3 1.6.2 1.9-.1.4-.3-.2-.6-1.3-.5-1.1 0-1.4.3-.6.6m61.2 5c.4 3.5 1 4.9 2.3 5.1 1.1.2 1.7-.3 1.6-1.5 0-1-.3-1.3-.6-.6-1 2.5-2.4 1.2-2.3-2 .3-4.5.1-5.7-.8-5.7-.4 0-.5 2.1-.2 4.7m-44.2-2c5.6.2 14.8.2 20.5 0 5.6-.1 1-.3-10.3-.3s-15.9.2-10.2.3M75.3 27c-.1 1.1.2 2.2.8 2.5.5.4.9-.5.9-1.9 0-3-1.5-3.5-1.7-.6M13 29c-.9.6-1 1-.3 1 .6 0 1.5-.5 1.8-1 .8-1.2.4-1.2-1.5 0m32-.6c0 .2.7.7 1.6 1 .8.3 1.2.2.9-.4-.6-1-2.5-1.4-2.5-.6m15 .5c0 .5.5 1.3 1 1.6.6.3 1 .2 1-.4 0-.5-.4-1.3-1-1.6-.5-.3-1-.2-1 .4m37 .2c0 2 2.7 3.3 3.6 1.7.4-.6.3-.8-.4-.4-.6.3-1.5-.2-2.1-1.1-.9-1.6-1-1.6-1.1-.2M15.5 31c-.3.6.1.7.9.4 1.8-.7 2.1-1.4.7-1.4-.6 0-1.3.4-1.6 1m51.5.6c-2 1.1-2.1 1.4-.7 1.4 1 0 2.5-.7 3.3-1.5 1.9-1.8.8-1.8-2.6.1m-48.6.6c-.3.4.4.8 1.5.8 1.2 0 2.1-.4 2.1-.8 0-.5-.7-.9-1.5-.9-.9 0-1.8.4-2.1.9m21.9-.1c-1.6.6-2.3 1.6-2.2 3.1.2 2.3.2 2.3.6.1.3-1.5 1.3-2.3 3.1-2.5 1.5-.2 2.3-.6 1.7-.9-.5-.4-2-.3-3.2.2m13.5.6c.6.2 1.8.2 2.5 0 .6-.3.1-.5-1.3-.5s-1.9.2-1.2.5m-22 1c-3.3.5-3.4 1-1 3.6 1.6 1.9 1.6 2 0 1.4-1.8-.6-2.4.5-3 6.3-.3 2.2-.8 2.5-4 2.5-2 0-3.4.3-3.1.7.2.5 2.2.8 4.4.8H29v-9l5.3-.2c3.7-.1 4.2-.2 1.9-.5-3-.4-3.2-.6-2-2.1 1.1-1.5 1.1-1.5-.3-.5-.9.7-1.9 1-2.2.6-1.2-1.1-.8-2.3.7-2.3.8 0 1.8-.5 2.1-1 .3-.6.5-.9.3-.9-.2.1-1.5.4-3 .6m-21.1 3c-.2.5-.1 1.9.4 3.3.7 2.3.7 2.3.8-.8s-.3-4-1.2-2.5"/>
<path d="M26.3 36.8c-1.5 1-2.1 3-.8 3.1.6.1 1-.2 1-.7 0-.4.4-1.3.8-2 .9-1.4.7-1.5-1-.4M98 39.1c0 1.6.4 2.8.9 2.5.8-.5.3-5.6-.5-5.6-.2 0-.4 1.4-.4 3.1M71.3 38c.2.8 1.2 1.6 2.3 1.7 1.3.2 1.5.1.4-.4-.8-.3-1.9-1.1-2.3-1.7-.6-.7-.7-.6-.4.4m30.7 1.9c0 .6.4 1.3 1 1.6s.7-.1.4-.9c-.7-1.8-1.4-2.1-1.4-.7m-100.1.3c0 .2-.2 1.3-.5 2.5-.4 2.2-.3 2.2 1.4.5 1.9-1.7 1.9-3.2.1-3.2-.5 0-.9.1-1 .2M108 41c.8.5 1 1 .4 1-.7 0-.9 1-.6 2.5.2 1.4.7 2.3 1.1 2.1 1-.7 1.1 19.7.1 20.9-.7.8-.5 1.2.5 1.2 1.2 0 1.4-2.1 1.4-11.4-.1-6.2-.5-11.6-1-11.9s-.6-1.1-.2-1.7c1.4-2.2 1.1-3.3-1.1-3.5-1.6-.1-1.8.1-.6.8m-25.8.8c-.7.5-1.1 2.3-1 4 .2 3 .5 3.2 4 3.2 3 0 3.6-.3 3.1-1.6-.3-.9-.8-1.2-1.2-.5-1 1.5-4.6.6-4.9-1.2-.2-1 .1-1.7.6-1.7s.9-.7.9-1.5-.1-1.5-.1-1.5c-.1 0-.7.4-1.4.8M67 45.9c0 .7-.4.9-1 .6-.6-.4-.7.1-.3 1.1.6 1.5.7 1.5 1.5-.1.6-.9.7-1.9.4-2.2-.3-.4-.6-.1-.6.6m-22.3 1.2c.7.7 1.5 1 1.8.7s-.2-.9-1.2-1.2c-1.4-.6-1.5-.5-.6.5m23.9-.2c-.4.7-.5 1.5-.2 1.8.9.9 1.9-.4 1.4-1.8-.4-1.1-.6-1.1-1.2 0M.7 51c.3 1.1.9 2 1.5 2 .5 0 .4-.9-.2-2S.8 49 .6 49s-.2.9.1 2m13.9-.1c-.3.5.2 1.5 1.1 2.2 1.5 1.2 1.6 1.2 1-.5-.6-1.6-.5-1.7.8-.6.9.8 1.3 2 .9 3.3s-.2 1.7.5 1.3c.6-.4 1.1-1.9 1.1-3.4 0-2.2-.5-2.8-2.5-3-1.3-.1-2.6.2-2.9.7m17.7-.2c-.7.2-1.3 1.4-1.3 2.5 0 1.8 1.5 1.8 1.5 0 0-.4.4-1.3.8-2 .9-1.3.8-1.3-1-.5M67 52.9c0 1.7.2 3.1.4 3.1.8 0 1.3-5.1.5-5.6-.5-.3-.9.9-.9 2.5m9-1.9c0 .5.7.7 1.5.4.8-.4 1.5-.8 1.5-1s-.7-.4-1.5-.4-1.5.4-1.5 1m-66 1.7c-3.7.7-4.6 2-1 1.5 1.7-.2 3.3-.8 3.6-1.3s.4-.8.2-.8c-.2.1-1.4.4-2.8.6m31.4 1.1c.3.5 0 1.3-.6 1.5-.8.3-.6.6.5.6 1.9.1 2.3-1.4.5-2.5-.6-.4-.8-.3-.4.4m34.3.5c-.9 2.3.8 3 2.4 1 .8-.9.9-1.4.2-1-.6.4-1.3.2-1.5-.5-.3-.8-.7-.6-1.1.5M103 54c0 .5.4 1 .9 1 .6 0 1.3-.5 1.6-1 .3-.6-.1-1-.9-1-.9 0-1.6.4-1.6 1m-5 2c-.9.6-1 1-.3 1 .6 0 1.5.9 1.8 2.1 1 3 1.6 1.8.7-1.4-.5-2-1-2.4-2.2-1.7m-69.2 2c-1 .9-1.8 2.1-1.8 2.6s.5.2 1.1-.6c.8-1.1 1.2-1.2 1.6-.3.2.7 1.2 1.3 2.1 1.3 1.3 0 1.4-.2.4-.9-.8-.4-1.3-1.1-1.2-1.5.4-1.8-.7-2.1-2.2-.6"/>
<path d="M107 58c0 .5.5 1 1 1 .6 0 1-.5 1-1 0-.6-.4-1-1-1-.5 0-1 .4-1 1m-99.9.9c-1.1.7-.9 1.1.8 2 1.8 1 2.1.9 2.1-.9 0-2.2-.7-2.5-2.9-1.1m14.7-.2c.6.2 1.8.2 2.5 0 .6-.3.1-.5-1.3-.5s-1.9.2-1.2.5m12.3 2q-.15 3.15-1.8 3.6c-1.7.4-1.7.5 0 .6 2.1.1 3-1.8 2.4-5.1-.3-1.8-.5-1.6-.6.9M45 58.9c0 .6.4 1.3 1 1.6s.7-.1.4-.9c-.7-1.8-1.4-2.1-1.4-.7m10.6-.1c-.3.6-.1 1.4.5 1.7 1.4.9 2 .2 1-1.4q-.9-1.2-1.5-.3m23 .9c-.6 1.4-.5 1.5.5.6.7-.7 1-1.5.7-1.8s-.9.2-1.2 1.2m7.4-1c0 .4.9 1.4 1.9 2 1.6 1 1.9.9 1.7-.5-.3-1.7-3.6-3.1-3.6-1.5m-21.9 2.9c0 1.1.3 1.4.6.6.3-.7.2-1.6-.1-1.9-.3-.4-.6.2-.5 1.3m-39.5.3c-.3.4.6.8 2 .9 1.3.1 2.4 0 2.4-.2 0-.7-4-1.4-4.4-.7M45 63.1c0 .5.5.7 1 .4.6-.3 1-.8 1-1.1 0-.2-.4-.4-1-.4-.5 0-1 .5-1 1.1M88.5 65c-.3.5-.1 1 .4 1 .6 0 1.1-.5 1.1-1 0-.6-.2-1-.4-1-.3 0-.8.4-1.1 1m10.5.5c0 .8.4 1.5.8 1.5.5 0 .9-.7.9-1.5s-.4-1.5-.9-1.5c-.4 0-.8.7-.8 1.5m-77.3.2c-.4.3-.7 1.3-.7 2.1 0 1.8 1.3.7 1.6-1.3.2-1.7.1-1.8-.9-.8M38 66c-1.8 1.2-.2 1.2 2.5 0 1.3-.6 1.5-.9.5-.9-.8 0-2.2.4-3 .9m28.8-.3c.6.2 1.8.2 2.5 0 .6-.3.1-.5-1.3-.5s-1.9.2-1.2.5M11 67.9c1.3 2.5 1.7 2.6 3.8.4 1.3-1.3 1.3-1.5.2-1.1-.8.3-2.3.1-3.3-.4-1.6-.8-1.7-.7-.7 1.1m13-1.1c0 .5.7.9 1.5.9s1.5-.4 1.5-.9c0-.4-.7-.8-1.5-.8s-1.5.4-1.5.8m36.5.3c-.4.6-.4 1.3-.1 1.6.3.4.6.1.6-.6s.5-.9 1.2-.5.8.3.4-.4c-.9-1.5-1.3-1.5-2.1-.1m28.9.7c.4.3 1.4.7 2.2.8.9.1 1.3 0 1-.4-.4-.3-1.4-.7-2.2-.8-.9-.1-1.3 0-1 .4m-52.4 2c0 .8.3 1.2.7.9.3-.4 1.2-.2 1.8.3.9.7 1.4.6 1.8-.4.4-.9-.3-1.6-1.9-1.9-1.7-.3-2.4 0-2.4 1.1m10-.1c0 .8.5 1.3 1.2 1.1 1.8-.6 2.1-2.5.3-2.5-.8 0-1.5.7-1.5 1.4M22 71c0 .6.7 1 1.5 1s1.5-.2 1.5-.4-.7-.6-1.5-1c-.8-.3-1.5-.1-1.5.4m39.8-.3c.6.2 1.2 1.1 1.2 1.8 0 .8.5 1.7 1.2 2.1s.8.3.4-.4-.2-1.2.5-1.2.4-.7-.7-1.5c-1-.8-2.3-1.4-2.9-1.4-.5 0-.4.3.3.6m8.1.2c1 .6 1.1 1.3.2 2.9-.8 1.5-.8 2.3.1 2.8.6.4.8.3.4-.4-.3-.5 0-1.2.6-1.5 1.9-.6 3.9.4 3.1 1.6q-.45.9.6.3c1.7-1.1-.7-3.9-2.7-3.1-1.2.4-1.2.3-.3-.9.9-1.1.8-1.5-.5-2-2.3-.9-3.1-.7-1.5.3m24.1.2c0 .5.5.7 1 .4.6-.3 1-.8 1-1.1 0-.2-.4-.4-1-.4-.5 0-1 .5-1 1.1m-68.4 2.4c-.3.9 0 1.5.9 1.5s1.2-.6.9-1.5c-.4-.8-.7-1.5-.9-1.5s-.5.7-.9 1.5m18.6 0c-2.5 1.3-1.8 2.7.8 1.6 1.1-.5 2.9-3.4 1.8-3-.2.1-1.4.7-2.6 1.4m-9.6.4c-1.9.7-1.9.8.2 1.3 1.2.4 2 .2 1.7-.2-.3-.5.1-1.1.7-1.3.7-.3.9-.5.3-.6-.5 0-1.9.4-2.9.8M83 74c-.9.6-1 1-.3 1 .6 0 1.5-.5 1.8-1 .8-1.2.4-1.2-1.5 0m-44 1c-.9.6-1 1-.3 1 .6 0 1.5-.5 1.8-1 .8-1.2.4-1.2-1.5 0m5 9.7c0 .5.5 1.5 1 2.3.7 1.2.9 1 .7-.8-.1-1.9-1.7-3.3-1.7-1.5m23 2.4c0 .5.5.7 1 .4.6-.3 1-.8 1-1.1 0-.2-.4-.4-1-.4-.5 0-1 .5-1 1.1m-20 1c0 .5.5.7 1 .4.6-.3 1-.2 1 .4 0 .5-.6 1.2-1.2 1.4-.8.3-.6.6.5.6 1.1.1 1.7-.6 1.7-1.9 0-1.1-.7-2-1.5-2s-1.5.5-1.5 1.1m13-.2c0 .5-.3 1.8-.6 2.8-.5 1.5-.4 1.5.5.3.7-1 1.1-1.1 1.1-.3 0 .7.5 1.3 1.1 1.3.8 0 .7-.5-.2-1.6-1-1.3-1-1.7.2-2.5 1.1-.7 1.1-.9-.3-.9-1 0-1.8.4-1.8.9M0 91.6c0 1.4.4 2.3 1 1.9 1.3-.8 1.3-4.5 0-4.5-.5 0-1 1.2-1 2.6m53.8-.9c.7.3 1.6.2 1.9-.1.4-.3-.2-.6-1.3-.5-1.1 0-1.4.3-.6.6"/>
</g><path fill="#BFBF80" d="M33.8 14.7c.6.2 1.8.2 2.5 0 .6-.3.1-.5-1.3-.5s-1.9.2-1.2.5m19.5 0c1.5.2 3.7.2 5 0 1.2-.2 0-.4-2.8-.4-2.7 0-3.8.2-2.2.4m14.5 0c.7.3 1.6.2 1.9-.1.4-.3-.2-.6-1.3-.5-1.1 0-1.4.3-.6.6m4 0c.7.3 1.6.2 1.9-.1.4-.3-.2-.6-1.3-.5-1.1 0-1.4.3-.6.6m6.5 5.7c.1 1.7.9 3.1 1.7 3.3 1 .3 1.1.2.4-.4-.7-.4-1.4-1.9-1.7-3.3-.4-2.2-.5-2.1-.4.4m-47.3 1c0 .8-.6 1.7-1.2 1.9-.8.3-.6.6.5.6 1.1.1 1.7-.6 1.7-1.9 0-1.1-.2-2-.5-2s-.5.6-.5 1.4m-8.4 2.5c-.4.5.3.7 1.4.4 2.3-.6 2.6-1.3.6-1.3-.8 0-1.7.4-2 .9m62.2-.2c.7.3 1.6.2 1.9-.1.4-.3-.2-.6-1.3-.5-1.1 0-1.4.3-.6.6M33.2 31c0 1.9.2 2.7.5 1.7.2-.9.2-2.5 0-3.5-.3-.9-.5-.1-.5 1.8m-18.4 1.7c.6.2 1.8.2 2.5 0 .6-.3.1-.5-1.3-.5s-1.9.2-1.2.5m31.5 0c1.5.2 3.7.2 5 0 1.2-.2 0-.4-2.8-.4-2.7 0-3.8.2-2.2.4m11.5 0c.6.2 1.8.2 2.5 0 .6-.3.1-.5-1.3-.5s-1.9.2-1.2.5m5 0c.7.3 1.6.2 1.9-.1.4-.3-.2-.6-1.3-.5-1.1 0-1.4.3-.6.6m6.8 0c.7.4 1.4 1.7 1.7 2.8.5 1.6.5 1.5.4-.4-.1-1.4-.9-2.6-1.7-2.8-1-.3-1.1-.2-.4.4m24.4 0c1.4.3 2.9 1 3.3 1.7.6.7.7.6.4-.4-.2-.8-1.6-1.6-3.3-1.7-2.5-.1-2.6 0-.4.4m-69.2 1c.6.2 1.8.2 2.5 0 .6-.3.1-.5-1.3-.5s-1.9.2-1.2.5m54 1c.7.3 1.6.2 1.9-.1.4-.3-.2-.6-1.3-.5-1.1 0-1.4.3-.6.6m7.5 4.8c0 2.2.2 3 .4 1.7.2-1.2.2-3 0-4-.3-.9-.5.1-.4 2.3m-8.8.2c1.6.3 3.4 1 3.8 1.6.6.8.7.7.4-.3-.2-.9-1.7-1.6-3.8-1.6-3.1-.2-3.1-.1-.4.3M6 42.4c0 .2 1.5.6 3.4.8s3.2 0 3-.4c-.5-.8-6.4-1.2-6.4-.4m91.3 1.1c-.3.9-.3 1.9.1 2.2.3.4.6-.1.6-1 0-1.2 1.2-1.7 4.8-2l4.7-.3-4.8-.2c-3.5-.2-4.9.2-5.4 1.3m-80.5.2c1.2.2 3 .2 4 0 .9-.3-.1-.5-2.3-.4-2.2 0-3 .2-1.7.4m73.5 0c.9.2 2.5.2 3.5 0 .9-.3.1-.5-1.8-.5s-2.7.2-1.7.5m6.8 4.9c0 1.1.3 1.4.6.6.3-.7.2-1.6-.1-1.9-.3-.4-.6.2-.5 1.3m-67 3c0 1.1.3 1.4.6.6.3-.7.2-1.6-.1-1.9-.3-.4-.6.2-.5 1.3M79.2 53c0 1.9.2 2.7.5 1.7.2-.9.2-2.5 0-3.5-.3-.9-.5-.1-.5 1.8m10.9.6c0 1.1.3 1.4.6.6.3-.7.2-1.6-.1-1.9-.3-.4-.6.2-.5 1.3m-79.4 3.1c-.9.9-.9 9.1.1 9.6.4.3.7-1.9.7-4.9s0-5.4-.1-5.4c0 0-.4.3-.7.7m4.1 0c.6.2 1.8.2 2.5 0 .6-.3.1-.5-1.3-.5s-1.9.2-1.2.5m31 0c.7.3 1.6.2 1.9-.1.4-.3-.2-.6-1.3-.5-1.1 0-1.4.3-.6.6m10 0c.7.3 1.6.2 1.9-.1.4-.3-.2-.6-1.3-.5-1.1 0-1.4.3-.6.6m-30 2c.7.3 1.6.2 1.9-.1.4-.3-.2-.6-1.3-.5-1.1 0-1.4.3-.6.6m57 0c.6.2 1.8.2 2.5 0 .6-.3.1-.5-1.3-.5s-1.9.2-1.2.5m-62.5 4.8c0 2.2.2 3 .4 1.7.2-1.2.2-3 0-4-.3-.9-.5.1-.4 2.3m6.7 1.4c0 .5.9.7 2 .4s2-.7 2-.9-.9-.4-2-.4-2 .4-2 .9m52.8-.2c.6.2 1.8.2 2.5 0 .6-.3.1-.5-1.3-.5s-1.9.2-1.2.5m-8.6.9c.9.3 1.9 1.3 2.2 2.2.3 1.2.4 1.2.3-.3-.1-1.2-1-2.1-2.2-2.2-1.5-.1-1.5 0-.3.3m11 3.9c0 1.6.2 2.2.5 1.2.2-.9.2-2.3 0-3-.3-.6-.5.1-.5 1.8M60 70c.6 1.1 1.3 2 1.6 2 .2 0 0-.9-.6-2s-1.3-2-1.6-2c-.2 0 0 .9.6 2m-30.7 4.7c.9.2 2.3.2 3 0 .6-.3-.1-.5-1.8-.5-1.6 0-2.2.2-1.2.5m47.5 0c1.2.2 3 .2 4 0 .9-.3-.1-.5-2.3-.4-2.2 0-3 .2-1.7.4M43.3 80c0 2.5.2 3.5.4 2.2.2-1.2.2-3.2 0-4.5-.2-1.2-.4-.2-.4 2.3m22.9-2c0 1.4.2 1.9.5 1.2.2-.6.2-1.8 0-2.5-.3-.6-.5-.1-.5 1.3M50.8 90.7c.7.3 1.6.2 1.9-.1.4-.3-.2-.6-1.3-.5-1.1 0-1.4.3-.6.6"/>
<path fill="#BF8040" d="M77.6 16.3c.3 1 .9 1.5 1.2 1.2s0-1.1-.7-1.8c-1-.9-1.1-.8-.5.6m-50.8 7.4c.7.3 1.6.2 1.9-.1.4-.3-.2-.6-1.3-.5-1.1 0-1.4.3-.6.6m55 0c.7.3 1.6.2 1.9-.1.4-.3-.2-.6-1.3-.5-1.1 0-1.4.3-.6.6m-49.4 1.8c-.4.9-.4 1.9 0 2.2.3.4.6-.1.6-1 0-1.5 2.1-1.7 21.9-1.7 14 0 22.1.4 22.4 1s.4.5.3-.2c-.2-1-5.4-1.4-22.5-1.6-19.3-.2-22.2 0-22.7 1.3m54.8 2.7c-.2 4.5-.3 4.7-3.4 5.1l-3.3.4 3.3.1c3.8.2 4.5-.9 3.9-6.4-.3-3.8-.4-3.7-.5.8m-64.9.8c0 2.5.2 3.5.4 2.2.2-1.2.2-3.2 0-4.5-.2-1.2-.4-.2-.4 2.3m54.9 1c0 1.4.2 1.9.5 1.2.2-.6.2-1.8 0-2.5-.3-.6-.5-.1-.5 1.3m-48.4 3.7c.7.3 1.6.2 1.9-.1.4-.3-.2-.6-1.3-.5-1.1 0-1.4.3-.6.6m-5.8 5c-.3 2.9-.1 4.8.3 4.4.5-.5.7-2.8.5-5.2l-.3-4.4zm74-.3c0 2.4-.5 3.6-1.7 3.9-1.4.4-1.2.5.5.6 1.9.1 2.2-.4 2.2-3.9 0-2.2-.2-4-.5-4s-.5 1.5-.5 3.4m-84.8.8c-.2 3.4.1 3.8 2.1 3.7 1.5-.1 1.7-.3.5-.6-1-.2-1.8-1.7-2.1-3.6-.4-3.1-.4-3.1-.5.5M39 37.9c0 1.1-.6 2.2-1.2 2.4q-1.5.6 0 .6c.7.1 1.2 1.6 1.2 4.1v4h-8.9l-.4-4.3-.4-4.2.1 4.5.1 4.5h10l.3-3.8.3-3.7h15.2c8.4 0 15.7-.4 16.4-.8.6-.4-6.4-.6-15.7-.4l-16.7.3.4-2.5c.3-1.4.3-2.6-.1-2.6-.3 0-.6.9-.6 1.9M70.2 45c0 1.4.2 1.9.5 1.2.2-.6.2-1.8 0-2.5-.3-.6-.5-.1-.5 1.3m37 1c0 1.9.2 2.7.5 1.7.2-.9.2-2.5 0-3.5-.3-.9-.5-.1-.5 1.8m-94.9 1.5c0 2.2.2 3 .4 1.7.2-1.2.2-3 0-4-.3-.9-.5.1-.4 2.3m67.8-1.2c-.1 2.8-.2 2.9-5 2.5-2.7-.1-4.7 0-4.4.4.2.5 2.4.8 4.9.8 4.7 0 6-1.2 5.1-4.7-.3-1.1-.5-.8-.6 1M2.2 47c0 1.4.2 1.9.5 1.2.2-.6.2-1.8 0-2.5-.3-.6-.5-.1-.5 1.3m44.6 1.7c1.2.2 3.2.2 4.5 0 1.2-.2.2-.4-2.3-.4s-3.5.2-2.2.4m16 0c.6.2 1.8.2 2.5 0 .6-.3.1-.5-1.3-.5s-1.9.2-1.2.5m-42.3 1.2c-.3.5-.4 3-.3 5.6 0 2.5.4 4.2.7 3.7.3-.6 1.5-1.2 2.6-1.5 1.7-.4 1.7-.5-.4-.6s-2.3-.5-1.9-4.1c.4-4.2.3-4.6-.7-3.1m45.1 6.3c-.8 6.8-.4 8.9 1.7 8.7q1.35 0 0-.6c-.7-.2-1.3-2-1.3-3.9 0-3.3.1-3.4 3.9-3.4 2.2 0 4.2.5 4.4 1.2.3.8.6.6.6-.5.1-1.3-.7-1.7-3.8-1.7-3.7 0-4-.2-4.3-3.3-.3-2.3-.6-1.3-1.2 3.5m-22.5-3c-.1 1.9-.7 2.8-2.3 3.1l-2.3.4 2.3.2c2.5.1 3.6-1.7 2.9-4.6q-.45-1.8-.6.9m56.2-.5c.9.2 2.3.2 3 0 .6-.3-.1-.5-1.8-.5-1.6 0-2.2.2-1.2.5M28 57c-1.3.8-1.2 1 .3 1 .9 0 1.7-.5 1.7-1 0-1.2-.1-1.2-2 0m21.8-.3c1.2.2 3 .2 4 0 .9-.3-.1-.5-2.3-.4-2.2 0-3 .2-1.7.4m9 0c.6.2 1.8.2 2.5 0 .6-.3.1-.5-1.3-.5s-1.9.2-1.2.5m28 1c.7.3 1.6.2 1.9-.1.4-.3-.2-.6-1.3-.5-1.1 0-1.4.3-.6.6m-51.6 2.8c0 1.6.3 5 .7 7.5.6 3.3.9 3.7.9 1.5 0-1.7-.3-5-.7-7.5-.6-3.3-.9-3.7-.9-1.5m63.9.7c0 .9-.4 2.5-.7 3.5-.5 1.7-.5 1.7.6 0 .6-1 .9-2.5.7-3.5-.4-1.5-.5-1.5-.6 0M42.5 64c-1.6.7-1.7.9-.3.9.9.1 2-.4 2.3-.9.7-1.1.7-1.1-2 0M90 65.2c0 1.4.8 1.8 3.8 1.7 3.4-.2 3.4-.2.7-.6-1.6-.3-3.3-1-3.7-1.6-.5-.8-.8-.6-.8.5m-76.7 1.5c.9.2 2.5.2 3.5 0 .9-.3.1-.5-1.8-.5s-2.7.2-1.7.5m37.3 2.1c-.2.4 1.2.6 3.2.4 5.6-.5 6.2-1 1.5-1.1-2.3-.1-4.4.3-4.7.7m-3.3 4.1c-.3 1.1-1.2 2.2-2.2 2.4-1.4.4-1.4.5.2.6 1 0 2.1-.7 2.4-1.7.4-.9 1.1-2 1.7-2.4.7-.5.6-.8-.2-.8s-1.6.9-1.9 1.9m14.7 0c0 1.1.4 2.2.9 2.5.4.3.6-.6.3-1.9-.5-3-1.2-3.3-1.2-.6M50.1 88.6c0 1.1.3 1.4.6.6.3-.7.2-1.6-.1-1.9-.3-.4-.6.2-.5 1.3m9 0c0 1.1.3 1.4.6.6.3-.7.2-1.6-.1-1.9-.3-.4-.6.2-.5 1.3"/>
<g fill="#BF8000" stroke-width="0">
<path d="M32.5 15.9c-.3.2-.5 2.2-.5 4.3V24h-9v8.9l-4.7.3-4.8.3-.3 4.1c-.3 4.5.8 5.4 7 5.4 2.5 0 2.7-.3 3-4.8l.3-4.7 4.8.1h4.8l-.3-4.5-.3-4.6h45l.1 4.5.1 4.5 4.6-.3 4.7-.4v5.1c0 4.9.1 5.1 2.8 5.1 6.1 0 7.2-.9 7.2-5.7v-4.5l-3.7.3c-6.2.3-6.3.2-6.3-4.6V24h-8.9l-.3-4.3-.3-4.2-22.3-.1c-12.2 0-22.5.2-22.7.5"/>
<path d="M39.9 33.8c-.1.4-.2 2-.3 3.7-.1 2.9-.2 3-4.8 2.7l-4.8-.4v9.1l-4.2.3c-4.2.3-4.3.4-4.6 4l-.3 3.8H11v9h8.9l.3-4.3c.3-4.1.4-4.2 3.8-4.2 4.8-.1 6-1.1 6-5.1 0-3.4 0-3.4 4.5-3.4H39v-8h32.2l-.4 3.7-.3 3.8 4.8.3c4.6.3 4.7.4 4.7 3.6 0 4.2 2 6 5.9 5.1 3.1-.7 4.5.5 4.7 4 .2 4.2.4 4.5 3.9 4.5 2.8 0 3.6-.4 4.1-2.4 1.1-4.6-.3-6.6-4.7-6.6-3.6 0-3.9-.2-3.9-2.8 0-3.8-1.7-5.2-6.3-5.2h-3.9l.7-4.6.7-4.7-5.1.5c-3.3.3-5.1.1-5.2-.6-.1-.6-.2-2.2-.3-3.6l-.1-2.5-15.2-.2c-8.4-.1-15.4.1-15.4.5m-37 9.9c-.3 2.6-.1 7.5.4 8 .4.3 2.3.6 4.4.7l3.8.1.3-4.8.3-4.7H7.6c-2.6 0-4.6.3-4.7.7M98 47.4c0 4.2.2 4.4 3.3 4.9 3.9.6 7.1-.9 6.3-3-.3-.8-.6-2.6-.6-3.9 0-2.2-.4-2.4-4.5-2.4H98z"/>
<path d="M48.8 48.7c-4.6.4-4.7.5-5 4.1-.3 3.5-.5 3.7-4 4-3.7.3-3.8.4-3.8 4.3s0 3.9-4 3.9h-4v9.1l3.8-.3c3.6-.3 3.7-.4 4-4.6.3-3.8 1-4.7 3.4-4.3.4 0 1.9-.4 3.3-.9 2.2-.8 2.6-1.5 2.3-4.2l-.3-3.3 10.8-.3 10.7-.3v-3.3c0-4.5-2.3-5.1-17.2-3.9M66 60.4c0 3.6 1.2 4.6 5.5 4.6 2.1 0 2.4.5 2.7 4.2.3 4.2.4 4.3 4.1 4.6l3.7.3v-4.5c0-4.5 0-4.5-3.7-4.8-2.7-.2-3.7-.7-3.5-1.7.2-.8.1-2.5-.3-3.8-.4-1.9-1.2-2.3-4.5-2.3-3.9 0-4 .1-4 3.4M49.9 70.8c-.8 1-1.8 2.6-2.2 3.5-.3.9-1.3 1.7-2.2 1.7-1.1 0-1.5 1-1.5 3.5 0 2.4.5 3.5 1.5 3.5.8 0 1.5.9 1.5 2 0 1.3.7 2 2 2 1.1 0 2 .6 2 1.4 0 .9 1.3 1.3 4 1.3s4-.4 4-1.3c0-.8.9-1.4 2-1.4s2-.7 2-1.5c0-.7.7-1.8 1.6-2.3 2-1.1 1.6-7.8-.4-7.4-.8.1-1.6-.7-1.9-1.8s-.9-2-1.4-2-.9-.7-.9-1.5c0-2.3-8.1-2-10.1.3"/></g></svg>