<svg xmlns="http://www.w3.org/2000/svg" version="1.0" viewBox="0 0 288 97">
<g fill="#ffa76b" stroke-width="0">
<path d="M0 48.5V97h288V0H0zM15 4.6c0 .1-.7 1-1.6 1.8-.8.9-1.1 1.6-.5 1.6.5 0 1.7-.9 2.5-2.1s1.9-1.8 2.6-1.4.8 1.1.1 1.8c-.6.9-.2 1.2 1.5 1.3 2.5.2 3.3-1.1 1.2-1.9-.7-.3-.3-.4.9-.4 1.2.1 2 .4 1.7.9-.2.4 1.2 1 3.3 1.4s4.1 1.1 4.4 1.6.9.2 1.2-.7c.5-1.1.3-1.4-.6-1-.6.4-.4 0 .5-.8 1-.8 1.6-1.6 1.3-1.8-.2-.3.8-.6 2.3-.7l2.7-.2L36 6c-1.4 1.1-2.3 2-2 2.1 4.3.9 7.9-.2 4.8-1.4-.8-.3-.6-.6.5-.6.9-.1 1.7.3 1.7.8s1.3.8 2.9.7c2.6-.2 2.8 0 2.1 1.9s-.5 2 3.6 1.8c3.9-.2 4.4 0 4.5 2 .1 1.7.2 1.8.6.4.2-.9.9-1.5 1.4-1.2.5.4.9.1.9-.5s.5-.8 1.3-.4c.9.6.9.4-.1-.8-1-1.3-1-1.9.3-3.1.9-1 1.1-1.8.5-2.2-.6-.3-1.3.1-1.6.9-.9 2.3-2.3 2-1.7-.4.7-2.6 4-2.6 4.8-.1.4 1.3 1.1 1.8 2.2 1.4 1.4-.6 1.4-.7-.3-1.4-2.1-.8-1.2-1.1 4.2-1.3 2.1-.1 3 .3 2.7 1.1-.3.7-1 1-1.7.6-.6-.3-.7-.2-.3.2.9 1.1 3.7 1.6 3.6.7-.3-1.8.2-3.2 1.1-3.2.5 0 .7.7.4 1.5-.4.8-.1 1.5.6 1.5.6 0 .8.6.4 1.2-.5 1-.4 1 .6.1.7-.6 1.8-.9 2.5-.6.8.3 1.5-.5 1.8-1.9s.5-.9.6 1.6l.1 3.9-2.2-1.9c-1.3-1-1.8-1.2-1.2-.4 1.7 2.3 2.4 5 1.4 5-.5 0-1-.6-1.2-1.3-.2-.9-.8-.8-2 .5-1.7 1.7-1.7 1.8.5 1.9 1.2.1 2.7.1 3.2 0 .6-.1.1.5-.9 1.4-1 .8-2.2 1.2-2.7 1-.4-.3-1.1 0-1.5.6-.4.8-.3.9.4.5s1.2-.3 1.2.3c0 .5-.3 1.1-.7 1.4-.5.2-.2.2.5.1.6-.2 1.2.1 1.2.6 0 .6-.6 1-1.4 1s-1.4.8-1.3 1.9c.1 1.2.7 1.7 1.9 1.3 1-.2 1.5-.8 1.2-1.3s0-.9.5-.9c1.6 0 1.3 1.8-.4 2.8-1.6.8-1.1 4.2.6 4.2.4 0 .6-.7.3-1.5-.6-1.6.4-2 2.1-.7 1.4 1 1.8 4.2.5 4.2-.6 0-.8.4-.5 1 .3.5.1 1-.4 1-.6 0-1.1-.7-1.1-1.5s-.4-1.5-1-1.5c-.5 0-.6.7-.3 1.7.4 1 .2 1.4-.5.9-.6-.3-1.3-.2-1.6.3s.3 1.1 1.4 1.4 2 1.3 2 2.3c0 1.6-.1 1.6-1.5-.2-1.5-2-1.9-1.6-.9 1 .3.9 1.5 1.6 2.5 1.6 2 0 2.6 1.5.9 2.5-.6.3-1 0-1-.7 0-.9-.3-.9-1 .2-.8 1.3-1 1.3-1-.1 0-.9-.6-2.1-1.2-2.7-1-.8-1.3-.4-1.4 1.4-.1 1.3.2 2.4.8 2.4.5 0 .6.5.2 1.1-.3.6 0 1.5.7 2 1.1.7 1 .9-.3.9-1 0-1.8.5-1.8 1.1 0 .5.5.7 1.2.3.7-.5.9-.2.5.8-.3.9 0 2.1.6 2.7.8.8.7 1.1-.6 1.1-1 0-1.7.8-1.7 2 0 1.3.5 1.8 1.5 1.4 1.1-.5 1.3-.2.9 1-.3.9-1.1 1.3-1.6 1-.6-.4-.8-.1-.6.7.3.8 1.2 1.3 2.1 1.3.9-.1 1.5.2 1.2.6-.9 1.5 2.4 1.9 3.5.4 1.5-1.6 3-1.9 3-.3 0 .5-.5.7-1.2.3q-1.05-.75-.3.6c.6 1 1.1.9 2.1-.4.7-1 1.8-1.5 2.3-1.1.6.3 1.4-.1 1.7-.9.3-.9.9-1.4 1.3-1.2.3.2 1.4-.2 2.4-.9 1.3-.9 1.5-1.5.6-2-.6-.4-1.5-.2-1.9.5-.5.7-1 .8-1.4.2-.9-1.5 2.4-7.3 3.7-6.5.7.4.7 0-.1-.9s-2-1.4-2.8-1.1c-1.7.6-1.8-1.5-.3-3.7.9-1.3 1-1.2.5.2-.7 2.3.7 2.3 2.5.1.8-.9 1-1.4.4-1.1-.5.3-1.6 0-2.3-.8-1.1-1.2-.9-1.4 1-1.5 1.3 0 1.7-.3 1-.6-.6-.2-.9-.9-.6-1.5.4-.7 0-.6-1.3 0-1.7.9-2 .7-2.1-1.9-.3-5.1-.5-5.9-1.4-5.9-.5 0-.7-.4-.4-.9s-.2-1.2-1.1-1.5c-1.5-.6-1.5-.8-.3-1.7 1.3-.8 1.3-1 0-1.9-.8-.5-1-1-.5-1 .6 0 .3-.4-.5-1-1.9-1.2-.8-2.2 3.2-2.6q3.45-.45 1.8.6c-.8.5-1.2 1.2-.8 1.5.3.3 1.2 0 1.9-.7 1.5-1.4 2.4-1.5 5.2-.5 3.7 1.5 4.7 1.6 4.7.7 0-.5.9-.7 2-.5s2 0 2-.4.7-.8 1.5-.8 1.5.7 1.5 1.5c0 1 .7 1.2 2.3.8 2.1-.5 2.3-.2 2.3 3.9-.1 2.5-.5 4.5-.9 4.5-.5 0-.7.6-.4 1.3.3.8.1 2-.5 2.8-.8 1.1-.9 1.1-.5-.2.3-.9 0-2.2-.6-2.8-.8-.8-.7-1.1.3-1.2 1 0 .8-.3-.4-.8-1.7-.7-1.7-.8-.2-2.4 1-.9 1.4-1.7.9-1.7-.4 0-.1-.5.7-1.1 1.3-.9 1.3-1 0-.7-.8.3-2.1 1.7-2.8 3.2-.9 1.8-1.7 2.4-2.5 1.8-1.9-1.5-5.2.1-5.3 2.5-.1 1.3.3 2 .7 1.7.5-.3.9-.1.9.5 0 .5-.5 1.3-1.1 1.7-.8.4-.7.9.2 1.4.7.5 1.4 1.8 1.6 3s-.1 1.9-.7 1.5c-.5-.3-1-.3-1.1.2-.6 6.1-.6 7.2.2 6.8.5-.4.9 0 .9.7 0 1 .3.9 1.1-.2.9-1.2 1-1.1.6.7-.3 1.2 0 2.4.7 2.6.6.2.8.7.5 1.1-.3.3-1.5-.3-2.7-1.4-1.5-1.4-2.2-1.6-2.2-.7 0 .7.5 1.8 1.1 2.4.8.8.8 1.7-.1 3.3-.6 1.2-.9 2.4-.6 2.8.3.3.6 0 .6-.6 0-.7.9-1.2 2-1.2 2.1 0 2.7 1.9 1 3.6-.6.6.1 1.4 2 2.1 2.4.9 3 .9 3-.2 0-.8-.6-1.5-1.2-1.8-.7-.2-.5-.3.5-.2.9.2 1.7-.2 1.7-.8.1-1.4 2.3 2.2 2.6 4 .3 2.1-.6 1.5-1.6-1-1-2.2-1-2.2-.7.3.1 1.9.7 2.4 2.4 2.3 1.2-.2 2.4.3 2.6 1 .2.6.3.4.2-.5-.2-.9.4-1.9 1.2-2.2.8-.4 1.3-1.3.9-2.1-.3-.8-.2-1.5.2-1.6.4 0 1.7-.2 3-.5 2.7-.5 2.9 1.2.2 2.8-2.8 1.8-2.5 3.8.7 3.8 2 0 2.4-.3 1.6-1.1-1.6-1.6 1.3-5.9 3.8-5.9 1.1 0 1.9-.7 1.9-1.5s.4-1.5.9-1.5c1.3 0 1.9-5.7.8-7.2-.6-1-.8-.9-.4.3.3.9.1 2.2-.4 3-.6 1-.9.4-.9-1.9 0-1.7.5-3.2 1-3.2.6 0 1-.5 1-1.1 0-.5-.6-.7-1.2-.3-1 .6-1 .4 0-.7.6-.7 1.2-2 1.2-2.8 0-1.2-.2-1.3-.9-.3-.5.8-.8 0-.9-2.3-.1-2 .2-3.4.6-3.1s1.4.1 2.2-.5c1.1-.6.6-.9-1.7-.9-2.7 0-3.3-.4-3.4-2.3-.1-2.1-.1-2.1-.9.3-.9 2.8-1.1 2.7-1.4-1.2-.1-2 .2-2.5 1.3-1.9 1.7 1 5.1.2 5.1-1.1 0-.6-1.1-.7-2.6-.4-1.7.5-2.3.3-1.9-.4s-.2-.7-2 0c-1.5.6-2.8 1-2.9 1-.5 0 .1-4 .7-4.6.4-.4.4-1.8.1-3-.7-2.7.7-3.2 2.6-.9 1.1 1.4 1.5 1.4 2.9 0 1.5-1.3 2-1.3 3.9.1 1.9 1.3 2.3 1.3 2.8.1.5-1.4 3.4-2 3.4-.7 0 .4.8.7 1.8.7 5.3 0 5.3 0 5.1 5.5-.1 2.9-.4 6.1-.6 7-.5 2.2-3 2.4-3 .3 0-.9.6-1.4 1.4-1.1.7.3 1.3-.1 1.3-1s-.5-1.2-1.2-.8c-.8.5-.9.2-.5-.9.3-.9.2-1.9-.3-2.2-.6-.4-1-.1-1 .4 0 .6-.7 1.1-1.5 1.1s-1.5.3-1.6.7c-.4 2.8-.3 5.8.1 6 .3.1 1.7.6 3.3 1.2q2.7 1.05 2.7 0c0-.6.5-.7 1-.4 1.4.9 1.2 2.6-.2 2.2-.7-.1-1.3.4-1.4 1-.1.7-.2 1.7-.3 2.3 0 .5-.6 1-1.2 1s-.7-.5-.2-1.3c1.1-1.8 1.2-3.7.2-3.7-.5 0-.9.6-.9 1.4 0 1.8-2.7 2.9-3.3 1.3-.3-.7-.4 2-.4 6 .1 5.4.4 7 1.2 6.3.7-.6 1.5-.7 1.8-.3.4.3 1.3 0 2.1-.6.9-.8 1.6-.8 2-.2.4.5.2 1.2-.4 1.6-2.1 1.3-.9 2.3 1.4 1.2 1.9-.9 2.2-1.6 1.5-2.9-.6-1-.5-1.9.1-2.3.5-.3 1 0 1 .7s.8 1.8 1.8 2.4c1.5 1 1.7.7 1.7-2.8.1-2.1-.3-3.8-.7-3.8s-.7.3-.7.7c.3 2-.2 2.3-1.7.9-.8-.9-2.1-1.3-2.7-.9s-.8 0-.4-1c.3-.9.2-1.9-.4-2.2-1.4-.9-.1-2.5 1.6-1.9 1 .4 1.2 0 .8-1.5s-.1-2.1 1-2.1c.9 0 2.1-.8 2.6-1.7.6-1 1.1-1.4 1.1-.9 0 .4 1.1.1 2.4-.7 2.2-1.5 2.4-1.4 3.2.6.5 1.2.8 3.4.6 4.9-.3 2.5-.7 2.8-4.5 3-2.3 0-4.8.1-5.4.1-.7-.1-1.3.6-1.3 1.3 0 1.2.4 1.2 2.1.3 1.2-.6 3.8-.9 5.9-.7s3.6-.1 3.3-.6 0-.7.8-.4c1.9.6 2 4.8.2 4.8-.8 0-1.1-.5-.7-1.2q.75-1.05-.6-.3c-1 .6-.9 1.1.4 2 .9.7 1.6 1.7 1.5 2.1-.4 2.1.2 2.6 1.6 1.4 1-.8 1.5-.9 1.5-.2 0 .6-.9 1.6-1.9 2.2-2.6 1.3-3.4 1.3-2.5-.2.4-.7.3-.8-.4-.4-1.3.8-.5 3.6 1 3.6.5 0 .7.4.4.8-.3.5.1.9.7.9.7 0 1.4-.9 1.4-1.9.2-2.6 2.8-4.8 5.5-4.7 2.3.1 2.3.1-.2.9-1.4.4-2 .9-1.5.9.6.1.2.8-.8 1.5-1.6 1.2-1.6 1.3.7 1.3 1.7 0 2.3-.4 1.9-1.3-.3-.8 0-1.4.6-1.4 1.6 0 1.4 2.6-.4 4.4-2 1.9-1.9 2.7.2 1.9 1.2-.5 1.4-.3.8.8-2.1 3.6-3.8 4.9-6.1 4.3-1.5-.4-2.4-.2-2.4.6 0 .6-.4.9-1 .5-.5-.3-.7-1.2-.3-2 .4-1.1.1-1.3-1.1-.9-.9.3-1.6.1-1.6-.5s.6-1.1 1.4-1.1c.9 0 1.2-.7.9-1.9-.4-1.5-1.3-1.9-4.2-1.7-3.3.1-3.7-.2-3.4-1.9.2-1.1 0-1.4-.3-.6-.5 1.1-.8 1.1-1.6 0-.7-1.1-.9-.9-.5.7.2 1.2-.1 2.1-.8 2.1-.8 0-1.2-.9-.9-2 .2-1.1 0-1.6-.4-1.3-.7.7-.8 1.1-1.1 3.7 0 .5-.5.8-1 .5-.4-.3-2 .8-3.6 2.5-2.5 2.9-2.6 3.1-.5 2.4 1.5-.5 2-.4 1.6.4-.4.6-.2 1.1.3 1.1.6 0 1-1 .8-2.1-.1-1.2.3-2.3.8-2.6.7-.2 1.1 1.8 1 5.4 0 5.1-.2 5.8-1.9 5.6-1.1-.1-2.6.6-3.3 1.5s-1.3 1.2-1.2.7c.3-2.4-.2-2.7-1.6-.9-1 1.3-1.3 1.4-1 .3.4-1 0-1.6-1-1.6-.9 0-1.4.6-1.1 1.4.3.7.2 1.3-.3 1.3s-1.1-1-1.4-2.2c-.5-1.9-.8-2-2.3-.7-1.2.9-1.5 1-1 .1.4-.7.1-1.2-.8-1.2s-1.6-.4-1.6-.9-.9-1.1-2.1-1.4c-1.3-.3-1.9-.1-1.6.6s1 1.1 1.6 1c1-.3 1.3.4 1 2.3 0 .4.5 1.1 1.3 1.5.9.6.6.9-1 .9-1.3 0-2.1-.4-1.7-.9.3-.5.1-1.3-.5-1.6-.6-.4-.9-.1-.8.6.2.6-.3 1.4-1 1.6-.6.3-1.2-.2-1.2-1 0-1-.7-1.3-1.9-1-1.4.4-2.1-.1-2.4-1.9-.3-1.9-.5-1.8-.6.7-.1 2.8-.4 3.1-3.5 3-1.9 0-3.8-.3-4.2-.8-1.1-1.1-3.6-.9-2.9.3.3.6.1 1-.4 1-.6 0-1.1-.5-1.1-1 0-.6-.5-1-1.1-1-.5 0-.8.4-.4.9.3.6-.4.9-1.5.8-1.2-.1-1.8-.7-1.6-1.4.3-.6 0-1.4-.7-1.7-.7-.4-.2-.4 1-.2 2.7.5 4.1-2.4 1.8-3.6-.8-.5-1.3-1.4-1-1.9.4-.5 1.1-.6 1.7-.3.7.4.8.2.4-.4-.5-.9-1.3-.9-2.6-.2-1.8 1-1.9.7-1.6-3 .3-4-.6-6-2-3.9-.5.8-.9.8-1.4-.1-.6-.9-1.2-.9-2.9.1-2.2 1.4-2.4 2.4-2.3 9.8 0 2.5-.3 3.9-.7 3.3-.4-.7-1.5-1-2.4-.7-1.2.5-1.4.2-1-1.5s.8-1.9 1.5-.8c.6.9.7.5.3-1.1-.4-1.3-.3-2.1.2-1.8 1.1.7 1.1-3.8.1-4.9-.7-.7-1.2 1-.9 3 .3 1.4-2.1 3.6-3.2 2.9q-1.05-.6-.3 1.8c1.4 4.6 1.4 6.6 0 6.6-.7 0-1.1-.3-.9-.7s-.2-.7-1-.7-1.2.4-.9.9c.3.4-.5.8-1.8.8-1.8 0-2-.2-.8-1 1.3-.9 1.3-1 0-1.1-.8 0-2.8-.2-4.5-.4l-3-.3 3 1.4c2.8 1.2 2.9 1.3.6 1.4-1.4 0-3.3-.8-4.4-1.7-2-1.7-2-1.7-1.3.2.6 1.6.5 1.8-.5.7-.7-.6-2.5-1.2-4-1.2-3.1 0-4.8-1.8-2.9-3 .9-.5.9-1.3.1-2.7-.5-1.1-.7-2.3-.4-2.7.3-.3-.1-.6-1.1-.6-2.5 0-1.6-3.1 1.2-4.1 1.3-.5 2.2-.5 2.2.1s-.6 1-1.4 1c-2.3 0-2.7 1.6-.5 1.7 2.1.2 6.3-5.3 5.3-6.9-.3-.4.2-1.1 1-1.4.9-.3 1.6-1 1.6-1.5 0-.4-.6-.6-1.3-.3-.8.3-1.4-.2-1.4-1.1 0-1 .6-1.4 1.6-1 .8.3 1.2.3.8-.1s-.2-1.2.3-1.9c.7-.8.5-1.2-.5-1.2-.8 0-1.2.4-.9.9.3.4 0 .8-.5.8-1.7 0-1.3-1.4 1-3.3 2-1.8 2-1.9.3-3.8-1.3-1.5-1.4-1.9-.3-1.9 1.2-.1 1.1-.3-.1-1.3-1.7-1.4-2.3-5.7-.8-5.7.6 0 .8.7.5 1.5-.4.8-.2 1.7.2 1.9.5.3.8-1.1.8-3.1-.1-3.1.3-3.9 2.3-4.5 2.4-.7 2.3-.7-.3-.4-2.3.3-2.7 0-2.5-1.8.2-1.3-.2-2-.9-1.8-.7.1-1.3-.5-1.3-1.3s.6-1.5 1.4-1.5c.9 0 1.4-.9 1.3-2.1-.1-1.8-.3-1.8-1.3-.4-1.1 1.4-1.2 1.4-1.8-.1q-.6-1.5 1.2-2.1c1.4-.3 3-4.3 1.7-4.3-1.4 0-3.4 1.4-3 2 .6 1-4.2 2.3-5.5 1.5-.5-.3-1.2 0-1.6.6-.5.8.3 1 2.5.7 1.7-.2 3.1-.1 3.1.4 0 .4-1.3.8-2.9.8-1.7 0-3.3.6-3.7 1.2-1 1.6-1.3 4.8-.4 4.8.3 0 .6.9.7 2 .1 1.3-.2 1.8-1 1.3-.8-.4-.8-.1.1.9.8 1.1.9 1.8.3 2.2-.7.5-.7 1.5.1 3.1 1.4 3.2.4 5.8-2.1 5-1.1-.3-2.3 0-2.7.6-.4.8-.3.9.4.5s1.2-.3 1.2.3c0 .5.8 1.2 1.8 1.4.9.3-.1.4-2.4.3-3.8-.2-4.1-.1-3.8 2.1.1 1.2-.2 2.3-.7 2.3-.4 0-.6.7-.3 1.5.4.8.1 1.5-.5 1.5s-1.1-.9-1.1-2-.5-2-1.1-2c-.5 0-.9 1-.7 2.2.2 1.6-.3 2.2-1.9 2.3s-2.3-.4-2.3-1.6c0-1.9-1.7-3.5-2.7-2.5-.3.3 0 1.2.7 2.1s1 1.8.6 2.2c-1.1 1.1-3.5-3-3.6-6 0-1.6-.4-2.6-.9-2.3s-.7 1.5-.4 2.5c.4 1.6 0 2-2.5 1.9-3.4-.1-5.5.9-4.7 2.3.4.5 0 .9-.7 1-.7 0-.4.4.7.9s1.4.9.8.9c-.7.1-1.3.6-1.3 1.2s.6.9 1.4.6c2.1-.8 2.8.4.9 1.8-1.6 1.2-2.7 5.9-1.1 4.9.4-.3.8.2.8 1.1 0 1-.5 1.3-1.2.9s-.8-.3-.4.4c.9 1.6 3.6.3 2.9-1.4-.3-.8 0-1.4.6-1.4s1.1-.5 1.1-1.1-.7-.9-1.5-.5c-.8.3-1.5 0-1.5-.7s1.1-1.3 2.5-1.3c2.1-.2 2.5.2 2 1.6-.4 1.2.1 2.2 1.2 2.9 1 .6 1.3 1.1.8 1.1-.6 0-1.6-.5-2.2-1.1-1.6-1.6-2.2.2-1.1 3.1 1 2.4 1.1 2.4 1.8.5.7-1.7.9-1.7.9-.3.1 1 .6 1.8 1.2 1.8s.8-.7.5-1.6c-.5-1.4-.4-1.5.9-.4 1.1.9 1.9 1 2.8.1 1.8-1.5 1.9 1.8.1 3.9-.7.8-1.3 1.9-1.3 2.5 0 .5-.4 1.1-1 1.3S34 72.7 34 72c0-.6-.4-.9-.9-.6-.5.4-1.2 0-1.4-.6-.3-.7-.4.1-.3 1.9l.3 3.2-5.4-.1c-3-.1-5.6-.5-5.9-1-.3-.4.3-.5 1.3-.2 1.4.5 1.5.4.4-.4-1.6-1.2-4.4-.4-3.5.9.3.5-.2.9-1 .9s-1.7-.4-2.1-1c-.3-.5-2.1-.7-4-.5-3.6.5-5.7-1.1-3.4-2.6 1-.6 1.1-.9.2-.9-.7 0-1.3-.5-1.3-1 0-.7.6-.7 1.9-.1 1.5.9 1.7.7 1.4-1.2-.3-1.7 0-2.3 1.6-2.4 1.2-.1 1.9.2 1.7.6-.3.5.6.6 2 .3 1.9-.3 2.2-.7 1.3-1.8-.6-.8-.8-1.4-.3-1.4.4 0 .3-.5-.4-1.2-1.6-1.6-1.5-3.8.3-5.2 1.6-1.2 1-6-.6-5-.5.3-.9-.2-.9-1.1s.5-1.3 1-1c.6.3 1 .1 1-.4 0-.6-.6-1.1-1.2-1.2-1 0-1-.2-.1-.6.7-.2 1.3-.9 1.3-1.4 0-.6-.4-.8-.8-.5-.5.3-.9-.1-.9-.8 0-.8.6-1.2 1.2-1 1.5.6 1.3-3.2-.3-4.8-1.5-1.5-1.5-5.1 0-6.6.9-.9.9-1.2 0-1.2-.7 0-1.2-.5-1.2-1.1 0-.5.4-.8.9-.5 1.2.8.8-2.7-.4-3.6-.6-.4-.1-.8.9-.8 2 0 2 0 0-1.5-1.9-1.4-1.9-1.4.1-1.5s2-.1.1-1.5c-1.8-1.4-1.9-1.5-.2-1.5 1.2 0 1.6-.5 1.2-1.6-.3-.9-.6-1.9-.6-2.3s-.6-.8-1.2-.8c-.7 0-2.2-.4-3.2-.9-1.2-.4-1.7-.4-1.3.3.3.5 0 1-.7 1-.8 0-1.1-.8-.8-1.9.2-1-.4-2.8-1.3-3.8-1-1.1-1.5-2.3-1.2-2.7.4-.3.7-.1.7.5C8 8.5 8.5 9 9.1 9c.5 0 .7-.5.4-1-.3-.6-.1-1 .5-1s.8-.4.5-1c-.4-.6.1-.7 1.1-.3s1.5.2 1.1-.4c-.3-.5 0-1 .8-1s1.5.2 1.5.3m12.4.6c-.3.4-.1.8.5.8.5 0 1.3-.5 1.6-1 .3-.6 1.1-1 1.6-1 .6 0 .4.7-.5 1.5-1.8 1.9-4.2 1.9-4.9.2-.3-.8.1-1.4.9-1.4.7 0 1.1.4.8.9M47 4.9c0 1.5-3.2 2.3-4.4 1.1-.8-.8-.6-.9.7-.5 1 .4 1.7.2 1.7-.4S45.5 4 46 4c.6 0 1 .4 1 .9m5.4.6c1.1.8 1.5 1.5 1 1.5-.6 0-1.9-.7-3-1.5-1-.8-1.4-1.4-.9-1.4.6 0 1.9.6 2.9 1.4M77 5c0 .5-.5 1-1.1 1-.5 0-.7-.5-.4-1 .3-.6.8-1 1.1-1 .2 0 .4.4.4 1m125.4.2c-.3.4.4 1.6 1.5 2.7 1.8 1.8 1.9 1.8 1.7-.4 0-1.3-.4-2.1-.8-1.8-.5.2-.8 0-.8-.4 0-.5 1.6-.9 3.5-.9 2.5 0 3.1.3 2 .8-1.9 1.1-1.9 2.5 0 2.5.8 0 1.2-.4 1-.8-.3-.4.2-1 1.1-1.3 1.2-.5 1.5-.2 1 1-.5 1.4-.4 1.5.9.4 1.2-1 1.5-1 1.5 0 0 .7-.8 1.9-1.7 2.6-1.4 1.1-1.4 1.3-.3.9 1.3-.5 1.6.4 1.7 4.5 0 2.7-.4 5-.8 5-.5 0-.7-1.1-.3-2.5.4-1.5.2-2.5-.5-2.5-.6 0-.8.6-.5 1.4.4.9-.2 1.3-1.8 1.1-1.3-.1-1.5 0-.5.2 1.8.5 2.4 2.3.6 2.3-.5 0-.7.5-.4 1 .4.6 1.2.7 1.8.4.7-.4.9-.4.5.1-.4.4-.3 1.4.3 2.1q.9 1.2 0 1.8c-.5.4-.6 1.8-.2 3.4.4 1.5.7 3.4.6 4.2s.3 2.3.8 3.4c.6 1.2.5 1.6-.1 1.2-1.7-1-2.1 3.6-.5 6 1.4 2.2 1.4 2.4-.1 3-.9.3-1.3 1-1 1.5s1 .6 1.6.3c.8-.5.9.3.3 2.7-1.3 5.8-1.5 9.9-.4 9.9.5 0 .9.6.8 1.2-.1.7-.1 2.1 0 3.2.1 1.6.3 1.7 1.8.5 1.4-1.2 1.6-1.2.8 0-.6 1.1-.3 1.3 1.3.9 2.3-.6 3.2 1.5 1.2 2.7-.6.4-.7 1.1-.4 1.7.4.6 1 .6 1.7-.1 1.5-1.5 3-1.4 2.1.1q-.75 1.05.6.3c1-.6.9-1.1-.5-2.2-1.1-.7-1.3-1.3-.7-1.3.7 0 1.2-.7 1.2-1.6 0-1.3.3-1.4 1.5-.4s1.9.9 3.8-.3c2.1-1.4 2.3-2.2 2.2-10.7 0-9.5.8-11.4 4.5-10.3 1.2.4 1.2.3.1-.5-.7-.5-2.2-.7-3.2-.5-1.7.5-1.9 0-1.6-3.6.2-2.6-.2-4.6-1-5.2-.9-.8-1.3-.8-1.3 0 0 .6-.5 1.1-1.1 1.1-.8 0-.9-.4 0-1.3.6-.8.7-1.7.3-2.2-.4-.4.3-.2 1.6.4 2.4 1.3 2.7.9 1.2-1.9-.7-1.2-2-1.7-4.3-1.6-3.2.1-3.3 0-3.4-4.1-.1-3.4.1-4.1 1.4-3.6 2.7 1.1 6.8.8 8.1-.5.7-.6 2.3-1.2 3.5-1.2 1.7 0 1.9.2.7.9-.8.6-1.7.8-2.1.5-.4-.2-1.1.1-1.5.7-.5.9.1 1 2 .5 1.5-.4 2.6-.2 2.6.3 0 .6.7.8 1.5.5.8-.4 2.2-.1 2.9.5 1.1.9 1.4.9 1.2-.1-.1-.7-.5-1.8-.9-2.4-.5-.9 1.3-1.2 6.3-1.1 4 0 6.5.4 5.8.9-.7.4-1 .8-.6.8.3 0 1.4.3 2.4.7 1.3.5 1.6.3 1.2-.8-.5-1.3.5-1.5 5.3-1.5 5.5.1 5.8.2 5.4 2.3-.2 1.3-.6 2.7-1 3.3-.3.5-.2 1 .3 1s1.4-1 2.1-2.3c1.1-2.2 1.1-2.2.5.3-.4 1.4-1.1 2.6-1.5 2.8-.5.2-.9.8-.9 1.3 0 .6.9.5 2.1-.2 1.2-.6 1.9-.7 1.6-.1-.7 1.1 3.3 6.6 5.1 7 1.4.2 1.7-3.4.2-4.3-.5-.3-.7-1.2-.3-2 1-2.7 1.8-1.6 2.1 3 .2 4 0 4.5-1.8 4.5-1.3 0-2 .6-1.9 1.7 0 1 .3 1.3.5.6.6-1.3 3.4-.6 3.4.9 0 .5-.5.6-1.2.2-.8-.5-.9 0-.5 1.5.4 1.7.2 2-.7 1.2s-1.2-.6-1.1.9c.1 1.1.5 2.3 1 2.7.4.5.5.2.1-.5-.4-.6-.2-1.2.3-1.2.6 0 1.2.9 1.2 2 .1 1.1.2 3 .3 4.2.2 2.5-1.1 4.8-2.6 4.8-.6 0-.4-.8.3-1.8 1.3-1.6 1.2-1.6-.4-.3-1.8 1.4-1.8 1.6-.1 2.8.9.7 2.1 1 2.7.6.5-.3.8 0 .5.8s.1 2 .9 2.7c.7.8 1 1.8.7 2.3-.3.6-1.1.3-1.8-.7-.7-.9-1.8-1.4-2.4-1-1.9 1.1-1.4 2.6.8 2.6 1 0 2.4.8 3 1.7 1.1 1.7 1.1 1.7.6.1-.4-1.2 0-1.8 1.1-1.8 1.2 0 1.3-.3.4-1.4s-.8-1.5.5-2c2.4-.9 4.4-.7 4.4.5 0 .5-.4.7-1 .4-.5-.3-1.1-.1-1.1.4-.1.6-.2 1.6-.3 2.1 0 .6-.8 1.5-1.6 2.1-1.3.9-1.2 1 .3.5.9-.3 1.7-.4 1.7-.3s-.8 2.4-1.8 5.1c-1.4 3.5-2.1 4.4-2.5 3.2-.4-1-1.1-1.4-1.7-1.1-.6.4-.8 1-.6 1.4.3.3-.4.7-1.4.7s-1.6-.5-1.3-1c.4-.5-.1-.7-1-.3-.9.3-1.8.3-2.1-.1-.6-1-9.1-.6-8.9.4.1.5-1.9.9-4.3.9s-4.4-.3-4.4-.8c0-.4.6-.7 1.4-.7.7 0 1.9-.6 2.5-1.4 1-1.2.8-1.7-.8-2.6-2.3-1.2-2.8-.1-.8 1.9 1 1.1.9 1.3-.3.9-1.9-.6-2.6-5.7-.8-6 .7 0 3.3-.2 5.8-.2 4.4-.1 4.5-.2 4.4-3.3-.1-1.8.2-3 .7-2.7.4.2.6 1.1.2 1.9-.3.8-.1 1.5.4 1.5s.9-1.6 1-3.5c0-2.2-.3-3.3-1.1-2.9-.6.2-.4-.1.5-.7 1.3-1 1.4-1.7.5-4.1-.6-1.5-1.4-2.8-1.8-2.8s-.8-.4-.8-1c0-.5.8-.7 1.8-.3 1.4.5 1.4.3-.3-1.1-1.1-1-1.4-1.5-.7-1.1 1.8.9 1.5 0-.9-2.1-2-1.8-2-1.8-1.3 1.1.4 1.7.3 2.6-.2 2.2s-.9-3.1-1-5.8c-.2-5.4-2.1-9-3.5-6.7-.6.9-.9.9-.9.1 0-.6.4-1.5 1-1.8 1.5-.9-.9-4.1-3-4.1-1 0-1.6.5-1.3 1s.1.6-.5.2c-.7-.4-1.3-2.4-1.4-4.4l-.1-3.7-.4 3.2c-.2 1.8-.8 3.3-1.4 3.3-.5 0-.8 1-.8 2.2.1 1.7.2 1.9.6.5.2-.9.9-1.7 1.4-1.7 1.4 0 1.1.7-1.5 3.4-2.4 2.7-5.1 3.5-4.3 1.3.2-.6 1-1.1 1.7-.9.6.1 1-.2.8-.8-.2-.7-.8-1.1-1.3-1.1-.6 0-1.5-1-2.2-2.2-1.2-2.1-1.2-2-.9 1 .2 2.1-.2 3.7-1.2 4.5-1.3 1-1.4 1-.8 0 .4-.7.2-1.2-.6-1.2-.7 0-2.3-.3-3.6-.6-1.8-.5-2.1-.3-1.6 1 .3.9 1 1.3 1.6 1 .5-.3.2.8-.6 2.5-.9 1.7-1.3 3.1-.9 3.1 1.2 0 1.1 13.4-.1 14.2-.7.5-.6.8.3.8.8 0 1.1.6.7 1.7-.4.9-.1 2 .6 2.5.8.5.9 1.1.3 1.5-.5.5-1 1.5-1 2.3 0 1.7 2.3 3.5 3.2 2.6.4-.3.1-.6-.5-.6-1.8 0-1.4-2.8.6-3.9 1.2-.8 1.3-1 .3-1.1-.8 0-1.2-.2-.9-.5s1.3-.3 2.2.1c1.2.5 1.4 1 .6 1.9s-.8 1.5 0 2c.5.3 1 .1 1-.6s.3-.9.8-.5c1 1 1 6.6 0 6-.4-.3-.8 0-.8.5 0 .6.5 1.1 1 1.1 1.3 0 .9 3.2-.4 4.2-.6.4-1.6-.1-2.3-1s-1.3-1.3-1.2-.7c.3 2.1-.1 3-.9 1.9-.4-.6-2.3-1.4-4.2-1.7s-2.9-.3-2.2 0c2.8 1.1.8 1.8-5.2 1.8-5.2 0-6.3-.3-5.9-1.5.3-1.1.1-1-1 .2-1.5 1.9-3.2 2.5-2.2.8.3-.6-.4-1-1.7-1.1-6.2-.3-8.2-.1-8.6 1-.3.9-.7.9-1.8 0-1-.8-1.4-.8-1.4 0 0 .6-.5 1.1-1.1 1.1-.5 0-.7-.5-.4-1 .3-.6-.3-1-1.5-1s-1.8.4-1.5 1c.9 1.5-.2 1.2-2.4-.6-1-.9-1.6-2.4-1.4-3.4.3-1 0-2.1-.6-2.4-.7-.4-1 0-.8 1.1.1 1-.2 1.9-.8 2-.5.2-1-.5-1-1.4s-.6-1.8-1.4-2.1c-1-.3-1.2.1-.8 1.7.3 1.2.2 3.5-.3 5-.6 2.3-.3 3.3 1.6 5.5 2.3 2.4 2.1 3.9-.2 1.6-.6-.6-1 .2-1.1 2.2-.1 3.1-1.9 5.1-3.7 4.1-.5-.4-.7.1-.3 1 .7 2 1.5 1.9-15 2.3-7.9.2-12.3-.1-12.3-.7s.4-.8.9-.5 1.1-.1 1.5-.9c.4-1.2-.3-1.5-2.9-1.5s-3.3.3-2.9 1.5c.4.8.2 1.5-.4 1.5-.5 0-1.3-.7-1.6-1.6-.4-1.2-1-1.3-1.9-.6-.8.7-1.6.5-2.6-.5-1.2-1.3-1.1-1.4.9-.8 1.6.5 2 .4 1.6-.4-.4-.6-.4-1 .1-.9.4.2.8-.1.8-.7 0-.5-.8-1.1-1.8-1.2-1.2-.2-1.6.1-1.1.9.5 1 .3.9-.7 0-1.2-1.1-1.2-1.5.3-2.3 1-.6 1.4-1.6 1-3.1-.4-1.6-.2-1.9.9-1.2 3.2 2 5.1 1 2.7-1.4-.9-.9-.7-1.2 1-1.2s2.1.5 1.9 2.2c-.1 1.2.4 2.3 1.1 2.4.6.1 1.7.2 2.3.3.6 0 .8.9.4 1.8-.5 1.4-.4 1.5.6.6 2.1-2.1 1.8-3.9-.5-3.9-1.4.1-2.1-.5-2.2-2-.1-1.2-.5-2.8-1-3.5-1.4-2.3-1.3-3.8.3-3.2.8.3 1.2 1.2.9 1.9-.3.8-.1 1.4.5 1.4s.7.4.4 1 .4 1 1.7 1.1h2.3l-2.2.9c-3.1 1.3-2.9 2.4.2 1.6 2.8-.7 3.3 1 1.5 4.5-1 1.8-.8 1.9 2.1 1.4s3.1-.4 2.6 1.7c-.4 1.3-.1 3 .4 3.8 1 1.3 1 1.3.6 0-.2-.8-.1-2.4.3-3.4.5-1.6 1.7-2 6.6-2.1 3.2-.1 6.5.3 7.2.8.8.6 1.2.5 1.2-.4 0-.8-1-2-2.2-2.8l-2.2-1.3 2.5-1.4 2.4-1.3-2.5-.2c-1.8-.1-2-.3-.7-.6 1.1-.3 1.6-1.1 1.3-1.9s-.2-1.3.3-1c.4.3.8-1.1.8-3.2l.1-3.7-1.3 2.9c-1.2 2.9-1.3 2.9-2 .7-.5-1.6-1-2-1.5-1.1-.4.6-1 1.1-1.4 1.1-2-.3-2.6.1-2.6 1.6s.2 1.4 1.6-.3c.9-1.1 1.4-1.3 1.2-.5-.6 2.2-3.9 3.9-4.5 2.3-.3-.6-1.2-1.2-2-1.2-.9 0-1.3.6-.9 1.5.4 1.2-.1 1.5-2.5 1.3-1.7-.1-2.8-.7-2.5-1.3.2-.7-.2-1.2-1-1.2-.7 0-1.1.4-.8.9.3.4-.1.8-.9.8s-1.7-.9-2-2 0-2 .6-2 .3-.6-.6-1.3c-1.5-1.1-1.4-1.4.9-3.4 1.3-1.2 2.8-2.3 3.2-2.5s.6-.7.4-1.1c-.1-.5.2-.6.7-.3s.7 1.5.4 2.6c-.4 1.7-.1 2 2.3 1.9 1.7-.1 2.2-.3 1.2-.6-1-.2-1.8-.9-1.8-1.4 0-.6.9-.7 2.2-.3 2.1.6 2.1.6.5-1-2.1-2.2-2.3-4.3-.2-2.6.9.7 1.5.8 1.5.2 0-.5 1.6-1 3.5-1 2.9 0 3.5.4 3.6 2.1s.2 1.8.6.4c.5-1.8 2.5-2.4 2.1-.6-.2.6.2 1.3.9 1.6.8.3 1.1-.5.9-2.3-.2-1.6-.9-3-1.7-3.2-1.1-.3-1.1-.1.1.8 1.2 1 1.2 1.1.1.8-.8-.3-1.6-1.9-1.8-3.9-.3-2.5-.1-3 .6-1.9 1.1 1.7 1.6 1.4 2.5-1.8.8-2.4-.3-2.9-2.2-1-.9.9-1.2.8-1.2-.6 0-.9.5-1.4 1-1.1.6.3 1.3-.1 1.7-1 .3-1 0-2.1-.7-2.5-1.1-.7-1-1.2.3-2.5 2.1-2 2.1-2.3.2-4.1-1.8-1.8-2-.4-.2 1.5 1 1.1.9 1.3-.3.9-2.1-.6-2.6-4.8-.6-4.8 1.7 0 2-.9.8-2.6-1-1.4-4.5-2.7-3.6-1.3.4.7-.1 1-1.2.7-1.2-.2-1.9-1.1-1.8-2.6.1-1.2-.1-2.2-.5-2.2-1 0-3.1 5.2-2.5 6.1.3.5 0 .9-.5.9-.6 0-1.1-.5-1.1-1.1 0-.8-.4-.8-1.4 0-1 .9-1.6.8-2.6-.4-1.1-1.3-1-1.4.4-.9 1.5.6 2.1-.5 1.7-2.9-.1-.5.3-.6.9-.2.6.3.8 1.1.5 1.6s.1.6 1 .3c1.4-.6 1.3-.9-.5-2.1-1.8-1.3-2.6-1.3-4.6-.3-1.3.7-2.1 1.7-1.7 2.3s-.5.8-2.1.5c-1.9-.4-2.4-.2-1.7.5.6.6.7 1.6.1 2.8-.7 1.1-.7 2 0 2.4.5.3 1-.2 1-1.3 0-2.4.8-3.2 2.5-2.6 1.9.8-2.2 5.4-4.7 5.4-1.9 0-2.4 1.5-.8 2.5.6.3 1 .1 1-.4 0-.6.4-1.1 1-1.1.5 0 .7.7.4 1.5-.7 1.8-4.5 2-4.2.3.2-.7-.4-1.2-1.2-1.3-.9 0-1.5-1.2-1.7-3.4-.2-1.9-.9-4.1-1.5-4.9-1.1-1.3-1-1.4.2-.7.8.4 1.2.5.8 0-.4-.4.1-1.9 1.2-3.2 1-1.3 1.7-3.2 1.4-4.1-.5-1.5-.4-1.5.6.1.6.9 1.6 1.4 2.2 1.1.7-.5.8-.2.3.6-.6.9-.4 1.1.4.5.7-.4 1-1.7.7-2.8-.3-1.2-.1-2.7.5-3.3 1.3-1.6 4.2-.7 3.2 1-.4.6 0 .6.9-.2 1.3-1 1.7-1 2.1 0 .4.8.6.7.6-.5.1-2.1 1-2.2 2.6 0 .9 1.3 1.4 1.3 2 .3.6-.9.4-1.1-.5-.5-.8.5-1.1.4-.6-.3.4-.6 1.3-.9 2.2-.5.8.3 1.2.8.9 1.1s.5 1.2 1.7 2c1.3.7 1.5 1.1.6.8-1.4-.4-1.8 0-1.8 1.7q0 2.25.9.9c.4-.7 1.7-1.4 2.9-1.5 1.4-.1 1.8-.5 1.2-1.3-.7-.7-.3-1.7 1-2.9 1.8-1.7 2-1.7 1.4-.2-.3.9-1 1.7-1.6 1.7-.5 0-.3.7.6 1.5 1.8 1.9 2.7 1.9 2 .1-.3-.8 0-1.7.5-2.1.6-.3.9-1 .7-1.4-.3-.4.7-.8 2.2-.9 2.6-.1 2.7-.1.7 1.4-1.9 1.6-1.9 1.6.5.9 1.4-.4 2.7-1.1 3-1.6.3-.4 2.7-.6 5.3-.5 3 .1 4.6-.2 4.4-.8s-1.3-1.1-2.3-1c-1.5 0-1.9-.8-2-3.8-.1-2.1.3-3.8.8-3.8s.6.5.2 1.2c-.5.8-.2.9.9.5s1.7-.1 1.7.8-.6 1.2-1.7.8c-1.6-.6-1.6-.4.1 1.5 1 1.2 2.3 1.9 2.7 1.6.5-.3.9.1.9.9s.8 2.1 1.8 3c1.7 1.5 1.8 1.5 1.9-.3.1-1.1-.3-1.9-.9-1.7-.6.1-1.2-.6-1.3-1.6-.2-.9.2-1.7.8-1.7.7 0 .4-.5-.5-1.1-1.1-.6-1.5-1.6-1.1-2.6.4-1.1.3-1.4-.5-.9-.7.4-1.2.1-1.2-.8 0-1.1-.9-1.6-2.7-1.6-2.1 0-2.4-.3-1.4-.9 1.1-.7 1.2-1.3.3-2.3-.8-1.1-.7-1.4.8-1.4 1 0 1.6.4 1.4.8M52.3 8.3c.4-.3.7-.4.7-.1s-.8 1.2-1.7 1.9c-1.4 1.2-1.6 1.2-.8 0 .6-1.1.3-1.3-1.4-.8-1.8.4-2 .3-1-.9.8-1 1.5-1.1 2.4-.4.6.5 1.5.7 1.8.3M8.3 15c-.3 1.2-.8 1.9-1.1 1.6-.5-.6.5-3.6 1.2-3.6.2 0 .2.9-.1 2m7.7 3c0 .7-1.3.7-3.8.1-.2-.1-.1-.5.3-1.1.6-1 3.5-.2 3.5 1m-5-.5c0 .2-1 1-2.2 1.6-2.1 1.1-2.2 1.1-.9-.4 1.3-1.6 3.1-2.3 3.1-1.2m67.9 2.7c1.1 1.8 1.1 1.8-1.4.2-2.9-1.9-3-2.1-1.1-2.1.7 0 1.9.9 2.5 1.9m30.1.8c0 .5-.2 1-.4 1-.3 0-.8-.5-1.1-1-.3-.6-.1-1 .4-1 .6 0 1.1.4 1.1 1m54-.6c0 .2-.6.9-1.3 1.5-1 .8-1.4.7-1.4-.4 0-.8.6-1.5 1.4-1.5.7 0 1.3.2 1.3.4m20 .1c0 .2-.7.8-1.5 1.5-1.2 1-1.5 1-1.5-.2 0-.8.7-1.5 1.5-1.5s1.5.1 1.5.2M82 24.8c0 .4-.9.8-2 .8s-2-.4-2-.8.9-.8 2-.8 2 .4 2 .8m-17.8 3.9c-.3 1.6-.7 2.2-1 1.5-.4-1.3.4-4.2 1.1-4.2.2 0 .2 1.2-.1 2.7m92.1 1c-1.1 1-2.2 2.6-2.6 3.5-.3 1-1.2 1.8-1.8 1.8-.8 0-.7-.5.2-1.7 1-1.1 1-1.4.2-.9-.7.4-1.3.4-1.3-.1 0-.8 4.9-4.1 6.4-4.2.5-.1 0 .7-1.1 1.6m119.7-.6c0 .4-.6.9-1.3 1.2-.8.3-1.4 0-1.4-.7s.6-1.3 1.4-1.3c.7 0 1.3.4 1.3.8M83.7 30.9c-.2.9-.9 1.5-1.5 1.3-1.8-.3-1.4 1.6.6 2.8 1.5 1 1.4 1.1-.6.7-1.4-.3-2.6.1-3.2 1.1-.9 1.6-.9 1.6-1-.1 0-.9.4-1.7.9-1.7.8 0 2.4-3.6 2.3-5.1-.1-.3.6-.6 1.4-.6s1.3.7 1.1 1.6m21.5 0c.7-1 .8-.6.5 1.3-.2 1.5.1 2.9.7 3.2.6.2-.1.5-1.6.5-2.2.1-2.5.5-2.1 2.3l.5 2.3-1.7-2.3c-1.8-2.5-1.6-3.2.9-3.6.9-.1 1.5-.6 1.4-1.2-.2-.5-.5-.8-.8-.7s-.7-.8-.7-2c-.2-2.1-.1-2.1.9-.3.8 1.5 1.2 1.6 2 .5m121.3 3c-.9 2.8-2.2 2.7-2.7-.4-.3-1.3-.1-2.2.3-1.9.5.3.9 0 .9-.7 0-1 .3-1 1.1-.2.6.6.8 2 .4 3.2M121 32c0 .5-.2 1-.4 1-.3 0-.8-.5-1.1-1-.3-.6-.1-1 .4-1 .6 0 1.1.4 1.1 1m137.6.2c.5.7.3.8-.6.3s-1-.2-.6 1.3c.6 1.6.3 2.1-1.2 1.9-1.8-.1-1.9-.3-.5-2.4 1.8-2.6 1.9-2.7 2.9-1.1m17.9 1.6c-.8.8-2.5-1-1.9-2q.6-.9 1.5.3c.4.7.6 1.5.4 1.7m-98 1.2c.3.5.1 1-.4 1-.6 0-1.1-.5-1.1-1 0-.6.2-1 .4-1 .3 0 .8.4 1.1 1m-31 2c-.3.5-1 1-1.6 1-.5 0-.9-.5-.9-1 0-.6.7-1 1.6-1 .8 0 1.2.4.9 1m66.6 4.3c-1 .9-1.1.8-.5-.6.3-1 .9-1.5 1.2-1.2s0 1.1-.7 1.8M17 41.4c0 .3-.4.8-1 1.1-.5.3-1 .1-1-.4 0-.6.5-1.1 1-1.1.6 0 1 .2 1 .4m85.6 4.2c-.8 2-2.8 1.3-3.2-1-.2-1.4 0-1.5 1.2-.5 1.1.9 1.4.8 1.5-.7 0-1.1.3-1.4.6-.6.3.7.2 2-.1 2.8m-37.2-1.7c.3.5-.1 1.1-.9 1.5-.9.3-1.5 0-1.5-.9 0-1.6 1.6-2 2.4-.6M77.5 45c-.3.5-.1 1 .6 1s1 .3.6.6c-.9.9-2.8-.6-2.2-1.7.4-.5.8-.9 1.1-.9s.2.4-.1 1m-49 4c-.3.5-1.2 1-1.8 1-.7 0-.6-.4.3-1 1.9-1.2 2.3-1.2 1.5 0m48.1 1.5c.1.8-.4 1.1-1.1.8-.8-.2-1.1-1.1-.8-1.9.6-1.6 1.6-1.1 1.9 1.1M32 51c1.3.8 1.2 1-.3 1-1.4 0-1.7.5-1.2 2 .4 1.2.2 2-.5 2-.6 0-.8-.5-.5-1 .3-.6.2-1-.4-1-.7 0-.8-1.6-.2-3.8.2-.5 1.7-.1 3.1.8m235 1.5c.9 1.1.9 1.5.1 1.5-.7 0-.9.4-.6 1s-.1.7-.9.4c-1.9-.7-2.1.7-.4 2.4.8.8.8 1.2.1 1.2-1.1 0-2.3-2.2-2.3-4.1 0-.5.7-.9 1.5-.9s1.5-.5 1.5-1.1-.7-.8-1.6-.5c-.8.3-1.2.2-.9-.4.9-1.4 2.1-1.2 3.5.5M77.7 54.9c-.9 1.2-.9 1.3.1.7.6-.4 1.2-.3 1.2.3s-.9 1.5-1.9 2.1c-1.8.9-1.9.7-1.6-1.8.4-3.2.2-2.9 2-2.9 1.2 0 1.2.3.2 1.6m-61.2 0c.3.5.2 1.2-.3 1.5s-.9-.1-.9-.9c0-1.7.3-1.9 1.2-.6M103 56c0 .5-.5 1-1.1 1-.5 0-.7-.5-.4-1 .3-.6.8-1 1.1-1 .2 0 .4.4.4 1M9 60.4c0 .3-.4.8-1 1.1-.5.3-1 .1-1-.4 0-.6.5-1.1 1-1.1.6 0 1 .2 1 .4m3.8 1.3c-.9 1-1.3 2.4-1 3.2s0 1.1-.7.7c-.6-.4-1.4 0-1.7.8-.3.9-.9 1.6-1.3 1.6-1.1 0-1.1-3.9 0-4.5.5-.4.9-.1.9.6s.6.4 1.4-.7c1.1-1.4 1.1-2.1.3-2.6-.7-.5-.2-.8 1.2-.8 2.2 0 2.3.1.9 1.7m21.9-1.1c-.3.3-1.2.4-1.9.1-.8-.3-.5-.6.6-.6 1.1-.1 1.7.2 1.3.5m78.8.4c-.3.5-1 1-1.6 1-.5 0-.9-.5-.9-1 0-.6.7-1 1.6-1 .8 0 1.2.4.9 1m40.5-.6c0 .3-.4.8-1 1.1-.5.3-1 .1-1-.4 0-.6.5-1.1 1-1.1.6 0 1 .2 1 .4m66.8.8c.7.9.6 1.7-.5 2.7-1.3 1.2-1.4 1.1-.8-.9.5-1.5.4-2-.4-1.6-.6.4-1.1.2-1.1-.3 0-1.5 1.5-1.4 2.8.1m40.5 1.5c.2 1.3 0 2.3-.4 2.3-.5 0-.9-.8-1-1.8 0-1.4-.2-1.4-.9.3-.5 1.1-.9 1.5-.9.8-.1-.6-.3-1.8-.6-2.5-.4-.9.2-1.4 1.4-1.4s2.1.9 2.4 2.3m3.4-2.1c-.3.3-1.2.4-1.9.1-.8-.3-.5-.6.6-.6 1.1-.1 1.7.2 1.3.5M225 61.9c0 .5-.8 1.5-1.7 2.2-1.6 1.2-1.7 1.2-.6-.2.7-.9 1-1.9.6-2.2-.3-.4-.1-.7.5-.7.7 0 1.2.4 1.2.9m-187 .5c0 .3-.4.8-1 1.1-.5.3-1 .1-1-.4 0-.6.5-1.1 1-1.1.6 0 1 .2 1 .4m227 .6c0 .5-.4 1-.9 1-.6 0-1.3-.5-1.6-1-.3-.6.1-1 .9-1 .9 0 1.6.4 1.6 1M15.7 64.5c0 1.8-1.9 1.5-2.5-.3-.2-.7.3-1.2 1.1-1.2.7 0 1.4.7 1.4 1.5m212.5-.1c.7-.4.8-.2.4.5-.9 1.3-2.6.5-2.5-1.2 0-.9.2-.8.6.1.2.6 1 .9 1.5.6m27.9.9c-1 .9-1.1.8-.5-.6.3-1 .9-1.5 1.2-1.2s0 1.1-.7 1.8m30.9.7c0 .5-.2 1-.4 1-.3 0-.8-.5-1.1-1-.3-.6-.1-1 .4-1 .6 0 1.1.4 1.1 1m-132.5 1.1c-.7 1.1-3.5 1.2-3.5.1 0-.4.9-.8 2-.9s1.8.2 1.5.8m-97.3 2.3c.7-.4.8-.2.4.4-1.1 1.8-2.6 1.4-2.5-.6 0-1 .3-1.2.6-.4.2.6 1 .9 1.5.6m40.8.5c0 .4-.7.8-1.5.8s-1.5-.6-1.5-1.3c0-.8.6-1.1 1.5-.8.8.4 1.5.9 1.5 1.3m189-1.5c0 .3-.4.8-1 1.1-.5.3-1 .1-1-.4 0-.6.5-1.1 1-1.1.6 0 1 .2 1 .4m-.5 4.3c-.2 1-.4 2.1-.4 2.5-.1 1-3.1-.2-3.1-1.3 0-.4.7-.6 1.5-.2.9.3 1.5.2 1.4-.3-.2-1.3 0-2.4.5-2.4.2 0 .3.8.1 1.7M184 75.2c0 .5-.4.8-1 .8-.5 0-1-1-1-2.3 0-1.8.2-1.9 1-.7.5.8 1 1.8 1 2.2M38.5 73.9c.8 1.4-.9 2.1-3.5 1.4-2.2-.6-2.3-.7-.4-1.4 2.6-1 3.2-1 3.9 0m48 1c.3.6-.3.9-1.4.8-1.1 0-1.7-.5-1.5-.9.7-1.1 2.2-1 2.9.1m55.5.7c0 .2-.7.4-1.5.4s-1.5-.4-1.5-1c0-.5.7-.7 1.5-.4.8.4 1.5.8 1.5 1m-81.3 0c-.3.3-1.2.4-1.9.1-.8-.3-.5-.6.6-.6 1.1-.1 1.7.2 1.3.5M196 76c-1.3.9-1.3 1 .1 1 .8 0 2-.5 2.6-1.1.9-.9 1-.6.6 1-.4 1.4-1.1 2-2 1.7-.8-.3-2.1-.6-2.9-.6s-1.1-.6-.8-1.5c.4-.8 1.4-1.5 2.3-1.5 1.4 0 1.4.2.1 1m-44.3 5.2c-.3.8-.6.5-.6-.6-.1-1.1.2-1.7.5-1.3.3.3.4 1.2.1 1.9m45.7 3.4c1.3.5 1.4.9.5 2.1-.9 1-.9 1.7-.1 2.5.7.7 1.2 1.6 1.2 2 0 1-6.7.5-7.7-.6-.5-.4-.2-.6.6-.4.7.2 1.5-.5 1.6-1.5.8-4.5 1.3-5.1 3.9-4.1"/><path d="M16.5 11c.3.5.8 1 1.1 1 .2 0 .4-.5.4-1 0-.6-.5-1-1.1-1-.5 0-.7.4-.4 1m7.6.6c0 1.1.3 1.4.6.6.3-.7.2-1.6-.1-1.9-.3-.4-.6.2-.5 1.3M72 11c0 .5.5 1 1.1 1 .5 0 .7-.5.4-1-.3-.6-.8-1-1.1-1-.2 0-.4.4-.4 1m-41 2.6c0 1.4-.4 2.3-.9 1.9-.5-.3-1.3 0-1.7.6-.5.8-.3.9.6.4.8-.5 1.1-.4.6.3-.4.6-1.3.9-2.1.6-.8-.4-1.2-1-.9-1.5s-.1-.9-.8-.9c-.8 0-1.4 1.1-1.4 2.5s.4 2.5.8 2.5.8-.5.8-1c0-.7.6-.7 1.9 0 2.4 1.2 3.4 1.3 2.6.1-.3-.5-.1-1.2.4-1.6.6-.3.8.4.5 1.7s-.6 4.6-.8 7.4-.6 5.7-1 6.3c-.9 1.3-3.3 1.5-4 .2-.4-.5.3-.7 1.4-.4 1.2.3 2 0 2-.8 0-.7-.3-.9-.7-.6-.3.4-1.2.2-2-.4-1.5-1.3-1.5-1.3-1.9 6.6-.1 4.1.1 5.4.7 4.3.5-1 1.7-1.5 2.7-1.2.9.2.7-.1-.5-.7-2.9-1.5-2.9-3.6-.2-4.4 2.4-.8 2.8-.5 3.4 2.5.5 2.8 1 3.3 3.4 3.5 1.2.1 1.7-.3 1.4-1.2-.4-1-.9-1.1-1.8-.3-1 .8-1.3.8-1.1-.2.3-2 1.6-3.8 2.7-3.8.6 0 .7.5.4 1-.7 1.1 1.8 4 3.4 4 .6 0 1.1-.5 1.1-1.1 0-.5-.5-.7-1.2-.3-.7.5-.8.3-.4-.5.6-.9 1.2-.8 2.6.4 1.4 1.3 1.9 1.3 2.4.3s.7-1 1.2-.1c1 2.2 2.3 1.4 1.8-1.1-.2-1.4.3-3.1 1.2-4 .9-1 1.1-1.6.4-1.6s-1.1-1.9-1-5.3c.3-10.3.1-11.3-2.3-12.4-2-.9-2.3-.8-2.5 1.3-.1 1.3.3 2.4.8 2.4s.6-.8.3-1.7c-.6-1.5-.5-1.6.9-.3 1.8 1.7.6 3-2.7 3-3.6 0-4.7-1.4-2.9-3.6 1.5-1.8 1.5-1.8.9.3-.4 1.4-.2 2.3.4 2.3 1.3 0 1.5-3.7.2-4.5-.5-.3-2 .9-3.4 2.6-1.8 2.3-2.7 2.8-3.2 1.9q-.75-1.35.3-.6c.7.4 1.2.3 1.2-.3 0-.5.3-1.8.6-2.8s.2-1.4-.3-.8c-1.8 2.2-3.6 1.6-3.1-1 .3-1.4.1-2.5-.3-2.5-.5 0-.9 1.2-.9 2.6m14.3 23.7c.6 1.7-2.8 1.6-4.5-.1-.9-.9-.6-1.2 1.4-1.2 1.4 0 2.8.6 3.1 1.3M56 15c0 1.1 2.2 1.8 3.8 1.3 2.1-.8 1.3-2.1-1.3-2.1-1.4 0-2.5.4-2.5.8m-6.9 3c-1 .5-.9.8.2 1.3.7.3 1.9.2 2.6-.3 1-.5.9-.8-.2-1.3-.7-.3-1.9-.2-2.6.3"/><path d="M27.3 21.4c.7 1.7-.8 2.2-1.8.6-1.2-2-2.3.1-1.5 2.9.5 1.9.4 3.3-.3 4.1-1 1-.7 1 1.1.1 1.5-.8 2.2-.8 2.2-.1 0 .6.4.9.9.6.5-.4 1.2 0 1.4.6.4 1 .6 1 .6.1.1-.7-1.1-2-2.6-2.8-1.6-.9-2-1.4-1.1-1.1 1 .3 2 .1 2.3-.4.4-.6-.4-1-1.7-1h-2.3l2.4-1.3c2.6-1.3 3-2.9 1-3.6-.8-.2-1 .2-.6 1.3m64 1.3c-.3 1-.8 2.1-1 2.5s.2 1 .9 1.4 1 .4.6 0c-.4-.5-.3-1.9.2-3.2s.7-2.4.4-2.4c-.2 0-.7.8-1.1 1.7m6.3 2.2c-.4.5-.2 1.2.3 1.5.5.4 1.2.2 1.5-.3.4-.5.2-1.2-.3-1.5-.5-.4-1.2-.2-1.5.3m30 1.4c.3 1 .9 1.5 1.2 1.2s0-1.1-.7-1.8c-1-.9-1.1-.8-.5.6m-56.2 2.9c-.4.7-.3.8.4.4 1.5-.9 1.5-.1.1 2.7-1.2 2.2-1.2 2.2 1 .3 1.6-1.5 1.8-2.2 1-3.3-1.4-1.6-1.6-1.6-2.5-.1M87.5 31c.2 3.1 2.2 4.7 3.8 3.1 1-1.1.9-1.4-.1-1.8-.6-.3-.9-1-.5-1.6.3-.7.3-.9-.2-.5-.4.4-1.3.3-2-.2-.8-.7-1.1-.4-1 1m39 3c.3.5 1 1 1.6 1 .5 0 .9-.5.9-1 0-.6-.7-1-1.6-1-.8 0-1.2.4-.9 1M16.2 37c0 1.4.2 1.9.5 1.2.2-.6.2-1.8 0-2.5-.3-.6-.5-.1-.5 1.3M28 37c0 .6-.6.8-1.2.4-1-.6-1-.4 0 .7.9.9 1.5 1 2.3.2s.8-1.3 0-1.7c-.6-.4-1.1-.2-1.1.4m64.8-.3c.7.3 1.6.2 1.9-.1.4-.3-.2-.6-1.3-.5-1.1 0-1.4.3-.6.6m42.2 2.7c0 .2.7.6 1.5 1 .8.3 1.5.1 1.5-.4 0-.6-.7-1-1.5-1s-1.5.2-1.5.4m12 .6c-1.2.8-1.2 1 .5 1s1.8.2.5 1.1c-1.2.8-1.2 1-.1.7.8-.2 1.5-1.2 1.7-2.1.3-1.9-.4-2.1-2.6-.7M24.5 45.1c-.4.6-.5 1.2-.2 1.5.2.3.7-.2 1-1.1.7-1.7.1-2-.8-.4M90 52.5c0 .8.2 1.5.4 1.5s.6-.7 1-1.5c.3-.8.1-1.5-.4-1.5-.6 0-1 .7-1 1.5m46.9 2.8c-.1.9-.2 2.6-.2 3.7-.1 1.1.3 2 .8 1.9.6-.1.9-.6.7-1.1-.2-.6.4-.8 1.2-.5 2.5 1 2.5-.6 0-3.3-2-2.1-2.4-2.2-2.5-.7M139 57c0 .5-.5 1-1.1 1-.5 0-.7-.5-.4-1 .3-.6.8-1 1.1-1 .2 0 .4.4.4 1m-74.6.5c.4 2.4 1.6 3 1.6.7 0-1.2-.4-2.2-.9-2.2s-.8.7-.7 1.5M131 59c0 .5.5 1 1.1 1 .5 0 .7-.5.4-1-.3-.6-.8-1-1.1-1-.2 0-.4.4-.4 1m-3.4 1.8c-.4.6-1.4.9-2.4.6-1.4-.5-1.4-.4-.2.4.8.6 1.7.9 2.1.6.4-.2.9.4 1.1 1.3.3 1.6.4 1.6 1 .2.8-1.9-.6-4.6-1.6-3.1m-63.8 1c-2 .4-2.3 1.7-.7 2.8 1.2.7 3.3-1 2.8-2.3-.2-.5-1.2-.7-2.1-.5m8.6 2.4c0 1.9.6 2.3 3.9 2.6 2.2.1 3.6-.1 3.3-.7-.4-.5.4-.7 1.6-.3 2 .5 2.1.3 1-1-1.2-1.6-5.8-1.8-8-.4-.8.5-1 .2-.6-.8.3-.9.2-1.6-.3-1.6s-.9 1-.9 2.2"/><path d="M58.9 65.6c-1.1 1.3-1.1 1.5.2 1.4 4.1-.6 5.9.1 6 2.2.1 2.2.1 2.2.8-.2 1-3.2.6-3.9-1.9-3.3-1.1.3-2 0-2-.6 0-1.6-1.5-1.4-3.1.5m43.5-.8c.3.6 0 1.2-.6 1.5-.7.3-.3.4 1 .4 2.3-.1 2.5-1.8.2-2.5-.7-.3-1 0-.6.6M19.5 67c.4.6 1.1.8 1.6.5 1.4-.9 1.1-1.5-.7-1.5-.8 0-1.2.5-.9 1m4.5 2.9c0 2.2.3 4.2.8 4.5.4.2.6-1.3.4-3.4-.3-3.1 0-3.9 1.5-4.3s1.4-.5-.4-.6c-2-.1-2.3.4-2.3 3.8M36.8 67c-.2.6-1.3 1.2-2.5 1.3-2.3.1-2.1 1.7.1 1.7 1.6 0 4.1-2.8 3.3-3.6-.2-.3-.7 0-.9.6m98.2 2c0 1.1.4 2 .9 2s.7-.9.4-2-.7-2-.9-2-.4.9-.4 2m-27 5c-.8.5-1 1-.5 1 .6 0 1.7-.5 2.5-1s1.1-1 .5-1c-.5 0-1.7.5-2.5 1m-80.2.7c.7.3 1.6.2 1.9-.1.4-.3-.2-.6-1.3-.5-1.1 0-1.4.3-.6.6m220.8-52.5c.3.4.9.8 1.5.8.5 0 .9-.4.9-.8 0-.5-.7-.9-1.5-.9s-1.2.4-.9.9m-54.3 1.7c-1.1 1.7-.9 2 1 2.4l2.2.4-2.2.2c-1.3 0-2.3.6-2.3 1.2 0 .5.4.8.9.4.5-.3 1.2-.1 1.5.4s-.1 1.1-.9 1.5c-.8.3-1.5 1.5-1.5 2.6 0 1.8.4 2 2.3 1.4l2.2-.6-2.2 1.9c-2.4 2.1-3.1 3.9-1.1 2.7.8-.5.9-.2.3 1.2-1.1 2.6-1.4 16.4-.3 16.4.4 0 .8.5.8 1.1 0 .5-.5.7-1.2.3-.6-.4-.4.3.5 1.7 1.9 2.6 2.2 4.3.7 3.4-.5-.3-1-.1-1 .5s1.4 1.3 3 1.6c1.7.4 3 1.2 3.1 1.8 0 .6.4.1.9-1.2 1.1-2.7 3-3 2.3-.3-.4 1.5 0 2 1.5 1.8 1.6-.1 1.8-.5 1.2-2.3-.5-1.2-.6-2.5-.3-2.8.4-.3 0-.6-.7-.6-1.1 0-1.1-.3-.2-1.2 1.5-1.5 1.6-4.8.2-4.8-.5 0-1-.7-1-1.5s.5-1.5 1-1.5c.6 0 1-1 1-2.2 0-1.9-.1-2-1.8-.5-1.6 1.4-1.9 1.4-4.2-.5-1.4-1.1-1.9-1.6-1.1-1.2 1 .5 1.2.3.7-.5-.4-.7-1.3-1-1.9-.8-1.4.4-1.6 2.9-.4 3.8.5.3.2.9-.7 1.2-.8.3-1.8.1-2.2-.5-.5-.7-.2-.8.6-.3 1 .6 1 .4.2-1.1-.8-1.4-.6-2.1.5-2.9 1.4-1 1.3-1.3-.1-2.7s-1.4-1.7 0-2.2c.8-.3 1.3-.9 1-1.4-.8-1.4 1.2-3.7 3.4-3.8 4.2-.3 4.5-.5 2.8-1.5-1-.5-1.8-1.4-1.8-1.9 0-1.6 3-1.1 3.6.5.4.8 1 1.2 1.5.9s.6-1.2 0-2.1c-.4-.9-.7-2.5-.5-3.7.3-1.2.2-1.5-.2-.9-.3.7-1.2 1.3-2 1.3s-1.4.5-1.4 1.1c0 .5-.4.7-1 .4-.5-.3-1 .1-1 .9 0 .9-.4 1.6-.9 1.6s-.7-2.1-.4-4.6c.4-3.9.2-4.6-1.1-4.1-.8.3-1.6 0-1.8-.9-.2-1.1-.6-1-1.5.5m7.1 29.4c.3-.3.6.1.6 1s.8 1.7 1.7 1.7c1.5 0 1.4.2-.3 1.5-1.7 1.4-1.7 1.5-.1.9 1.7-.6 1.8-.5.6 1.4-.7 1.1-2.3 2.5-3.6 3.1-1.9.9-2.4.7-3.4-1-1-1.9-.9-2 1.1-.9 2.5 1.3 4.7 0 3.5-2-.6-.9-.9-.9-1.5-.1-.4.8-1.4.9-3.1.2-2.1-.9-2.1-1-.4-1.1 1.1 0 2.7-.5 3.5-1.1 1.1-.8.9-.9-1-.4-2.4.7-2.4.7-.5-.9 1.8-1.4 1.8-1.5.3-1.6-1 0-1.8-.5-1.8-1 0-.7.6-.7 1.9-.1 1 .6 2.1.7 2.5.4m37.1-28.2c-1.1 1.7 0 2 2.1.4 1.7-1.3 1.7-1.4.2-1.5-.9 0-2 .5-2.3 1.1m-68.5 1c0 .5.5.7 1 .4.6-.3 1-.8 1-1.1 0-.2-.4-.4-1-.4-.5 0-1 .5-1 1.1m-10 2.5c0 1 .3 1.4.7 1.1.3-.4 1.6-.1 2.7.7 1.8 1.1 2.3 1.1 3.6-.2 1.2-1.4 1.1-1.5-.7-1-1.2.3-3.1-.1-4.2-.9-1.9-1.3-2.1-1.2-2.1.3m76.3.1c-1.3.2-2.3.8-2.3 1.2 0 .5 1.1.6 2.5.3 1.4-.2 2.5-.8 2.5-1.3s-.1-.8-.2-.8c-.2.1-1.3.4-2.5.6m24.4 1c-.2.5.2 1.9.9 3.3.8 1.4 1.4 2.3 1.5 2 0-.3.2-1.3.4-2.3.2-.9-.1-1.5-.5-1.2-.5.3-1.1.1-1.4-.4-.4-.5.2-1.2 1.1-1.4 1.6-.4 1.6-.5.1-.6-.9 0-1.9.2-2.1.6m10.3 5.7c0 2 .4 2.4 1.7 1.9 1.1-.4 1.3-.8.5-1.1-.7-.2-1-.8-.7-1.2.3-.5.1-1.1-.5-1.5s-1 .5-1 1.9m-112.4 1.5c-.3.5.3 1.1 1.5 1.4 1.6.4 1.8.3.8-.9-1.3-1.6-1.6-1.7-2.3-.5m30 .3c.3.5 1 .6 1.5.3 1.3-.9 1.1-1.2-.6-1.2-.8 0-1.2.4-.9.9"/><path d="M204.4 37.1c-.3.6-1.5.8-2.6.6-1.2-.4-1.8-.1-1.5.6s1 1.1 1.6.9c.7-.1.9.2.6.8-.5.8-1.4.5-2.8-.7-1.1-1-1.7-1.3-1.4-.6.4.6.1 1.8-.6 2.5-1.1 1.1-1.1 1.6-.2 2.5.7.7 1.5 1 1.8.7.2-.3 1 .9 1.5 2.6 1.1 3.1 1.1 3.1 3.1 1.1 2.6-2.6 2.5-6.4-.1-5-1.1.6-1.5 1.6-1.1 2.7.5 1.4.3 1.5-.7.5-1.1-1.1-1-1.7.8-3.6 1.2-1.3 1.9-2.6 1.6-3-.4-.4-.1-1.3.6-2.2.7-.8 1-1.5.7-1.5s-.9.5-1.3 1.1m-3.9 4.9c.3.5.1 1-.4 1-.6 0-1.1-.5-1.1-1 0-.6.2-1 .4-1 .3 0 .8.4 1.1 1m33.5-4.9c0 .5.5.7 1 .4.6-.3 1-.8 1-1.1 0-.2-.4-.4-1-.4-.5 0-1 .5-1 1.1m33.5-.1c-.3.5-1.2.7-2 .3-1.6-.6-2.1 1.2-.6 2.2.8.5 4.1-2 4.1-3.1 0-.7-.9-.4-1.5.6m-.6 3.8c-1.5.6-1.5.8 0 2.4 1.5 1.5 1.6 1.4 1.7-.8.1-1.3.1-2.4 0-2.3 0 0-.8.3-1.7.7m-78.7 3.1c-1.1.7-1.1.9.2 1.4 1 .4 1.6.1 1.6-.8 0-1.7-.1-1.7-1.8-.6m18.8.5c0 .9 3 1.4 3.5.6.4-.6-.3-1-1.4-1-1.2 0-2.1.2-2.1.4m69.4 4.4c.3.5 0 1.3-.6 1.5-.9.4-1 .6-.1.6 1.7.1 2.5-1.6 1.2-2.5-.7-.4-.9-.3-.5.4m-5.6 2.9c.7.3 1.6.2 1.9-.1.4-.3-.2-.6-1.3-.5-1.1 0-1.4.3-.6.6m-86 5c.7.3 1.6.2 1.9-.1.4-.3-.2-.6-1.3-.5-1.1 0-1.4.3-.6.6m-8.4 5.4c-.5.8-.3.9.6.4 1-.6 1.2-.3.8 1.3-.4 1.2-.3 2.4.1 2.6.4.3.8-.6.9-1.9.2-2.7-1.3-4.2-2.4-2.4m35.9 2.9c0 2.3.3 2.8.9 1.6.5-.9.5-2.3 0-3.2-.6-1.2-.9-.7-.9 1.6M193 66.1c0 1.3 3.2 1.9 4.8.8 1.6-1 1.5-1 0-.5-1 .3-1.8.2-1.8-.3 0-.4-.7-.8-1.5-.8s-1.5.4-1.5.8m75.1.5c0 1.1.3 1.4.6.6.3-.7.2-1.6-.1-1.9-.3-.4-.6.2-.5 1.3m-81.8.1c.9.2 2.5.2 3.5 0 .9-.3.1-.5-1.8-.5s-2.7.2-1.7.5m48.2.3c-.3.6.1.7.9.4 1.8-.7 2.1-1.4.7-1.4-.6 0-1.3.4-1.6 1m22.5 1c0 .5.5 1 1 1 .6 0 1-.5 1-1 0-.6-.4-1-1-1-.5 0-1 .4-1 1m-86.3.7c-.4.3-.7 1.1-.7 1.7s.5.5 1.2-.2c.6-.6.9-1.4.7-1.7-.3-.3-.9-.2-1.2.2m34 .6c-.3.8-.1 2 .4 2.8.6 1 .9.7.9-1.4 0-2.9-.5-3.5-1.3-1.4m55.3-.4c0 .6.4 1.3 1 1.6s.7-.1.4-.9c-.7-1.8-1.4-2.1-1.4-.7m8.1 1.7c0 1.1.3 1.4.6.6.3-.7.2-1.6-.1-1.9-.3-.4-.6.2-.5 1.3M189 74.1c0 .5.5.7 1 .4.6-.3 1-.8 1-1.1 0-.2-.4-.4-1-.4-.5 0-1 .5-1 1.1M155 82c0 .5.5 1 1.1 1 .5 0 .7-.5.4-1-.3-.6-.8-1-1.1-1-.2 0-.4.4-.4 1m23 6.1c0 .5.5.7 1 .4.6-.3 1-.8 1-1.1 0-.2-.4-.4-1-.4-.5 0-1 .5-1 1.1"/></g>
<g fill="none" stroke-width="0"><path d="M12.7 5.3c.4.6-.1.8-1.1.4-.9-.4-1.5-.3-1.1.2.3.5 0 1.1-.7 1.3-.6.2.7.4 3 .4 4.4-.1 7.3-1.8 5.2-3.1-.6-.4-1.8.1-2.6 1.1-1.2 1.5-1.4 1.5-1.1.3.3-.9-.1-1.6-.9-1.6-.7 0-1 .5-.7 1m13 .4c.3.7-.2 1.3-1.2 1.3-.9 0-1.4-.4-1.1-.8.2-.4-.4-.9-1.5-.9-1.7-.2-1.8 0-.4 1.3 1.1 1.1 2.4 1.4 4.7.9 3.1-.7 7-3.5 4.9-3.5-.5 0-1.3.4-1.6 1-.3.5-1.1 1-1.6 1-.6 0-.8-.4-.5-.8.3-.5-.1-.9-.8-.9-.8 0-1.2.6-.9 1.4m7.8-.8c.3.2-.1.9-.8 1.5s-1 1-.8.9c.2-.2 1 .2 1.7.8.8.7 1.4.7 1.9-.1.3-.5.3-1-.1-1s.1-.7 1.2-1.5c1.8-1.4 1.8-1.4-.8-1.3-1.5.1-2.5.4-2.3.7m11.5.2c0 .6-.6.9-1.3.6-.8-.3-1.4.3-1.4 1.4-.1 1 .3 1.9.8 1.9.6 0 .8-.4.4-.9-.3-.5.4-1.2 1.5-1.6 2-.7 2.8-2.5 1-2.5-.5 0-1 .5-1 1.1m5.4.4c1.1.8 2.4 1.5 3 1.5.5 0 .1-.7-1-1.5-1-.8-2.3-1.4-2.9-1.4-.5 0-.1.6.9 1.4m5.3.5c-.6 2.5.8 2.7 1.8.2.6-1.6.7-1.6 2.1.2.8 1.1 1.4 1.4 1.4.8 0-.7.8-1.2 1.8-1.2 1.4 0 1.5.2.2 1s-1.2 1 .5 1.1c1.1.1 2.5 0 3-.1.6-.1 1.8-.3 2.7-.5s2.4.8 3.4 2.2c1.4 2.3 1.4 2.5.1 2-1.2-.4-1.4-.2-1 1 .5 1.3 0 1.5-3 1.1-1.9-.2-3.3 0-3.1.4.3.4 1.9.8 3.6.8 2.6 0 3 .3 2.5 2.1-.3 1.3 0 2.2 1 2.6 2.1.8-.6 2.4-2.9 1.7-.9-.2-1.9 0-2.3.6-.6.9 6.2.7 7.2-.3.8-.9-1-3.6-2-3q-.9.45-.3-.6c.4-.6 1.1-.9 1.5-.6.5.2 1.7-.2 2.7-1 1-.9 1.5-1.5.9-1.4-.5.1-2 .1-3.2 0-2.2-.1-2.2-.2-.5-1.9 1.2-1.3 1.8-1.4 2-.5.2.7.7 1.3 1.2 1.3 1 0 .3-2.7-1.4-5-.6-.8-.1-.6 1.2.4l2.2 1.9-.1-3.9c-.1-2.5-.3-3-.6-1.6s-1 2.2-1.8 1.9c-.7-.3-1.8 0-2.5.6-1 .9-1.1.9-.6-.1.4-.6.2-1.2-.4-1.2-.7 0-1-.7-.6-1.5.7-2-.4-1.9-2.1.2-1.1 1.4-1.3 1.4-1 .3.4-1.2-.4-1.5-3.2-1.5-2 0-4.2.4-4.8.8-.8.5-1.3.4-1.3-.2 0-2-3.8-1.1-4.3.9"/><path d="M75.5 5c-.3.5-.1 1 .4 1 .6 0 1.1-.5 1.1-1 0-.6-.2-1-.4-1-.3 0-.8.4-1.1 1m124.7.8c.9 1 .8 1.6-.3 2.3-1 .6-.7.9 1.4.9 1.6 0 2.7.5 2.7 1.3s.7 1.4 1.5 1.4 1.5-.4 1.5-.9c0-.4-.4-.8-1-.8-.5 0-1-.5-1-1 0-.6.5-1 1-1 .6 0 1.8-.8 2.8-1.8 1.7-1.7 1.7-1.8-1.5-1.8-1.8 0-3.3.4-3.3.9 0 .4.4.5 1 .2.5-.3.7 0 .4.9-.3.8-1.2 1.2-2 .9-.9-.3-1.3-1.1-1.1-1.7.3-.7-.4-1.2-1.4-1.2-1.4 0-1.5.3-.7 1.4m10.2.6c-1 .8-1.6 1.8-1.1 2.2.4.4.7.2.7-.5s.4-1 .9-.6c.5.3 1.3 0 1.6-.6 1.1-1.7 0-2-2.1-.5M38 6.4c0 .2.7.6 1.5 1 .8.3 1.5.1 1.5-.4 0-.6-.7-1-1.5-1s-1.5.2-1.5.4"/><path d="M213.4 7.5c-.6 1.1-1 2.9-1 4 .1 2.5-2.1 3.5-5.4 2.4-2.4-.9-2.4-.8-.6.6 1.1.8 1.5 1.5.9 1.5s-1 .8-.8 1.7c.1 1 .8 1.7 1.5 1.5.6-.1 1 .2.8.8-.6 1.9-2.2 1.4-3.4-.9-.6-1.1-1.3-1.9-1.6-1.6s-1.3-.5-2.4-1.7c-1.7-1.9-1.7-2.1-.1-1.5 1.1.4 1.7.1 1.7-.8s-.6-1.2-1.7-.8-1.4.3-.9-.5c.4-.7.3-1.2-.2-1.2s-.9 1.7-.8 3.8c.1 3 .5 3.8 2 3.8 1-.1 2.1.4 2.3 1s-1.4.9-4.3.8c-5-.2-6.9.9-6.9 4.1 0 1.4.7 2.1 2.5 2.2 2.3.2 2.3.1.3-.5-1.9-.6-2-.9-.7-2.6 1.2-1.7 1.4-1.7 1.4-.3 0 1 .5 1.4 1.5 1.1.8-.4 1.5-1 1.5-1.6 0-.5-.5-.6-1.2-.2-.6.4-.8.3-.4-.4.5-.8 1.7-.7 4.4.2 2.5.9 4.4 1.1 5.5.4 1.1-.6 1.7-.5 1.7.1s.7.8 1.5.5c1-.4 1.5 0 1.5 1.1 0 .9.5 1.3 1 1 .8-.5.8-1.1.1-1.9-.6-.7-.7-1.7-.3-2.1.4-.5.2-.5-.5-.1-.6.3-1.4.2-1.8-.4-.3-.5-.1-1 .4-1 1.8 0 1.2-1.8-.6-2.3-1-.2-.8-.3.5-.2 1.6.2 2.2-.2 1.8-1.1-.3-.8-.1-1.4.5-1.4.7 0 .9 1 .5 2.5-.4 1.4-.2 2.5.3 2.5.4 0 .8-2.3.8-5-.1-2.8-.6-5-1.2-5-.5 0-.4-.4.4-.9.7-.5 1.1-1.5.9-2.2-.3-1-.7-.8-1.4.6M7 7.9c0 .4.9 1.6 2 2.6s2 1.4 2 .9-.9-1.7-2-2.7c-1.1-.9-2-1.3-2-.8m41.1.5c-1 1.2-.8 1.3 1.1.8 2.1-.5 2.2-.4.8 1.4-1.4 1.9-1.4 1.9.8 0C52 9.5 53 8.5 53 8.2s-.3-.2-.7.1c-.3.4-1.2.2-1.8-.3-.9-.7-1.6-.6-2.4.4m9.8-.4c-.1.5-.3 1.4-.4 2-.1.5-.3 1.5-.4 2.1 0 .5-.5.7-1.1.4-.5-.3-1 .2-1 1.2 0 1.4-.2 1.5-.9.4-.6-.9-.9.1-.9 2.8 0 2.2-.3 4.4-.6 4.9-.2.4-.1 1.4.5 2.2.9 1.5.9 1.4 1.3-2.3 0-.6 1.6-1.3 3.4-1.5 1.7-.2 3.2-.7 3.2-1.1s-1.4-.5-3.1-.3c-2.2.3-3 .1-2.5-.7.4-.6 1.1-.9 1.6-.6 1.3.8 6.1-.6 5.5-1.5-.3-.5 0-1 .7-1.2.8-.3.6-.7-.5-1.1s-1.7-.1-1.7.7-.6 1.6-1.2 1.9c-1.7.6-3.8-.3-3.8-1.5 0-.6.6-.8 1.4-.5 1 .4 1.4-.5 1.4-3.4.1-3.5-.6-5.5-.9-2.9m-19.5 3.1c.2 3.2-2.7 6.1-3.8 3.6-.3-.6-.2.1.1 1.7.5 2.2.3 2.7-.7 2.1-.9-.6-1.1-.4-.5.5.6 1 1.3.7 2.7-1.1 1.4-1.6 1.8-1.8 1.4-.7-.6 2.1 3 3.4 6.3 2.3 1.9-.6 1.9-.8.6-2.1-.8-.9-1.3-2-1-2.5.4-.5-.1-.6-.9-.3-.9.3-1.6 1.5-1.6 2.5s-.4 1.9-.9 1.9c-1.2 0-.9-6.3.4-7.2.6-.5.5-.8-.3-.8-.7 0-1.1-.4-.7-.9.3-.5.1-1.2-.4-1.5s-.8.8-.7 2.5m5 6.4c.3.8.1 1.5-.4 1.5-.6 0-1-.7-1-1.5s.2-1.5.4-1.5.6.7 1 1.5m-19.9-7.4c-.4.6-.5 1.2-.2 1.5.2.3.7-.2 1-1.1.7-1.7.1-2-.8-.4m6.5 1c0 .5.5.7 1 .4.6-.3 1-.8 1-1.1 0-.2-.4-.4-1-.4-.5 0-1 .5-1 1.1m34-.3c0 .5.7.9 1.5.9s1.2-.4.9-.9c-.3-.4-.9-.8-1.5-.8-.5 0-.9.4-.9.8m-47.6 1.6c.5 1.5.2 1.7-1.4 1.3-2.2-.6-2.8.8-.7 1.6 2.5.9 4.1-.8 2.7-2.9-1.1-1.9-1.1-1.9-.6 0m29.6.1c0 .8.2 1.5.4 1.5s.6-.7 1-1.5c.3-.8.1-1.5-.4-1.5-.6 0-1 .7-1 1.5m-38.7 2c-.3.9-.3 1.8-.1 2.1.3.3.8-.4 1.1-1.6.6-2.3-.1-2.7-1-.5m12.2-.6c-.3.5-.1 1.2.5 1.6.5.3 1-.1 1-.9 0-1.8-.6-2.1-1.5-.7m4.4-.5c-.7.6-.6 5.6.1 5.6.5 0 .7-.9.5-2-.2-1.3.2-2 1.1-2 .8 0 1.3.4 1 .9s0 1.1.8 1.4c1.4.6 3.6-1 3.6-2.7 0-.5-.7-.1-1.5 1-1.1 1.3-1.3 1.4-.9.3.4-1.2-.2-1.8-2-2.1-1.4-.3-2.7-.5-2.7-.4M9.6 14.8c-.3.5.1.9.9.9s1.2-.4.9-.9c-.3-.4-.7-.8-.9-.8s-.6.4-.9.8m36.2.9c.7.3 1.6.2 1.9-.1.4-.3-.2-.6-1.3-.5-1.1 0-1.4.3-.6.6M12.5 17c-.4.6-.5 1-.3 1.1 2.5.6 3.8.6 3.8-.1 0-1.2-2.9-2-3.5-1m-4.6 1.7c-1.3 1.5-1.2 1.5.9.4 2.3-1.2 2.8-2.1 1.3-2.1-.5 0-1.5.7-2.2 1.7m23-1c-.1.5-.1 1.1 0 1.5.1 1-1.1 1-2.8-.1-.9-.6-2.1-.3-3.4.9-1 1-2.5 1.6-3.3 1.3-.9-.3-1.4.1-1.4 1.2 0 1.6.2 1.6 2.4.1 1.5-1 2.7-1.2 3.1-.6 1 1.6 2.5 1.1 1.8-.6-.4-1.1-.2-1.5.6-1.3 2 .7 1.6 2.3-1 3.6L24.5 25h2.4c1.3 0 2.1.3 1.7.7-1.1 1.1-4 1-4.9-.2-.5-.6-.7-.4-.4.5.2.8 1 1.4 1.6 1.2 1.7-.4 5.1 1.7 5.1 3.1 0 .7-.4.6-1-.3-.5-.8-1-1.1-1-.5 0 .5-.4.5-.8-.2s-1.3-.9-1.9-.5c-1.6 1-2.8 6.2-1.4 6.2.6 0 .8-.7.4-1.6-.5-1.4-.3-1.4 1.5-.3 3.1 1.9 4.4.2 4.8-6.3.2-2.9.5-6.3.8-7.6.3-1.2.3-2.2 0-2.2-.2 0-.5.3-.5.7m-2.6 13.6c.4-.3.7-.1.7.6 0 1.7-3.2 1-3.8-.9-.4-1.2-.3-1.3 1-.3.8.7 1.8 1 2.1.6m34.3-12.5c-.2.4-.1 1.4.5 2.2.6 1.1.9 1.2.9.2 0-.7.5-1 1.2-.6.6.4.8.3.4-.4-.3-.5 0-1.3.6-1.5.7-.3.3-.6-.9-.6-1.2-.1-2.4.3-2.7.7m12.4-.2c0 .1 1.1.9 2.5 1.8C80 22 80 22 78.9 20.2c-.9-1.5-3.9-2.7-3.9-1.6m-58.4 2.9c1.9 1.4 1.9 1.4-.1 1.5-1.5 0-1.6.3-.7 1.2 1 1 1.5 1 2.2-.2 1-1.5-.5-4-2.3-4-.6 0-.2.7.9 1.5m66.7-.8c-1.8.6-1.6 2.3.2 2.3.8 0 1.5-.6 1.5-1.3 0-.9.2-.9.8-.1.5.9 1 .8 1.9-.1.9-1 .7-1.2-1-1.2-1.2 0-2.8.2-3.4.4m6.7.5c0 .6.7.8 1.5.5.8-.4 1.7-.2 2 .3.4.6 1.2 1 1.8 1 1.4-.1-2.2-2.3-4-2.6-.7-.1-1.3.2-1.3.8m13 0c0 .5-.4.6-1 .3-.5-.3-1-.1-1 .4 0 .6 1 1 2.3.8 1.7-.1 2.1.3 1.9 1.8-.1 1.1-.3 3.3-.4 4.9l-.1 2.8-1.9-2.3c-1.7-2.1-1.8-2.1-.9-.3.6 1.2.7 2.5.3 2.9-.4.3-.2.5.3.3.6-.2 1 .1 1 .7 0 1.6-3.3 1.6-3.9 0-.3-.8-1.1-1.5-1.8-1.5-1 0-1 .2-.1.8 1.6 1-.1 3.6-1.9 2.9-.9-.3-1.5.1-1.5.9 0 .9.7 1.2 1.8.9 1.9-.6 3.7 1.3 2.3 2.4-.5.3-.9 1.3-.9 2.1s-.6 1.4-1.2 1.3c-.7-.2-1.3.2-1.3.8 0 .7 1 .9 2.5.6 2.5-.4 2.5-.4.8 1.6-1.2 1.4-1.3 1.8-.3 1.1.8-.4 2.2-.9 3-.9.9 0 1.6-1 1.7-2.5s0-1.8-.3-.7c-.5 1.4-.9 1.6-2 .6-1.6-1.3-1.9-3.3-.4-2.4.6.4.9-.3.7-1.6s-.9-2.5-1.5-2.7c-.7-.2-.9-.8-.6-1.4.4-.5 1.5.3 2.6 1.9 1.7 2.4 1.9 2.5 1.5.5-.4-1.8-.1-2.2 2.1-2.3 1.5 0 2.2-.3 1.6-.5-1.7-.7-.4-5.4 1.5-5.4 1.3 0 1.3.2.2.9q-1.35.9-.3 1.5c.6.4.9 1.4.6 2.4-.5 1.4-.4 1.4.4.3.6-.8.8-2 .5-2.8-.3-.7-.1-1.3.4-1.3.4 0 .8-2 .9-4.5 0-4.1-.2-4.4-2.3-3.9-1.6.4-2.3.2-2.3-.8 0-.8-.7-1.5-1.5-1.5s-1.5.4-1.5.9m6.2 3.5c-.6.2-1 .8-.8 1.1.2.4-.5 1.6-1.6 2.7-1.9 2-1.9 2-1.2 0 1-2.8 2.5-4.5 3.8-4.4.7 0 .6.2-.2.6"/><path d="M107.5 21c.3.5.8 1 1.1 1 .2 0 .4-.5.4-1 0-.6-.5-1-1.1-1-.5 0-.7.4-.4 1m12.5.5c0 .9.5 1.5 1.1 1.3s1.1-.8 1.1-1.3-.5-1.1-1.1-1.3-1.1.4-1.1 1.3m5.9.3c-1.1 1.4-1.1 1.5 0 .5.7-.6 2-.9 2.7-.6.8.3 1.4.3 1.4 0 0-1.4-3-1.4-4.1.1m6.8-.3c-.3.6.4 1.1 1.4 1.1 1.1 0 1.9-.5 1.9-1.1 0-.7-.7-1.2-1.5-1.2s-1.6.5-1.8 1.2m27.6 0c0 1.1.4 1.2 1.4.4.7-.6 1.3-1.3 1.3-1.5s-.6-.4-1.3-.4c-.8 0-1.4.7-1.4 1.5m2.9 1c-1.2 1.4-1.8 2.5-1.3 2.5.6 0 1.3-.5 1.7-1.1.3-.6 1.5-.9 2.5-.6s2.4-.2 3.1-1.2c.7-.9.9-1.3.4-.9s-1.6.3-2.6-.2c-1.3-.7-2.2-.3-3.8 1.5m7.8-1.2c0 .9 1.1 1.3 3.3 1.1 4.3-.2 4.4-.3 2.7-1.4-.9-.5-1.9-.5-2.7.2-.9.7-1.3.7-1.3-.1 0-.6-.4-1.1-1-1.1-.5 0-1 .6-1 1.3m9 .5c0 1.2.3 1.2 1.5.2.8-.7 1.5-1.3 1.5-1.5 0-.1-.7-.2-1.5-.2s-1.5.7-1.5 1.5m3.9-.2c-.7.9-1.4 2.6-1.6 3.7-.2 1.6-.1 1.8.6.8 1.3-2.1 2.5.6 2.2 5.1-.1 2.1.2 3.8.7 3.8s.9-1.9.9-4.3c0-3-.6-4.7-2-6-1.1-.9-1.5-1.7-1-1.7.6 0 1.3-.7 1.7-1.5.7-1.9.2-1.9-1.5.1m3.8.1c.4.9 1 1 2.4.2 2.6-1.3 2.4-1.9-.5-1.7-1.5.1-2.2.7-1.9 1.5m45.3-.6c-1.3.9-1.2 1 .2.5 1-.3 2-.1 2.3.4.4.6 1.2 1 1.8 1 .8 0 .7-.3-.2-.9-1.1-.7-1.1-.9 0-1.4.9-.3.7-.6-.6-.6-1.1 0-2.7.4-3.5 1m9.7.3c1.6 2.4 1.2 3.6-.8 2.3-1.5-.9-2.2-.8-3.4.6-.8.9-1 1.2-.3.7 1.8-1.5 3.8-1.2 3.2.5-.7 1.7 0 1.9 2.4.6 1.4-.7 1.7-.4 1.8 1.5.1 1.4-.2 2.1-.9 1.7q-.9-.45-.3.6c.4.6 1.2.9 1.7.6.5-.4.9-.1.9.4 0 .6.5 1 1.1.8.6-.1 1.4.4 1.6 1.1.3.7-.1 1.1-.7 1-.7-.2-1.5.3-1.7.9-.8 2.3 1.9 1.4 4.5-1.5 1.4-1.5 2.9-2.8 3.4-2.8.4-.1 1.3-.2 1.8-.3.6 0 1-.6 1-1.2s-.5-.7-1.2-.2c-1.3.7-1.8.9-3.7 1.2-.5 0-1.2.9-1.4 1.8-.4 1.4-.5 1.3-.6-.4 0-1.2-.6-2.5-1.3-2.9s-.8-.3-.4.4.3 1.2-.3 1.2c-1.4 0-2.9-3.2-2.3-4.9.2-.7-.2-1.7-.9-2.3-1.1-.7-.9-.8.6-.6 1.1.1 2.6-.1 3.3-.5.7-.5 1.2-.4 1.2.2s.9 1.1 2.1 1.1c1.1 0 1.8-.4 1.5-.9-.4-.5-.1-1.1.6-1.3.7-.3-2-.5-6-.5-5.2-.1-7 .2-6.5 1.1m14.3-.9c0 .1.9 1.2 1.9 2.4 1.6 1.8 1.8 2.8 1 4.8-.6 1.7-.6 3 .1 3.8.8.9.8 1.5 0 2-.5.3-1 1.2-1 1.8 0 .8.3.8.9-.1 1.4-2.3 3.3 1.3 3.5 6.7.1 2.7.5 5.4 1 5.8s.6-.5.2-2.1c-.6-2.5-.5-2.8.8-1.7.8.7 1.3 2.2 1 3.7-.2 1.3 0 2.4.6 2.4.5 0 1 .7 1 1.6 0 1.4-.3 1.4-1.5.4-1.3-1-1.8-1.1-2.8-.1-.9 1-.8 1.1.6.6 1-.4 1.7-.2 1.7.4s-.7 1.1-1.5 1.1-1.5.4-1.5.9c0 1.9 1.2 4.1 2.3 4.1.7 0 .7-.4-.1-1.2-1.8-1.8-1.5-3.1.5-2.4 1 .4 1.4.4 1.1 0-.4-.3.2-1.4 1.4-2.3 1.9-1.6 1.9-1.8.3-3.4-.9-.9-1.2-1.7-.6-1.7s1.1-.7 1.1-1.5c0-2.1 5.5-2.4 7.5-.3q1.05.9 0 .6c-.5-.2-1.1 0-1.2.5-.6 1.6-.3 2.7.8 2.7.5 0 .7-.5.3-1.2s-.3-.8.5-.4c1.5 1 .4 2.6-1.7 2.6-.9 0-2.4.5-3.2 1.1-1.2.8-1 .9.8.4 1.3-.4 2.2-.2 2.2.5 0 .6.5.8 1.3.4.8-.5.8-.2-.2.9-.7.9-.9 1.7-.3 1.7 1.9 0 2.9-2.5 2.6-6.5-.2-2.2-.8-4.1-1.4-4.3-.5-.2-1-.8-1-1.3 0-.6.4-.8.9-.5.5.4.7-.4.3-1.6-.3-1.4-.2-1.9.6-1.4.7.4 1.2.3 1.2-.3 0-1.6-2.4-1.8-3.9-.3-1.2 1.2-1.2 1.5 0 2.3 1.6 1 1.5 1.1-2.6 1.4-1.6.1-3.4-.3-3.8-.9-.5-.6-.6-.3-.2.9.6 2 .6 2-1.3 0-1.7-1.8-1.7-2.1-.3-2.6.9-.4 1.9-.5 2.3-.3.3.2.4-.6.1-1.7-.4-1.2-1.4-2.4-2.5-2.7-1-.2-1.8-.9-1.7-1.6.3-2.5-.3-7-.8-5.9-.2.7-1.1 1.3-1.9 1.3-1 0-1.3-1.1-1-4 .2-2.5 0-3.7-.7-3.3-.6.3-.7.1-.3-.5.5-.8 1.5-.8 3.4-.1 1.5.6 2.9 1 3.2 1s.3.8.2 1.7c-.2.9-.1 1.4.2 1.1.4-.4.9-1.7 1.1-3 .4-2.3.2-2.4-5.5-2.5-3.3 0-6 0-6 .1m6.3 10.9c.3-.3.4.1.3 1-.4 2.6-1.1 2.6-2.3 0-1-2.1-.9-2.3.1-1.5.7.6 1.5.8 1.9.5m4.7 6.7c0 1-2.7 1.9-3.4 1.2-1.2-1.2-.5-2.2 1.4-2 1.1.1 2 .4 2 .8m-130.4-16c.3.5 1.2.9 2.1.9 1.9 0 .9-1.3-1.2-1.6-.8-.1-1.3.2-.9.7m85.4.5c0 .8.5 1.2 1 .9.6-.4.8-1.1.5-1.6-.9-1.4-1.5-1.1-1.5.7m7.6.7c.3 1 .9 1.5 1.2 1.2s0-1.1-.7-1.8c-1-.9-1.1-.8-.5.6M63.3 27.2c0 2.6.2 3.3.5 1.8.4-2.3.5-2.4 1.2-.5.6 1.5.8 1 .8-1.8 0-2.3-.5-3.7-1.3-3.7q-1.2 0-1.2 4.2m8.9-2.9c-.6.7-.7 1.8-.2 2.6.4.8.7 1.9.6 2.5-.2.6-.1.8.1.3.3-.4.9-.4 1.5-.1.5.4.2 1.4-.8 2.5-.9 1-1.4 2.5-1 3.5.5 1.3.2 1.5-1.8 1-1.4-.3-2.7-.2-3 .3s.6.8 1.9.8c3 0 5.5 1.9 5.5 4.2 0 1.4.2 1.4 1 .1.7-1.1 1-1.1 1-.2 0 .7.5 1 1 .7 1.7-1 1.1-2.5-.9-2.5-1 0-2.2-.7-2.5-1.6-1-2.6-.6-3 .9-1 1.4 1.8 1.5 1.8 1.5.2 0-1-.9-2-2-2.3s-1.7-.9-1.4-1.4 1-.6 1.6-.3c.7.5.9.1.5-.9-.3-1-.2-1.7.3-1.7.6 0 1 .7 1 1.5s.5 1.5 1.1 1.5c.5 0 .7-.5.4-1-.3-.6-.1-1 .5-1 1.3 0 .9-3.2-.5-4.2-1.7-1.3-2.7-.9-2.1.7.3.8.1 1.5-.3 1.5-1.7 0-2.2-3.4-.6-4.2 1.7-1 2-2.8.4-2.8-.5 0-.7.4-.4 1 .3.5-.1 1-1 1s-1.3-.5-1-1c.9-1.4-.1-1.2-1.3.3m55.6.4c-.3 1.2 0 2 .8 2 1.6 0 1.7-.6.5-2.5-.6-1.1-.9-.9-1.3.5m50.9-.6c.7.7 1.5 1 1.8.7s-.2-.9-1.2-1.2c-1.4-.6-1.5-.5-.6.5"/><path d="M269.2 25.5c-.6 1.4-.8 2.5-.3 2.5.8 0 2.3-4.1 1.7-4.7-.1-.2-.8.8-1.4 2.2M78 24.8c0 .4.9.8 2 .8s2-.4 2-.8-.9-.8-2-.8-2 .4-2 .8m42.4.4c-1.1 1.7-1.3 4.8-.3 4.8 1.4 0 2-1.8.8-2.6-.8-.4-.7-.9.2-1.5.7-.4 1.1-1.1.7-1.4-.3-.4-1 0-1.4.7m15-.6c-.7.3-.9 1.5-.6 2.6.4 1.7.2 2-1.1 1.5-1-.4-1.7-.2-1.7.3 0 .6.7 1 1.6 1s1.4.6 1.1 1.3c-.3.8-.1 2 .4 2.8.8 1.2 1 1.2.8-.1-.3-2.9.1-3.9 1.9-4.3 1.6-.4 1.6-.5-.1-.6-1.3-.1-1.6-.7-1.3-2.6.3-1.4.4-2.5.3-2.4-.1 0-.7.3-1.3.5m23.7.4c.3 2.8-.1 4.1-1 3.6-1.1-.7-7.1 2.5-7.1 3.7 0 .5.6.5 1.3.1.8-.5.8-.2-.2.9-1 1.3-1 1.7-.1 1.7.6 0 1.4-.9 1.7-2s.9-2 1.4-2 .8.3.7.7c-.2.5 0 .9.5 1 1.6.6 1.9.2.7-1.2-1.7-2.1-.7-2.9 1.9-1.6 1.3.7 2.2.8 2.6.1 1.1-1.8 2.7-1.1 1.7.6-.5.9-.7 2.6-.4 3.7.4 1.6.2 1.9-1.1 1.4-2-.7-2.2.4-.6 2 .9.9.7 1-.9.6-1.2-.3-1.9-.9-1.6-1.4s0-.9-.5-.9c-.6 0-1.1.6-1.1 1.2-.1.7-.6.3-1.3-.9-1-1.8-1.5-2-2.9-.9-2.4 1.8-2.3 3 .2 2.3 1.3-.3 2.5.2 3.5 1.6.9 1.2 2.1 2.2 2.8 2.2.6.1 1.1.6 1 1.3-.4 1.7 3.4 1.5 4.1-.3.3-.8.1-1.5-.4-1.5-.6 0-1 .5-1 1.1 0 .5-.4.7-1 .4-1.6-1-1.1-2.5.8-2.5 2.5 0 6.6-4.6 4.7-5.4-1.7-.6-2.5.2-2.5 2.6 0 1.1-.5 1.6-1 1.3q-1.05-.6 0-2.4c.5-1 .6-2.1.3-2.5-.3-.3.4-.6 1.6-.6s2-.4 1.7-.9.1-1.1.8-1.4c.8-.3 2-1.6 2.6-2.9 1-2.1 1-2.2-.4-.4-.8 1-2 1.5-2.7 1-.7-.4-1-.3-.7.2s0 1.5-.8 2.1c-1.7 1.6-2.2.6-1.8-3.2.2-1.6 0-2.5-.4-2-1 1.5-3.1 1.2-4.3-.5-.9-1.3-1-1.3-.8 0m3.9 2.5c0 .2-.7.8-1.5 1.5-1.2 1-1.5 1-1.5-.2 0-.8.7-1.5 1.5-1.5s1.5.1 1.5.2m-3.5 12.3c-.3.3-1.1 0-1.8-.7-.9-1-.8-1.1.6-.5 1 .3 1.5.9 1.2 1.2M49 26c0 .5 1.5 1 3.3.9 2.7 0 2.9-.2 1.2-.9-2.8-1.2-4.5-1.2-4.5 0m155.5 0c.3.5 1 1 1.6 1 .5 0 .9-.5.9-1 0-.6-.7-1-1.6-1-.8 0-1.2.4-.9 1m18.5.6c0 .8.5 1.2 1 .9.6-.3 1-1 1-1.6 0-.5-.4-.9-1-.9-.5 0-1 .7-1 1.6m-207.3.2c.8.5.9 1.3.3 2.2-1.3 2-1.2 3 .1 3 .5 0 .7-.5.4-1-.3-.6.4-1.1 1.7-1.1q2.4-.15.6-.6c-1-.2-1.5-1-1.1-1.9.3-.9-.1-1.4-1.3-1.4-1.3 0-1.5.3-.7.8m82.7.6c-.4 1.1-2.1 1.4-6 1.4-3-.1-6 .4-6.6 1-.7.7-.8 1.2-.2 1.2 1.1 0 1.3.7 1.6 5.9.1 2.6.4 2.8 2.5 1.8 2.6-1.2 3.2-4.6.7-4.3-1 0-1.8-.8-2-2.3-.4-2-.2-2.2 1.1-1.1.9.7 1.8 1 2.2.6.3-.3 0-.6-.8-.7s-.3-.4 1.1-.8 3.5-.4 4.8.1c1.5.5 2.1.4 1.7-.2-.3-.6-.2-1 .3-1s.9-.7.9-1.5c0-1.9-.6-1.9-1.3-.1m131.9.6c-.2 2.7 1 3.2 3.3 1.5 1.6-1.3 1.7-1.4.2-.9-1.2.4-1.8.1-1.8-1 0-2.3-1.5-2-1.7.4m-147 .2c.1.7-.4 1.2-1 1-.7-.1-1.3.1-1.2.5.2 1.6-1.4 5.3-2.2 5.3-.5 0-.9.8-.9 1.7.1 1.7.1 1.7 1 .1.6-1 1.8-1.4 3.2-1.1 2 .4 2.1.3.6-.7-1-.6-1.8-1.6-1.8-2.1 0-.6.5-.7 1-.4.6.3 1.5-.6 2-2 1.2-3.3 1.2-3.5 0-3.5-.5 0-.9.6-.7 1.2m128.7-.5c0 .6-1.2 1-2.6 1s-3 .5-3.5 1c-.7.7.1.9 2.4.8 3.4-.3 3.5-.2 3.5 3 0 2.8-.3 3.3-1.9 3-1.1-.2-1.7 0-1.4.6.4.5 1.3.9 2.2.9 1 0 1.3.6.9 1.6-.3.8-.2 1.2.4.9s1-1.3 1-2.1c0-.9.5-1.2 1.2-.8.7.5.8.3.3-.5-.4-.7-.9-3.1-1.1-5.4-.4-3.6-1.4-6.6-1.4-4M53.9 29c-.3 2-.4 2.5-1.3 4-.7 1.2-.6 1.3.4.3 1.3-1.2 2.5-5.3 1.5-5.3-.3 0-.6.4-.6 1m15-.2c.9.7 1 1.1.2 1.5-.7.4-.8.5 0 .3 1.5-.2 1.3-2-.3-2.4-1-.3-1-.2.1.6m55.6.2c-.3.5-.1 1 .4 1 .6 0 1.1-.5 1.1-1 0-.6-.2-1-.4-1-.3 0-.8.4-1.1 1m16.7.2c-1.5 1.5-1.6 3.2-.2 2.3.6-.3 1 .1 1 .9 0 .9-.6 1.3-1.3 1-.8-.3-1.4.2-1.4 1.1 0 1.8 2.6 2.1 2.9.2.1-1.5.4-6.7.3-6.7s-.6.5-1.3 1.2"/><path d="M173.3 29.3c-.8 1.2-.9 1.8-1.2 3.8 0 .6-.8.8-1.7.5-1.4-.5-1.5-.4-.4.9 1 1.2 1.6 1.3 2.6.4 1-.8 1.4-.8 1.4 0 0 .6.4 1.1 1 1.1.5 0 .7-.6.4-1.4s-.1-1.7.5-2.1c.6-.3 1.1-1.2 1.1-2 0-1.8-2.8-2.7-3.7-1.2m2.7 2.2c0 .2-.6.5-1.3.8-.8.3-1.4-.1-1.4-.8s.6-1.1 1.4-.8c.7.3 1.3.6 1.3.8m2.3-2c0 .8.4 1.2.9.9.4-.3.8-.9.8-1.5 0-.5-.4-.9-.8-.9-.5 0-.9.7-.9 1.5m10.2-.6c-.6 1.1.9 2.3 1.9 1.4.9-.9.7-2.3-.3-2.3-.6 0-1.2.4-1.6.9m4.7 0c-.9.5-.6 1.3 1 2.7 1.5 1.3 1.9 1.4 1 .2-1-1.3-1-1.7 0-2 .7-.3.8-.7.2-1.1-.5-.3-1.5-.2-2.2.2m7.1-.2c-1.4.3-2.1 1.1-2 2.4.2 2.3 1.7 2.6 1.7.3 0-.8.4-1.3.9-1s1.1-.1 1.5-.9c.3-.8.4-1.4.3-1.4-.1.1-1.2.4-2.4.6m69.8.2c-.8.5-2.1.7-2.9.3-1-.3-1.3-.1-.8.7.5.7 1.6.9 2.8.5 1.8-.5 2-.3 1.5 1.5-.3 1.1-.1 1.9.3 1.8s.8.1.9.6c.2 1.8 2.7 3.3 4.8 2.9s2.3-.9 2.1-4.8c-.3-4.5-1.1-5.6-2.1-2.9-.4.8-.2 1.7.3 2 1.5.9 1.2 4.5-.2 4.2-1.8-.3-5.9-5.8-5.2-6.8.7-1.1.3-1.1-1.5 0"/><path d="M273.3 29.6c0 .7.6 1 1.4.7.7-.3 1.3-.8 1.3-1.2s-.6-.8-1.3-.8c-.8 0-1.4.6-1.4 1.3M238 31c-.6 1.1-.7 2-.2 2 .6 0 1.2-.9 1.5-2s.3-2 .1-2-.8.9-1.4 2m-115.4 1.8c.3 3.9.5 4 1.4 1.2.8-2.4.8-2.4.9-.3.1 1.7.7 2.3 2.3 2.3 2.1 0 2.1 0 .2-1.5-1.8-1.4-1.8-1.4.4-1.5 1.4 0 2.1-.4 1.6-1.1-.3-.6-1.4-.9-2.4-.6-.9.2-2.4.1-3.1-.4-1.1-.6-1.4-.1-1.3 1.9M225 31c0 .6-.4.9-.9.6-.4-.3-.6.6-.3 1.9.2 1.4.9 2.5 1.4 2.5s.6-1 .3-2.3c-.5-1.7-.4-1.9.4-.7.9 1.3 1.1 1.3 1.1-.2 0-.9-.4-2-1-2.3-.5-.3-1-.1-1 .5m-105.5 1c.3.5.8 1 1.1 1 .2 0 .4-.5.4-1 0-.6-.5-1-1.1-1-.5 0-.7.4-.4 1m136.2 1.3c-1.4 2.1-1.3 2.3.5 2.4 1.5.2 1.8-.3 1.2-1.9-.4-1.5-.3-1.8.6-1.3q1.35.75.6-.3c-1-1.6-1.1-1.5-2.9 1.1m18.9-1.5c-.3.6-.1 1.4.5 1.7 1.4.9 2 .2 1-1.4q-.9-1.2-1.5-.3M49.5 32.9c-.3.5-.1 1.2.5 1.6.5.3 1-.1 1-.9 0-1.8-.6-2.1-1.5-.7m129.3.3c.8.8 1.8.8 3.4.1 2.1-.9 2-1-1.1-1.1-2.5 0-3.1.2-2.3 1M201 33c0 .5.8 1.4 1.8 1.9 1.7 1 1.4 1.2-2.7 1.5-2.4.1-3.2.9-3.5 3.2-.2 1-.8 2-1.5 2.2-1 .3-1.1-.2-.6-1.9.7-2.2.6-2.3-.9-1-1.6 1.3-1.5 1.6 1 3.9 2.3 2.2 2.4 2.7 1.2 3.6-.8.6-1.3 1.8-1 2.6.5 1.3.3 1.3-1.4 0-1.7-1.4-1.8-1.3-.7.1.7.9 1 1.9.7 2.2-.4.4.4.4 1.6.2 2.5-.5 4-1.5 2.3-1.5-1.4 0-1-3.3.4-3.7.6-.2 1.5.1 1.9.8.5.8.3 1-.7.5-.8-.4-.3.1 1.1 1.2 2.2 1.9 2.7 1.9 4.1.6 1.4-1.2 1.8-1.3 2.2-.2.4.9.6.9.6.1.2-2.1-2.2-2.6-3.5-.8-1.3 1.7-1.5 1.6-2.5-1.4-.6-1.7-1.4-3-1.6-2.7-.3.3-1.1 0-1.8-.7-.9-.9-.9-1.4.2-2.5.7-.7 1-1.9.6-2.5-.3-.7.3-.4 1.4.6 1.4 1.2 2.3 1.5 2.8.7.3-.6.1-.9-.6-.8-.6.2-1.4-.3-1.6-1-.3-.8.1-1 1.1-.6.9.3 2.4 0 3.4-.7 1.5-1.3 1.6-1.2.3.4-.8.9-1.1 2-.7 2.4.3.4-.4 1.7-1.6 3-1.8 1.9-1.9 2.5-.8 3.6 1 1 1.2.9.7-.5-.8-2.3 1-3.3 3.1-1.6 1.5 1.2 1.6 1.1.3-.5-.7-.9-.9-1.7-.3-1.7 1.3 0 .9-4.9-.7-7.8-1.2-2.2-4.1-3.1-4.1-1.2m27.2-.5c.4.5.3 1.4-.3 2.2-.9.9-.8 1.3 0 1.3.6 0 1.1-.5 1.1-1.1 0-.8.5-.8 1.5.1 1 .8 1.5.9 1.5.2 0-.6-1-1.7-2.2-2.3-1.3-.6-2-.8-1.6-.4m12.3.5c-.3.5.3 1 1.5 1 1.4 0 1.9.4 1.4 1.2s-.1.7 1-.2c1.7-1.3 1.7-1.4-.1-2.1-2.6-1.1-3.1-1-3.8.1m-224.8.7c-1.1 1.1-.8 4.8.5 6.1.9.9.9 1.2 0 1.2-.7 0-1.2.5-1.2 1.1 0 .5.4.8.9.5s1.1.1 1.5.9c.6 1.6 3.6 2.1 3.6.5 0-.5-.7-.7-1.5-.4-1.4.6-1.9-.5-1.6-3.4.1-.6-.3-1.2-.9-1.2-.5 0-1-.9-1-2s.5-2 1-2c.6 0 1-.5 1-1 0-1.1-1.3-1.3-2.3-.3m47.7 2.8c0 1.3.6 2.7 1.3 2.9.9.4 1.1-.2.9-1.7-.3-1.2-.5-2.5-.5-3-.2-1.9-1.7-.4-1.7 1.8M177 35c0 .5.5 1 1.1 1 .5 0 .7-.5.4-1-.3-.6-.8-1-1.1-1-.2 0-.4.4-.4 1m16.4.5q-1.8 1.35-.6 1.5c.7 0 2-.7 2.8-1.5 2-1.9.4-2-2.2 0m-167.1.2c-1.6.6-1.7 3.3-.2 3.3.5 0 .8.4.4 1-.3.5-1.2.7-2 .3-.8-.3-1.5-.1-1.5.4s1.5.8 3.3.7c4.7-.2 4.7-.2 4.3-2.7-.3-1.2-.5-2.5-.5-3-.1-.8-1.9-.8-3.8 0m2.8 2.6c-.8.8-1.4.7-2.3-.2-1-1.1-1-1.3 0-.7.6.4 1.2.2 1.2-.4s.5-.8 1.1-.4c.8.4.8.9 0 1.7m102.6-2.6c-1.4 1.3-.6 2.4 1.3 1.8 1.1-.4 2-.2 2 .4s.7 1.1 1.5 1.1 1.5.4 1.5.9-1 .7-2.2.4c-1.7-.3-1.9-.2-.9.5.7.5 1 1.5.6 2.2-.5.8 0 .7 1.4-.2 1.2-.7 2.1-1.8 2.1-2.5s.4-1.3.9-1.3c1 0 .9 1.9-.2 3.7-.5.8-.4 1.3.2 1.3s1.2-.5 1.2-1c.1-.6.2-1.6.3-2.3.1-.6.7-1.1 1.4-1 1.4.4 1.6-1.3.2-2.2-.5-.3-1-.2-1 .4 0 .7-.8.7-2.5.1-1.4-.5-2.5-.7-2.5-.5 0 .3-1-.1-2.3-1-1.3-.8-2.7-1.2-3-.8m106.6 0c-1.5.5-1.7 2.3-.4 2.3.5 0 1.1-.7 1.5-1.5.3-.8.4-1.5.3-1.4-.1 0-.8.3-1.4.6"/><path d="M19 37c0 .5.5 1 1 1 .6 0 1-.5 1-1 0-.6-.4-1-1-1-.5 0-1 .4-1 1m3.5 0c-.3.5-.1 1 .4 1 .6 0 1.1-.5 1.1-1 0-.6-.2-1-.4-1-.3 0-.8.4-1.1 1m10.8.2c-1.4 2.3-1.3 4 .2 2.8 1-.8 1.4-.7 1.8.2.2.7.8.9 1.3.5s.2-1.2-.5-1.6c-.7-.5-1-1.4-.7-2 .4-.6.3-1.1-.3-1.1-.5 0-1.3.6-1.8 1.2m7.1-.5c1.1 1.1 4.6 1.4 4.6.3 0-.6-1.2-1-2.7-1-1.4 0-2.3.3-1.9.7"/><path d="M45.6 37.6c-.3.9-1.3 1.4-2.1 1.1-1-.4-1.2-.1-.8 1.1.6 1.5.4 1.5-1.4-.1-1.6-1.4-2.3-1.5-2.9-.6-.5.8-.3 1 .6.4s1-.1.5 1.6c-.4 1.7-.3 2 .3 1 .6-.8 1.5-1 2.2-.6.8.5 1.8.1 2.7-1 .7-1.1 1.3-1.7 1.4-1.4.5 2.8.4 4.9-.3 4.9-.5 0-.6.5-.3 1 .4.6 1.1.5 2-.4.8-.7 2.6-1.2 4.2-1 1.5.2 2.1.1 1.3-.3-.8-.3-2.1-1.3-2.8-2.2-1.1-1.3-1.2-1.3-.6-.1.5 1-.1.8-1.5-.5-1.2-1.1-1.8-2.1-1.2-2.3 1.3-.4 1.5-2.2.2-2.2-.5 0-1.2.7-1.5 1.6"/><path d="M54.1 37.7c-.1 1.2-.7 2.4-1.3 2.6q-1.5.6 0 .6c1.5.1 2.6-2.3 1.9-4.1-.3-.7-.6-.3-.6.9M145 37c0 .5.4 1 .9 1 .6 0 1.3-.5 1.6-1 .3-.6-.1-1-.9-1-.9 0-1.6.4-1.6 1m3.6.5c-.3.8-1.3 1.5-2.2 1.5-1.2 0-1.5.6-1.1 2.1s.2 1.9-.8 1.5c-1.7-.6-3 1-1.6 1.9.6.3.7 1.3.4 2.2-.4 1-.2 1.4.4 1s1.9 0 2.7.9c.9.8 1.6 1.4 1.7 1.2 1-4.4.9-4.9-1.1-3.8-1.6.9-2 .8-2-.5 0-.9.4-1.4.9-1.1 1.6 1 4-.5 3.8-2.3-.1-1.3-.7-1.7-2.2-1.4-1.8.3-1.8.2.3-.8 1.2-.7 2.2-1.8 2.2-2.6 0-1.7-.6-1.7-1.4.2m36.2-.8c-1 .2-1.8 1.3-1.8 2.3 0 1.1.8 2.4 1.8 2.9 1.5.9 1.5 1.2.2 2.1-1.3.8-1.3 1.1-.1 1.9 1.6 1 .7 4.6-.9 3.6-.5-.3-1 .1-1 1 0 1.4.2 1.4 2.3 0 1.9-1.2 2.3-2.2 1.9-4.8-.2-1.7-1.1-4-2-5-.8-.9-1.2-2-.9-2.4.4-.3.7-.1.7.5 0 .7.5 1.2 1.2 1.2.6 0 .8-.3.5-.7-.4-.3-.2-1.2.4-2 1.2-1.3.8-1.4-2.3-.6m-57.6 3.8c.1 3.9.9 3.9 1.3 0 .2-1.4-.1-2.7-.6-3-.4-.3-.8 1-.7 3M71.5 40c-.3.5-.1 1 .4 1 .6 0 1.1-.5 1.1-1 0-.6-.2-1-.4-1-.3 0-.8.4-1.1 1M91 40c1.2.8 1 1-.8 1-2.1 0-2.2.1-.8 1.6C91 44.1 90.7 46 89 46c-.5 0-.7-.8-.4-1.8.5-1.4.4-1.5-.5-.2-1.5 2.1-1.4 4.3.3 3.7 2.4-.9 2.5.3.5 4-1.4 2.5-1.7 3.9-1 4.6.8.8 1.1.7 1.1-.2q0-1.2 2.1-.6c1.8.6 2 .4 1.4-1.5s-.4-2.1 1.5-1.5c1.6.5 2.1.3 1.8-.6-.3-.8-1.3-1.4-2.3-1.4-2.3 0-2.8-4.2-.6-5.5 1.4-.8 1.4-.9-.2-1-1.4 0-1.6-.4-.8-1.9 1.1-1.9.5-3.1-1.3-3.1-.6 0-.4.5.4 1m.4 12.5c-.4.8-.8 1.5-1 1.5s-.4-.7-.4-1.5.4-1.5 1-1.5c.5 0 .7.7.4 1.5m121.2-10.4c-1.3 2.1-1.4 2.9-.4 2.7.7-.2 1.2.3 1 1-.1.8.2 1.1.8.7s.7-1.2 0-2.4c-.6-1.2-.5-2.2.2-2.9s.9-1.4.7-1.7c-.3-.2-1.3.9-2.3 2.6M64.5 42c.3.5.1 1-.4 1-.6 0-1.1.7-1.1 1.5s.6 1.2 1.3.9c1.5-.5 2-4.4.6-4.4-.6 0-.7.4-.4 1M199 42c0 .5.5 1 1.1 1 .5 0 .7-.5.4-1-.3-.6-.8-1-1.1-1-.2 0-.4.4-.4 1M23 44c-1.3.8-1.2 1 .3 1 .9 0 1.7-.5 1.7-1 0-1.2-.1-1.2-2 0m44.5-.1c-.3.5-.1 1.2.5 1.6.5.3 1 .1 1-.5s.5-.8 1.2-.4.8.3.4-.4c-.9-1.4-2.3-1.5-3.1-.3M72 45c0 1.2.7 2 1.8 2 1.3 0 1.4-.2.3-.9-.7-.5-1-1.4-.7-2 .4-.6.2-1.1-.3-1.1-.6 0-1.1.9-1.1 2m59-1c0 .5.5 1 1 1 .6 0 1-.5 1-1 0-.6-.4-1-1-1-.5 0-1 .4-1 1m59 .4c0 .6.9 1.2 2 1.2s2-.3 2-.7-.9-.9-2-1.2c-1.2-.3-2 0-2 .7m47-.5c0 .6.4 1.3 1 1.6s.7-.1.4-.9c-.7-1.8-1.4-2.1-1.4-.7M15.3 45.5c0 .8.4 1.2.9.9s.6-1 .3-1.5c-.9-1.3-1.2-1.1-1.2.6m23.3-.3c.3.5 1 .6 1.5.3 1.3-.9 1.1-1.2-.6-1.2-.8 0-1.2.4-.9.9m37.9-.3c-.6 1.1 1.3 2.6 2.2 1.7.4-.3.1-.6-.6-.6s-.9-.5-.6-1c.3-.6.4-1 .1-1s-.7.4-1.1.9m79.9-.1c.3.6.2 1.3-.4 1.7-1.3.8-.3 2.5 1.4 2.5 1.8 0 1.5-4.2-.3-4.8-.8-.3-1.1 0-.7.6M23 48.4c0 .8.6 1.8 1.3 2.2.6.4.9.4.5-.1-.4-.4-.3-1.4.3-2.2.9-1 .8-1.3-.5-1.3-.9 0-1.6.6-1.6 1.4m4.6-.3c.2.4-.2 1-.8 1.2-.8.4-.9.6-.2.6.6.1 1.7-.5 2.3-1.2.8-1 .7-1.4-.4-1.4-.8 0-1.2.4-.9.8M38 49.3c0 1.6.5 2.3 1.8 2.2 1.8-.1 2.2-.6 2.2-3 0-.8-.9-1.5-2-1.5-1.4 0-2 .7-2 2.3m6-.3c0 1.1.5 2 1.1 2s.9-.6.6-1.4-.1-1.7.6-2c.7-.2.4-.5-.5-.5-1.2-.1-1.8.6-1.8 1.9m19.4-.9c-.3.6 0 1.5.7 2 .8.5.9.9.3.9s-1.1.7-1.1 1.5c0 1.7.6 1.8 2.7.5.9-.6 1-1 .3-1s-1-1-.7-2.5c.4-2.5-.9-3.4-2.2-1.4m64.9-.4c-.7.2-1.3 1.9-1.3 3.6 0 2.3.3 2.8.9 1.7.6-.8.7-1.8.4-2.2-.2-.5.1-1.5.7-2.3 1.3-1.6 1.2-1.6-.7-.8m109.8.9c0 1.1.3 1.4.6.6.3-.7.2-1.6-.1-1.9-.3-.4-.6.2-.5 1.3m-222.3.1c.7.3 1.6.2 1.9-.1.4-.3-.2-.6-1.3-.5-1.1 0-1.4.3-.6.6M34.2 50c1.3 2 2.8 2.7 2.8 1.2 0-1-2.2-3.2-3.2-3.2-.5 0-.3.9.4 2m37.6.7c.2 1.2 1.1 2.3 2 2.3 1.2 0 1.3-.3.5-1.1-.6-.6-.9-1.7-.7-2.4.3-.6-.1-1.2-.9-1.2q-1.35 0-.9 2.4m2.9-1.3c-.3.8 0 1.7.8 1.9.7.3 1.2 0 1.1-.8-.3-2.2-1.3-2.7-1.9-1.1m24-.7c-.8 1.3 3.3 5.7 4.2 4.7.3-.4.1-.9-.5-1.1-.7-.2-1-1.4-.7-2.6.3-1.6.2-1.8-.5-.8-.8 1.1-1 1.1-1.4 0-.3-.9-.6-1-1.1-.2m113.5 4.2.1 4.6 1.3-3c1.7-4 1.7-6.2-.1-6.2-1 0-1.4 1.2-1.3 4.6M15 51.4c0 .7.7 1.3 1.5 1.3s1.5-.4 1.5-.8-.7-.9-1.5-1.3c-.9-.3-1.5 0-1.5.8m13.9-1.2c-.6 2.2-.5 3.8.2 3.8.6 0 .7.4.4 1-.3.5-.1 1 .5 1 .7 0 .9-.8.5-2-.5-1.5-.2-2 1.2-2 1.5 0 1.6-.2.3-1-1.4-.9-2.9-1.3-3.1-.8m101.7.7c-.3.5.1 1.1.9 1.5.9.3 1.5 0 1.5-.9 0-1.6-1.6-2-2.4-.6m14.2-.4c-.4.4-.3 1.5.1 2.4.7 1.2.3 1.9-1.5 2.8-2.3 1.1-3.5.1-1.4-1.2.6-.4.8-1.1.4-1.6-.4-.6-1.1-.6-2 .2-.8.6-1.7.9-2.1.6-.7-.8-3.3 1.1-3.3 2.4 0 .5.5.9 1 .9.6 0 1-.8 1-1.7 0-1.5.4-1.3 2.4.7 2.5 2.7 2.5 4.3 0 3.3-.8-.3-1.4-.2-1.2.3s-.1 1-.7 1.1c-.5.1-.9-.5-.7-1.3s-.1-1.4-.6-1.4-1.2 1.1-1.4 2.5c-.3 1.3-.1 2.2.3 1.9 1.1-.7 1.1.7 0 2.5-.5.7-1.4 1-2 .7-.6-.4-1.1-.1-1.1.6 0 .8 1.3 1.3 3.8 1.3s3.9-.5 3.9-1.3-.8-1-2-.6c-1.5.5-1.4 0 .8-2.5 1.6-1.7 3.2-2.8 3.6-2.5.5.3 1 0 1-.5.3-2.6.4-3 1.1-3.7.4-.3.6.2.4 1.3-.3 1.1.1 2 .9 2 .7 0 1-.9.8-2.1-.4-1.6-.2-1.8.5-.7.8 1.1 1.1 1.1 1.6 0 .3-.8.4-.4.2.9-.5 2.6.9 2.1 1.7-.7.3-1.3-.3-2.3-1.9-3.1-1.3-.7-2.4-1.9-2.6-2.7s-.6-1.2-1-.8m11.4 2.5c.1 1.6.4 3 .6 3 1.2 0 4.2-2.3 4.2-3.2 0-.7-.4-.7-1.3.1-1.6 1.3-2.8.5-2-1.5.3-.8 0-1.4-.6-1.4s-1 1.3-.9 3M19.5 52c.3.5 1.1 1 1.6 1 .6 0 .7-.5.4-1-.3-.6-1.1-1-1.6-1-.6 0-.7.4-.4 1m129.5.5c0 .8.2 1.5.4 1.5s.6-.7 1-1.5c.3-.8.1-1.5-.4-1.5-.6 0-1 .7-1 1.5m3.5-.5c.3.5.8 1 1.1 1 .2 0 .4-.5.4-1 0-.6-.5-1-1.1-1-.5 0-.7.4-.4 1m37 0c.3.5.8 1 1.1 1 .2 0 .4-.5.4-1 0-.6-.5-1-1.1-1-.5 0-.7.4-.4 1m15.8-.3c-1.8.7-1.6 3 .3 3.7 1.4.5 1.5.4.5-.8-.9-1.1-.9-1.5.1-1.9.7-.2 1.1-.7.8-.9-.3-.3-1.1-.3-1.7-.1m28.7.3c0 .5.5 1 1.1 1 .5 0 .7-.5.4-1-.3-.6-.8-1-1.1-1-.2 0-.4.4-.4 1m3.5 0c.3.5.8 1 1.1 1 .2 0 .4-.5.4-1 0-.6-.5-1-1.1-1-.5 0-.7.4-.4 1"/><path d="M186.1 53.2c-.1 2.1-1.7 2.4-2.5.5-.2-.6-.4.3-.3 2.2.1 1.8.7 3.6 1.4 3.8.7.3 1.3.9 1.3 1.4 0 .4-.7.6-1.5.3-.8-.4-1.5-.2-1.5.4 0 1.3 2.9.9 3.8-.5.7-1.2 2.5-1.6 5.6-1.4 1.5.1 1.6.4.6 1.6s-1 1.8 0 3c.7.8 1.6 1.3 2 1s1 .2 1.4 1c.6 1.8.1 1.9-2.5.5-1.4-.8-2.4-.8-3.7 0-1.6 1.1-1.6 1.1.1.6 2.5-.8 5.8 1.1 5.5 3.1-.2.9.5 1.7 1.4 1.8 1.5.3 1.6 0 .7-1.7s-.8-2.3.5-3c2.4-1.4 1.9-2.5-1.4-3.1-1.6-.4-3-1.1-3-1.7s.5-.8 1.1-.4c.8.4.9-.1.4-1.6-.7-2.1-.5-2.2 1.9-1.6 1.6.4 2.6.2 2.6-.4s.3-.9.8-.6c.4.2 1.6-.2 2.7-1 1.6-1.2 1.7-1.4.2-1.4-.9 0-1.7-.8-1.7-1.7s-.3-1.3-.6-1c-.4.3-1.5.2-2.5-.4-1.3-.6-1.9-.6-1.9.1 0 .5.8 1 1.8 1 1.5.1 1.5.2-.3 1.6-1.9 1.6-1.9 1.6.5.9 1.9-.5 2.1-.4 1 .4-.8.6-2.1 1.1-2.8 1.1-1.8 0-4.3-2.6-3.4-3.5.4-.5.1-.5-.6-.1-1 .6-1 1.1-.1 2.2 1.3 1.6 1.4 1.5-2.8 1.9-1.8.1-3.3-.1-3.3-.6s-.8-.9-1.7-1c-1.4-.1-1.3-.2.3-.7 1.6-.6 1.9-1.2 1.3-2.7-.6-1.7-.8-1.7-.8-.3m.4 5.8c.3.6-.1.7-.9.4-1.8-.7-2.1-1.4-.7-1.4.6 0 1.3.4 1.6 1M75.9 53.4c0 .1-.2 1.3-.4 2.8-.3 2.5-.2 2.7 1.6 1.8 1-.6 1.9-1.5 1.9-2.1s-.6-.7-1.2-.3c-1 .6-1 .5-.1-.7 1-1.3 1-1.6-.2-1.6-.8 0-1.5.1-1.6.1m21.8.8c-.6 1.8 1.4 5.9 2.6 5.1.5-.3 1.3.1 1.8.8.7 1.1.9 1 .9-.4 0-1.1-.8-1.7-2.1-1.7-1.5 0-1.9-.4-1.4-1.9.6-2.1-1.1-3.9-1.8-1.9m63.7.1c-.5.7-1.3 2-1.7 2.9-.4 1.2-1.2 1.5-2.3 1.1-1.4-.5-1.6-.2-1.2 2 .4 1.9.1 2.7-.8 2.7-.8 0-1.4.4-1.4 1 0 1.2.3 1.2 2.4.4 1.1-.4 1.4-1.3 1-2.9-.5-1.9-.2-2.3 1.3-2 1 .2 2.4.4 3.2.4.7.1 1.1.7.7 1.6-.3.8-.1 1.5.4 1.5s.7.7.3 1.6c-.3.8-1.2 1.3-2 1s-1.2-.2-.8.3c.3.5-.1 1.2-.7 1.5-.7.3-.3.3 1 0 1.5-.4 2.2-.1 2 .6s.4 1.5 1.2 1.7c1.2.4 1.2.3.2-.5-1.9-1.3-1.9-1.7-.1-3.8 2.8-3.4 3.4-4.8 1.6-4.1-2.1.8-2.2 0-.2-1.9 1.8-1.8 2-4.4.4-4.4-.6 0-.9.6-.6 1.4.4.9-.2 1.3-1.9 1.3-2.3 0-2.3-.1-.7-1.3 1-.7 1.4-1.4.8-1.5-.5 0 .1-.5 1.5-.9l2.5-.8-2.5-.1c-1.4 0-3 .5-3.6 1.2M15.3 55.7c0 .9.4 1 1.4.2 1.6-1.4 1.6-1.6 0-1.6-.8 0-1.4.6-1.4 1.4m9.5-1c-1.8.5-2.1 3.9-.5 6 .6.9.5 1.3-.3 1.3-.7 0-1 .7-.6 1.6.4 1-.1 2.2-1.1 3.1-1.6 1.3-1.6 1.3.4.4 2.7-1.4 5.6-1.4 4.8-.1-.3.5-.2 1 .3 1q2.55 0 1.2-3.6c-.9-2.4.3-4.4 1.5-2.4.3.5 1.2 1 1.8 1 .7 0 .4-.5-.6-1.1-1.1-.7-1.6-1.7-1.2-2.9.5-1.4.1-1.8-2-1.6-1.4 0-2.5.6-2.5 1.3s.7 1 1.5.7c.8-.4 1.5-.1 1.5.5s-.5 1.1-1.1 1.1-.9.6-.6 1.4c.7 1.7-2 3-2.9 1.4-.4-.7-.3-.8.4-.4 1.5.9 1.5-.9.2-3.4-.8-1.5-.6-2.2 1.1-3.3 2.2-1.6 1.5-2.6-1.3-2m39.1.5c0 .2-.2 1.1-.4 2.1-.6 3.2-3.4 6.6-5.4 6.4-2.2-.1-1.8-1.7.5-1.7.8 0 1.4-.4 1.4-1s-.9-.6-2.2-.1c-2.7 1-3.7 4.1-1.3 4.1.9 0 1.4.4 1 .9-.3.5 0 1.3.6 1.7q1.05.6.6-.3c-.4-.6.1-1.7 1-2.4 1.3-1.1 1.7-1.1 2-.2.6 1.7 2.8 1.6 4.2 0 .8-1 .7-1.4-.4-1.4-.8 0-1.1.5-.8 1s0 .8-.7.5c-1.9-.6-2.4-2.8-.7-2.8.8 0 2-.7 2.7-1.6 1.1-1.2 1.1-1.5 0-1.2-1.9.4-1.9-2.5 0-3.4 1.2-.5 1.2-.7-.2-.7-1-.1-1.8 0-1.9.1"/><path d="M101.5 56c-.3.5-.1 1 .4 1 .6 0 1.1-.5 1.1-1 0-.6-.2-1-.4-1-.3 0-.8.4-1.1 1m129.5.5c0 .8.2 1.5.4 1.5s.6-.7 1-1.5c.3-.8.1-1.5-.4-1.5-.6 0-1 .7-1 1.5m-158.5.4c-.3.5-.1 1.2.4 1.5s1.1-.1 1.5-.9c.6-1.6-.9-2.1-1.9-.6m65 .1c-.3.5-.1 1 .4 1 .6 0 1.1-.5 1.1-1 0-.6-.2-1-.4-1-.3 0-.8.4-1.1 1m-48 1c-.4.6-1 .8-1.5.5-.4-.3-1.1.2-1.4 1.1-.3.8-1.1 1.2-1.7.9-.5-.4-1.6.1-2.3 1.1-1 1.3-1.5 1.4-2.1.4q-.75-1.35.3-.6c.7.4 1.2.2 1.2-.3 0-1.6-1.5-1.3-3 .3-1.2 1.5-4.4 1.1-3.5-.4.3-.5-.5-.6-1.7-.2-1.2.3-1.7.7-1 1 .6.2 1.2.8 1.2 1.3 0 .4-.8.6-1.7.3-1.4-.5-1.5-.4-.4.4s1 1.2-.5 2.1c-1.1.6-1.4 1.1-.9 1.2.6.1 2.4.3 4 .5 3 .3 3 .3.6-1-1.8-1-2-1.5-1.1-2.1 2.4-1.5 6.9-1.3 8.2.3 1.1 1.3 1 1.5-.8 1-1.3-.3-2.1 0-2.1.7s.5 1.2 1.1 1.1c1.9-.3 3.7-1.7 3.5-2.9-.3-2.4.1-4 .9-3.3 1 1.1 1 5.6-.1 4.9-.5-.3-.6.5-.2 1.8.4 1.6.3 2-.3 1.1-.7-1.1-1.1-.9-1.5.8s-.2 2 1 1.5c.9-.3 2 0 2.4.7.4.6.7-.8.7-3.3-.1-7.4.1-8.4 2.3-9.8 1.7-1 2.3-1 2.9-.1.5.8 1 .8 1.4.2.3-.5-.1-1.3-1-1.6-2.1-.8-2.2-.8-2.9.4m37.5.5c0 .8-.8 1.5-1.9 1.5-2.2 0-5.6 4.6-4.1 5.5.6.3 1-.1 1-1q0-1.65 1.5-1.2c.8.4 1.7.2 2-.3.4-.6.1-1-.6-1s-.9-.3-.6-.6c.4-.4 1.4-.1 2.4.7.9.8 1.4.9 1 .2s.2-1.8 1.3-2.6c1.8-1.3 1.9-1.5.5-2.1-2.3-.9-2.5-.8-2.5.9m148.2 1.1c-.1 1.7.2 2.3 1 1.8.6-.4 1.7.1 2.4 1 .7 1 1.5 1.3 1.8.7.3-.5 0-1.5-.7-2.3-.8-.7-1.2-1.8-1-2.3.2-.6-.5-1.1-1.5-1.2-1.2-.1-1.8.6-2 2.3M15 59.8c0 1 .5 2.3 1.1 2.9.8.8.7 1.3-.2 1.8-.8.5-1 .4-.5-.3.4-.7.1-1.2-.9-1.2-1.1 0-1.5.5-1.1 1.5.3.8.1 1.5-.3 1.5-1.7 0-1.8-2.5-.3-4.3 1.4-1.6 1.3-1.7-.9-1.7-1.7 0-2 .3-1 .9s1 1 .1 1.6c-.6.4-.9 1.4-.6 2.2.4.9.2 1.1-.6.7-.7-.4-.8-.3-.4.5.4.6 1.1.9 1.6.6.4-.3 1-.1 1.2.5.1.5 1.6-.1 3.3-1.4 2.5-2 2.8-2.6 1.6-4-1.2-1.5-.8-2.1 1.2-1.7.5.1.6-.3.2-.9-1-1.7-3.5-1.1-3.5.8m5-.2c0 .8.5 1.2 1 .9.6-.4.8-1.1.5-1.6-.9-1.4-1.5-1.1-1.5.7m48.6-.2c.3.8 1.2 1.2 2.1.9 1.2-.5 1.2-.7.1-1.4-2-1.3-2.8-1.1-2.2.5M153 59c1 .6 1.1 1 .3 1-.7 0-1.3.5-1.3 1.1 0 .8.5.8 1.5-.1 1.6-1.3 1.1-3-.8-3-.7 0-.6.4.3 1m48.7 1.4c-1.1 1.6-1.6 1.7-3.6.7-2.1-1.2-2.2-1.1-1.1.8.9 1.8 1.4 2 3.3.9 1.2-.6 2.8-1.8 3.5-2.7.8-.9 1.1-1.1.8-.4-.4.8.7 1 3.6.7 6.3-.6 6.5-1.9.2-1.9-4.3 0-5.8.4-6.7 1.9m31.8-1.5c-.6 1.1.9 2.3 1.9 1.4.9-.9.7-2.3-.3-2.3-.6 0-1.2.4-1.6.9m36 .2c-1.6.8-1.5.8.8.4 2.1-.4 2.7-.2 2.1.6-.4.8-.3.9.5.5.6-.4.9-1.2.6-1.7-.7-1.1-1.4-1.1-4 .2m-32 2.4c0 1.3.4 2.7.9 3.2s.7.1.3-1c-.4-.9-.2-1.7.3-1.7 1.5 0 1.2-1.7-.3-2.3-.8-.3-1.3.3-1.2 1.8M7 61.1c0 .5.5.7 1 .4.6-.3 1-.8 1-1.1 0-.2-.4-.4-1-.4-.5 0-1 .5-1 1.1m25.8-.4c.7.3 1.6.2 1.9-.1.4-.3-.2-.6-1.3-.5-1.1 0-1.4.3-.6.6m75.2 0c0 .6-.8 1-1.7.8-1-.1-1.2 0-.5.2.6.3 1.2 1.1 1.2 1.9 0 1.1-.4 1.2-1.9.4-2.8-1.4-3.8-1.2-1.7.3 1.1.8 2 2.9 2.1 5 .3 3.3.1 3.7-2.1 3.7-1.5 0-2.4.6-2.4 1.5 0 .8.5 1.5 1.1 1.5.5 0 .7-.4.4-1-.7-1.2 1.8-1.4 2.9-.3 1.4 1.4 7.6 1 7.6-.5 0-.7-.5-1-1-.7-1.5.9-4.7-.3-5.4-2-.9-2.4.5-4.7 2.3-4 1.3.5 1.4.4.4-.6-.7-.7-1.3-2.2-1.3-3.4 0-1.8.2-1.7 1.3.5.8 1.6 2.1 2.5 3.7 2.5 1.4 0 3.1.4 3.7.8.9.6 1.1.3.7-.8-.4-1 .1-2.2 1.5-3.1 2.8-2 2.7-3.5-.1-3-1.3.3-2.6.5-3 .5-.4.1-.5.7-.2 1.5s-.3 1.9-1.5 2.6c-2.1 1.1-4.5.5-3.7-.8.2-.4-.2-1.6-1-2.7-.8-1-1.4-1.4-1.4-.8"/><path d="M111 61c0 .5.4 1 .9 1 .6 0 1.3-.5 1.6-1 .3-.6-.1-1-.9-1-.9 0-1.6.4-1.6 1m61-.2c0 .6.8 1.8 1.7 2.8 1.6 1.6 1.6 1.6-.5 1-1.3-.5-2.2-.3-2.2.3s.6 1.1 1.4 1.1 1.7.6 1.9 1.2q.6 1.5.6 0c.1-.9.6-1 2-.3 1.8 1 3.1.6 3.1-1.1 0-.4-.5-.8-1.1-.8-.5 0-.7.5-.3 1.2.4.6.3.8-.4.5-.5-.4-.8-1.7-.4-2.9.4-1.6.2-1.9-.8-1.3-.9.5-1.1.4-.6-.4.6-.9 1.1-.9 2.2 0s1.4.8 1.5-.2c0-.8.4-.5.9.6.8 1.9.9 1.9.9-.2.1-1.8-.5-2.1-3.4-2.1-1.9 0-3.5.5-3.5 1 0 .6-.6.5-1.5-.2-.9-.8-1.5-.8-1.5-.2m46 .3c0 .5.5.7 1.1.3.8-.4.9.1.4 1.6-.6 2-.5 2.1.8.9 1.1-1 1.2-1.8.5-2.7-1.3-1.5-2.8-1.6-2.8-.1m23.8-.2c1.1.7 1.1.9-.2 1.4-.9.4-1.6 1.3-1.6 2.1s-.6 1.6-1.2 1.9c-.7.2-.2.2 1 0 1.5-.2 2.1 0 1.7.7-.3.5-.1 1 .4 1 .6 0 1.1-.5 1.1-1 0-.6.5-1 1-1 .6 0 1 .6 1 1.4s.4 1.7.8 2c1 .6 1-5 0-6-.5-.4-.8-.2-.8.5s-.5.9-1 .6c-.8-.5-.8-1.1 0-2s.6-1.4-.6-1.9c-2.2-.9-3.1-.7-1.6.3m15.7.9c.3.7.5 1.9.6 2.5 0 .7.4.3.9-.8.7-1.7.9-1.7.9-.3.1 1 .5 1.8 1 1.8.4 0 .6-1 .4-2.3-.3-1.4-1.2-2.3-2.4-2.3s-1.8.5-1.4 1.4m5.3-1.1c.7.3 1.6.2 1.9-.1.4-.3-.2-.6-1.3-.5-1.1 0-1.4.3-.6.6m3.7 2.2c.3 2.3.1 3-.8 2.5-.7-.4-.5.1.4 1.2.9 1 1.4 2.6 1.2 3.4-.4 1.3-.3 1.3.5.1.6-.8.8-2 .5-2.8-.3-.7 0-1.9.6-2.7.8-1 .6-1.7-.8-3-1.9-1.8-2-1.7-1.6 1.3m2 .1c.3.5.1 1-.4 1-.6 0-1.1-.5-1.1-1 0-.6.2-1 .4-1 .3 0 .8.4 1.1 1m13.6-2.1c-1.1.7-1.1 1 0 1.6 2 1.3-2.1 2.4-5.3 1.4-2.1-.6-2.6-.4-2.1.7.3.8-.1 1.4-1.1 1.4-.9 0-1.6.4-1.6.8s.9.8 2 .8 2-.7 2-1.6c0-1.3.1-1.3 1 0 .5.8 1 1 1 .5 0-.6.5-.3 1 .5.8 1.2 1 1.2 1-.5 0-1.3.3-1.6.8-.8.8 1.3 3.6.1 3.8-1.7.1-.5.2-1.5.3-2.1 0-.5.6-.7 1.1-.4.6.3 1 .1 1-.4 0-1.3-3-1.4-4.9-.2m-69.7 2c0 1.1.5 1.7 1 1.4.6-.4.6.1.1 1.3-.4 1-.7 2.7-.7 3.7s-.4 1.5-1 1.1c-.7-.4-.8-.2-.4.4 1.2 2 2.9 1.3 2.3-.8-.3-1.1-.1-2.2.3-2.5 1.3-.8.9-6.5-.4-6.5-.7 0-1.2.9-1.2 1.9m10.9-1.2c.4.3.1 1.3-.6 2.2-1.1 1.4-1 1.4.6.2 2-1.5 2.2-3.1.5-3.1-.6 0-.8.3-.5.7M36 63.1c0 .5.5.7 1 .4.6-.3 1-.8 1-1.1 0-.2-.4-.4-1-.4-.5 0-1 .5-1 1.1m104.6-.2c-.7 1.1.3 4.1 1.3 4.1.4 0 .7-1.1.7-2.5 0-2.5-1-3.3-2-1.6m27.6.3c.2.7-.2 1.2-.9 1.1-.6-.1-1.4.4-1.7 1.2s-.1 1.5.4 1.5c.6 0 1.3 0 1.7.1 1.2.1 2.3-4 1.2-4.6-.5-.4-.8-.1-.7.7m37.3-.2c.3.5.8 1 1.1 1 .2 0 .4-.5.4-1 0-.6-.5-1-1.1-1-.5 0-.7.4-.4 1m57 0c.3.5 1 1 1.6 1 .5 0 .9-.5.9-1 0-.6-.7-1-1.6-1-.8 0-1.2.4-.9 1m-254.6.2c-.6 1.1-.5 4.8.1 4.8.4 0 .8-1.1.8-2.5 0-2.1-.5-3.2-.9-2.3m193.8.5c-1 .9-.8 4.3.2 4.3.5 0 1.1-1.1 1.3-2.5.5-2.4-.2-3.2-1.5-1.8m24.4 0c-.1.6.4 1.5.9 1.8.6.4.7 1.1.4 1.7-.5.7-.2.8.6.3.7-.4 2.6-.8 4.1-.7 1.6 0 2.9-.4 2.9-.9 0-.6-.5-.7-1.1-.4-.6.4-1.7-.1-2.5-1.1-.8-1.2-1.3-1.3-1.2-.5.2.7-.3 1.6-1.1 1.9-.9.3-1.1 0-.6-.8s.4-1.1-.3-.6c-.5.3-1.3 0-1.5-.6-.4-.9-.6-1-.6-.1m29.5 1c-.6 1.4-.5 1.5.5.6.7-.7 1-1.5.7-1.8s-.9.2-1.2 1.2M30.9 67.2c-.3 2.2-.1 3.4.5 3.1.5-.4.7.1.2 1.2-.5 1.5-.4 1.6.9.5 1.1-.9 1.5-1 1.5 0 0 .6.5 1 1.1.8s1-.8 1-1.3c0-.6.6-1.7 1.3-2.5 1.8-2.1 1.7-5.4-.1-3.9-.9.9-1.7.8-2.8-.1-1.3-1.1-1.4-1-.9.4.3.9.1 1.6-.4 1.6-.6 0-1.2-.8-1.4-1.8-.3-.9-.6 0-.9 2m6.1 1.3c-1.3 1.6-3.6 2-4.4.7-.2-.4.5-.9 1.7-.9 1.2-.1 2.3-.7 2.5-1.3s.7-.9.9-.6c.3.3 0 1.2-.7 2.1m58.1-2.9c0 1.1.3 1.4.6.6.3-.7.2-1.6-.1-1.9-.3-.4-.6.2-.5 1.3m90.4-.6c-.3.5-.1 1 .4 1 .6 0 1.1-.5 1.1-1 0-.6-.2-1-.4-1-.3 0-.8.4-1.1 1m-87.4 1.3c-.6.8-.7 1.8-.3 2.2.4.5-.1.5-1 .2-1.1-.4-1.8-.1-1.8.7 0 2.2 3 1.4 3.6-1.1.4-1.2 1.1-2 1.7-1.6.6.3.7.1.3-.5-.9-1.5-1.1-1.5-2.5.1m4.2.2c0 .8.4 1.2.9.9s.6-1 .3-1.5c-.9-1.3-1.2-1.1-1.2.6m24.7-.6c0 .6.5 1.3 1 1.6.6.3 1-.1 1-.9 0-.9-.4-1.6-1-1.6-.5 0-1 .4-1 .9m77.6.4c.3 1 .9 1.5 1.2 1.2s0-1.1-.7-1.8c-1-.9-1.1-.8-.5.6m11.9-.2c-.4.6-.5 1.2-.2 1.5.2.3.7-.2 1-1.1.7-1.7.1-2-.8-.4m7.5-.1c0 .5.5 1 1.1 1 .5 0 .7-.5.4-1-.3-.6-.8-1-1.1-1-.2 0-.4.4-.4 1m59.9.3c-1.9 1.5-3.1 4.5-2 5.2.5.2 1.4-.9 2.1-2.5s1.6-2.7 2.1-2.4.9 0 .9-.5c0-1.4-1.1-1.3-3.1.2m-266.5.9c-.4.6-.8 2.3-.9 3.6-.1 2-.6 2.6-2.9 2.7-2 0-3-.5-3.3-1.6C9.8 70 7 68.4 7 70c0 .6.6 1 1.3 1 .9 0 .8.3-.2.9-2.3 1.5-.2 3.1 3.4 2.6 1.9-.2 3.7 0 4 .5.4.6 1.3 1 2.1 1 1 0 1.2-.5.7-1.3-1-1.6-1.1-2.6-.2-6 .8-2.8.5-3.5-.7-1.5m50.1-.2c.3.5.8 1 1.1 1 .2 0 .4-.5.4-1 0-.6-.5-1-1.1-1-.5 0-.7.4-.4 1m83.5.2c0 1.1 2.8 1 3.5-.1.3-.6-.4-.9-1.5-.8s-2 .5-2 .9m5.5-.2c.3.5.8 1 1.1 1 .2 0 .4-.5.4-1 0-.6-.5-1-1.1-1-.5 0-.7.4-.4 1m51 0c.3.5 1.1 1 1.6 1 .6 0 .7-.5.4-1-.3-.6-1.1-1-1.6-1-.6 0-.7.4-.4 1m12.4-.5c-1.6 2.9.2 4.3 3.1 2.3 1.3-.8 1.2-.9-.2-.4-1.1.3-1.8-.1-2-1.2-.2-.9-.6-1.3-.9-.7m36.1.5c-1.6 1-.9 5.2 1 5.8 1.2.4 1.3.2.3-.9-2-2-1.5-3.1.8-1.9 1.6.9 1.8 1.4.8 2.6-.6.8-1.8 1.4-2.5 1.4-.8 0-1.4.3-1.4.7 0 .5 2 .8 4.4.8 3.9 0 4.3-.2 3.2-1.5-.8-.8-1.2-2.3-1.1-3.3.2-.9-.1-1.5-.6-1.1-.5.3-.9 0-.9-.5 0-.6.5-1.1 1-1.1.6 0 1-.4 1-.9 0-1-4.3-1.1-6-.1m3 1c0 .5-.4 1-1 1-.5 0-1-.5-1-1 0-.6.5-1 1-1 .6 0 1 .4 1 1m-139-.1c0 .6.4 1.2.8 1.5.5.3.9-.1.9-.9s-.4-1.5-.9-1.5c-.4 0-.8.4-.8.9m-64.9.9c-.1.7.7 2.2 1.7 3.3 1.5 1.5 1.9 1.6 1.9.4 0-.8-.4-1.5-.9-1.5s-.6-.5-.2-1.2c.4-.6.3-.8-.4-.4-.5.3-1.3 0-1.5-.6q-.6-1.5-.6 0m175.6-.1c-1 .9-.9 3.3.1 3.3.4 0 .8-.9.8-2 0-2.3 0-2.2-.9-1.3m6.8.3c-.4.6-.3 1.6.3 2.2 1.3 1.3 2.3-.4 1.3-2.1-.7-1-1-1-1.6-.1"/><path d="M285 69.1c0 .5.5.7 1 .4.6-.3 1-.8 1-1.1 0-.2-.4-.4-1-.4-.5 0-1 .5-1 1.1M64.4 71.7c.1 1.7.5 3.5 1 4 .5.4.6.3.2-.4s-.2-2.2.5-3.4c.6-1.2.7-1.9.1-1.5-.6.3-1.2 0-1.5-.6-.2-.7-.4.1-.3 1.9m7.3-2c-.3.5-.2 1.5.2 2.2.7 1 1 1 1.6.1.4-.6.3-1.6-.3-2.2-.5-.5-1.2-.6-1.5-.1m7.5 1.3c.2 1.7-.1 2.4-1 2.2-.7-.1-2 .4-2.8 1.3-1.3 1.3-1.1 1.4 2.4 1.2s3.9-.5 3.7-2.5c-.1-1.3-.8-2.9-1.5-3.5-.9-.9-1.1-.6-.8 1.3m32.8-1.2c0 .5.7.9 1.5.9s1.5-.4 1.5-.9c0-.4-.7-.8-1.5-.8s-1.5.4-1.5.8m12 .7c0 .8.7 1.5 1.6 1.5s1.2.5.8 1.2.2.4 1.4-.6c2.8-2.5 2.8-2.9-.3-2.4-1.3.3-2.2.1-1.9-.3.3-.5 0-.9-.5-.9-.6 0-1.1.7-1.1 1.5m53-.5c0 .5.7 1 1.5 1s1.2.6.9 1.4-1.2 1.2-2 .9-1.4 0-1.4.6.7 1.1 1.5 1.1c1.7 0 5.1-4.7 4.1-5.7-.3-.3-.6 0-.6.7 0 1.1-.3 1.1-1.2.2-1.5-1.5-2.8-1.6-2.8-.2m7.3-.2c-.7.4-.9 1.3-.4 2.1.6.9 1 .7 1.4-.8.3-1.2.4-2.1.4-2.1-.1 0-.7.4-1.4.8m-24.9 1.5c.1.7.5 1.8 1 2.5 1.4 2.3 1.4 5.9-.1 5.9-.8 0-1.1-.7-.7-1.9.4-1.4 0-1.8-1.7-1.8-1.8 0-2 .3-1.1 1.2 2.4 2.4.5 3.4-2.7 1.4-1.1-.7-1.3-.4-.9 1.2.4 1.5 0 2.5-1 3.1-1.5.8-1.5 1.2-.3 2.3 1.1 1 1.2 1 .7 0-.6-.9.1-1.1 2.6-.7 2.9.4 3.1.4 1.6-.9-2.5-1.8-2.2-2.5.7-2.1 1.4.1 2.5-.2 2.5-.8s.3-.8.6-.4c.3.3 1.6.2 2.9-.3 1.8-.7 2.3-.5 2.1.6-.1.8-.8 2-1.5 2.7-1 .9-1.1.8-.6-.8.6-1.6.5-1.7-.4-.5-1.5 2.1-1.4 3 .4 3 1.6 0 3.5-3 3.5-5.5 0-1.1-.6-1.4-2.5-.9-3.1.8-3.3-.3-.2-1.6l2.2-.9h-2.3c-1.3-.1-2-.5-1.7-1.1s.2-1-.4-1-.8-.6-.5-1.4c.3-.7-.1-1.6-.9-1.9s-1.4 0-1.3.6"/><path d="M171.3 72c.4 1.5 0 2-1.3 2-1 0-2.1-.6-2.3-1.3q-.6-1.35-.6 0c-.1.7-.8 1-1.6.7-.8-.4-1.5-.1-1.5.6s.8 1 2 .7c1.1-.3 2-.2 2 .2s1.4.8 3 .9c2.8.2 3 .1 2-1.8-.6-1.1-.8-2.5-.5-3 .3-.6.1-1-.6-1-.6 0-.9.8-.6 2m21.1-.2c0 1 .6 1.9 1.3 1.9.8 0 .9-.6.2-1.9-1.2-2.3-1.5-2.3-1.5 0m28.1.2c-1.1 1.2-1.3 2-.6 2s.9.4.6 1c-1 1.7.7 1.1 2.2-.8 1.1-1.2 1.3-1.3 1-.2-.4 1.2.7 1.5 5.9 1.5 3.5 0 6.4-.3 6.4-.7 0-.9-.1-.9-6-1.2-5-.2-7.4-1.2-6.5-2.7 1.1-1.7-1.2-.9-3 1.1m24.2 0c.4 1.5.1 1.8-1.6 1.5q-2.1-.45-2.1 1.2c0 1.3.3 1.3 1.5.3 1-.8 1.5-.9 1.5-.2 0 .6.6.9 1.3.6 1.7-.6 1.9-4.1.2-4.7-.8-.4-1.1.1-.8 1.3m30.1-1.3c.7.3 1.6.2 1.9-.1.4-.3-.2-.6-1.3-.5-1.1 0-1.4.3-.6.6M120 72c0 .3.6 1.2 1.3 1.9 1 1.1.8 1.1-1 .2-1.9-.9-2.3-.9-2.3.2 0 .9 1.3 1.4 3.8 1.5 2.3.1 3.2-.2 2.4-.7-.8-.4-1.3-1.1-1.3-1.5.3-1.8 0-2.3-1.4-2.3-.8 0-1.5.3-1.5.7m14.1 1.8c-1.1 2.5-1 2.6.4.8s2-1.5 1.5.9c-.1.5.4.5 1.1-.2.9-.9.8-1.5-.3-2.7-1.4-1.3-1.7-1.2-2.7 1.2m151.8-2.1c-.1.5-.1 1.2 0 1.7s-.5.6-1.4.3c-.8-.4-1.5-.2-1.5.2 0 1.1 3 2.3 3.1 1.3 0-.4.2-1.5.4-2.5.2-.9.1-1.7-.1-1.7s-.5.3-.5.7m-190.2.9c.7.3 1 1.1.7 1.7-.2.7.4 1.3 1.6 1.4 1.1.1 1.9-.4 1.7-1-.3-1.6-1.9-2.7-3.7-2.6-.9 0-1.1.2-.3.5m86.3 1.1c0 1.3.5 2.3 1 2.3 1.3 0 1.3-1.1 0-3-.8-1.2-1-1.1-1 .7m-161.5.2c-.8 1.4.4 1.7 6.3 1.9 2.9.1 5-.3 4.7-.7-.3-.5-1.5-.7-2.8-.4-1.8.4-1.9.3-.7-.6.9-.7 1-1.1.3-1.1-.6 0-1.5.5-1.8 1-.5.8-1.1.7-2.1-.1s-1.4-.8-1.4 0c0 .6-.5 1.1-1.1 1.1-.5 0-.7-.5-.4-1 .3-.6.4-1 .1-1s-.7.4-1.1.9m14.1 0c-1.9.7-1.8.8.4 1.4 2.6.7 4.3 0 3.5-1.4-.7-1-1.3-1-3.9 0m80.2-.2c.7.3 1.6.2 1.9-.1.4-.3-.2-.6-1.3-.5-1.1 0-1.4.3-.6.6m15.2.8c0 .8.4 1.5 1 1.5.5 0 .7-.7.4-1.5-.4-.8-.8-1.5-1-1.5s-.4.7-.4 1.5m9.7-.8c-1.3 1.2-.7 2.3 1.1 2.2 1 0 1.2-.3.4-.6-.6-.2-1-.9-.6-1.4.6-1 0-1.2-.9-.2m61.3.8c0 .8.4 1.5.8 1.5.5 0 .9-.7.9-1.5s-.4-1.5-.9-1.5c-.4 0-.8.7-.8 1.5m4.3 0c0 .8.4 1.5.9 1.5.4 0 .8-.4.8-.9 0-.6-.4-1.2-.8-1.5-.5-.3-.9.1-.9.9m2.7-.6c0 .6.5 1.3 1 1.6.6.3 1-.1 1-.9 0-.9-.4-1.6-1-1.6-.5 0-1 .4-1 .9m67.3.4c0 .7.8 1.3 1.7 1.3s1.7-.6 1.7-1.3-.8-1.3-1.7-1.3-1.7.6-1.7 1.3m5.3 0c.3 1 .9 1.5 1.2 1.2s0-1.1-.7-1.8c-1-.9-1.1-.8-.5.6M67.5 75c.3.5 1.8 1 3.3.9 2.4 0 2.5-.1.7-.9-2.8-1.2-4.7-1.2-4 0m16.1-.2c-.2.4.4.9 1.5.9 1.1.1 1.7-.2 1.4-.8-.7-1.1-2.2-1.2-2.9-.1m102 .6c.3.8-.2 1.6-1.3 1.9-1.2.3-.8.5 1 .6 2.5.1 2.7-.1 1.7-1.9-1.2-2.3-2.2-2.7-1.4-.6m-126.8.3c.7.3 1.6.2 1.9-.1.4-.3-.2-.6-1.3-.5-1.1 0-1.4.3-.6.6m134.8.8c-.3.9 0 1.5.8 1.5s2.1.3 2.9.6c.9.3 1.6-.3 2-1.7.4-1.6.3-1.9-.6-1-.6.6-1.8 1.1-2.6 1.1-1.4 0-1.4-.1-.1-1 1.3-.8 1.3-1-.1-1-.9 0-1.9.7-2.3 1.5m-42.5 4.1c0 1.1.3 1.4.6.6.3-.7.2-1.6-.1-1.9-.3-.4-.6.2-.5 1.3m33.1-.9c-1 .4-1 .8-.1 1.9 1.6 1.9 2.4 1.8 2.6-.6.2-2-.2-2.2-2.5-1.3m8.8.4c0 .6-.8.8-1.9.4-1.1-.3-2.2-.1-2.5.4-.4.5.2 1 1.1 1 1-.1 3 .2 4.6.5 2.6.6 2.7.6 1-1.4-2-2.3-2.3-2.4-2.3-.9m-14.5 4.8c-.3.5 0 1.3.6 1.7.7.4.9.3.5-.4-.3-.5 0-1.3.6-1.5.9-.4 1-.6.1-.6-.6-.1-1.4.3-1.8.8m4 .1c-.3.6.1.7.9.4 1.8-.7 2.1-1.4.7-1.4-.6 0-1.3.4-1.6 1m10.3-.1c1.7 1 .8 5.7-.9 5.3-.8-.2-1.1 0-.6.4 1 1.1 7.7 1.6 7.7.6 0-.4-.5-1.3-1.2-2-.8-.8-.8-1.5.2-2.7.7-.8.9-1.6.4-1.6-5.3-.7-6.7-.7-5.6 0m-38.1 2.4c.3.5-.4.6-1.7.2-2-.6-2.1-.5-.9.8 1 1 1.8 1.2 2.6.5.9-.7 1.5-.6 1.9.6.3.9 1.1 1.6 1.6 1.6.6 0 .8-.6.5-1.4-.4-.9.1-1.6 1.1-1.9.9-.2 0-.5-2-.8s-3.4-.1-3.1.4m31.2-1.1c-.1.2-.2 1.5-.3 2.9-.2 2.1.2 2.5 2 2.1 1.6-.3 2.1-.9 1.7-2-.4-1-.2-1.3.5-.8.7.4 1.2.2 1.2-.3 0-1.4-1.7-1.4-2.5-.1-1 1.6-2.5 1.2-1.9-.5.5-1.2-.2-2.3-.7-1.3m-23.1 1.5c.7.3 1.6.2 1.9-.1.4-.3-.2-.6-1.3-.5-1.1 0-1.4.3-.6.6m8.7.3c-.3.5-.1 1 .4 1 .6 0 1.1-.5 1.1-1 0-.6-.2-1-.4-1-.3 0-.8.4-1.1 1m7 1c-.3.5-.1 1 .4 1 .6 0 1.1-.5 1.1-1 0-.6-.2-1-.4-1-.3 0-.8.4-1.1 1M162 91c0 .6.7 1 1.5 1s1.5-.2 1.5-.4-.7-.6-1.5-1c-.8-.3-1.5-.1-1.5.4m4.5 0c-.3.5-.1 1 .4 1 .6 0 1.1-.5 1.1-1 0-.6-.2-1-.4-1-.3 0-.8.4-1.1 1m15.5 0c0 .5.5 1 1.1 1 .5 0 .7-.5.4-1-.3-.6-.8-1-1.1-1-.2 0-.4.4-.4 1m-11.7.7c.9.2 2.3.2 3 0 .6-.3-.1-.5-1.8-.5-1.6 0-2.2.2-1.2.5"/>
</g><path fill="#804040" d="M103 22.4c0 .2.7.7 1.6 1 .8.3 1.2.2.9-.4-.6-1-2.5-1.4-2.5-.6M47.5 26c.3.5.8 1 1.1 1 .2 0 .4-.5.4-1 0-.6-.5-1-1.1-1-.5 0-.7.4-.4 1M66 37.1c0 .5.5.7 1 .4.6-.3 1-.8 1-1.1 0-.2-.4-.4-1-.4-.5 0-1 .5-1 1.1m125-.1c0 .5.5 1 1.1 1 .5 0 .7-.5.4-1-.3-.6-.8-1-1.1-1-.2 0-.4.4-.4 1m40.6.7c-.6 1.4-.5 1.5.5.6.7-.7 1-1.5.7-1.8s-.9.2-1.2 1.2M47 38.9c0 .6.4 1.3 1 1.6s.7-.1.4-.9c-.7-1.8-1.4-2.1-1.4-.7m86 5.1c0 .5.5 1 1 1 .6 0 1-.5 1-1 0-.6-.4-1-1-1-.5 0-1 .4-1 1m-62.5 8c.3.5.8 1 1.1 1 .2 0 .4-.5.4-1 0-.6-.5-1-1.1-1-.5 0-.7.4-.4 1M187 52c0 .5.5 1 1 1 .6 0 1-.5 1-1 0-.6-.4-1-1-1-.5 0-1 .4-1 1m4.5 0c.3.5.8 1 1.1 1 .2 0 .4-.5.4-1 0-.6-.5-1-1.1-1-.5 0-.7.4-.4 1m18.5-.6c0 .2.7.9 1.5 1.6 1.3 1.1 1.4 1 .9-.4s-2.4-2.3-2.4-1.2M96.5 59c.3.5.8 1 1.1 1 .2 0 .4-.5.4-1 0-.6-.5-1-1.1-1-.5 0-.7.4-.4 1m133 14c-.3.6.1.7.9.4 1.8-.7 2.1-1.4.7-1.4-.6 0-1.3.4-1.6 1M191 74c0 .5.5 1 1.1 1 .5 0 .7-.5.4-1-.3-.6-.8-1-1.1-1-.2 0-.4.4-.4 1"/><path d="M11 11c0 2 .5 2.5 2.3 2.5 1.9 0 2.4-.5 2.4-2.6 0-2.2-.5-2.6-2.4-2.5-1.8.1-2.3.7-2.3 2.6m7.3-.1c0 2 .5 2.6 2.3 2.6 3.2 0 3.1-4.9-.1-5.1-1.7-.1-2.2.4-2.2 2.5m7.1 0c.1 2.3.6 2.8 2.6 2.8 2.1 0 2.5-.5 2.4-2.5 0-1.9-.7-2.6-2.6-2.8-2.2-.2-2.5.2-2.4 2.5m33.9.1c0 2.2.4 2.6 2.3 2.2 1.3-.2 2.4-1.3 2.6-2.6.4-1.9 0-2.3-2.2-2.3s-2.7.5-2.7 2.7m7.3-2.1c-.8 1.5 1.1 4.6 2.9 4.8 1.6.2 2-.4 1.9-2.4 0-2-.6-2.7-2.3-2.8-1.2-.1-2.3.1-2.5.4M207.2 11c.1 1.8.7 2.5 2.3 2.6 1.7.1 2.2-.4 2.2-2.5 0-2-.5-2.6-2.3-2.6s-2.2.5-2.2 2.5m-173.9.5c0 3.2 4.1 3.2 4.3 0 .1-1.7-.4-2.3-2.1-2.3s-2.2.6-2.2 2.3m7.2 0c0 1.6.6 2.2 2.1 2.2 1.6 0 2.2-.6 2.2-2.2s-.6-2.3-2.2-2.3c-1.5 0-2.1.7-2.1 2.3m7.8 3c0 1.7.5 2.2 2.2 2.2s2.3-.5 2.3-2.2-.6-2.3-2.3-2.3-2.2.6-2.2 2.3m-30 4c0 1.7.5 2.2 2.2 2.2s2.3-.5 2.3-2.2-.6-2.3-2.3-2.3-2.2.6-2.2 2.3m48.2.2c0 1.8.5 2.3 2.5 2.3s2.5-.5 2.5-2.3c0-1.9-.5-2.4-2.5-2.4s-2.5.5-2.5 2.4m-18.2 3.8c0 1.7.5 2.2 2.2 2.2s2.2-.5 2.1-2.2c-.2-3.2-4.3-3.2-4.3 0m-30 3.6c0 2.1.5 2.6 2.2 2.5 3.2-.2 3.3-5.1.1-5.1-1.8 0-2.3.6-2.3 2.6m48.1-.4c.2 3.2 4.2 3.2 4.8 0 .4-2 0-2.4-2.3-2.4-2.2 0-2.6.5-2.5 2.4m18.9.2c0 2 .5 2.6 2.3 2.6s2.2-.5 2.2-2.6c-.1-2-.6-2.7-2.3-2.7s-2.2.6-2.2 2.7m7.2-.3c0 1.8.5 2.2 2.5 2.2 1.9-.1 2.5-.6 2.5-2.4s-.5-2.2-2.5-2.2c-1.9.1-2.5.6-2.5 2.4m7.8-.1c0 1.7.5 2.2 2.2 2.2s2.3-.5 2.3-2.2-.6-2.3-2.3-2.3-2.2.6-2.2 2.3m22 0c0 1.8.5 2.2 3 2.3 2.1 0 2.7-.2 1.9-1-.6-.6-.8-1.6-.6-2.3.3-.8-.4-1.3-1.9-1.3-1.9 0-2.4.6-2.4 2.3m8 .2c0 1.5.4 2.2 1.2 1.9.7-.2 1.7 0 2.2.5.6.6 1-.1 1-1.9 0-2.4-.5-3-2.2-3s-2.2.6-2.2 2.5m7 0c0 1.5.4 2.2 1.2 1.9.7-.2 1.7 0 2.3.6.8.8 1 .2 1-1.9-.1-2.5-.5-3.1-2.3-3.1-1.7 0-2.2.6-2.2 2.5m27.9.3c.1 1.9.6 2.5 2.3 2.5s2.2-.6 2.2-2.6c0-2.1-.5-2.6-2.3-2.5-1.7.1-2.2.7-2.2 2.6m7.1-.1c0 2 .5 2.6 2.3 2.6 3.2 0 3.1-4.9-.1-5.1-1.7-.1-2.2.4-2.2 2.5m15.1-.3c.1 1.8.7 2.4 2.4 2.4 3.3 0 3.1-4.4-.2-4.6-1.9-.1-2.3.3-2.2 2.2m12.1-.9c.3.8.5 2.1.5 2.8 0 .8.7 1.1 2 .8 1.1-.3 2-.9 2-1.3 0-.5.2-1.5.5-2.3.4-1-.2-1.4-2.5-1.4s-2.9.4-2.5 1.4m7.7 1.3c.1 1.8.7 2.5 2.3 2.6 1.7.1 2.2-.4 2.2-2.5 0-2-.5-2.6-2.3-2.6s-2.2.5-2.2 2.5m18.1-.5c0 1.7.5 2.2 2.2 2.2s2.3-.5 2.3-2.2-.6-2.3-2.3-2.3-2.2.6-2.2 2.3m7 .4c0 2.1.5 2.6 2.4 2.6 1.8 0 2.3-.5 2.3-2.5 0-1.9-.5-2.5-2.3-2.6-1.9-.1-2.4.3-2.4 2.5m15.1-.3c.1 1.8.7 2.4 2.4 2.4 3.3 0 3.1-4.4-.2-4.6-1.9-.1-2.3.3-2.2 2.2m7.6.4c0 2 .5 2.5 2.3 2.5 1.9 0 2.4-.5 2.4-2.6 0-2.2-.5-2.6-2.4-2.5-1.8.1-2.3.7-2.3 2.6m7 0c0 2 .5 2.5 2.3 2.5 1.9 0 2.4-.5 2.4-2.6 0-2.2-.5-2.6-2.4-2.5-1.8.1-2.3.7-2.3 2.6m-79.7.7c-3.3.6-3.2 4.7 0 4.9 2 .1 2.4-.3 2.4-2.7 0-1.6-.1-2.8-.1-2.8-.1.1-1.1.4-2.3.6M48.2 30.1c0 2.2.3 2.5 2.2 2.2 3.3-.7 3.3-5.1.1-4.9-1.7.1-2.2.7-2.3 2.7m191.8-.5c0 1.8.5 2.4 2.3 2.4 1.7 0 2.2-.6 2.2-2.4s-.5-2.4-2.2-2.4c-1.8 0-2.3.6-2.3 2.4M92.4 32.5c.1 1.6.8 2.5 2.3 2.8 1.8.3 2.1-.1 2.1-2.2-.1-2-.6-2.6-2.3-2.7-1.8-.1-2.2.3-2.1 2.1m37.2.3c0 1.9.7 2.6 2.6 2.8 2.1.2 2.5-.2 2.5-2.5s-.5-2.8-2.6-2.8c-2.2 0-2.6.5-2.5 2.5m28.2.3c-.4 2.2 0 2.6 2.2 2.6s2.7-.5 2.7-2.8c0-2.1-.5-2.6-2.3-2.5-1.6.1-2.4.8-2.6 2.7m29.5 0c0 2.2.5 2.6 2.4 2.5 1.8-.1 2.3-.7 2.3-2.6 0-2-.5-2.5-2.3-2.5-1.9 0-2.4.5-2.4 2.6M207 33c0 2.2.5 2.7 2.3 2.7 1.6 0 2.2-.5 2.2-2.3 0-1.6-.7-2.4-2.2-2.7-1.9-.4-2.3 0-2.3 2.3m25.3-.2c0 2.4.5 2.9 2.2 2.9s2.3-.5 2.3-2.4c0-1.5-.5-2.2-1.3-1.9-.7.2-1.7 0-2.2-.5-.6-.6-1 .1-1 1.9m35.7-1.9c-3.6.9-3.6 4.8-.1 4.8 2.2 0 2.6-.5 2.7-2.9.1-1.5.1-2.7 0-2.7-.1.1-1.2.4-2.6.8M18.3 33.5c0 1.7.5 2.2 2.2 2.2s2.3-.5 2.3-2.2-.6-2.3-2.3-2.3-2.2.6-2.2 2.3m48.2.2c0 1.8.5 2.3 2.5 2.3s2.5-.5 2.5-2.3c0-1.9-.5-2.4-2.5-2.4s-2.5.5-2.5 2.4m-18.3 3.2c.1 2 .6 2.6 2.3 2.7 3.2.2 3-4.3-.2-4.9-1.8-.3-2.1.1-2.1 2.2m-29.8 3.7c.1 1.5.8 2.4 2.3 2.7 1.8.3 2.1-.1 2.1-2.3-.1-2.2-.6-2.8-2.3-2.8s-2.2.6-2.1 2.4m48 .1c.2 3.2 4.2 3.2 4.8 0 .4-2 0-2.4-2.3-2.4-2.2 0-2.6.5-2.5 2.4m26.1-.3c0 1.8.5 2.3 2.1 2.2 3-.2 3-4.6 0-4.6-1.5 0-2.1.6-2.1 2.4m37.3-1.2c.8.8.9 1.5.1 2.5-.9 1-.6 1.3 1.4 1.1 1.8-.2 2.7-.9 3-2.5.4-2 0-2.3-2.6-2.3-2.4 0-2.8.3-1.9 1.2m20.7 1.4c0 1.8.6 2.4 2.1 2.4 1.6 0 2.2-.6 2.2-2.4 0-1.7-.6-2.4-2.2-2.4-1.5 0-2.1.7-2.1 2.4m36.9-.1c.2 3.2 4.4 3.2 4.4 0 0-1.7-.6-2.3-2.3-2.3s-2.2.6-2.1 2.3m19.1.2c0 1.5.6 2.3 1.8 2.3.9 0 2 .1 2.3.2.4.2.8-.9 1-2.3.2-2.2-.2-2.6-2.4-2.6s-2.7.5-2.7 2.4m25.8-.2c0 1.7.5 2.2 2.2 2.2s2.3-.5 2.3-2.2-.6-2.3-2.3-2.3-2.2.6-2.2 2.3m37.1 0c.1 1.6.7 2.2 2.4 2.2 1.4 0 2.1-.4 1.8-1.2-.2-.7 0-1.7.6-2.3.8-.8.2-1-1.9-1-2.5.1-3 .5-2.9 2.3M26.2 43.7c.1 2.5.5 3 2.3 3 1.7 0 2.3-.5 2.3-2.4 0-1.5-.5-2.2-1.3-1.9-.7.2-1.7 0-2.3-.6-.8-.8-1-.2-1 1.9M40.6 42c-.8 1.5 1.2 4.5 2.9 4.7 1.6.1 2-.4 2.1-2.6.1-2.4-.3-2.8-2.3-2.7-1.4 0-2.6.3-2.7.6m-7.2 2.5c.2 3.2 4.6 3.2 4.6 0 0-1.7-.6-2.3-2.4-2.3s-2.3.6-2.2 2.3m-15.2 3.2c.1 2.5.5 3 2.3 3 1.7 0 2.3-.5 2.3-2.4 0-1.5-.5-2.2-1.3-1.9-.7.2-1.7 0-2.3-.6-.8-.8-1-.2-1 1.9m74.8-1c0 .6-.2 1.7-.5 2.5-.4.9.4 1.3 2.3 1.4 2.5.1 2.9-.3 2.8-2.6-.1-2.2-.6-2.7-2.3-2.6-1.3 0-2.3.6-2.3 1.3m36.5.8c0 1.9.5 2.3 2.5 2.3 1.9-.1 2.5-.6 2.5-2.3s-.6-2.2-2.5-2.3c-2 0-2.5.4-2.5 2.3m20.8.6c0 2.1.5 2.6 2.2 2.5 3.2-.2 3.3-5.1.1-5.1-1.8 0-2.3.6-2.3 2.6m82-.1c0 2.2.5 2.7 2.4 2.7 1.7 0 2.3-.5 2.3-2.2 0-1.6-.7-2.4-2.3-2.7-2-.4-2.4 0-2.4 2.2m37 0c0 2.3.5 2.7 2.4 2.6 1.8-.1 2.3-.7 2.3-2.6s-.5-2.5-2.3-2.6c-1.9-.1-2.4.3-2.4 2.6m-202 .5c0 1.6.5 2.2 2.1 2.2 1.5 0 2.1-.6 2.1-2.2s-.6-2.3-2.1-2.3c-1.6 0-2.1.7-2.1 2.3m120.2 0c0 3.2 4.1 3.1 4.8-.1.3-1.9 0-2.2-2.2-2.2-2 .1-2.6.6-2.6 2.3m19.8 0c0 1.7.5 2.2 2.2 2.2s2.3-.5 2.3-2.2-.6-2.3-2.3-2.3-2.2.6-2.2 2.3M92.5 55c0 2.2.5 2.7 2.6 2.7s2.6-.5 2.5-2.3c-.1-1.6-.8-2.4-2.6-2.6-2.1-.3-2.5 0-2.5 2.2m-74.2.5c0 1.7.5 2.2 2.2 2.2s2.3-.5 2.3-2.2-.6-2.3-2.3-2.3-2.2.6-2.2 2.3m48.7 0c0 1.6.7 2.4 2.3 2.7 2.1.4 2.4.1 2.3-2.2-.1-2.1-.6-2.7-2.3-2.7s-2.3.5-2.3 2.2m63.3-.3c0 1.7.6 2.3 2.2 2.4 1.8.1 2.2-.3 2.1-2.2-.2-3.3-4.4-3.4-4.3-.2m20.2.3c0 3.2 4.1 3.1 4.8-.1.3-1.9 0-2.2-2.2-2.2-2 .1-2.6.6-2.6 2.3m37 0c0 1.6.6 2.2 2.1 2.2 1.6 0 2.2-.6 2.2-2.2s-.6-2.3-2.2-2.3c-1.5 0-2.1.7-2.1 2.3m19.8 0c0 1.7.5 2.2 2.2 2.2s2.3-.5 2.3-2.2-.6-2.3-2.3-2.3-2.2.6-2.2 2.3m25.1 0c-.1 1.8.4 2.2 2.9 2.3 2.1 0 2.7-.2 1.9-1-.6-.6-.8-1.6-.6-2.3.3-.8-.4-1.2-1.8-1.2-1.7 0-2.3.6-2.4 2.2m38-.9c.2.6 0 1.6-.5 2.1-.6.6 0 1 1.8 1 2.2 0 2.8-.5 2.8-2.2s-.6-2.2-2.3-2.1c-1.2 0-2 .6-1.8 1.2M18.3 63.1c0 2.1.5 2.6 2.2 2.5 3.1-.2 3.1-5.1 0-5.1-1.7 0-2.2.6-2.2 2.6M67 63c0 1.9.5 2.5 2.3 2.6 1.9.1 2.4-.3 2.4-2.5 0-2.1-.5-2.6-2.4-2.6-1.8 0-2.3.5-2.3 2.5m29.4.1c-.1 1.8.3 2.6 1 2.1.6-.3 2-.5 3.1-.3 1.5.2 1.7 0 .7-1.1-.8-1.1-.9-1.7 0-2.6.8-.8.3-1.1-1.8-1-2.5.1-2.9.5-3 2.9m33.9-.4c0 1.5.4 2.2 1.2 1.9.7-.2 1.7 0 2.2.5.6.6 1-.1 1-1.9 0-2.4-.5-3-2.2-3s-2.2.6-2.2 2.5m27.9.3c0 2 .4 2.5 2.2 2.5s2.3-.6 2.3-2.6c0-2.1-.5-2.6-2.2-2.5-1.6.1-2.2.8-2.3 2.6m29.1-.1c0 2 .5 2.6 2.3 2.6 3.2 0 3.1-4.9-.1-5.1-1.7-.1-2.2.4-2.2 2.5m19.9.1c.1 1.8.7 2.5 2.3 2.6 1.7.1 2.2-.4 2.2-2.5 0-2-.5-2.6-2.3-2.6s-2.2.5-2.2 2.5m25.1.2c0 2.1.4 2.7 1.4 2.3.8-.3 1.8-.5 2.3-.5.4 0 1-1.1 1.2-2.3.4-2 0-2.4-2.2-2.4-2.3 0-2.7.5-2.7 2.9m37.7-.3c0 2 .5 2.6 2.4 2.7 2.1.2 2.4-.2 2.2-2.4-.4-3.7-4.6-4-4.6-.3m-147.6 3.5c-.1 1.8.3 2.3 2.1 2.3 1.7 0 2.3-.5 2.3-2.3 0-3.4-4.2-3.4-4.4 0m57.9.1c0 1.7.5 2.2 2.2 2.2s2.3-.5 2.3-2.2-.6-2.3-2.3-2.3-2.2.6-2.2 2.3m-80 3.6c0 2.1.5 2.6 2.3 2.5 3.2-.2 3.1-5.1-.1-5.1-1.7 0-2.2.6-2.2 2.6m7-.1c0 1.9.5 2.5 2.3 2.5s2.2-.6 2.2-2.5c-.1-1.9-.6-2.5-2.3-2.5-1.6 0-2.2.6-2.2 2.5m22.5.1c-.4 2.2 0 2.6 2.2 2.6s2.7-.5 2.7-2.8c0-2.1-.5-2.6-2.3-2.5-1.6.1-2.4.8-2.6 2.7m7.4-.1c.1 2.2.6 2.7 2.3 2.7 3.1 0 2.9-4.4-.2-5-1.8-.3-2.1.1-2.1 2.3m28 0c.1 1.8.7 2.5 2.3 2.6 1.7.1 2.2-.4 2.2-2.5 0-2-.5-2.6-2.3-2.6s-2.2.5-2.2 2.5m7.1.1c0 2.2.5 2.6 2.4 2.5 1.8-.1 2.3-.7 2.3-2.6 0-2-.5-2.5-2.3-2.5-1.9 0-2.4.5-2.4 2.6m52.9-.1c.1 2.2.6 2.7 2.3 2.7 3.2 0 3.2-4.3-.1-5-1.9-.3-2.2 0-2.2 2.3m7.1-.2c0 2.4.5 2.9 2.2 2.9s2.3-.5 2.3-2.4c0-1.5-.5-2.2-1.3-1.9-.7.2-1.7 0-2.2-.5-.6-.6-1 .1-1 1.9m44.7.2c0 1.9.5 2.5 2.3 2.6 1.9.1 2.4-.3 2.4-2.5 0-2.1-.5-2.6-2.4-2.6-1.8 0-2.3.5-2.3 2.5m-265.7.5c0 1.7.5 2.2 2.2 2.2s2.3-.5 2.3-2.2-.6-2.3-2.3-2.3-2.2.6-2.2 2.3m7.1 0c.2 3.2 4.4 3.2 4.4 0 0-1.7-.6-2.3-2.3-2.3s-2.2.6-2.1 2.3m7.1-.2c0 1.9.5 2.4 2.5 2.4s2.5-.5 2.5-2.4c0-1.8-.5-2.3-2.5-2.3s-2.5.5-2.5 2.3m33.9.2c-.1 1.7.4 2.2 2.1 2.2s2.3-.5 2.3-2.2c0-3.2-4.2-3.2-4.4 0m7-.2c-.1 1.9.3 2.4 2.5 2.4 2.1 0 2.6-.5 2.6-2.4 0-1.8-.5-2.3-2.5-2.3-1.9 0-2.5.5-2.6 2.3m7.9.2c0 1.7.5 2.2 2.2 2.2s2.3-.5 2.3-2.2-.6-2.3-2.3-2.3-2.2.6-2.2 2.3m40.5-.2c-.4 2 0 2.4 2.3 2.4 2.2 0 2.6-.5 2.5-2.4-.2-3.2-4.2-3.2-4.8 0m72.7.1c0 3.2 4.2 3.1 4.8-.2.3-1.8 0-2.2-2.2-2.2-2.1 0-2.6.5-2.6 2.4m12 .1c0 1.7.6 2.2 2.3 2.2 1.4 0 2.1-.4 1.8-1.2-.2-.7 0-1.7.6-2.3.8-.8.2-1-1.8-1-2.3.1-2.9.5-2.9 2.3m7.5-.1c0 1.8.5 2.3 2.4 2.3s2.3-.5 2.2-2.3c-.2-3.4-4.6-3.4-4.6 0m7.3.1c0 1.7.5 2.2 2.2 2.2s2.3-.5 2.3-2.2-.6-2.3-2.3-2.3-2.2.6-2.2 2.3m25.4-1.4c.6.6.9 1.7.7 2.4-.3.8.4 1.2 1.9 1.2 2 0 2.4-.4 2.3-2.3-.1-2-.7-2.4-3-2.4-2.2 0-2.7.3-1.9 1.1m22.6 1.4c0 1.7.5 2.2 2.2 2.2s2.3-.5 2.3-2.2-.6-2.3-2.3-2.3-2.2.6-2.2 2.3m7.2 0c0 1.7.5 2.2 2.2 2.1 3.2-.2 3.2-4.4.1-4.4-1.7 0-2.3.6-2.3 2.3m-82 7c0 1.9.5 2.3 2.8 2.3 1.8-.1 2.4-.5 1.8-1.1-.5-.5-.7-1.5-.5-2.1s-.6-1.2-1.8-1.2c-1.8-.1-2.3.4-2.3 2.1m-30.2 6.6c0 2.2.5 2.6 2.4 2.5 1.8-.1 2.3-.7 2.3-2.6 0-2-.5-2.5-2.3-2.5-1.9 0-2.4.5-2.4 2.6m30.1.3c.1 1.2.9 2.4 2.1 2.7 2.7.8 3.3.3 2.8-2.3-.6-3.1-5-3.5-4.9-.4M165.3 88c0 1.9.6 2.5 2.2 2.5s2.2-.6 2.2-2.5-.6-2.5-2.2-2.5-2.2.6-2.2 2.5m15 .1c0 2.1.5 2.6 2.3 2.5 3.2-.2 3.1-5.1-.1-5.1-1.7 0-2.2.6-2.2 2.6m-7 .3c0 1.8.5 2.3 2.2 2.3 1.8 0 2.2-.5 2.1-2.3-.2-3.4-4.3-3.4-4.3 0"/>
<path fill="#BF4040" d="M16.5 9c.3.5.8 1 1.1 1 .2 0 .4-.5.4-1 0-.6-.5-1-1.1-1-.5 0-.7.4-.4 1M133 22.5c0 .7 3 1.3 3.4.7.3-.4-.4-.9-1.5-.9-1-.1-1.9 0-1.9.2"/></svg>