<svg xmlns="http://www.w3.org/2000/svg" version="1.0" viewBox="0 0 218 152"><g fill="#BFBFBF" stroke-width="0">
</g><path fill="#BFBF80" d="M66.3 11c0 4.1.2 5.8.4 3.7.2-2 .2-5.4 0-7.5-.2-2-.4-.3-.4 3.8m75-.5c0 3.8.2 5.3.4 3.2.2-2 .2-5.2 0-7-.2-1.7-.4-.1-.4 3.8m-76 16c0 4.4.2 6.1.4 3.7.2-2.3.2-5.9 0-8-.2-2-.4-.1-.4 4.3m91-1c0 2.2.2 3 .4 1.7.2-1.2.2-3 0-4-.3-.9-.5.1-.4 2.3M50.2 27c0 1.4.2 1.9.5 1.2.2-.6.2-1.8 0-2.5-.3-.6-.5-.1-.5 1.3m48.6 23.7c2.3.2 6.1.2 8.5 0 2.3-.2.4-.4-4.3-.4s-6.6.2-4.2.4m99 16c1.2.2 3.2.2 4.5 0 1.2-.2.2-.4-2.3-.4s-3.5.2-2.2.4m-13.5 26.8c0 3.8.2 5.3.4 3.2.2-2 .2-5.2 0-7-.2-1.7-.4-.1-.4 3.8M36.1 90.6c0 1.1.3 1.4.6.6.3-.7.2-1.6-.1-1.9-.3-.4-.6.2-.5 1.3m64.7 6.1c1.2.2 3.2.2 4.5 0 1.2-.2.2-.4-2.3-.4s-3.5.2-2.2.4M68 98.4c0 .2.8 1 1.8 1.7 1.5 1.3 1.6 1.2.3-.4S68 97.6 68 98.4m101.3 8.1c0 3.8.2 5.3.4 3.2.2-2 .2-5.2 0-7-.2-1.7-.4-.1-.4 3.8m-52 5.2c1.5.2 3.9.2 5.5 0 1.5-.2.2-.4-2.8-.4s-4.3.2-2.7.4"/>
<g fill="#BF4000" stroke-width="0">
<path d="M67 11v7l36.3.2 36.2.3.5 7.5.5 7.5 7 .3 7 .3.1 3.7c0 2 .3 4.9.7 6.4.7 2.7 1 2.8 6.6 2.8 6.8 0 7.1-.3 7.1-9.1V32h-13v-5.9c0-7.4-1.8-9.1-9.7-9.1H141V4H67zm-15.4 9.6c-.3.9-.6 3.8-.6 6.5V32H36.7l.5 6.4c.3 3.5.9 6.9 1.2 7.5.4.6 3.5 1.1 7.2 1.1H52V34h13V19h-6.4c-4.9 0-6.5.4-7 1.6"/>
<path d="M93.7 30c-1.6 4.2-3.6 5.4-9.9 6.5-3.7.6-3.8.7-3.8 5V46h-4.8c-4.6 0-4.8.1-6.7 4.2-1.6 3.4-2.7 4.4-5 4.8-2.8.5-3 .9-3.3 5.3l-.3 4.7H52v15h8v4.9c0 4.8.1 4.9 3.5 5.5 2.7.5 3.6 1.3 4.1 3.4 1.3 5.6 3.1 7.2 7.9 7.2H80v8.8l5.8 1.4c5.1 1.2 5.8 1.7 6.7 4.6l.9 3.2H113l.6-4 .7-4h10.3l1.5-4.7c1.4-4.4 1.8-4.8 5.6-5.6 3.7-.7 4.3-1.2 5.9-5.2 1.4-3.8 2.2-4.6 5-5.1 3.3-.6 3.4-.8 3.4-5.5V80h8V65h-8v-5c0-4.8-.1-4.9-3.5-5.6-2.8-.5-3.5-1.1-3.5-2.9 0-2.9-2.5-5.5-5.2-5.5-2.3 0-8.8-6.1-8.8-8.3 0-1.2-1.3-1.7-5.2-1.9l-5.3-.3-.3-4.8-.3-4.7H95.3zM112 57c0 6.6-.1 7.1-2.6 8-3.3 1.3-10 1.3-12.5 0-1.6-.9-1.9-2.2-1.9-8v-7h17zM95 72.5V80H81V65h14zm30 0V80h-14V65h14zm-13 16c0 7.6-1 8.5-8.9 8.5-7.8 0-8.1-.3-8.1-8.1V82h17zM22 53v6h-4.4c-3.9 0-4.5.3-5.5 2.9-.8 1.9-2.3 3.2-4.4 3.8-3.1.9-3.2 1-3.5 7.6L3.9 80h3.5c3 0 3.5.3 3.8 2.7.3 2.7.6 2.8 6.1 3.1l5.7.3V99h14v14h7c7 0 7 0 7 2.7 0 1.6.3 4.5.6 6.5l.7 3.8H65v-13H52v-5.8c0-8-.7-8.7-8.2-8.7-3.5 0-6.6-.5-7-1-.4-.6-.8-2.6-.8-4.6s-.3-5.1-.6-6.8c-.6-3-.8-3.1-6-3.1H24V62h5.5c6.1 0 5.8.4 7-9.8l.6-5.2H22zm148-3.6c0 1.3.3 4.4.6 7l.7 4.6H185v24h-13.7l-.7 5.2c-1.1 9.3-1.4 8.8 6.4 8.8h7V86h4.9c4.6 0 4.9-.2 5.7-3.2.8-2.8 1.6-3.4 5.2-4.1l4.2-.8V67h-4.5c-4.5 0-4.5 0-4.5-3.4 0-3.3-.1-3.4-4.9-4.1l-4.9-.7-.6-5.9-.7-5.9H177c-6.7 0-7 .1-7 2.4m-15 54.8c-1.6 6.7-2.5 7.8-6.4 7.8-7 0-7.6.6-7.6 7.6v6.4h6.9c7.7 0 8.1-.4 8.1-8.8V113h13V99h-12.8zM77 127c0 .5-2.2 1-5 1h-5v14h72v-14h-8c-4.7 0-8-.4-8-1s-8.3-1-23-1-23 .4-23 1"/>
</g><path fill="#BF8040" d="M139.3 25.5c0 3.8.2 5.3.4 3.2.2-2 .2-5.2 0-7-.2-1.7-.4-.1-.4 3.8m-43.5.2c.6.2 1.8.2 2.5 0 .6-.3.1-.5-1.3-.5s-1.9.2-1.2.5m73.5 11.8c0 2.7.2 3.8.4 2.2.2-1.5.2-3.7 0-5-.2-1.2-.4 0-.4 2.8m-58.5 19.7c-.2 4-.1 10.9.3 15.3.4 6.3.5 4.8.7-7.3.1-15.9-.4-20.5-1-8m-74.7-4.6c0 1.1.3 1.4.6.6.3-.7.2-1.6-.1-1.9-.3-.4-.6.2-.5 1.3m134 4c0 1.1.3 1.4.6.6.3-.7.2-1.6-.1-1.9-.3-.4-.6.2-.5 1.3m15 1c0 1.1.3 1.4.6.6.3-.7.2-1.6-.1-1.9-.3-.4-.6.2-.5 1.3M15.8 58.7c1.2.2 3.2.2 4.5 0 1.2-.2.2-.4-2.3-.4s-3.5.2-2.2.4m175 1c.7.3 1.6.2 1.9-.1.4-.3-.2-.6-1.3-.5-1.1 0-1.4.3-.6.6m4.5 3.8c0 2.2.2 3 .4 1.7.2-1.2.2-3 0-4-.3-.9-.5.1-.4 2.3m-18.1-1.8 6.7.4.4 11.7.3 11.7.2-12.3.2-12.2-7.2.2-7.3.2zM81.3 72.5c0 4.4.2 6.1.4 3.7.2-2.3.2-5.9 0-8-.2-2-.4-.1-.4 4.3m30 16c0 3.8.2 5.3.4 3.2.2-2 .2-5.2 0-7-.2-1.7-.4-.1-.4 3.8m-76.2-3.9c0 1.1.3 1.4.6.6.3-.7.2-1.6-.1-1.9-.3-.4-.6.2-.5 1.3m-18.3 2.1 5.2.4V100l7.8-.2 7.7-.2-7.2-.3-7.3-.4V86l-5.7.2-5.8.2zm169.5 0c1.5.2 3.9.2 5.5 0 1.5-.2.2-.4-2.8-.4s-4.3.2-2.7.4m-16.2 2.9c0 1.1.3 1.4.6.6.3-.7.2-1.6-.1-1.9-.3-.4-.6.2-.5 1.3m-134 5c0 1.1.3 1.4.6.6.3-.7.2-1.6-.1-1.9-.3-.4-.6.2-.5 1.3m133 2.1c-.1.9-2.3 1.3-6.8 1.4-6.7.2-6.7.2 2.7 1 5.2.5 11.8.8 14.5.6 3.9-.3 3.5-.4-2.2-.5-5.9-.2-7.2-.5-7.6-2-.3-.9-.5-1.1-.6-.5m-92.3 5c.6.2 1.8.2 2.5 0 .6-.3.1-.5-1.3-.5s-1.9.2-1.2.5M65 119.5v6.5h-6.5c-3.7 0-6.5.4-6.5 1s2.8 1 6.5 1H65v7.5c0 4.3.4 7.5 1 7.5s1-3.2 1-7.5V128h5c2.8 0 5-.5 5-1 0-.6-2.2-1-5-1h-5v-6.5c0-3.7-.4-6.5-1-6.5s-1 2.8-1 6.5m74 0v6.5h-8c-4.7 0-8 .4-8 1s3.5 1 8.6 1h8.6l-.4 7.5c-.2 4.1 0 7.5.4 7.5.5 0 .8-3.4.8-7.5V128h7c4 0 7-.4 7-1s-3-1-7-1h-7v-6.5c0-3.7-.4-6.5-1-6.5s-1 2.8-1 6.5m-87.9 3.1c0 1.1.3 1.4.6.6.3-.7.2-1.6-.1-1.9-.3-.4-.6.2-.5 1.3"/>
<path fill="#BF8080" d="M54.7 18.7c1.8.2 5 .2 7 0 2.1-.2.7-.4-3.2-.4-3.8 0-5.5.2-3.8.4m69.6 53.8c0 4.4.2 6.1.4 3.7.2-2.3.2-5.9 0-8-.2-2-.4-.1-.4 4.3m30 0c0 4.4.2 6.1.4 3.7.2-2.3.2-5.9 0-8-.2-2-.4-.1-.4 4.3M10.1 83.6c0 1.1.3 1.4.6.6.3-.7.2-1.6-.1-1.9-.3-.4-.6.2-.5 1.3m131.2 51.9c0 4.4.2 6.1.4 3.7.2-2.3.2-5.9 0-8-.2-2-.4-.1-.4 4.3"/>
<path fill="#BF8000" d="M84.8 18.7c10 .2 26.4.2 36.5 0 10-.1 1.8-.2-18.3-.2s-28.3.1-18.2.2m17 7c1.7.2 4.7.2 6.5 0 1.7-.2.3-.4-3.3-.4s-5 .2-3.2.4m12.6 5.5.1 4.3 4.8.1 4.7.1-4.4-.4c-4.4-.4-4.5-.5-4.9-4.4l-.4-3.9zM72.3 45.7c1.5.2 3.9.2 5.5 0 1.5-.2.2-.4-2.8-.4s-4.3.2-2.7.4m28 20c1.5.2 3.9.2 5.5 0 1.5-.2.2-.4-2.8-.4s-4.3.2-2.7.4m-1.5 54c2.9.2 7.4.2 10 0s.2-.3-5.3-.3-7.6.1-4.7.3m40.5 14.8c0 3.8.2 5.3.4 3.2.2-2 .2-5.2 0-7-.2-1.7-.4-.1-.4 3.8m-54.5 8.2c10 .2 26.4.2 36.5 0 10-.1 1.8-.2-18.3-.2s-28.3.1-18.2.2"/></svg>