<svg xmlns="http://www.w3.org/2000/svg" version="1.0" viewBox="0 0 384 69">
<g fill="none" stroke-width="0">
<path d="M0 2.4c0 1 .8 2.5 1.8 3.3 1.3 1 1.3 1.3.2 1.1C.8 6.5.4 8.1.2 15.4c-.3 6.1 0 8.6.7 8.1.6-.3 1.1-.1 1.1.4 0 .6-.4 1.1-.9 1.1-.6 0-.9.9-.8 2 .1 1.5.7 1.9 2.2 1.5 1.1-.3 1.4-.2.7.1-.6.3-1 1-.6 1.5.3.5 0 .8-.8.7-1-.2-1.4 1.9-1.6 8.6-.3 6.1 0 8.6.7 8.1.6-.3 1.1-.1 1.1.4 0 .6-.4 1.1-.9 1.1-.6 0-.9.9-.8 2 .1 1.5.7 1.9 2.2 1.5 1.1-.3 1.4-.2.7.1-.6.3-1 1-.6 1.5.3.5 0 .8-.8.7-1-.2-1.3 1.5-1.4 6.9L.3 69h3.1c2 0 3.6-.7 4.4-2 .7-1.1 1.8-2 2.5-2 .6 0 .4.5-.6 1.1-.9.6-1.5 1.5-1.1 2q.6 1.05 1.8 0c.7-.6 1.7-.6 2.6-.1 2.8 1.8 7 1.1 8.1-1.3l1-2.2-.5 2.2c-.4 2.1 0 2.3 4.3 2.3 3.5 0 4.9-.5 5.9-2 .7-1.1 1.8-2 2.5-2 .6 0 .4.5-.6 1.1-.9.6-1.5 1.5-1.1 2q.6 1.05 1.8 0c.7-.6 1.7-.6 2.6-.1 2.8 1.8 7 1.1 8.1-1.3l1-2.2-.5 2.2c-.4 2.2-.1 2.3 6.6 2.3 5.2 0 6.7-.3 6.2-1.3-.5-.9-.4-.9.6-.1.9.9 1.7.7 3.1-.7 1.1-1.1 2.4-1.7 3-1.4 1.4.9.1 2.5-1.6 1.8-.8-.3-1.5 0-1.5.5 0 .6 3 1.1 7.5 1.1 4.7 0 7.5-.4 7.5-1s-.8-.8-1.7-.5c-1.6.5-1.6.4.1-.8 1-.8 1.5-1.9 1.1-2.5-.3-.7.3-1.1 1.6-1.1 2 0 2.1.2.7 1.7-3 3.5-1.2 4.3 9.1 4.3 6.4 0 10.2-.4 11-1.3 1.1-1 1.2-.9.7.1-.6 1 .2 1.2 2.9 1 2-.1 3.9-.6 4.1-1 .3-.4 1.3-.4 2.3.2 2.7 1.4 46.3 1.1 45.4-.4-.4-.6 0-.6.9.2 1.3 1 1.7 1 2.2-.3.3-.8 1.1-1.5 1.8-1.4 1 0 1 .2.1.6-.7.2-1.3.8-1.3 1.3 0 .4 24.2.8 53.7.9 41.1 0 54-.2 55.2-1.2s1.3-.9.7.1.1 1.2 2.9 1c2-.1 3.9-.6 4.1-1 .3-.4 1.3-.4 2.3.2 2.7 1.4 46.3 1.1 45.4-.4-.4-.6 0-.6.9.2 1.3 1 1.7 1 2.2-.3.3-.8 1.1-1.5 1.8-1.4 1 0 1 .2.1.6-.7.2-1.3.9-1.3 1.4 0 1.3 35.1.9 36.9-.5 1.1-.8 1.3-.8.7.1-.5 1 1.7 1.3 9.8 1.3H384V0H206.1C50.3 0 28.1.2 27 1.5S26.2 3 29 3c3.3 0 7.9 2.8 7.3 4.5-.2.6 1 1.6 2.7 2.3 2.5 1.2 3 1.9 3 4.9 0 2.2-.7 4.1-1.7 4.8-1.7 1.3-1.7 1.4 0 3.2.9 1.1 1.7 3.1 1.7 4.5 0 2.5-2.7 5.8-4.8 5.8-1.6 0-1.5 1.7.1 2.3.9.3.9.8-.2 1.8-.9.9-1.1.9-.7.1 1-1.7-.9-1.5-2.4.3-1 1.3-1 1.9.4 3.3.9 1 1.6 2.4 1.6 3.1 0 .9.8 1.1 2.8.7 2-.5 2.3-.4 1.2.4-1.3.8-.8 1.4 1.1 1.2 1.4-.1.8 7.2-.7 8.9s-1.5 2 .6 4.6l2.2 2.8-2.2.3c-1.2.2-3-.4-4-1.3-1.2-1.1-2-1.3-2.5-.6-.3.6-.3 1.1.2 1.1.4 0 .2.4-.6.9-1.4.9-5.1.3-5.1-.8 0-.4.7-1.7 1.6-2.9 1.5-2.1 1.5-2.5 0-4.1-.9-1-1.6-2.4-1.6-3.1s-.3-1-.7-.7c-.9 1-5.3-3.3-5.4-5.2q0-1.65-.6-.3c-.3.8-1.1.4-2.5-1.4-1.9-2.4-2.2-2.4-3.7-.9-1.2 1.1-1.3 1.8-.4 2.3.6.4 1.6 1.9 2.2 3.4.8 2.2.6 3.2-1.1 5.4-1.9 2.3-2 2.8-.7 3.8.9.6 1.8 1.9 2.2 2.8.5 1.4.1 1.8-1.7 1.8-1.3 0-2.9-.7-3.6-1.5-1.3-1.5-3.5-1.1-2.5.6.6.9-.8 1.3-3.5.9-2.3-.3-2.4-.7-.6-3.6 1.6-2.3 1.6-2.7.2-4.3-.9-1-1.6-2.3-1.6-2.9 0-.7-.4-1.2-1-1.2-.5 0-1-.5-1-1 0-.6.6-.9 1.3-.8.7.2 1.1-.5.9-1.6-.2-1 .1-1.5.7-1.2 1.6 1 2.5-1.6.9-2.8C5.3 42.5 3.7 37 4.9 37c.3 0 1.2-.9 1.9-2.1 1.1-1.8 1.1-2.4-.2-3.8-.9-1-1.6-2.3-1.6-2.9 0-.7-.4-1.2-1-1.2-.5 0-1-.4-1-1 0-.5.6-.9 1.3-.7.7.1 1.1-.6.9-1.7-.2-1 .1-1.5.7-1.2 1.6 1 2.5-1.6.9-2.8C5.3 18.5 3.7 13 4.9 13c.3 0 1.2-.9 1.9-2.1 1.1-1.8 1.1-2.4-.2-3.8-3.2-3.5-.9-5.4 3.5-3 2.2 1.1 4.9-.3 4.9-2.5 0-1.4-7.7-1.9-8.5-.5-.4.5-1.2.9-1.8.9-.7 0-.6-.4.3-1C6.1.3 5.6.1 3.3.3.8.4 0 1 0 2.4M41 6c1.3 1.1 1.8 2 1.2 2-1 0-4.2-2.7-4.2-3.6 0-.8.7-.4 3 1.6m6.5 0c.3.5.1 1-.4 1-.6 0-1.1-.5-1.1-1 0-.6.2-1 .4-1 .3 0 .8.4 1.1 1M47 8.3c0 .1-.9 1-1.9 1.9-1.7 1.4-2 1.4-2.5.2-.3-.8-.2-1.2.3-.9s1.2.1 1.6-.5c.5-.9 2.5-1.5 2.5-.7m94 6c0 .6 1.9.7 4.2.4s3.6-.2 3 .2c-1 .6-.9 1.1.3 2.1 1.5 1.2 2.1.4 1.6-2.3-.1-.5.8-.6 1.9-.2 1.2.4 2.8.1 3.7-.7 1.4-1.1 1.6-1.1.9.1-.7 1-.3 1.2 1.4.6 1.5-.5 2-.4 1.6.4-.4.6 0 1.4.8 1.7.9.3 1.6 1.4 1.6 2.4 0 2 3.6 3.4 4.4 1.6.3-.6.4-.2.3.9-.1 1.4.4 2 1.6 1.9.9-.1 1.7.2 1.7.7s-.4.9-.9.9c-.6 0-.9.9-.8 2 .1 1.5.7 1.9 2.2 1.5 1.1-.3 1.4-.2.7.1-.6.3-1 .9-.8 1.3.3.4-.5.8-1.6.8-3.3.3-4.6 2.2-2.5 3.8 1.3.9 1.7 2.4 1.6 5.3-.2 2.3-.6 3.9-1 3.6-.4-.2-1.1.1-1.5.7-.8 1.3 2.4 4.1 3.7 3.3.5-.3.9 0 .9.5 0 .6-.5 1.1-1.1 1.1s-.9.6-.6 1.4c.7 1.8-2.9 6.6-4.9 6.6s-1.7 3 .4 3.1c.9.1.4.4-1.3.8-1.6.4-2.9 1.2-2.8 1.9.2.7-.4.9-1.4.5-1.2-.5-1.4-.3-.8.8.7 1.1.5 1.1-1-.1-1.4-1.2-1.9-1.2-2.3-.2-.2.8-1.1.3-2.4-1.3-2-2.6-2.1-2.6-3.8-.7-1.9 2.1-6.1 2.2-8.4.3-.7-.6-1.6-.7-2-.3s-.7.2-.6-.3c.5-2.4-.1-4.5-1.3-4.5-2 0-4.4-3.1-4.9-6.3-.3-1.5-.3-2.5 0-2.3.3.3 1.1-.2 1.7-1.1 1-1.4.9-2.4-.7-5.5-1.8-3.5-1.9-3.9-.3-5.4 1.7-1.7 1.7-6 0-5.7-.6.1-1-1.4-1-3.2s.2-3.1.4-2.9 1-.5 1.8-1.6 2.1-2 2.8-2c1.6 0 3-4.2 2.2-6.3-.3-.8.3-1.3 1.4-1.3s1.9.4 1.9.9m96-.1c0 .4 1.2.8 2.7.8 1.4 0 3.5.8 4.6 1.7 1.1 1 1.7 1.2 1.3.5-.4-.6-.5-1.2-.2-1.2s1 1 1.7 2.1c.8 1.5.8 1.9 0 1.5-.6-.4-1.1-.2-1.1.3 0 .6.6 1.1 1.4 1.1.7 0 1.9.6 2.6 1.4.6.8 1.9 1.2 2.8.9 1.2-.3 1.3-.2.4.4-1.7 1.3-1.2 6.5.6 5.8.7-.3 1 0 .7.6-.4.6-1.3.8-2 .5-.8-.3-1.9.2-2.5 1-1.9 2.2-7.3 1.7-9.8-.9-1.2-1.3-1.9-2.7-1.5-3.2.5-.4.3-.5-.4-.1-.6.3-1.4.2-1.8-.4s-1.1-.7-1.7-.4c-.6.4-.8.2-.4-.4.3-.6.2-1.3-.4-1.7-.6-.3-1.3.1-1.6.9-.3.9-1.5 1.6-2.5 1.6s-1.9.5-1.9 1.2c0 .6-.7 2-1.7 3-1.5 1.6-1.5 2 0 3.5 2.5 2.9 2.6 6.3.1 8.7-1.7 1.7-1 4 .9 3 .7-.4.9-.4.5 0-.4.5-.3 1.9.2 3.1.7 1.8.4 3-1.2 5-1.9 2.4-1.9 2.7-.4 4.4.9 1 1.6 2.3 1.6 2.9 0 1.7-3.5 1.5-5-.3-1.2-1.4-1.5-1.3-3.2.5-1.1 1.1-2.3 1.8-2.8 1.5-.4-.3-1.1.1-1.4.7-.3.7-.4-.1-.3-1.7.1-1.7.9-3.5 1.7-4.1 1.2-1 1.2-1.4.1-2.8-.7-.9-1.7-1.4-2.1-1.1s-.4-1.2 0-3.2c.5-2 .6-4.1.3-4.6-.3-.6-.1-.7.5-.3 1.9 1.1 2.5-1.5.7-3.4-1.9-2.1-1.7-7 .5-8.6 1.2-1 1.2-1.4.1-2.8-.7-.9-1.7-1.4-2.1-1.1s-.4-1.1 0-3.1c.6-2.7.5-3.4-.5-3-1.4.5-1.4-1.8 0-3.1.4-.4.5-.2.1.4-.4.8-.1 1.3.8 1.3 2.3 0 2.9-2 1.2-3.9-3.4-3.8-.2-5.8 3.7-2.4 1.1 1 1.7 1.2 1.3.5-.4-.6-.5-1.2-.2-1.2s1 1 1.7 2.1c.8 1.5.8 1.9 0 1.5-.6-.4-1.1-.3-1.1.2 0 .9 2 1.8 5.8 2.7.6.2 1.2-.1 1.2-.6s.9-.9 2-.9c2 0 3.7-3.8 2.7-6.3-.3-.8.3-1.3 1.4-1.3s1.9.4 1.9.8m72 0c0 .4 1 .8 2.3.8 4 0 5.6.3 5.1 1.1-.2.4 0 1 .6 1.4.6.3 1.3-.1 1.6-.9 1.3-3.5 11.4-1.1 11.4 2.6 0 1.9 3.7 3.1 4.4 1.4.3-.6.4-.2.3.9-.1 1.4.4 2 1.6 1.9.9-.1 1.7.2 1.7.7s-.5.9-1.1.9-.9.6-.6 1.4c.7 1.8-2.9 6.6-4.9 6.6s-1.7 2.8.4 3.3c1 .3.6.5-1 .6-1.6 0-2.8.5-2.8 1.1 0 .5-.9 1-2.1 1-1.5 0-1.9.5-1.5 1.5.3.9-.3 1.9-1.5 2.5-1.1.6-1.7 1.5-1.4 2s.1 1.1-.5 1.5c-.5.3-1 .1-1-.5s-1.2-.9-2.7-.7c-1.8.2-3.3-.3-4.3-1.6-1.5-1.7-1.7-1.8-2.9-.3-1.2 1.4-1.1 1.9.3 3.4.9 1 1.6 2.4 1.6 3.1s.4 1 .9.7c.4-.3 1.6.3 2.6 1.4 1.7 1.9 1.7 1.9 3.8 0 2.2-2.1 5.9-1.8 8.8.7 1.4 1.1 1.8 1.1 2.7 0 .7-.8.9-1.7.6-2-.4-.4.4-.4 1.6-.2s2.5.7 2.8 1c1 .9-1.2 3.9-3.6 5-2.6 1.2-2.9 3.5-.4 3.6.9.1.4.4-1.3.8-1.6.4-2.9 1.2-2.8 1.9.2.7-.4.9-1.4.5-1.2-.5-1.4-.3-.8.8.7 1.1.5 1.1-1-.1-1.4-1.2-1.9-1.2-2.3-.2-.2.8-1.1.3-2.5-1.4-1.9-2.5-2.1-2.5-3.3-.9-1.5 2.1-5.1 2.6-7.9 1.1-1.1-.6-2.4-1-3-1.1-.5 0-.9-1-.9-2.3.1-1.2-.3-2.2-.9-2.2-1.8 0-4.7-3.2-4.7-5.2 0-1 .7-3.2 1.5-4.7 1.3-2.6 1.3-3 0-4.1-1.1-.9-1.5-.9-1.5-.1 0 .6-.5 1.1-1 1.1-.6 0-.7-.6-.1-1.8 2.9-5.6 3.7-13.3 1.1-11.7-.4.3-.4-1.2 0-3.2.9-4 .5-5.7-1.2-4.7-.7.4-.8.2-.4-.5.6-.9 1.1-.9 2.2 0 1 .8 1.4.8 1.4 0 0-.6.9-1.1 2-1.1 2 0 3.7-3.8 2.7-6.3-.3-.8.3-1.3 1.4-1.3s1.9.4 1.9.8m51.5-.3c.3.5.2 1.2-.3 1.5s-.9-.1-.9-.9c0-1.7.3-1.9 1.2-.6m15 .9c-.3.3-1.5.6-2.7.7-2 .2-2 .1-.3-1.1 1.7-1.3 4.3-.9 3 .4m-302.7.3c2.2.2 3.9.6 3.6 1.1-.3.4 0 .8.5.8.6 0 1.1.9 1.1 2s.6 2 1.4 2c.7 0 1.9.6 2.6 1.4.6.8 1.9 1.2 2.8.9 1.2-.3 1.3-.2.4.4-1.7 1.3-1.2 6.5.6 5.8.7-.3 1 0 .7.6-.4.6-1.3.8-2 .5-.8-.3-1.9.2-2.5 1-.7.8-1.8 1.4-2.5 1.4s-1.6 1.1-1.9 2.5c-.4 1.4-1.6 2.7-2.9 3-3.3.9-4.9 4.8-2.8 7.1 1.5 1.8 1.5 1.8-.5.1-1.9-1.6-2.1-1.6-3.8.1-1.1.9-1.6 1.1-1.2.4q.75-1.2-1.5-1.2c-1.2 0-3-.7-3.9-1.5-1.5-1.4-1.8-1.4-3 0-1 1.3-1 1.9.4 3.3.9 1 1.6 2.3 1.6 2.8s1.3 1.5 2.9 2.2c2.5 1.1 3.4 1 6.5-.8 2-1.1 4.2-2 4.9-1.9.7 0 .3.4-.8.9-1.6.7-1.7.9-.3.9.9.1 2.4.8 3.2 1.7 1.5 1.4 1.7 1.4 2.2 0 .6-1.6 4.5-2.2 5.7-.9.9.9-3.3 5.3-5 5.3-.7 0-1.3.6-1.3 1.2 0 2.3-1.6 3.8-4.8 4.7-2.5.8-3.6.6-5.6-1-1.9-1.5-2.6-1.6-3.5-.5-.6.7-.8 1.6-.4 2s-.1.4-1.1 0c-1.5-.6-1.7-.4-1.1.7.7 1.1.5 1.1-1-.1-1.2-1-1.9-1.1-2.2-.4-.5 1.6-6-3.8-5.5-5.4.2-.6-.3-1.2-1.1-1.2s-2-.7-2.7-1.5-1.6-1.3-2-1-.4-1.2 0-3.2c.5-2 .6-4.1.3-4.6-.3-.6-.1-.7.5-.3 2 1.2 2.4-1.5.5-3.7-1.1-1.2-1.9-2.7-1.8-3.2.3-1.9 1.9-5 2.9-5.8.7-.5.5-1.2-.8-2.2s-1.7-2.3-1.4-4.5.1-2.9-.8-2.6c-1.3.5-1.3-1.9.1-3.1.4-.4.5-.2.1.4-.4.7-.3 1.3.1 1.3 2.4 0 6.4-2.8 7.4-5.3.9-2.2 1.8-2.7 4.7-2.7 1.9 0 4.4.8 5.4 1.7 1.8 1.6 1.9 1.6 2.5-.5.3-1.2.8-2 1.2-1.7.4.2 2.6.5 4.9.6m45.5 1.6c.9 1.1 1.7 2.5 1.7 3 0 .4 1.4 1.4 3 2.1 2.2 1 3 2.1 3 3.8 0 1.4-.4 2.2-1 1.9-.5-.3-1-.1-1 .5s-1.1 0-2.4-1.5c-1.9-2-2.5-2.3-3.5-1.2-.6.8-.9 1.6-.6 1.8 1.1 1.2-7.2-.5-8.6-1.7s-1.8-1.1-3.4.6c-1 1.1-2.2 1.7-2.8 1.3s-.8.2-.5 1.5c.4 1.2.3 2-.2 1.7-.4-.3-1.3.2-2 1-1 1.2-1 1.8 0 3 1.2 1.4 1.5 1.4 3 0 3.3-3 11-1 11 2.9 0 1 .6 1.6 1.2 1.4 1.3-.5 4.8 3.3 4.8 5.1 0 .6.5 1.1 1.2 1.1 2.1 0 4.8 3.3 4.8 5.8 0 2.7-2.5 6.2-4.4 6.2-.6 0-1.7 1.3-2.4 2.9s-2.2 3.1-3.3 3.4c-1.2.3-1.9 1-1.6 1.4.3.5.2 1.5-.2 2.2-.6.9-1.1 1-1.5.2-.4-.6-.3-1.1.3-1.1s.8-.7.5-1.5c-.4-.8-1.2-1.5-1.9-1.5s-1.8-.7-2.5-1.5c-1.3-1.5-3.5-1.1-2.5.6.4.5 0 .9-.7 1-5.5.5-10.8-1.5-10.8-4 0-2.2-4.5-4.2-6.1-2.7-.9.8-1 .7-.5-.7.3-1 .6-2.5.6-3.3 0-1.7 2.4-1.8 5-.2 1.5 1 2.2 1 3.2 0 1.5-1.5 7-1.6 8.5-.1.8.8 1.9.8 4.2-.2 2.6-1.1 3.8-2.7 6-7.3.2-.5-.3-.6-1.2-.3-1.2.4-1.4.2-1-1.1.6-1.5.5-1.5-1-.3-1.3 1-1.4 1.8-.6 3.5.9 1.8.8 1.9-.3.5-.7-.8-2.6-1.5-4.3-1.5-1.6 0-3.5.7-4.2 1.5-1 1.4-1.4 1.4-2.5.2s-1-1.3.4-.8c2.1.8 3.1-1.8 1.2-3.3-.8-.7-1.4-1.9-1.4-2.7s-.5-1.3-1.2-1.1c-1.4.5-4.8-2.7-4.8-4.5 0-1.7-4.6-3.7-5.8-2.5-.7.7-.9-.4-.5-3.3.6-4.4 2.6-7.9 4.7-7.9.6 0 1.9-1.4 2.8-3 1.4-2.4 2.4-3 5.2-3 1.9 0 4.1.7 5 1.5 1.4 1.5 3.3.4 2.3-1.3-.3-.4 1.4-.7 3.6-.7 3.1 0 4.7.6 6 2.2m45.7-2.1c0 .8-1.9 1.3-2.4.6-.3-.5.1-.9.9-.9s1.5.2 1.5.3m22.1 1.4c.3.8-.3 2.2-1.5 3.1-1.9 1.5-1.9 1.9-.6 3.6 1.8 2.1 4.6 7.1 3.5 6.1-.4-.4-1.7.4-2.8 1.9-1.9 2.4-1.9 2.7-.4 3.8 2.2 1.6 2.2 7.4 0 9-1.6 1.2-1.6 1.4 0 2.9.9 1 1.7 2.3 1.7 2.9 0 .7 1.2 1.8 2.7 2.4 3.5 1.7 7.3.1 9.7-4.1 1.5-2.6 1.5-3.2.3-4.1-1.4-1-2.9-6.5-1.8-6.5.3 0 1.2-.9 1.9-2.1 1.1-1.8 1.1-2.4-.2-3.8-.9-1-1.6-2.3-1.6-2.9 0-.7-.4-1.2-1-1.2-.5 0-1-.5-1-1 0-.6.6-.9 1.3-.8.7.2 1.1-.5.9-1.6-.2-1 .1-1.5.7-1.2.5.4 1.2.2 1.6-.4.3-.5.1-1-.5-1s-.9-.4-.5-.9c.3-.5.1-1.2-.5-1.6-.5-.3-1-1.3-1-2.1 0-1.9 3.4-1.8 5.4.1 1.5 1.5 3.3.4 2.2-1.3-.3-.5.8-.6 2.5-.4 1.6.2 2.9.9 2.9 1.6 0 .6.7.3 1.4-.7.8-1 1.7-1.4 2-.9.3.6-.1 1.3-1 1.6-.8.3-1.2 1-.9 1.6.4.6-.1.7-1.1.3-1.2-.4-1.5-.3-1 .5.4.7.1 1.2-.8 1.2-2 0-2 1.4-.1 3 2 1.7 1.9 5.9-.2 8.2-1.5 1.7-1.5 1.9 0 3.6 1 1 1.7 3.1 1.7 4.5 0 1.5.5 2.7 1.1 2.7.5 0 .7.5.3 1.1-.5.8-.8.8-1.4 0-.5-.9-1-.8-1.9.3-1.3 1.5-.6 4 .8 3.2 1.6-1 1.1 6.7-.5 8.5-1.5 1.7-1.5 2.1-.2 3.6 3.1 3.6 3 4.3-.1 4.3-2.3 0-3.2-.6-4.3-3-.7-1.7-1.7-3-2.2-3s-1.8-.7-2.8-1.6c-1.6-1.6-1.8-1.6-2.4 0-.3.9-1.2 1.6-2 1.6-.7 0-2.1 1.3-3 2.9-1 1.6-2.6 3.2-3.7 3.5-1 .2-1.7.9-1.4 1.3.3.5.2 1.5-.2 2.2-.6.9-1.1 1-1.5.2-.4-.6-.3-1.1.3-1.1s.8-.7.5-1.5c-.4-.8-1.4-1.5-2.4-1.5-1.1 0-2.4-1.3-3.2-3-.7-1.6-1.9-3-2.6-3s-1 .5-.6 1.2.3.8-.5.4c-.6-.4-.9-1.1-.6-1.6.3-.4-.2-1.3-1-2s-1.5-1.9-1.5-2.6c0-.8-.4-1.4-1-1.4-.5 0-1-.4-1-1 0-.5.6-.9 1.3-.7.7.1 1.1-.6.9-1.7-.2-1 .1-1.5.7-1.2 1.6 1 2.5-1.6.9-2.8-1.5-1.1-3.1-6.6-1.9-6.6.3 0 1.2-.9 1.9-2.1 1.1-1.8 1.1-2.4-.2-3.8-.9-1-1.6-2.3-1.6-2.9 0-.7-.4-1.2-1-1.2-.5 0-1-.5-1-1 0-.6.6-.9 1.3-.8.7.2 1.1-.5.9-1.6-.2-1 .1-1.5.7-1.2.5.4 1.2.2 1.6-.4.3-.5.1-1-.5-1s-.9-.4-.5-.9c.3-.5.1-1.2-.5-1.6-.5-.3-1-1.3-1-2.1 0-1.9 3.4-1.8 5.4.1 1.4 1.5 3.3.4 2.2-1.3-.2-.4.8-.8 2.2-.7 1.5 0 3 .7 3.3 1.5m100.2.7c.9 1.1 1.7 2.5 1.7 3 0 .4 1.4 1.4 3 2.1 2.2 1 3 2.1 3 3.8 0 1.4-.4 2.2-1 1.9-.5-.3-1-.1-1 .5s-1.1 0-2.4-1.5c-1.9-2-2.5-2.3-3.5-1.2-.6.8-.9 1.6-.6 1.8 1.1 1.2-7.2-.5-8.6-1.7s-1.8-1.1-3.4.6c-1 1.1-2.2 1.7-2.8 1.3s-.8.2-.4 1.6c.3 1.3.3 2 0 1.7-1-1-3.2 1.5-2.6 3 .3.7.8 1.2 1.2 1 1.5-1 1.1 6.7-.5 8.5-1.5 1.7-1.5 2 .5 4.5 3.7 4.8 5.7 5.7 9 4.3 1.5-.7 3.5-2.5 4.4-4.1 3-5.1 11.7-2.9 11.7 3 0 2.7-2.5 6.2-4.4 6.2-.6 0-1.7 1.3-2.4 2.9s-2.2 3.1-3.3 3.4c-1.2.3-1.9 1-1.6 1.4.3.5.2 1.5-.2 2.2-.6.9-1.1 1-1.5.2-.4-.6-.3-1.1.3-1.1s.8-.7.5-1.5c-.4-.8-1.2-1.5-1.9-1.5s-1.8-.7-2.5-1.5c-1.3-1.5-3.5-1.1-2.5.6.4.5 0 .9-.7 1-5.5.5-10.8-1.5-10.8-4 0-2.1-4.5-4.2-5.8-2.9-1.8 1.8-.1-7.5 1.7-9.5 1.4-1.7 1.4-2-.2-3.2-2-1.4-2.2-4.3-.5-8 .9-2.1.9-3.1 0-4.6-.7-1-1.2-2.9-1.2-4.1 0-2.3 2.6-5.8 4.4-5.8.6 0 1.9-1.4 2.8-3 1.4-2.4 2.4-3 5.2-3 1.9 0 4.1.7 5 1.5 1.4 1.5 3.3.4 2.3-1.3-.3-.4 1.4-.7 3.6-.7 3.1 0 4.7.6 6 2.2m45.7-2.1c0 .8-1.9 1.3-2.4.6-.3-.5.1-.9.9-.9s1.5.2 1.5.3M51.1 16.4c.5-.3.9.5.9 1.7 0 2.2 0 2.2-1.5.3-.8-1-1.4-2.4-1.4-2.9 0-.6.3-.4.6.3.2.6.9 1 1.4.6m42.9.1c0 1.6-3.4 3.8-4.3 2.8-1.1-1 .3-2.2 1.8-1.6 1.1.4 1.3.1.9-1.1-.3-.9-.1-1.6.5-1.6s1.1.7 1.1 1.5m73.7 0c0 .8-.4 1.5-.9 1.5-.4 0-.8-.5-.8-1.1 0-.5-.5-.7-1.2-.3s-.8.3-.4-.4c1-1.7 3.3-1.5 3.3.3m94.3 0c0 1.6-3.4 3.8-4.3 2.8-1.1-1 .3-2.2 1.8-1.6 1.1.4 1.3.1.9-1.1-.3-.9-.1-1.6.5-1.6s1.1.7 1.1 1.5m73.7 0c0 .8-.4 1.5-.9 1.5-.4 0-.8-.5-.8-1.1 0-.5-.5-.7-1.2-.3s-.8.3-.4-.4c1-1.7 3.3-1.5 3.3.3m22.3-.3c1.5 1 2.2 1 3.2 0 2.8-2.8 10.8-.3 10.8 3.5 0 .8.5 1.1 1.1.8.6-.4.8-1.4.5-2.2-.4-.8-.1-1.1.5-.8.6.4.8 1.3.5 2-.2.7.6 2.3 2 3.6 1.3 1.2 2.4 2.6 2.4 3.1 0 1.4-4.7.9-6-.7-1-1.3-1.5-1.2-3.5.3-1.3.9-2 2.1-1.8 2.7.3.5 0 .4-.8-.3-.7-.6-2-1.2-2.8-1.2s-2.2-.7-3.1-1.5c-1.5-1.4-1.8-1.4-3 0-.7.8-1.9 1.5-2.6 1.5-.8 0-1.4.5-1.4 1.1 0 .5.6.7 1.3.3.6-.3-.1.5-1.8 1.9-2.6 2.1-2.8 2.7-1.6 4.1 1.2 1.5 1.6 1.5 3.1.1.9-.8 2.6-1.5 3.7-1.5s2.6-.7 3.3-1.5c1-1.2 1-1.5 0-1.5-.8 0-1.1-.3-.7-.6 1.2-1.2 2.8.7 1.8 2-.8 1-.5 1.8.9 3.1 1.1 1 2 2.3 2 2.9s1 1.6 2.2 2.1c1.3.6 2.8 2.1 3.4 3.3.7 1.5 1.4 2 1.8 1.3.4-.6.4-1.6 0-2.3-.5-.7-.3-.8.5-.4.7.5 1 1.4.7 2.1-.2.7.4 2.1 1.4 3s2 2.5 2.3 3.6c.6 2.2-2.7 6.9-4.9 6.9-.8 0-1.4.4-1.4 1 0 .5.5 1 1 1 .6 0 1 .7 1 1.5s-.5 1.5-1.1 1.5c-.5 0-.7-.4-.4-1 1-1.6-1.1-1.2-2.5.5-1.6 2-7.4 1.9-9.1-.1-1.1-1.3-1.5-1.4-2.3-.2-.6.8-1.9 1.7-2.9 2.1s-1.6 1-1.3 1.5c.2.4.1 1.4-.3 2.1-.6.9-1.1 1-1.5.2-.4-.6-.3-1.1.3-1.1s.8-.7.5-1.5c-.4-.8-1.4-1.5-2.4-1.5-1.1 0-2.4-1.3-3.2-3-.7-1.7-1.9-3-2.6-3s-1 .5-.6 1.2.3.8-.5.4c-.6-.4-.9-1.1-.6-1.6.3-.4-.2-1.3-1-2s-1.5-1.9-1.5-2.6c0-1.9 3.4-1.8 5 .1 1.1 1.3 1.5 1.4 2.9.1.9-.8 3.6-1.7 6.1-2s3.9-.2 3.2.3c-1 .6-1 1 .1 2 1.1.9 1.7.8 2.7-.4.7-.8 1.8-1.5 2.4-1.5s1.9-1.4 2.9-3.1c1.3-2.4 1.5-3.5.6-4.5-.8-1-1.4-1.1-2.4-.1-.7.7-1 1.6-.7 2.1s0 .6-.6.2c-.6-.3-1.3-.2-1.7.4-.3.5-1.2 1-1.8 1-.7 0-.6-.4.3-1 1.2-.8 1-1-.9-1-2.7 0-6.1-2.6-6.1-4.7 0-.7-.9-1.3-1.9-1.3-1.2 0-2.5-1.2-3.3-3-.7-1.7-1.9-3-2.6-3s-1 .5-.6 1.2.3.8-.5.4c-.6-.4-.9-1.1-.6-1.6.3-.4-.2-1.3-1-2s-1.5-1.9-1.5-2.6c0-.8-.4-1.4-1-1.4-.5 0-1-.5-1-1 0-.6.6-.9 1.3-.8.7.2 1.1-.5.9-1.5-.2-.9.1-1.7.5-1.6s1.9-.3 3.3-.9 2.1-1.1 1.6-1.1c-.5-.1.1-1.2 1.4-2.6 2.6-2.7 6.8-3.3 10-1.3M4 19.7c0 1-.4 1.4-.8.8s-1.1-1.3-1.6-1.8c-.5-.4-.2-.7.7-.7 1 0 1.7.8 1.7 1.7m42-.7c-.8.5-1.9 1-2.5 1-.5 0-.3-.5.5-1s2-1 2.5-1c.6 0 .3.5-.5 1m84 2.6c0 .8-1.9 1.3-2.4.6-.3-.5.1-.9.9-.9s1.5.2 1.5.3m64 2.4c0 .5-.5 1-1.1 1-.5 0-.7-.5-.4-1 .3-.6.8-1 1.1-1 .2 0 .4.4.4 1m-85.7 2.3c.3.8-.1 1.4-.8 1.4s-1.1-.6-.8-1.4c.3-.7.6-1.3.8-1.3s.5.6.8 1.3m82.2-.3c.3.5.1 1-.4 1-.6 0-1.1-.5-1.1-1 0-.6.2-1 .4-1 .3 0 .8.4 1.1 1m85.8.3c.3.8-.1 1.4-.8 1.4s-1.1-.6-.8-1.4c.3-.7.6-1.3.8-1.3s.5.6.8 1.3m96 0c.3.8-.1 1.4-.8 1.4s-1.1-.6-.8-1.4c.3-.7.6-1.3.8-1.3s.5.6.8 1.3M113 29.5c0 .8.5 1.5 1.2 1.5.6 0 .8.3.4.7-.4.5-1.4-.1-2.2-1.1-.8-1.1-1.4-1.4-1.4-.8 0 .7-.5 1.2-1.1 1.2-.8 0-.8-.5.1-1.5.7-.8 1.6-1.5 2.1-1.5s.9.7.9 1.5m6.7 0c0 .8-.4 1.5-.9 1.5-1 0-1.1-1.4-.1-2.3.9-1 1-.9 1 .8m73.5-.6c1.1-.6 2.2-.8 2.6-.5.3.3 0 .6-.7.6s-1 .4-.7.8c1 1.6-3.3 1-4.5-.6-1.1-1.4-1.1-1.5.1-.5.9.9 1.9.9 3.2.2m38.2.6c.3.9 0 1.5-.9 1.5s-1.2-.6-.9-1.5c.4-.8.7-1.5.9-1.5s.5.7.9 1.5m4.3 2c-.8.9-1.4 1-1.9.2-.9-1.6 0-2.7 1.7-2.1 1.1.5 1.2.9.2 1.9m-47.9 2c-.3.3-.9-.2-1.2-1.2-.6-1.4-.5-1.5.5-.6.7.7 1 1.5.7 1.8M119 32.3c0 .1-.9 1-1.9 1.9-1.7 1.4-2 1.4-2.5.2-.3-.8-.2-1.2.3-.9s1.2.1 1.6-.5c.5-.9 2.5-1.5 2.5-.7m108.4 1.3c.3.8.2 1.2-.4.9s-1-1-1-1.6c0-1.4.7-1.1 1.4.7m5.2 1.1c-1 1-1.9-.5-1-1.8.6-1.1.8-1.1 1.2 0 .2.7.1 1.5-.2 1.8m5.5-1.8c.6-1 .8-.8.7.8-.2 2.5-2.8 2-2.7-.6 0-1.2.2-1.2.6-.2.5 1.1.7 1.1 1.4 0m-25.3 1.8c.6 1.9-2.5 1.6-3.2-.3-.4-1.1-.1-1.4 1.1-1.2.9.2 1.8.9 2.1 1.5m123.9.5c-.3.8-.6.5-.6-.6-.1-1.1.2-1.7.5-1.3.3.3.4 1.2.1 1.9m-246.3.3c-.4.8-1 1.2-1.5.9-1.1-.6-.2-2.4 1.1-2.4.5 0 .7.7.4 1.5m154.6 0c0 .7-3 1.3-3.4.7-.3-.4.4-.9 1.5-.9 1-.1 1.9 0 1.9.2m130.5 3.3c-.3.3-1.5.6-2.7.7-2 .2-2 .1-.3-1.1 1.7-1.3 4.3-.9 3 .4M78.8 40.7c-.9 1-1.3 2.5-1.1 3.3.4 1.2.3 1.3-.5.1-.5-.7-1.6-1-2.3-.7-.8.4-.6.1.5-.8 1-.8 1.5-1.9 1.1-2.5-.3-.7.3-1.1 1.6-1.1 2 0 2.1.2.7 1.7m-38.3.3c-.3.5-1.1 1-1.6 1-.6 0-.7-.5-.4-1 .3-.6 1.1-1 1.6-1 .6 0 .7.4.4 1m191.1 1.9c-.9 1.4-2.6 1.4-2.6 0 0-.5.5-.7 1.2-.3.8.5.9.1.4-1.2-.5-1.4-.4-1.6.5-.7.6.6.8 1.6.5 2.2m116.3-2.6c-.2.1-1.3.9-2.4 1.7-1.9 1.4-1.9 1.4-.6-.3.7-.9 1.8-1.7 2.4-1.7q.9 0 .6.3M4 43.7c0 1-.4 1.4-.8.8s-1.1-1.3-1.6-1.8c-.5-.4-.2-.7.7-.7 1 0 1.7.8 1.7 1.7m168 0c0 1-.4 1.4-.8.8s-1.1-1.3-1.6-1.8c-.5-.4-.2-.7.7-.7 1 0 1.7.8 1.7 1.7m18-.7c-.8.5-1.9 1-2.5 1-.5 0-.3-.5.5-1s2-1 2.5-1c.6 0 .3.5-.5 1m5.9 1.2c0 1.6-.2 1.8-.6.8-.3-.8-1.1-1.8-1.7-2.2-.7-.5-.4-.8.7-.8s1.7.7 1.6 2.2M272 43c0 .5-.7 1-1.6 1-.8 0-1.2-.5-.9-1 .3-.6 1-1 1.6-1 .5 0 .9.4.9 1m-57.5 2c-.8.9-1.2 2-.8 2.5.5.4.3.5-.4.2-1.5-.9-.5-4.4 1.3-4.4 1.2 0 1.2.3-.1 1.7m134.1 2.4c.2 1.6.2 2.7 0 2.5-3.1-4.6-3.5-5.7-1.9-5.5.9.2 1.7 1.4 1.9 3m3.2-.9c-.3.3-.9-.2-1.2-1.2-.6-1.4-.5-1.5.5-.6.7.7 1 1.5.7 1.8m-306.1 0c0 .8-.4 1.2-.9.9s-.6-1-.3-1.5c.9-1.3 1.2-1.1 1.2.6m49.7.6c-.3.5-1 .7-1.5.3-.5-.3-.7-1-.3-1.5.3-.5 1-.7 1.5-.3.5.3.7 1 .3 1.5m98.6-1.6c0 .1-1 1-2.2 2.1-1.4 1.2-1.8 1.3-1 .3.6-.9 1-1.8.7-2.1-.3-.2.2-.5 1-.5s1.5.1 1.5.2m82.6 2.2c.2 2.7.1 2.7-1.4-.3-.8-1.5-.8-2.1.1-2.1.7 0 1.3 1.1 1.3 2.4m3.8-1.1c.3.8.2 1.2-.4.9s-1-1-1-1.6c0-1.4.7-1.1 1.4.7m19-.8c.3.5-.1.9-.9.9s-1.2-.4-.9-.9c.3-.4.7-.8.9-.8s.6.4.9.8m43.6 2.3c-.6 1-1.5 1.9-2.1 1.9s-.3-.7.5-1.6c.9-.8 1.3-2 1-2.6-.4-.7-.2-.8.4-.4.9.5.9 1.3.2 2.7m12-2.1c0 .5-.2 1-.4 1-.3 0-.8-.5-1.1-1-.3-.6-.1-1 .4-1 .6 0 1.1.4 1.1 1m25.9 1.2c1.1 1.5 1 1.6-1.3.5-1.6-.8-2-1.4-1.3-1.9.6-.4 1.2-.6 1.2-.5s.6 1 1.4 1.9M109 49.5c0 .5-.5.3-1-.5s-1-2-1-2.5c0-.6.5-.3 1 .5s1 1.9 1 2.5m229.4-2c.3.8.1 1.5-.4 1.5-.6 0-1-.7-1-1.5s.2-1.5.4-1.5.6.7 1 1.5M82 48.5c0 .1-1.2.2-2.6.2-1.7 0-2.2-.2-1.3-.7 1-.7 3.9-.3 3.9.5m114.5-.5c.3.5-.1 1-1 1s-1.3-.5-1-1c.3-.6.8-1 1-1s.7.4 1 1m123 0c.4.6 1.2.8 1.8.4.7-.3.3.2-.7 1-1.1.9-2.5 1.6-3 1.5-.6 0-.5-.3.2-.6.6-.2 1.2-.9 1.2-1.4 0-.6-.4-.7-1-.4-.5.3-1 .1-1-.4 0-1.4 1.7-1.4 2.5-.1m45 0c.3.5-.1 1-1 1s-1.3-.5-1-1c.3-.6.8-1 1-1s.7.4 1 1M20.7 50.2c-.3.8-.6.5-.6-.6-.1-1.1.2-1.7.5-1.3.3.3.4 1.2.1 1.9M89.5 49c-.3.5-1.2 1-1.8 1-.7 0-.6-.4.3-1 1.9-1.2 2.3-1.2 1.5 0M86 50c0 .5-.7.7-1.5.4-.8-.4-1.5-.8-1.5-1s.7-.4 1.5-.4 1.5.4 1.5 1m-61.5 3.4c.7-.3 1.6-.1 1.9.4s-.4.9-1.6.8c-1.2 0-2.3-.7-2.4-1.4s0-.8.2-.3c.3.6 1.1.8 1.9.5m62 .5c-.3.6-1.1 1.1-1.6 1.1s-.4-.6.3-1.4c1.4-1.6 2.4-1.3 1.3.3m144.9-.4c.3.9 0 1.5-.9 1.5s-1.2-.6-.9-1.5c.4-.8.7-1.5.9-1.5s.5.7.9 1.5m-211.6 4c-.3.3-.9-.2-1.2-1.2-.6-1.4-.5-1.5.5-.6.7.7 1 1.5.7 1.8m110 0c-.3.3-.9-.2-1.2-1.2-.6-1.4-.5-1.5.5-.6.7.7 1 1.5.7 1.8m168 0c-.3.3-.9-.2-1.2-1.2-.6-1.4-.5-1.5.5-.6.7.7 1 1.5.7 1.8m-99.8-.2c0 .8-.7 1.4-1.5 1.4-1.1 0-1.2-.4-.4-1.4.6-.7 1.3-1.3 1.5-1.3s.4.6.4 1.3m29.4.3c.3.8.2 1.2-.4.9s-1-1-1-1.6c0-1.4.7-1.1 1.4.7m150.4.4c-.7 1.1-1.5 1.5-1.7.9s.3-1.5 1-2c2-1.2 2.1-1.1.7 1.1m-333 .7c.6 1.9-2.5 1.6-3.2-.3-.4-1.1-.1-1.4 1.1-1.2.9.2 1.8.9 2.1 1.5m82.7-.7c.3.6-.1.7-.9.4-1.8-.7-2.1-1.4-.7-1.4.6 0 1.3.4 1.6 1m41.2 1.2c-.3.8-.6.5-.6-.6-.1-1.1.2-1.7.5-1.3.3.3.4 1.2.1 1.9m44.1-.5c.6 1.9-2.5 1.6-3.2-.3-.4-1.1-.1-1.4 1.1-1.2.9.2 1.8.9 2.1 1.5m82.7-.7c.3.6-.1.7-.9.4-1.8-.7-2.1-1.4-.7-1.4.6 0 1.3.4 1.6 1m41.2 1.2c-.3.8-.6.5-.6-.6-.1-1.1.2-1.7.5-1.3.3.3.4 1.2.1 1.9m-246.3.3c-.4.8-1 1.2-1.5.9-1.1-.6-.2-2.4 1.1-2.4.5 0 .7.7.4 1.5m168 0c-.4.8-1 1.2-1.5.9-1.1-.6-.2-2.4 1.1-2.4.5 0 .7.7.4 1.5M14 63.5c1.1 1.3 1 1.4-.4.9-.9-.3-1.6-1-1.6-1.5 0-1.3.6-1.1 2 .6m9-.5c0 .5-.5 1-1.1 1-.5 0-.7-.5-.4-1 .3-.6.8-1 1.1-1 .2 0 .4.4.4 1m15 .5c1.1 1.3 1 1.4-.4.9-.9-.3-1.6-1-1.6-1.5 0-1.3.6-1.1 2 .6m9-.5c0 .5-.5 1-1.1 1-.5 0-.7-.5-.4-1 .3-.6.8-1 1.1-1 .2 0 .4.4.4 1m63 .5c1.1 1.3 1 1.4-.4.9-.9-.3-1.6-1-1.6-1.5 0-1.3.6-1.1 2 .6m168 0c1.1 1.3 1 1.4-.4.9-.9-.3-1.6-1-1.6-1.5 0-1.3.6-1.1 2 .6M3 64.4c0 .8-.4 1.7-.9 2.1-.6.3-.9-.4-.8-1.5.1-2.3 1.7-2.8 1.7-.6m24 0c0 .7-.6 1.9-1.3 2.5-1.1.8-1.3.6-1.1-1.2.3-2.8.2-2.7 1.4-2.7.6 0 1 .6 1 1.4m152.9-.1c-.2.1-1.3.9-2.4 1.7-1.9 1.4-1.9 1.4-.6-.3.7-.9 1.8-1.7 2.4-1.7q.9 0 .6.3m24 0c-.2.1-1.3.9-2.4 1.7-1.9 1.4-1.9 1.4-.6-.3.7-.9 1.8-1.7 2.4-1.7q.9 0 .6.3m144 0c-.2.1-1.3.9-2.4 1.7-1.9 1.4-1.9 1.4-.6-.3.7-.9 1.8-1.7 2.4-1.7q.9 0 .6.3M51.1 66.7c1.3 1.7 1.3 1.7-.6.3-1.1-.8-2.2-1.6-2.4-1.7q-.3-.3.6-.3c.6 0 1.7.8 2.4 1.7m55.9-1.3c0 .2-.7.7-1.6 1-.8.3-1.2.2-.9-.4.6-1 2.5-1.4 2.5-.6m30.5.5c.3.5.2 1.2-.3 1.5s-.9-.1-.9-.9c0-1.7.3-1.9 1.2-.6m137.5-.5c0 .2-.7.7-1.6 1-.8.3-1.2.2-.9-.4.6-1 2.5-1.4 2.5-.6m30.5.5c.3.5.2 1.2-.3 1.5s-.9-.1-.9-.9c0-1.7.3-1.9 1.2-.6M5.5 67c.3.5.1 1-.4 1-.6 0-1.1-.5-1.1-1 0-.6.2-1 .4-1 .3 0 .8.4 1.1 1m24 0c.3.5.1 1-.4 1-.6 0-1.1-.5-1.1-1 0-.6.2-1 .4-1 .3 0 .8.4 1.1 1m88.5 0c0 .5-.2 1-.4 1-.3 0-.8-.5-1.1-1-.3-.6-.1-1 .4-1 .6 0 1.1.4 1.1 1m72 0c0 .5-.2 1-.4 1-.3 0-.8-.5-1.1-1-.3-.6-.1-1 .4-1 .6 0 1.1.4 1.1 1m96 0c0 .5-.2 1-.4 1-.3 0-.8-.5-1.1-1-.3-.6-.1-1 .4-1 .6 0 1.1.4 1.1 1m72 0c0 .5-.2 1-.4 1-.3 0-.8-.5-1.1-1-.3-.6-.1-1 .4-1 .6 0 1.1.4 1.1 1"/><path d="M142 19.4c-1.5 1.9-.6 3.5 1.7 3.2 2.2-.4 2.7-2 1-3.5-1.1-.9-1.7-.8-2.7.3m12 0c-1 1.3-1 1.9 0 3.2 1.2 1.4 1.5 1.4 2.9 0 1.4-1.5 1.4-1.7 0-3.2-1.4-1.4-1.7-1.4-2.9 0m-17.8 5.9c-1.4 1.7.2 4.2 2.2 3.4s2-2.1.2-3.6c-1-.8-1.6-.8-2.4.2m11.8.2c-.7.8-1.9 1.5-2.6 1.5-.8 0-1.4.7-1.4 1.6s-.8 2.3-1.7 3c-1.7 1.3-1.7 1.5 0 2.8 1.3 1 1.7 2.5 1.6 5.4-.2 2.3-.6 4-1 3.9s-.7.1-.8.5c-.3 2.3 0 3 1.3 2.5q1.5-.6.9.9c-.3.9.1 1.4 1.3 1.5 1.8 0 1.7.1-.1.9-1.6.7-1.7.9-.3.9.9.1 2.4.8 3.2 1.7 1.5 1.4 1.7 1.4 2.2 0 .3-.9 1.4-1.6 2.3-1.6s2.3-1.2 3.2-2.8c1.4-2.5 1.4-3-.4-6.4-1.7-3.5-1.8-3.9-.2-5.4 1.7-1.8 1.6-6-.2-5.7-.6.1-.9-.6-.6-1.7.3-1.2 0-2-.8-2-.7 0-2-.7-2.9-1.5-1.5-1.4-1.8-1.4-3 0m6.4 22.1c.3.8.2 1.2-.4.9s-1-1-1-1.6c0-1.4.7-1.1 1.4.7m-2.9.4c-.3.5-1.2 1-1.8 1-.7 0-.6-.4.3-1 1.9-1.2 2.3-1.2 1.5 0m8.7-22.7c-1.4 1.7.2 4.2 2.2 3.4s2-2.1.2-3.6c-1-.8-1.6-.8-2.4.2m-23.2 12c0 1-.4 1.5-1 1.2-1.5-.9-1.2 1.1.4 2.4 2.2 1.8 4-1 2.1-3.5-1.3-1.8-1.4-1.8-1.5-.1m24 0c0 1-.4 1.5-1 1.2-1.5-.9-1.2 1.1.4 2.4 2.2 1.8 4-1 2.1-3.5-1.3-1.8-1.4-1.8-1.5-.1m-24.8 11.9c-.9 1.1-.9 1.9.1 3.2 1.1 1.5 1.5 1.6 2.5.4.9-1.1.9-1.9-.1-3.2-1.1-1.5-1.5-1.6-2.5-.4m23.8.3c-1 1.2-1 1.8 0 3.1 1.2 1.3 1.5 1.3 2.8 0s1.3-1.6-.1-3c-1.3-1.4-1.6-1.4-2.7-.1m-17.8 6.1c-1.1 1.2-1.1 1.7.1 2.9 1.3 1.3 1.7 1.3 2.8-.1 1-1.2 1-1.8-.2-2.9s-1.6-1.1-2.7.1m11.3.4c-.4.6-.1 1.7.5 2.5 1 1.2 1.4 1.2 2.8-.1 1.3-1.3 1.3-1.7.1-2.5-1.8-1.2-2.6-1.1-3.4.1M238 19.4c-1 1.3-1 1.9 0 3.2 1.2 1.4 1.5 1.4 2.9 0 1.4-1.5 1.4-1.7 0-3.2-1.4-1.4-1.7-1.4-2.9 0m-18 6c-1 1.3-1 1.9 0 3.2 1.2 1.4 1.5 1.4 2.9 0 1.4-1.5 1.4-1.7 0-3.2-1.4-1.4-1.7-1.4-2.9 0m24 0c-1 1.3-1 1.9 0 3.2 1.2 1.4 1.5 1.4 2.9 0 1.4-1.5 1.4-1.7 0-3.2-1.4-1.4-1.7-1.4-2.9 0m-23.8 11.9c-.9 1-.9 1.8.1 3.1 1.2 1.6 1.4 1.7 2.7.1 1.1-1.4 1.1-1.8-.2-3.1-1.2-1.3-1.6-1.3-2.6-.1m-.2 12.1c-1 1.3-1 1.9 0 3.2 1.2 1.4 1.5 1.4 2.9 0 1.4-1.5 1.4-1.7 0-3.2-1.4-1.4-1.7-1.4-2.9 0m90.2-30.1c-.9 1-.9 1.8.1 3.1 1.2 1.6 1.4 1.7 2.7.1 1.1-1.4 1.1-1.8-.2-3.1-1.2-1.3-1.6-1.3-2.6-.1m13.3-.6c.4.8 0 1.3-.9 1.3-2.1 0-2.1 1.9 0 2.7 2.5.9 3.6-1.1 1.8-3.3-.8-1-1.3-1.3-.9-.7m-19.3 6.5c-.9 1.1-.9 1.9.1 3.2 1.1 1.5 1.5 1.6 2.5.4.9-1.1.9-1.9-.1-3.2-1.1-1.5-1.5-1.6-2.5-.4m12.3-.3c-.3.6-.4 1.5-.1 2 .3.4-.6.6-1.9.3-2.2-.4-2.5-.1-2.5 2.2 0 1.5-.4 2.5-.9 2.1-1.9-1.1-1.9 1.2.1 4.3 1.8 3 3 3.7 5.1 3.3.5-.1.6.3.3.8-.4.5-.2 1.2.3 1.6.6.3 1.5-.3 2.1-1.4s1.6-1.8 2.4-1.5 1.8-.7 2.6-2.5c1.3-3.2.7-6.7-.9-5.7-.5.3-.7-.3-.4-1.4.3-1.2 0-2-.8-2-.7 0-2-.7-3-1.6-1.1-1-1.9-1.2-2.4-.5m12.4-.4c-.1.6-.1 1.3 0 1.7 0 .5-.4.8-1 .8-.8 0-.7.5.1 1.6 1.2 1.4 1.5 1.4 2.9 0 1.4-1.5 1.4-1.8-.2-3.3-.9-1-1.8-1.3-1.8-.8m-24.7 13.1c-1.1 1.2-1.1 1.8-.1 3 1.1 1.3 1.4 1.3 2.8 0 1.3-1.4 1.3-1.8.1-3-1.3-1.3-1.7-1.2-2.8 0m-.1 11.7c-.9 1.2-.8 1.6.4 2.1 1 .3 1.3 1.1.9 1.8s.2.5 1.2-.5c1.6-1.5 1.7-1.8.3-3.3-1.4-1.3-1.7-1.3-2.8-.1m5.9 6.2c-1.1 1.3-1 1.9.5 3.3 1.7 1.6 1.7 1.6 1.2 0-.4-1.2-.2-1.5.9-1.1 1.8.7 1.8-1.1 0-2.6-1-.9-1.6-.8-2.6.4m11.5.5c-.4.6-.1 1.7.5 2.5 1 1.2 1.4 1.2 2.8-.1 1.3-1.3 1.3-1.7.1-2.5-1.8-1.2-2.6-1.1-3.4.1M59.4 18.8c.4.7.1 1.2-.9 1.2-2.1 0-1.4 2.2.8 2.6 2 .3 2.4-3.1.5-4.2-.7-.4-.8-.3-.4.4M69.5 20c-.3.5-.1 1 .5 1s.9.4.5.9c-.3.5-.1 1.2.4 1.5 1.2.8 3.4-2.1 2.6-3.4s-3.2-1.3-4 0m-5.1 5.4c-.3.9-1.5 1.6-2.5 1.6s-1.9.5-1.9 1.2c0 .6-.7 2-1.7 3-1.5 1.7-1.5 1.9.2 3.8 1 1.1 2.3 1.7 2.9 1.3s.5.1-.3 1C60 38.8 60 39 61.3 39c.8 0 2 .7 2.7 1.5 1.1 1.3 1.5 1.3 3-.5.9-1.1 2.1-1.6 2.6-1.2.4.4.3-.1-.4-1-1.1-1.4-1-1.6.7-1.1 1.7.4 2.1.1 2.1-1.6 0-1.2.5-1.9 1-1.6 1.6 1 1.2-1.1-.5-2.5-.8-.7-1.5-1.9-1.5-2.6 0-.8-.5-1.4-1.2-1.4-.6 0-2-.7-3-1.6-1.6-1.6-1.8-1.6-2.4 0m3.7 4.6c.5 0 .4.6-.3 1.4-1.7 1.8-2.7.2-1.9-3.2.5-2.5.6-2.5.9-.5.2 1.3.8 2.3 1.3 2.3m-4.7-.5c.3.9 0 1.5-.9 1.5s-1.2-.6-.9-1.5c.4-.8.7-1.5.9-1.5s.5.7.9 1.5m-4 4.1c.3.8.2 1.2-.4.9s-1-1-1-1.6c0-1.4.7-1.1 1.4.7m5.2 1.1c-1 1-1.9-.5-1-1.8.6-1.1.8-1.1 1.2 0 .2.7.1 1.5-.2 1.8m5.5-1.8c.6-1 .8-.8.7.8-.2 2.5-2.8 2-2.7-.6 0-1.2.2-1.2.6-.2.5 1.1.7 1.1 1.4 0m6-7.5c-1.1 1.3-1 1.8.2 3 1.3 1.4 1.6 1.4 2.8 0 1-1.2.9-1.8-.3-3-1.3-1.3-1.6-1.3-2.7 0m-24.6.6c-.4.6-.1 1.8.6 2.6 1.2 1.4 1.4 1.4 2.6-.2.7-.9 1-2.1.7-2.5-.7-1.2-3.1-1.1-3.9.1m.6 11.4c-1.4 1.7-.7 3.6 1.4 3.6 2.2 0 2.9-2 1.3-3.6-1.3-1.3-1.6-1.3-2.7 0M51.5 50c-.4.6-.1 1.8.6 2.6 1.2 1.4 1.4 1.4 2.6-.2.7-.9 1-2.1.7-2.5-.7-1.2-3.1-1.1-3.9.1M70 55.5c-1.1 1.3-1 1.9.3 3.3 1.6 1.5 1.7 1.5 1.7-.1 0-1 .5-1.5 1-1.2 1.5.9 1.2-1.1-.4-2.4-1-.9-1.6-.8-2.6.4m-12.5.5c-.4.6-.1 1.7.5 2.5 1 1.2 1.4 1.2 2.8-.1 1.3-1.3 1.3-1.7.1-2.5-1.8-1.2-2.6-1.1-3.4.1M100 19.5c-1.1 1.4-1.1 1.8.2 3.1 1.2 1.3 1.6 1.3 2.6.1.9-1 .9-1.8-.1-3.1-1.2-1.6-1.4-1.7-2.7-.1m12 0c-1.6 2-.1 3.8 2.3 2.9 2.1-.8 2.2-1.8.3-3.3-1-.9-1.6-.8-2.6.4m-18 6c-1 1.2-1 1.9-.2 2.7.9.9 1.2.8 1.2-.3s.2-1.2.9 0c.6 1 1 1 1.6.1.4-.7.1-1.8-.7-2.6-1.3-1.3-1.6-1.3-2.8.1m12 11.9c-1 1.3-1 1.9 0 3.2 1.2 1.4 1.5 1.4 2.9 0 1.4-1.5 1.4-1.7 0-3.2-1.4-1.4-1.7-1.4-2.9 0m12.1 12c-1.4 1.7-.7 3.6 1.4 3.6 2.2 0 2.9-2 1.3-3.6-1.3-1.3-1.6-1.3-2.7 0m-18.1 6c-1 1.3-1 1.9 0 3.2 1.2 1.4 1.5 1.4 2.9 0 1.4-1.5 1.4-1.7 0-3.2-1.4-1.4-1.7-1.4-2.9 0m12 .1c-.9 1.1-.9 1.8.3 2.9 1.3 1.3 1.7 1.4 2.7.1.9-1.1.9-1.8-.3-2.9-1.3-1.3-1.7-1.4-2.7-.1m66.1-30.1c-1.4 1.7-.7 3.6 1.4 3.6 2.2 0 2.9-2 1.3-3.6-1.3-1.3-1.6-1.3-2.7 0m24 0c-1.4 1.7-.7 3.6 1.4 3.6 2.2 0 2.9-2 1.3-3.6-1.3-1.3-1.6-1.3-2.7 0m-24.1 12c-1 1.3-1 1.9 0 3.2 1.2 1.4 1.5 1.4 2.9 0 1.4-1.5 1.4-1.7 0-3.2-1.4-1.4-1.7-1.4-2.9 0m24 0c-1 1.3-1 1.9 0 3.2 1.2 1.4 1.5 1.4 2.9 0 1.4-1.5 1.4-1.7 0-3.2-1.4-1.4-1.7-1.4-2.9 0m-24 12c-1 1.3-1 1.9 0 3.2 1.2 1.4 1.5 1.4 2.9 0 1.4-1.5 1.4-1.7 0-3.2-1.4-1.4-1.7-1.4-2.9 0m24 0c-1 1.3-1 1.9 0 3.2 1.2 1.4 1.5 1.4 2.9 0 1.4-1.5 1.4-1.7 0-3.2-1.4-1.4-1.7-1.4-2.9 0m-18 6.1c-.9 1.1-.9 1.8.3 2.9 1.3 1.3 1.7 1.4 2.7.1.9-1.1.9-1.8-.3-2.9-1.3-1.3-1.7-1.4-2.7-.1m84-36c-1.1 1.4-1.1 1.8.2 3.1 1.2 1.3 1.6 1.3 2.6.1.9-1 .9-1.8-.1-3.1-1.2-1.6-1.4-1.7-2.7-.1m12 0c-1.6 2-.1 3.8 2.3 2.9 2.1-.8 2.2-1.8.3-3.3-1-.9-1.6-.8-2.6.4m-18 6c-1 1.2-1 1.9-.2 2.7.9.9 1.2.8 1.2-.3s.2-1.2.9 0c.6 1 1 1 1.6.1.4-.7.1-1.8-.7-2.6-1.3-1.3-1.6-1.3-2.8.1m0 11.9c-1 1.3-1 1.9 0 3.2 1.2 1.4 1.5 1.4 2.9 0 1.4-1.5 1.4-1.7 0-3.2-1.4-1.4-1.7-1.4-2.9 0m0 12.1c-1 1.2-1 1.9-.2 2.7.9.9 1.2.9 1.2 0 0-.6.7-.9 1.5-.6 1.9.8 2-1 .1-2.5-1-.9-1.6-.8-2.6.4m24.1-.1c-1.4 1.7-.7 3.6 1.4 3.6 2.2 0 2.9-2 1.3-3.6-1.3-1.3-1.6-1.3-2.7 0m-18.1 6c-1 1.3-1 1.9 0 3.2 1.2 1.4 1.5 1.4 2.9 0 1.4-1.5 1.4-1.7 0-3.2-1.4-1.4-1.7-1.4-2.9 0m12 .1c-.9 1.1-.9 1.8.3 2.9 1.3 1.3 1.7 1.4 2.7.1.9-1.1.9-1.8-.3-2.9-1.3-1.3-1.7-1.4-2.7-.1m72.1-36.2c-1.8 2.3.4 5.4 2.5 3.6 1.6-1.3 1.9-3.3.5-2.4-.5.3-1.1-.2-1.3-1.1-.3-1.6-.4-1.6-1.7-.1m11.9.2c-1.1 1.4-1.1 1.8.2 3.1 1.2 1.3 1.6 1.3 2.6.1.9-1 .9-1.8-.1-3.1-1.2-1.6-1.4-1.7-2.7-.1m-18 5.9c-1 1.3-1 1.9 0 3.2 1.2 1.4 1.5 1.4 2.9 0 1.4-1.5 1.4-1.7 0-3.2-1.4-1.4-1.7-1.4-2.9 0m12.2 11.9c-.9 1-.9 1.8.1 3.1 1.2 1.6 1.4 1.7 2.7.1 1.1-1.4 1.1-1.8-.2-3.1-1.2-1.3-1.6-1.3-2.6-.1M370 49.4c-1 1.3-1 1.9 0 3.2 1.2 1.4 1.5 1.4 2.9 0 1.4-1.5 1.4-1.7 0-3.2-1.4-1.4-1.7-1.4-2.9 0m-18 6c-1 1.3-1 1.9 0 3.1 1.1 1.3 1.4 1.3 2.7-.1 1.4-1.4 1.4-1.7.1-3s-1.6-1.3-2.8 0m12 0c-1 1.3-1 1.9 0 3.2 1.2 1.4 1.5 1.4 2.9 0 1.4-1.5 1.4-1.7 0-3.2-1.4-1.4-1.7-1.4-2.9 0M16.3 1.6c0 .8 1 1.4 2.3 1.4 1.2 0 2.9.7 3.7 1.5 1.3 1.3 1.6 1.3 2.7 0 1-1.2 1-1.5-.1-1.5-.8 0-.5-.6.7-1.4C27.3.2 27 .1 21.9.2c-4.1 0-5.6.4-5.6 1.4M16 7.4c-1 1.3-1 1.9 0 3.1 1.1 1.3 1.4 1.3 2.7-.1 1.4-1.4 1.4-1.7.1-3s-1.6-1.3-2.8 0m12 0c-1 1.3-1 1.9 0 3.2 1.2 1.4 1.5 1.4 2.9 0 1.4-1.5 1.4-1.7 0-3.2C29.5 6 29.2 6 28 7.4m-18 6c-1 1.3-1 1.9 0 3.2 1.2 1.4 1.5 1.4 2.9 0 1.4-1.5 1.4-1.7 0-3.2-1.4-1.4-1.7-1.4-2.9 0m12.4-.3c-.6.8-1.4 2.2-1.7 3.1-.4 1-1.3 1.8-2 1.8-.8 0-2.1.7-2.8 1.6-1.1 1.4-1.1 1.8.4 2.9.9.7 1.7 2 1.7 2.9s.6 1.6 1.4 1.6c.7 0 1.9.7 2.6 1.5 1.2 1.4 1.5 1.4 3 0 .9-.8 2.2-1.5 2.9-1.5.8 0 1.1-.8.8-2-.3-1.1-.2-1.8.3-1.5.4.3 1.3-.2 2-1 1-1.3 1-1.9-.4-3.3-.9-1-1.6-2.4-1.6-3.1s-.6-1.1-1.2-.9c-.7.3-2-.4-2.8-1.5-1.3-1.6-1.8-1.7-2.6-.6m-1.7 8.5c-.3.3-1.2.4-1.9.1-.8-.3-.5-.6.6-.6 1.1-.1 1.7.2 1.3.5m3.8 3.3c.3.5.2 1.2-.3 1.5s-.9-.1-.9-.9c0-1.7.3-1.9 1.2-.6M34 13.4c-1 1.3-1 1.9 0 3.2 1.2 1.4 1.5 1.4 2.9 0 1.4-1.5 1.4-1.7 0-3.2-1.4-1.4-1.7-1.4-2.9 0"/><path d="M18 16.1c0 .5.5.7 1 .4.6-.3 1-.8 1-1.1 0-.2-.4-.4-1-.4-.5 0-1 .5-1 1.1m-7.9 9.3c-1.4 1.7-.7 3.6 1.4 3.6 2.2 0 2.9-2 1.3-3.6-1.3-1.3-1.6-1.3-2.7 0m23.9 0c-1 1.3-1 1.9 0 3.2 1.2 1.4 1.5 1.4 2.9 0 1.4-1.5 1.4-1.7 0-3.2-1.4-1.4-1.7-1.4-2.9 0m-18 6c-1 1.3-1 1.9 0 3.1 1.1 1.3 1.4 1.3 2.7-.1 1.4-1.4 1.4-1.7.1-3s-1.6-1.3-2.8 0m12 0c-1 1.3-1 1.9 0 3.2 1.2 1.4 1.5 1.4 2.9 0 1.4-1.5 1.4-1.7 0-3.2-1.4-1.4-1.7-1.4-2.9 0m-18 6c-1 1.3-1 1.9 0 3.2 1.2 1.4 1.5 1.4 2.9 0 1.4-1.5 1.4-1.7 0-3.2-1.4-1.4-1.7-1.4-2.9 0m12 0c-1 1.3-1 1.9 0 3.2 1.2 1.4 1.5 1.4 2.9 0 1.4-1.5 1.4-1.7 0-3.2-1.4-1.4-1.7-1.4-2.9 0m6.1 6.5c-.7 1.1-1 2.1-.9 2.2 4.1 1.1 6-.4 3.5-2.8-1.3-1.4-1.6-1.3-2.6.6m-18 5.5c-1.4 1.7-.7 3.6 1.4 3.6 2.2 0 2.9-2 1.3-3.6-1.3-1.3-1.6-1.3-2.7 0m24 0c-1.4 1.7-.7 3.6 1.4 3.6 2.2 0 2.9-2 1.3-3.6-1.3-1.3-1.6-1.3-2.7 0"/></g>
<path fill="#BFBFBF" d="M5 1c-.9.6-1 1-.3 1 .6 0 1.5-.5 1.8-1C7.3-.2 6.9-.2 5 1m10 .6c0 .8.5 1.2 1 .9.6-.4.8-1.1.5-1.6-.9-1.4-1.5-1.1-1.5.7m10.6-.1c-1.1.8-1.5 1.5-.9 1.5s1.6-.7 2.3-1.5c1.6-1.9 1.1-1.9-1.4 0m-15 3.8c.3 1 .9 1.5 1.2 1.2s0-1.1-.7-1.8c-1-.9-1.1-.8-.5.6M38 4.4c0 .9 3.2 3.6 4.2 3.6.6 0 .1-.9-1.2-2-2.3-2-3-2.4-3-1.6M0 5.8c0 .5.7.9 1.5.9s1.2-.4.9-.9C2.1 5.4 1.5 5 .9 5c-.5 0-.9.4-.9.8M46 6c0 .5.5 1 1.1 1 .5 0 .7-.5.4-1-.3-.6-.8-1-1.1-1-.2 0-.4.4-.4 1m-1.5 3c-.4.6-1.1.8-1.6.5s-.6.1-.3.9c.5 1.2.8 1.2 2.5-.2 1-.9 1.9-1.8 1.9-1.9 0-.8-2-.2-2.5.7m93.3 6.2c.3 1.5.6 1.5 1.8.3 1.8-1.8 1.8-2.1-.5-2.1-1.2 0-1.7.6-1.3 1.8m96 0c.3 1.5.6 1.5 1.8.3 1.8-1.8 1.8-2.1-.5-2.1-1.2 0-1.7.6-1.3 1.8m72 0c.3 1.5.6 1.5 1.8.3 1.8-1.8 1.8-2.1-.5-2.1-1.2 0-1.7.6-1.3 1.8m53.5-.7c0 .8.4 1.2.9.9s.6-1 .3-1.5c-.9-1.3-1.2-1.1-1.2.6m13.2-.1c-1.7 1.2-1.7 1.3.3 1.1 2.6-.2 3.7-1.1 2.4-1.9-.5-.3-1.7.1-2.7.8m-226 .6c-.3.6.1.7.9.4 1.8-.7 2.1-1.4.7-1.4-.6 0-1.3.4-1.6 1m3.8.5c0 .8.4 1.2.9.9.4-.3.8-.9.8-1.5 0-.5-.4-.9-.8-.9-.5 0-.9.7-.9 1.5m7.7-.4c0 .5.5.7 1 .4.6-.3 1-.8 1-1.1 0-.2-.4-.4-1-.4-.5 0-1 .5-1 1.1m3.6.1c.3.5 1 .6 1.5.3 1.3-.9 1.1-1.2-.6-1.2-.8 0-1.2.4-.9.9m49.2.9c-1.4 1.5-1.4 1.8-.2 2.3.8.3 1.2.2.9-.3-.3-.6.2-1.4 1.1-1.9s1.3-1.1.8-1.4-1.7.3-2.6 1.3m118.8-.9c.3.5 1 .6 1.5.3 1.3-.9 1.1-1.2-.6-1.2-.8 0-1.2.4-.9.9m-311 1.4c-1.7 1.2-1.7 1.4-.4 1.4.9 0 2-.5 2.3-1.1 1.1-1.7.2-1.8-1.9-.3m30.5-1.1c0 .5.6 1.9 1.4 2.9 1.5 1.9 1.5 1.9 1.5-.3 0-1.2-.4-2-.9-1.7-.5.4-1.2 0-1.4-.6-.3-.7-.6-.9-.6-.3m43.3 1.1c.4 1.2.2 1.5-.9 1.1-.8-.4-1.7-.2-1.9.2-.9 1.4.6 2.1 2.5 1 2.1-1.1 2.6-3.9.8-3.9-.6 0-.8.7-.5 1.6m72-.4c-.4.7-.3.8.4.4s1.2-.2 1.2.3c0 .6.4 1.1.8 1.1.5 0 .9-.7.9-1.5 0-1.8-2.3-2-3.3-.3m96 .4c.4 1.2.2 1.5-.9 1.1-.8-.4-1.7-.2-1.9.2-.9 1.4.6 2.1 2.5 1 2.1-1.1 2.6-3.9.8-3.9-.6 0-.8.7-.5 1.6m72-.4c-.4.7-.3.8.4.4s1.2-.2 1.2.3c0 .6.4 1.1.8 1.1.5 0 .9-.7.9-1.5 0-1.8-2.3-2-3.3-.3m-111.1 1.3c0 .8.6 1.6 1.4 1.9 1.1.4 1.1.1.3-1.4-1.3-2.4-1.7-2.5-1.7-.5m24 0c0 .8.6 1.6 1.4 1.9 1.1.4 1.1.1.3-1.4-1.3-2.4-1.7-2.5-1.7-.5M373.5 19c.2 2.7 1 3.3 1.2 1 .1-1.1-.2-2.2-.6-2.4-.4-.3-.7.4-.6 1.4M1.6 18.7c.5.5 1.2 1.2 1.6 1.8s.8.2.8-.8c0-.9-.7-1.7-1.7-1.7-.9 0-1.2.3-.7.7M44 19c-.8.5-1 1-.5 1 .6 0 1.7-.5 2.5-1s1.1-1 .5-1c-.5 0-1.7.5-2.5 1m-25.2 2.7c.7.3 1.6.2 1.9-.1.4-.3-.2-.6-1.3-.5-1.1 0-1.4.3-.6.6m27.1-.5c-.8 2.7-.5 3.6.9 3 1-.4 1.2-.7.4-1-.7-.2-1-.8-.6-1.3.3-.5.3-.9 0-.9s-.6.1-.7.2m22.9.5c.7.3 1.6.2 1.9-.1.4-.3-.2-.6-1.3-.5-1.1 0-1.4.3-.6.6m58.8.5c.3.5 1 .6 1.5.3 1.3-.9 1.1-1.2-.6-1.2-.8 0-1.2.4-.9.9m15.1.9c.4 1.3.8 1.8 1.1 1 .2-.7-.1-1.8-.6-2.3-.8-.8-.9-.4-.5 1.3m71.2-1.9c-.8 2.7-.5 3.6.9 3 1-.4 1.2-.7.4-1-.7-.2-1-.8-.6-1.3.3-.5.3-.9 0-.9s-.6.1-.7.2m83.7.6c-.3.5.1.9.9.9s1.2-.4.9-.9c-.3-.4-.7-.8-.9-.8s-.6.4-.9.8M59.1 23.6c0 1.1.3 1.4.6.6.3-.7.2-1.6-.1-1.9-.3-.4-.6.2-.5 1.3m54.4-.5c-.4.6-.5 1.2-.2 1.5.2.3.7-.2 1-1.1.7-1.7.1-2-.8-.4m113.6.5c0 1.1.3 1.4.6.6.3-.7.2-1.6-.1-1.9-.3-.4-.6.2-.5 1.3m54.4-.5c-.4.6-.5 1.2-.2 1.5.2.3.7-.2 1-1.1.7-1.7.1-2-.8-.4M.5 24c-.3.5-.1 1 .4 1 .6 0 1.1-.5 1.1-1 0-.6-.2-1-.4-1-.3 0-.8.4-1.1 1m83 0c-.3.6.1.7.9.4 1.8-.7 2.1-1.4.7-1.4-.6 0-1.3.4-1.6 1m84.5 0c-1.3.8-1.2 1 .3 1 .9 0 1.7-.5 1.7-1 0-1.2-.1-1.2-2 0m24.5 0c-.3.5-.1 1 .4 1 .6 0 1.1-.5 1.1-1 0-.6-.2-1-.4-1-.3 0-.8.4-1.1 1m59 0c-.3.6.1.7.9.4 1.8-.7 2.1-1.4.7-1.4-.6 0-1.3.4-1.6 1m84.5 0c-1.3.8-1.2 1 .3 1 .9 0 1.7-.5 1.7-1 0-1.2-.1-1.2-2 0M23.3 25.5c0 .8.4 1.2.9.9s.6-1 .3-1.5c-.9-1.3-1.2-1.1-1.2.6m354.3-.2c.3 1 .9 1.5 1.2 1.2s0-1.1-.7-1.8c-1-.9-1.1-.8-.5.6M3 26c0 .5.5 1 1.1 1 .5 0 .7-.5.4-1-.3-.6-.8-1-1.1-1-.2 0-.4.4-.4 1m103.7.3c-.3.8.1 1.4.8 1.4s1.1-.6.8-1.4c-.3-.7-.6-1.3-.8-1.3s-.5.6-.8 1.3M171 26c0 .5.5 1 1.1 1 .5 0 .7-.5.4-1-.3-.6-.8-1-1.1-1-.2 0-.4.4-.4 1m18 0c0 .5.5 1 1.1 1 .5 0 .7-.5.4-1-.3-.6-.8-1-1.1-1-.2 0-.4.4-.4 1m6 0c0 .5.5 1 1.1 1 .5 0 .7-.5.4-1-.3-.6-.8-1-1.1-1-.2 0-.4.4-.4 1m79.7.3c-.3.8.1 1.4.8 1.4s1.1-.6.8-1.4c-.3-.7-.6-1.3-.8-1.3s-.5.6-.8 1.3M339 26c0 .5.5 1 1.1 1 .5 0 .7-.5.4-1-.3-.6-.8-1-1.1-1-.2 0-.4.4-.4 1m31.7.3c-.3.8.1 1.4.8 1.4s1.1-.6.8-1.4c-.3-.7-.6-1.3-.8-1.3s-.5.6-.8 1.3M65.9 28.2c-.8 3.4.2 5 1.9 3.2.7-.8.8-1.4.3-1.4s-1.1-1-1.3-2.3c-.3-2-.4-2-.9.5M159 27c-.9.6-1 1-.3 1 .6 0 1.5-.5 1.8-1 .8-1.2.4-1.2-1.5 0m167.5 0c-.3.6.1.7.9.4 1.8-.7 2.1-1.4.7-1.4-.6 0-1.3.4-1.6 1M95.2 29c0 1.4.2 1.9.5 1.2.2-.6.2-1.8 0-2.5-.3-.6-.5-.1-.5 1.3M237 27.4c0 .2.8 1 1.8 1.7 1.5 1.3 1.6 1.2.3-.4s-2.1-2.1-2.1-1.3m26.2 1.6c0 1.4.2 1.9.5 1.2.2-.6.2-1.8 0-2.5-.3-.6-.5-.1-.5 1.3M1.3 28.7c-1.8.7-1.6 2 .2 2 .8 0 1.2-.4.9-.8-.2-.4.2-1 .8-1.2.7-.3.9-.5.3-.5-.5 0-1.6.2-2.2.5m60.3.8c-.3.9 0 1.5.9 1.5s1.2-.6.9-1.5c-.4-.8-.7-1.5-.9-1.5s-.5.7-.9 1.5m21.9-.6c-.9 1.5 1.5 2.5 2.8 1.2.9-.9.7-1-.7-.5-1.3.5-1.7.4-1.2-.4.4-.7.5-1.2.2-1.2s-.7.4-1.1.9m26.5.6c-.9 1-.9 1.5-.1 1.5.6 0 1.1-.5 1.1-1.2 0-.6.6-.3 1.4.8.8 1 1.8 1.6 2.2 1.1.4-.4.2-.7-.4-.7-.7 0-1.2-.7-1.2-1.5s-.4-1.5-.9-1.5-1.4.7-2.1 1.5m8.7-.8c-1 .9-.9 2.3.1 2.3.5 0 .9-.7.9-1.5 0-1.7-.1-1.8-1-.8m50.1 0c-2.4.6-2.3 2.2.1 2 1.1 0 1.8-.4 1.5-.8-.2-.4.2-1 .8-1.2 1.6-.7 0-.6-2.4 0m21.1.5c1.2 1.6 5.5 2.2 4.5.6-.3-.4 0-.8.7-.8s1-.3.7-.6c-.4-.3-1.5-.1-2.6.5-1.3.7-2.3.7-3.2-.2-1.2-1-1.2-.9-.1.5m39.7.3c-.3.9 0 1.5.9 1.5s1.2-.6.9-1.5c-.4-.8-.7-1.5-.9-1.5s-.5.7-.9 1.5m21.9-.6c-.9 1.5 1.5 2.5 2.8 1.2.9-.9.7-1-.7-.5-1.3.5-1.7.4-1.2-.4.4-.7.5-1.2.2-1.2s-.7.4-1.1.9M354 29c-.9.6-1 1-.3 1 .6 0 1.5-.5 1.8-1 .8-1.2.4-1.2-1.5 0M88.6 30.6c-.4.9-.4 1.9-.1 2.2.2.3.7-.3 1.1-1.2s.4-1.9.1-2.2c-.2-.3-.7.3-1.1 1.2m145-.8c-1 1.6.9 3 2.1 1.7 1-1 .9-1.4-.2-1.9-.8-.3-1.6-.2-1.9.2m77.5.8c0 1.1.3 1.4.6.6.3-.7.2-1.6-.1-1.9-.3-.4-.6.2-.5 1.3m50.7-.9c.9.4 1 .8.2 1.8s-.8 1.5.1 2.1c.7.4.9.3.5-.4-.3-.6-.2-1.3.4-1.7 1.3-.8.3-2.5-1.3-2.4-.8 0-.8.2.1.6m-175.2 2.6c.3 1 .9 1.5 1.2 1.2s0-1.1-.7-1.8c-1-.9-1.1-.8-.5.6M58 32.9c0 .6.4 1.3 1 1.6s.7-.1.4-.9c-.7-1.8-1.4-2.1-1.4-.7m5.6 0c-.4.7-.5 1.5-.2 1.8.9.9 1.9-.4 1.4-1.8-.4-1.1-.6-1.1-1.2 0m4.5.2c-.1 2.6 2.5 3.1 2.7.6.1-1.6-.1-1.8-.7-.8-.7 1.1-.9 1.1-1.4 0-.4-1-.6-1-.6.2m48.4-.1c-.4.6-1.1.8-1.6.5s-.6.1-.3.9c.5 1.2.8 1.2 2.5-.2 1-.9 1.9-1.8 1.9-1.9 0-.8-2-.2-2.5.7m109.5-.1c0 .6.4 1.3 1 1.6s.7-.1.4-.9c-.7-1.8-1.4-2.1-1.4-.7m5.6 0c-.4.7-.5 1.5-.2 1.8.9.9 1.9-.4 1.4-1.8-.4-1.1-.6-1.1-1.2 0m4.5.2c-.1 2.6 2.5 3.1 2.7.6.1-1.6-.1-1.8-.7-.8-.7 1.1-.9 1.1-1.4 0-.4-1-.6-1-.6.2m-26.7 1.7c0 1.3.6 1.8 1.9 1.4 2-.5 1.8-2.6-.4-3-.9-.1-1.5.5-1.5 1.6m126.7-.2c0 1.1.3 1.4.6.6.3-.7.2-1.6-.1-1.9-.3-.4-.6.2-.5 1.3m-247.6.3c-.3.5-.1 1.2.4 1.5s1.1-.1 1.5-.9c.6-1.6-.9-2.1-1.9-.6m-52.7.8c.6.2.9 1 .6 1.5-.4.7-.2.8.4.4 1.8-1.1 1.4-2.6-.5-2.5-1.1 0-1.3.3-.5.6m205.8.5c.3.4 1.1.5 1.9.1 2.1-.7 1.9-1.2-.4-1-1.1 0-1.8.5-1.5.9m87.4-.1c0 .5.9.9 2 .9s2-.2 2-.4-.9-.6-2-.9-2-.1-2 .4M59.6 37.2c.3.5 1 .6 1.5.3 1.3-.9 1.1-1.2-.6-1.2-.8 0-1.2.4-.9.9m8.7.2c0 .7.6 1.3 1.4 1.3.7 0 1.3-.4 1.3-.8s-.6-.9-1.3-1.2c-.8-.3-1.4 0-1.4.7m304.2 1c-1.7 1.2-1.7 1.3.3 1.1 2.6-.2 3.7-1.1 2.4-1.9-.5-.3-1.7.1-2.7.8M357 39c-.9.6-1 1-.3 1 .6 0 1.5-.5 1.8-1 .8-1.2.4-1.2-1.5 0M76.5 40.1c.4.6-.1 1.7-1.1 2.5-1.1.9-1.3 1.2-.5.8.7-.3 1.8 0 2.3.7.8 1.2.9 1.1.5-.1-.2-.8.2-2.3 1.1-3.3 1.4-1.5 1.3-1.7-.7-1.7-1.3 0-1.9.4-1.6 1.1m-38 .9c-.3.5-.2 1 .4 1 .5 0 1.3-.5 1.6-1 .3-.6.2-1-.4-1-.5 0-1.3.4-1.6 1m192.1.4c.5 1.3.4 1.7-.4 1.2-.7-.4-1.2-.2-1.2.3 0 1.4 1.7 1.4 2.6 0 .3-.6.1-1.6-.5-2.2-.9-.9-1-.7-.5.7m114.3.3c-1.3 1.7-1.3 1.7.6.3 1.1-.8 2.2-1.6 2.4-1.7q.3-.3-.6-.3c-.6 0-1.7.8-2.4 1.7m-135.2.8c.3.8.9 1.2 1.4.9 1.2-.7 1.1-1.1-.5-1.7-1-.4-1.3-.1-.9.8m59.6.1c0 .8.6 1.4 1.4 1.4.7 0 1.3-.4 1.3-.9s-.6-1.1-1.3-1.4c-.8-.3-1.4.1-1.4.9m28.7-.1c-.7.9-.8 1.5-.2 1.5.5 0 1.2-.7 1.6-1.5.3-.8.4-1.5.2-1.5s-.9.7-1.6 1.5m25-.4c0 .5.5.7 1 .4.6-.3 1-.8 1-1.1 0-.2-.4-.4-1-.4-.5 0-1 .5-1 1.1m50.5.9c.2 2.7 1 3.3 1.2 1 .1-1.1-.2-2.2-.6-2.4-.4-.3-.7.4-.6 1.4M1.6 42.7c.5.5 1.2 1.2 1.6 1.8s.8.2.8-.8c0-.9-.7-1.7-1.7-1.7-.9 0-1.2.3-.7.7m168 0c.5.5 1.2 1.2 1.6 1.8s.8.2.8-.8c0-.9-.7-1.7-1.7-1.7-.9 0-1.2.3-.7.7m18.4.3c-.8.5-1 1-.5 1 .6 0 1.7-.5 2.5-1s1.1-1 .5-1c-.5 0-1.7.5-2.5 1m5.6-.2c.6.4 1.4 1.4 1.7 2.2.4 1 .6.8.6-.8.1-1.5-.5-2.2-1.6-2.2s-1.4.3-.7.8m19.1 2.4c-.3 1 0 2.1.6 2.5.7.3.9.2.4-.2-.4-.5 0-1.6.8-2.5 1.3-1.4 1.3-1.7.1-1.7-.8 0-1.7.9-1.9 1.9M38.5 45c-.3.6.1.7.9.4 1.8-.7 2.1-1.4.7-1.4-.6 0-1.3.4-1.6 1m31.5-.6c0 .2.8 1 1.8 1.7 1.5 1.3 1.6 1.2.3-.4S70 43.6 70 44.4m85.9 1.3c-1.3 1.6-1.2 1.7.4.4s2.1-2.1 1.3-2.1c-.2 0-1 .8-1.7 1.7m190.8 1.1c.9 1.5 1.8 2.9 1.9 3.1.2.2.2-.9 0-2.5s-1-2.8-1.9-3c-1.5-.2-1.5 0 0 2.4m3.9-1.5c.3 1 .9 1.5 1.2 1.2s0-1.1-.7-1.8c-1-.9-1.1-.8-.5.6m-306.1.6c-.3.5-.2 1.2.3 1.5s.9-.1.9-.9c0-1.7-.3-1.9-1.2-.6m49.1 0c-.4.5-.2 1.2.3 1.5.5.4 1.2.2 1.5-.3.4-.5.2-1.2-.3-1.5-.5-.4-1.2-.2-1.5.3m9.4-.1c0 .7-.7.9-1.7.5-1.5-.5-1.6-.3-.5.8.9 1 1.5 1 2.4.1.6-.6.9-1.5.5-1.9-.4-.3-.7-.1-.7.5m4.2 1.6c1.5 3 1.6 3 1.4.3 0-1.3-.6-2.4-1.3-2.4-.9 0-.9.6-.1 2.1m3.8-1.5c0 .6.4 1.3 1 1.6s.7-.1.4-.9c-.7-1.8-1.4-2.1-1.4-.7m80.5-.1c.3.3-.1 1.2-.7 2.1-.8 1-.4.9 1-.3 2.6-2.3 2.6-2.3.7-2.3-.8 0-1.3.3-1 .5m83.7 1.6c1.5 3 1.6 3 1.4.3 0-1.3-.6-2.4-1.3-2.4-.9 0-.9.6-.1 2.1m3.8-1.5c0 .6.4 1.3 1 1.6s.7-.1.4-.9c-.7-1.8-1.4-2.1-1.4-.7m18.6-.1c-.3.5.1.9.9.9s1.2-.4.9-.9c-.3-.4-.7-.8-.9-.8s-.6.4-.9.8m22.4.3c0 .5.5.7 1 .4.6-.3 1-.8 1-1.1 0-.2-.4-.4-1-.4-.5 0-1 .5-1 1.1m22.4-.3c.3.6-.1 1.8-1 2.6-.8.9-1.1 1.6-.5 1.6 1.7 0 3.3-3.8 1.9-4.6-.6-.4-.8-.3-.4.4m11.1.2c.3.5.8 1 1.1 1 .2 0 .4-.5.4-1 0-.6-.5-1-1.1-1-.5 0-.7.4-.4 1m6.5 0c-.9.6-1 1-.3 1 .6 0 1.5-.5 1.8-1 .8-1.2.4-1.2-1.5 0m18.3-.2c-.7.5-.3 1.1 1.3 1.9 2.3 1.1 2.4 1 1.3-.5-.8-.9-1.4-1.8-1.4-1.9s-.6.1-1.2.5M29.1 47.6c0 1.1.3 1.4.6.6.3-.7.2-1.6-.1-1.9-.3-.4-.6.2-.5 1.3m114.4-.6c-.9 1.5.4 3 2.3 2.9 1.5-.1 1.4-.2-.1-.6-1.1-.3-1.6-1.1-1.3-1.9.6-1.6 0-1.9-.9-.4m9.5-.1c0 .6.4 1.3 1 1.6s.7-.1.4-.9c-.7-1.8-1.4-2.1-1.4-.7m184 .6c0 .8.4 1.5 1 1.5.5 0 .7-.7.4-1.5-.4-.8-.8-1.5-1-1.5s-.4.7-.4 1.5M.5 48c-.3.5-.1 1 .4 1 .6 0 1.1-.5 1.1-1 0-.6-.2-1-.4-1-.3 0-.8.4-1.1 1m77.6 0c-.9.5-.4.7 1.3.7 2.9 0 3.2-.2 1.3-1-.8-.3-2-.2-2.6.3m71.9 0c-.9.6-1 1-.3 1 .6 0 1.5-.5 1.8-1 .8-1.2.4-1.2-1.5 0m17 .2c0 .4.7.8 1.5.8s1.5-.4 1.5-.8c0-.5-.7-.9-1.5-.9s-1.5.4-1.5.9m27.5-.2c-.3.5.1 1 1 1s1.3-.5 1-1c-.3-.6-.8-1-1-1s-.7.4-1 1m122.5.1c0 .5.5.7 1 .4.6-.3 1-.2 1 .4 0 .5-.6 1.1-1.2 1.3-.7.3.3.5 2.2.5s2.9-.2 2.2-.5c-.6-.2-.9-.9-.6-1.4.4-.6.2-.8-.4-.4-.6.3-1.3.2-1.7-.4-.8-1.3-2.5-1.3-2.5.1m45.5-.1c-.3.5.1 1 1 1s1.3-.5 1-1c-.3-.6-.8-1-1-1s-.7.4-1 1M20.1 49.6c0 1.1.3 1.4.6.6.3-.7.2-1.6-.1-1.9-.3-.4-.6.2-.5 1.3M88 49c-.9.6-1 1-.3 1 .6 0 1.5-.5 1.8-1 .8-1.2.4-1.2-1.5 0M3 50c0 .5.5 1 1.1 1 .5 0 .7-.5.4-1-.3-.6-.8-1-1.1-1-.2 0-.4.4-.4 1m68.6-.1c-.4.5.3.7 1.4.4 2.3-.6 2.6-1.3.6-1.3-.8 0-1.7.4-2 .9m11.4-.5c0 .2.7.6 1.5 1 .8.3 1.5.1 1.5-.4 0-.6-.7-1-1.5-1s-1.5.2-1.5.4m88 .6c0 .5.5 1 1.1 1 .5 0 .7-.5.4-1-.3-.6-.8-1-1.1-1-.2 0-.4.4-.4 1m99.5 0c-.3.6.1.7.9.4 1.8-.7 2.1-1.4.7-1.4-.6 0-1.3.4-1.6 1m85.1 1.2c.3.4 1.1.5 1.9.1 2.1-.7 1.9-1.2-.4-1-1.1 0-1.8.5-1.5.9M263 52.9c0 2.5.6 2.7 1.3.6.4-.8.2-1.7-.3-2-.6-.4-1 .3-1 1.4m40-.9c2 1.3 3.3 1.3 2.5 0-.3-.6-1.4-1-2.3-1-1.5 0-1.5.2-.2 1m-301.7.7c-1.8.7-1.6 2 .2 2 .8 0 1.2-.4.9-.8-.2-.4.2-1 .8-1.2.7-.3.9-.5.3-.5-.5 0-1.6.2-2.2.5m21.1.5c.1.7 1.2 1.4 2.4 1.4 1.2.1 1.9-.3 1.6-.8s-1.2-.7-1.9-.4c-.8.3-1.6.1-1.9-.5-.2-.5-.3-.4-.2.3m61.1-.3c-.7 1.2 1.2 2.4 2.5 1.6.6-.3 1-1.2.9-1.8q0-1.35-.6 0c-.2.7-.9 1.3-1.4 1.3-.6 0-.7-.5-.4-1 .3-.6.4-1 .1-1s-.7.4-1.1.9m146.1.6c-.3.9 0 1.5.9 1.5s1.2-.6.9-1.5c-.4-.8-.7-1.5-.9-1.5s-.5.7-.9 1.5M59 53.9c0 .6.4 1.3 1 1.6s.7-.1.4-.9c-.7-1.8-1.4-2.1-1.4-.7m29.6.7c-.4.9-.4 1.9-.1 2.2.2.3.7-.3 1.1-1.2s.4-1.9.1-2.2c-.2-.3-.7.3-1.1 1.2m66.4-.7c0 .6.4 1.3 1 1.6s.7-.1.4-.9c-.7-1.8-1.4-2.1-1.4-.7m101.6.7c-.4.9-.4 1.9-.1 2.2.2.3.7-.3 1.1-1.2s.4-1.9.1-2.2c-.2-.3-.7.3-1.1 1.2m66.4-.7c0 .6.4 1.3 1 1.6s.7-.1.4-.9c-.7-1.8-1.4-2.1-1.4-.7M18.6 56.3c.3 1 .9 1.5 1.2 1.2s0-1.1-.7-1.8c-1-.9-1.1-.8-.5.6m110 0c.3 1 .9 1.5 1.2 1.2s0-1.1-.7-1.8c-1-.9-1.1-.8-.5.6m168 0c.3 1 .9 1.5 1.2 1.2s0-1.1-.7-1.8c-1-.9-1.1-.8-.5.6m-101.3 1.2c0 .6.6 1.2 1.4 1.2.7 0 1.3-.6 1.3-1.2s-.6-1.2-1.3-1.2c-.8 0-1.4.6-1.4 1.2m30.7-.6c0 .6.4 1.3 1 1.6s.7-.1.4-.9c-.7-1.8-1.4-2.1-1.4-.7m151.1 0c-.7.5-1.2 1.4-1 2s1 .2 1.7-.9c1.4-2.2 1.3-2.3-.7-1.1M41.4 58.8c0 1.3.6 1.8 1.9 1.4 2-.5 1.8-2.6-.4-3-.9-.1-1.5.5-1.5 1.6m83.6-1.4c0 .2.7.7 1.6 1 .8.3 1.2.2.9-.4-.6-1-2.5-1.4-2.5-.6m43.1 1.2c0 1.1.3 1.4.6.6.3-.7.2-1.6-.1-1.9-.3-.4-.6.2-.5 1.3m41.3.2c0 1.3.6 1.8 1.9 1.4 2-.5 1.8-2.6-.4-3-.9-.1-1.5.5-1.5 1.6m83.6-1.4c0 .2.7.7 1.6 1 .8.3 1.2.2.9-.4-.6-1-2.5-1.4-2.5-.6m43.1 1.2c0 1.1.3 1.4.6.6.3-.7.2-1.6-.1-1.9-.3-.4-.6.2-.5 1.3m-247.6.3c-.3.5-.1 1.2.4 1.5s1.1-.1 1.5-.9c.6-1.6-.9-2.1-1.9-.6m168 0c-.3.5-.1 1.2.4 1.5s1.1-.1 1.5-.9c.6-1.6-.9-2.1-1.9-.6m47.9.5c.1.8.5 1.8.8 2.2.4.3.5-.1.4-1-.1-.8-.5-1.8-.8-2.2-.4-.3-.5.1-.4 1m-143.4.7c0 .5.9.9 2 .9s2-.2 2-.4-.9-.6-2-.9-2-.1-2 .4m168 0c0 .5.9.9 2 .9s2-.2 2-.4-.9-.6-2-.9-2-.1-2 .4m42.8-.4c.6.2 1 .9.6 1.4-.3.5 0 .9.5.9.6 0 1.1-.7 1.1-1.5s-.8-1.5-1.7-1.4c-1.1 0-1.3.3-.5.6M8.5 63c-.3.6.1.7.9.4 1.8-.7 2.1-1.4.7-1.4-.6 0-1.3.4-1.6 1m3.5-.1c0 .5.7 1.2 1.6 1.5 1.4.5 1.5.4.4-.9-1.4-1.7-2-1.9-2-.6m9.5.1c-.3.5-.1 1 .4 1 .6 0 1.1-.5 1.1-1 0-.6-.2-1-.4-1-.3 0-.8.4-1.1 1m11 0c-.3.6.1.7.9.4 1.8-.7 2.1-1.4.7-1.4-.6 0-1.3.4-1.6 1m3.5-.1c0 .5.7 1.2 1.6 1.5 1.4.5 1.5.4.4-.9-1.4-1.7-2-1.9-2-.6m9.5.1c-.3.5-.1 1 .4 1 .6 0 1.1-.5 1.1-1 0-.6-.2-1-.4-1-.3 0-.8.4-1.1 1m59 0c-.3.6.1.7.9.4 1.8-.7 2.1-1.4.7-1.4-.6 0-1.3.4-1.6 1m3.5-.1c0 .5.7 1.2 1.6 1.5 1.4.5 1.5.4.4-.9-1.4-1.7-2-1.9-2-.6m164.5.1c-.3.6.1.7.9.4 1.8-.7 2.1-1.4.7-1.4-.6 0-1.3.4-1.6 1m3.5-.1c0 .5.7 1.2 1.6 1.5 1.4.5 1.5.4.4-.9-1.4-1.7-2-1.9-2-.6M.9 63.2c0 .2-.2 1.3-.3 2.5-.2 1.8 0 2 1.1 1.2C3.2 65.6 3.4 63 2 63c-.5 0-1 .1-1.1.2m24 0c0 .2-.2 1.3-.3 2.5-.2 1.8 0 2 1.1 1.2 1.5-1.3 1.7-3.9.3-3.9-.5 0-1 .1-1.1.2m51.6.9c.4.6-.1 1.7-1.1 2.5-1.1.9-1.3 1.2-.5.8.7-.3 1.8 0 2.3.7.8 1.2.9 1.1.5-.1-.2-.8.2-2.3 1.1-3.3 1.4-1.5 1.3-1.7-.7-1.7-1.3 0-1.9.4-1.6 1.1m36.9.4c.3.8.1 1.5-.5 1.5s-.7.5-.4 1.1c.9 1.3 1.5.7 2-2 .2-1.1-.1-2.1-.7-2.1-.5 0-.8.7-.4 1.5m72 0c.3.8.1 1.5-.5 1.5s-.7.5-.4 1.1c.9 1.3 1.5.7 2-2 .2-1.1-.1-2.1-.7-2.1-.5 0-.8.7-.4 1.5m96 0c.3.8.1 1.5-.5 1.5s-.7.5-.4 1.1c.9 1.3 1.5.7 2-2 .2-1.1-.1-2.1-.7-2.1-.5 0-.8.7-.4 1.5m72 0c.3.8.1 1.5-.5 1.5s-.7.5-.4 1.1c.9 1.3 1.5.7 2-2 .2-1.1-.1-2.1-.7-2.1-.5 0-.8.7-.4 1.5m-176.5 1.2c-1.3 1.7-1.3 1.7.6.3 1.1-.8 2.2-1.6 2.4-1.7q.3-.3-.6-.3c-.6 0-1.7.8-2.4 1.7m24 0c-1.3 1.7-1.3 1.7.6.3 1.1-.8 2.2-1.6 2.4-1.7q.3-.3-.6-.3c-.6 0-1.7.8-2.4 1.7m144 0c-1.3 1.7-1.3 1.7.6.3 1.1-.8 2.2-1.6 2.4-1.7q.3-.3-.6-.3c-.6 0-1.7.8-2.4 1.7m-336.7.5C6.7 67.7 6.7 69 8.1 69c.5 0 .8-.4.4-.9-.3-.6.3-1.4 1.2-2 1-.6 1.3-1.1.8-1.1-.6 0-1.6.5-2.3 1.2m12.5.7c-.4 1.7-.3 2.1.5 1.3.5-.5.8-1.6.6-2.3-.3-.8-.7-.3-1.1 1m11.5-.7c-1.5 1.5-1.5 2.8-.1 2.8.5 0 .8-.4.4-.9-.3-.6.3-1.4 1.2-2 1-.6 1.3-1.1.8-1.1-.6 0-1.6.5-2.3 1.2m12.5.7c-.4 1.7-.3 2.1.5 1.3.5-.5.8-1.6.6-2.3-.3-.8-.7-.3-1.1 1m3.4-1.6c.2.1 1.3.9 2.4 1.7 1.9 1.4 1.9 1.4.6-.3-.7-.9-1.8-1.7-2.4-1.7q-.9 0-.6.3m14.6.8c-.9.6-1.7 1.5-1.7 2.2 0 .8.3.7.9-.2.5-.7 1.3-1.1 1.9-.7.6.3 1.3.2 1.6-.3.9-1.5-.7-2.1-2.7-1m41.8-.1c-.3.6.1.7.9.4 1.8-.7 2.1-1.4.7-1.4-.6 0-1.3.4-1.6 1m31.8.5c0 .8.4 1.2.9.9s.6-1 .3-1.5c-.9-1.3-1.2-1.1-1.2.6m136.2-.5c-.3.6.1.7.9.4 1.8-.7 2.1-1.4.7-1.4-.6 0-1.3.4-1.6 1m31.8.5c0 .8.4 1.2.9.9s.6-1 .3-1.5c-.9-1.3-1.2-1.1-1.2.6M4 67c0 .5.5 1 1.1 1 .5 0 .7-.5.4-1-.3-.6-.8-1-1.1-1-.2 0-.4.4-.4 1m24 0c0 .5.5 1 1.1 1 .5 0 .7-.5.4-1-.3-.6-.8-1-1.1-1-.2 0-.4.4-.4 1m88.5 0c.3.5.8 1 1.1 1 .2 0 .4-.5.4-1 0-.6-.5-1-1.1-1-.5 0-.7.4-.4 1m41 .1c-1.1 1.6-.1 1.9 1.3.3.7-.8.8-1.4.3-1.4s-1.3.5-1.6 1.1m31-.1c.3.5.8 1 1.1 1 .2 0 .4-.5.4-1 0-.6-.5-1-1.1-1-.5 0-.7.4-.4 1m96 0c.3.5.8 1 1.1 1 .2 0 .4-.5.4-1 0-.6-.5-1-1.1-1-.5 0-.7.4-.4 1m41 .1c-1.1 1.6-.1 1.9 1.3.3.7-.8.8-1.4.3-1.4s-1.3.5-1.6 1.1m31-.1c.3.5.8 1 1.1 1 .2 0 .4-.5.4-1 0-.6-.5-1-1.1-1-.5 0-.7.4-.4 1m-346 1c-.4.6.3 1 1.4 1 2.5 0 2.7-.6.6-1.3-.8-.4-1.7-.2-2 .3m24 0c-.4.6.3 1 1.4 1 2.5 0 2.7-.6.6-1.3-.8-.4-1.7-.2-2 .3m72 0c-.4.6.3 1 1.4 1 2.5 0 2.7-.6.6-1.3-.8-.4-1.7-.2-2 .3m168 0c-.4.6.3 1 1.4 1 2.5 0 2.7-.6.6-1.3-.8-.4-1.7-.2-2 .3"/><path fill="gray" d="M6 6.4c0 .2.8 1 1.8 1.7 1.5 1.3 1.6 1.2.3-.4S6 5.6 6 6.4m12 0c0 .2.8 1 1.8 1.7 1.5 1.3 1.6 1.2.3-.4S18 5.6 18 6.4m12 0c0 .2.8 1 1.8 1.7 1.5 1.3 1.6 1.2.3-.4S30 5.6 30 6.4m-18 6c0 .2.8 1 1.8 1.7 1.5 1.3 1.6 1.2.3-.4S12 11.6 12 12.4m12 0c0 .2.8 1 1.8 1.7 1.5 1.3 1.6 1.2.3-.4S24 11.6 24 12.4m12 0c0 .2.8 1 1.8 1.7 1.5 1.3 1.6 1.2.3-.4S36 11.6 36 12.4M5.2 15c0 1.4.2 1.9.5 1.2.2-.6.2-1.8 0-2.5-.3-.6-.5-.1-.5 1.3m35.9.6c0 1.1.3 1.4.6.6.3-.7.2-1.6-.1-1.9-.3-.4-.6.2-.5 1.3M6 18.4c0 .2.8 1 1.8 1.7 1.5 1.3 1.6 1.2.3-.4S6 17.6 6 18.4m24 0c0 .2.8 1 1.8 1.7 1.5 1.3 1.6 1.2.3-.4S30 17.6 30 18.4m30 0c0 .2.8 1 1.8 1.7 1.5 1.3 1.6 1.2.3-.4S60 17.6 60 18.4m12 0c0 .2.8 1 1.8 1.7 1.5 1.3 1.6 1.2.3-.4S72 17.6 72 18.4m30 0c0 .2.8 1 1.8 1.7 1.5 1.3 1.6 1.2.3-.4s-2.1-2.1-2.1-1.3m12 0c0 .2.8 1 1.8 1.7 1.5 1.3 1.6 1.2.3-.4s-2.1-2.1-2.1-1.3m30 0c0 .2.8 1 1.8 1.7 1.5 1.3 1.6 1.2.3-.4s-2.1-2.1-2.1-1.3m12 0c0 .2.8 1 1.8 1.7 1.5 1.3 1.6 1.2.3-.4s-2.1-2.1-2.1-1.3m18 0c0 .2.8 1 1.8 1.7 1.5 1.3 1.6 1.2.3-.4s-2.1-2.1-2.1-1.3m24 0c0 .2.8 1 1.8 1.7 1.5 1.3 1.6 1.2.3-.4s-2.1-2.1-2.1-1.3m18 0c0 .2.8 1 1.8 1.7 1.5 1.3 1.6 1.2.3-.4s-2.1-2.1-2.1-1.3m24 0c0 .2.8 1 1.8 1.7 1.5 1.3 1.6 1.2.3-.4s-2.1-2.1-2.1-1.3m30 0c0 .2.8 1 1.8 1.7 1.5 1.3 1.6 1.2.3-.4s-2.1-2.1-2.1-1.3m12 0c0 .2.8 1 1.8 1.7 1.5 1.3 1.6 1.2.3-.4s-2.1-2.1-2.1-1.3m30 0c0 .2.8 1 1.8 1.7 1.5 1.3 1.6 1.2.3-.4s-2.1-2.1-2.1-1.3m12 0c0 .2.8 1 1.8 1.7 1.5 1.3 1.6 1.2.3-.4s-2.1-2.1-2.1-1.3m30 0c0 .2.8 1 1.8 1.7 1.5 1.3 1.6 1.2.3-.4s-2.1-2.1-2.1-1.3m12 0c0 .2.8 1 1.8 1.7 1.5 1.3 1.6 1.2.3-.4s-2.1-2.1-2.1-1.3m-354 6c0 .2.8 1 1.8 1.7 1.5 1.3 1.6 1.2.3-.4S12 23.6 12 24.4m24 0c0 .2.8 1 1.8 1.7 1.5 1.3 1.6 1.2.3-.4S36 23.6 36 24.4m18 0c0 .2.8 1 1.8 1.7 1.5 1.3 1.6 1.2.3-.4S54 23.6 54 24.4m12 0c0 .2.8 1 1.8 1.7 1.5 1.3 1.6 1.2.3-.4S66 23.6 66 24.4m12 0c0 .2.8 1 1.8 1.7 1.5 1.3 1.6 1.2.3-.4S78 23.6 78 24.4m18 0c0 .2.8 1 1.8 1.7 1.5 1.3 1.6 1.2.3-.4S96 23.6 96 24.4m12 0c0 .2.8 1 1.8 1.7 1.5 1.3 1.6 1.2.3-.4s-2.1-2.1-2.1-1.3m12 0c0 .2.8 1 1.8 1.7 1.5 1.3 1.6 1.2.3-.4s-2.1-2.1-2.1-1.3m18 0c0 .2.8 1 1.8 1.7 1.5 1.3 1.6 1.2.3-.4s-2.1-2.1-2.1-1.3m12 0c0 .2.8 1 1.8 1.7 1.5 1.3 1.6 1.2.3-.4s-2.1-2.1-2.1-1.3m12 0c0 .2.8 1 1.8 1.7 1.5 1.3 1.6 1.2.3-.4s-2.1-2.1-2.1-1.3m18 0c0 .2.8 1 1.8 1.7 1.5 1.3 1.6 1.2.3-.4s-2.1-2.1-2.1-1.3m24 0c0 .2.8 1 1.8 1.7 1.5 1.3 1.6 1.2.3-.4s-2.1-2.1-2.1-1.3m18 0c0 .2.8 1 1.8 1.7 1.5 1.3 1.6 1.2.3-.4s-2.1-2.1-2.1-1.3m12 0c0 .2.8 1 1.8 1.7 1.5 1.3 1.6 1.2.3-.4s-2.1-2.1-2.1-1.3m12 0c0 .2.8 1 1.8 1.7 1.5 1.3 1.6 1.2.3-.4s-2.1-2.1-2.1-1.3m18 0c0 .2.8 1 1.8 1.7 1.5 1.3 1.6 1.2.3-.4s-2.1-2.1-2.1-1.3m12 0c0 .2.8 1 1.8 1.7 1.5 1.3 1.6 1.2.3-.4s-2.1-2.1-2.1-1.3m12 0c0 .2.8 1 1.8 1.7 1.5 1.3 1.6 1.2.3-.4s-2.1-2.1-2.1-1.3m18 0c0 .2.8 1 1.8 1.7 1.5 1.3 1.6 1.2.3-.4s-2.1-2.1-2.1-1.3m12 0c0 .2.8 1 1.8 1.7 1.5 1.3 1.6 1.2.3-.4s-2.1-2.1-2.1-1.3m12 0c0 .2.8 1 1.8 1.7 1.5 1.3 1.6 1.2.3-.4s-2.1-2.1-2.1-1.3m18 0c0 .2.8 1 1.8 1.7 1.5 1.3 1.6 1.2.3-.4s-2.1-2.1-2.1-1.3m12 0c0 .2.8 1 1.8 1.7 1.5 1.3 1.6 1.2.3-.4s-2.1-2.1-2.1-1.3m12 0c0 .2.8 1 1.8 1.7 1.5 1.3 1.6 1.2.3-.4s-2.1-2.1-2.1-1.3M5.2 27c0 1.4.2 1.9.5 1.2.2-.6.2-1.8 0-2.5-.3-.6-.5-.1-.5 1.3m42 0c0 1.4.2 1.9.5 1.2.2-.6.2-1.8 0-2.5-.3-.6-.5-.1-.5 1.3m42 0c0 1.4.2 1.9.5 1.2.2-.6.2-1.8 0-2.5-.3-.6-.5-.1-.5 1.3m42 0c0 1.4.2 1.9.5 1.2.2-.6.2-1.8 0-2.5-.3-.6-.5-.1-.5 1.3m42 0c0 1.4.2 1.9.5 1.2.2-.6.2-1.8 0-2.5-.3-.6-.5-.1-.5 1.3m24 0c0 1.4.2 1.9.5 1.2.2-.6.2-1.8 0-2.5-.3-.6-.5-.1-.5 1.3m18 0c0 1.4.2 1.9.5 1.2.2-.6.2-1.8 0-2.5-.3-.6-.5-.1-.5 1.3m42 0c0 1.4.2 1.9.5 1.2.2-.6.2-1.8 0-2.5-.3-.6-.5-.1-.5 1.3m42 0c0 1.4.2 1.9.5 1.2.2-.6.2-1.8 0-2.5-.3-.6-.5-.1-.5 1.3m42 0c0 1.4.2 1.9.5 1.2.2-.6.2-1.8 0-2.5-.3-.6-.5-.1-.5 1.3m-300.1.6c0 1.1.3 1.4.6.6.3-.7.2-1.6-.1-1.9-.3-.4-.6.2-.5 1.3m42 0c0 1.1.3 1.4.6.6.3-.7.2-1.6-.1-1.9-.3-.4-.6.2-.5 1.3m84 0c0 1.1.3 1.4.6.6.3-.7.2-1.6-.1-1.9-.3-.4-.6.2-.5 1.3m18 0c0 1.1.3 1.4.6.6.3-.7.2-1.6-.1-1.9-.3-.4-.6.2-.5 1.3m24 0c0 1.1.3 1.4.6.6.3-.7.2-1.6-.1-1.9-.3-.4-.6.2-.5 1.3m42 0c0 1.1.3 1.4.6.6.3-.7.2-1.6-.1-1.9-.3-.4-.6.2-.5 1.3m84 0c0 1.1.3 1.4.6.6.3-.7.2-1.6-.1-1.9-.3-.4-.6.2-.5 1.3M6 30.4c0 .2.8 1 1.8 1.7 1.5 1.3 1.6 1.2.3-.4S6 29.6 6 30.4m12 0c0 .2.8 1 1.8 1.7 1.5 1.3 1.6 1.2.3-.4S18 29.6 18 30.4m12 0c0 .2.8 1 1.8 1.7 1.5 1.3 1.6 1.2.3-.4S30 29.6 30 30.4m18 0c0 .2.8 1 1.8 1.7 1.5 1.3 1.6 1.2.3-.4S48 29.6 48 30.4m24 0c0 .2.8 1 1.8 1.7 1.5 1.3 1.6 1.2.3-.4S72 29.6 72 30.4m18 0c0 .2.8 1 1.8 1.7 1.5 1.3 1.6 1.2.3-.4S90 29.6 90 30.4m42 0c0 .2.8 1 1.8 1.7 1.5 1.3 1.6 1.2.3-.4s-2.1-2.1-2.1-1.3m24 0c0 .2.8 1 1.8 1.7 1.5 1.3 1.6 1.2.3-.4s-2.1-2.1-2.1-1.3m18 0c0 .2.8 1 1.8 1.7 1.5 1.3 1.6 1.2.3-.4s-2.1-2.1-2.1-1.3m24 0c0 .2.8 1 1.8 1.7 1.5 1.3 1.6 1.2.3-.4s-2.1-2.1-2.1-1.3m18 0c0 .2.8 1 1.8 1.7 1.5 1.3 1.6 1.2.3-.4s-2.1-2.1-2.1-1.3m24 0c0 .2.8 1 1.8 1.7 1.5 1.3 1.6 1.2.3-.4s-2.1-2.1-2.1-1.3m18 0c0 .2.8 1 1.8 1.7 1.5 1.3 1.6 1.2.3-.4s-2.1-2.1-2.1-1.3m42 0c0 .2.8 1 1.8 1.7 1.5 1.3 1.6 1.2.3-.4s-2.1-2.1-2.1-1.3m24 0c0 .2.8 1 1.8 1.7 1.5 1.3 1.6 1.2.3-.4s-2.1-2.1-2.1-1.3m18 0c0 .2.8 1 1.8 1.7 1.5 1.3 1.6 1.2.3-.4s-2.1-2.1-2.1-1.3m-330 6c0 .2.8 1 1.8 1.7 1.5 1.3 1.6 1.2.3-.4S12 35.6 12 36.4m12 0c0 .2.8 1 1.8 1.7 1.5 1.3 1.6 1.2.3-.4S24 35.6 24 36.4m30 0c0 .2.8 1 1.8 1.7 1.5 1.3 1.6 1.2.3-.4S54 35.6 54 36.4m42 0c0 .2.8 1 1.8 1.7 1.5 1.3 1.6 1.2.3-.4S96 35.6 96 36.4m12 0c0 .2.8 1 1.8 1.7 1.5 1.3 1.6 1.2.3-.4s-2.1-2.1-2.1-1.3m30 0c0 .2.8 1 1.8 1.7 1.5 1.3 1.6 1.2.3-.4s-2.1-2.1-2.1-1.3m24 0c0 .2.8 1 1.8 1.7 1.5 1.3 1.6 1.2.3-.4s-2.1-2.1-2.1-1.3m18 0c0 .2.8 1 1.8 1.7 1.5 1.3 1.6 1.2.3-.4s-2.1-2.1-2.1-1.3m24 0c0 .2.8 1 1.8 1.7 1.5 1.3 1.6 1.2.3-.4s-2.1-2.1-2.1-1.3m18 0c0 .2.8 1 1.8 1.7 1.5 1.3 1.6 1.2.3-.4s-2.1-2.1-2.1-1.3m42 0c0 .2.8 1 1.8 1.7 1.5 1.3 1.6 1.2.3-.4s-2.1-2.1-2.1-1.3m42 0c0 .2.8 1 1.8 1.7 1.5 1.3 1.6 1.2.3-.4s-2.1-2.1-2.1-1.3m42 0c0 .2.8 1 1.8 1.7 1.5 1.3 1.6 1.2.3-.4s-2.1-2.1-2.1-1.3m12 0c0 .2.8 1 1.8 1.7 1.5 1.3 1.6 1.2.3-.4s-2.1-2.1-2.1-1.3M5.2 39c0 1.4.2 1.9.5 1.2.2-.6.2-1.8 0-2.5-.3-.6-.5-.1-.5 1.3m42 0c0 1.4.2 1.9.5 1.2.2-.6.2-1.8 0-2.5-.3-.6-.5-.1-.5 1.3m24 0c0 1.4.2 1.9.5 1.2.2-.6.2-1.8 0-2.5-.3-.6-.5-.1-.5 1.3m60 0c0 1.4.2 1.9.5 1.2.2-.6.2-1.8 0-2.5-.3-.6-.5-.1-.5 1.3m24 0c0 1.4.2 1.9.5 1.2.2-.6.2-1.8 0-2.5-.3-.6-.5-.1-.5 1.3m18 0c0 1.4.2 1.9.5 1.2.2-.6.2-1.8 0-2.5-.3-.6-.5-.1-.5 1.3m24 0c0 1.4.2 1.9.5 1.2.2-.6.2-1.8 0-2.5-.3-.6-.5-.1-.5 1.3m18 0c0 1.4.2 1.9.5 1.2.2-.6.2-1.8 0-2.5-.3-.6-.5-.1-.5 1.3m42 0c0 1.4.2 1.9.5 1.2.2-.6.2-1.8 0-2.5-.3-.6-.5-.1-.5 1.3m42 0c0 1.4.2 1.9.5 1.2.2-.6.2-1.8 0-2.5-.3-.6-.5-.1-.5 1.3m24 0c0 1.4.2 1.9.5 1.2.2-.6.2-1.8 0-2.5-.3-.6-.5-.1-.5 1.3m-180.1.6c0 1.1.3 1.4.6.6.3-.7.2-1.6-.1-1.9-.3-.4-.6.2-.5 1.3m24 0c0 1.1.3 1.4.6.6.3-.7.2-1.6-.1-1.9-.3-.4-.6.2-.5 1.3m18 0c0 1.1.3 1.4.6.6.3-.7.2-1.6-.1-1.9-.3-.4-.6.2-.5 1.3m24 0c0 1.1.3 1.4.6.6.3-.7.2-1.6-.1-1.9-.3-.4-.6.2-.5 1.3m18 0c0 1.1.3 1.4.6.6.3-.7.2-1.6-.1-1.9-.3-.4-.6.2-.5 1.3m42 0c0 1.1.3 1.4.6.6.3-.7.2-1.6-.1-1.9-.3-.4-.6.2-.5 1.3M6 42.4c0 .2.8 1 1.8 1.7 1.5 1.3 1.6 1.2.3-.4S6 41.6 6 42.4m12 0c0 .2.8 1 1.8 1.7 1.5 1.3 1.6 1.2.3-.4S18 41.6 18 42.4m12 0c0 .2.8 1 1.8 1.7 1.5 1.3 1.6 1.2.3-.4S30 41.6 30 42.4m18 0c0 .2.8 1 1.8 1.7 1.5 1.3 1.6 1.2.3-.4S48 41.6 48 42.4m12 0c0 .2.8 1 1.8 1.7 1.5 1.3 1.6 1.2.3-.4S60 41.6 60 42.4m42 0c0 .2.8 1 1.8 1.7 1.5 1.3 1.6 1.2.3-.4s-2.1-2.1-2.1-1.3m12 0c0 .2.8 1 1.8 1.7 1.5 1.3 1.6 1.2.3-.4s-2.1-2.1-2.1-1.3m18 0c0 .2.8 1 1.8 1.7 1.5 1.3 1.6 1.2.3-.4s-2.1-2.1-2.1-1.3m24 0c0 .2.8 1 1.8 1.7 1.5 1.3 1.6 1.2.3-.4s-2.1-2.1-2.1-1.3m18 0c0 .2.8 1 1.8 1.7 1.5 1.3 1.6 1.2.3-.4s-2.1-2.1-2.1-1.3m24 0c0 .2.8 1 1.8 1.7 1.5 1.3 1.6 1.2.3-.4s-2.1-2.1-2.1-1.3m18 0c0 .2.8 1 1.8 1.7 1.5 1.3 1.6 1.2.3-.4s-2.1-2.1-2.1-1.3m42 0c0 .2.8 1 1.8 1.7 1.5 1.3 1.6 1.2.3-.4s-2.1-2.1-2.1-1.3m42 0c0 .2.8 1 1.8 1.7 1.5 1.3 1.6 1.2.3-.4s-2.1-2.1-2.1-1.3m12 0c0 .2.8 1 1.8 1.7 1.5 1.3 1.6 1.2.3-.4s-2.1-2.1-2.1-1.3m42 0c0 .2.8 1 1.8 1.7 1.5 1.3 1.6 1.2.3-.4s-2.1-2.1-2.1-1.3m12 0c0 .2.8 1 1.8 1.7 1.5 1.3 1.6 1.2.3-.4s-2.1-2.1-2.1-1.3m-354 6c0 .2.8 1 1.8 1.7 1.5 1.3 1.6 1.2.3-.4S12 47.6 12 48.4m12 0c0 .2.8 1 1.8 1.7 1.5 1.3 1.6 1.2.3-.4S24 47.6 24 48.4m12 0c0 .2.8 1 1.8 1.7 1.5 1.3 1.6 1.2.3-.4S36 47.6 36 48.4m18 0c0 .2.8 1 1.8 1.7 1.5 1.3 1.6 1.2.3-.4S54 47.6 54 48.4m66 0c0 .2.8 1 1.8 1.7 1.5 1.3 1.6 1.2.3-.4s-2.1-2.1-2.1-1.3m18 0c0 .2.8 1 1.8 1.7 1.5 1.3 1.6 1.2.3-.4s-2.1-2.1-2.1-1.3m24 0c0 .2.8 1 1.8 1.7 1.5 1.3 1.6 1.2.3-.4s-2.1-2.1-2.1-1.3m18 0c0 .2.8 1 1.8 1.7 1.5 1.3 1.6 1.2.3-.4s-2.1-2.1-2.1-1.3m24 0c0 .2.8 1 1.8 1.7 1.5 1.3 1.6 1.2.3-.4s-2.1-2.1-2.1-1.3m18 0c0 .2.8 1 1.8 1.7 1.5 1.3 1.6 1.2.3-.4s-2.1-2.1-2.1-1.3m42 0c0 .2.8 1 1.8 1.7 1.5 1.3 1.6 1.2.3-.4s-2.1-2.1-2.1-1.3m24 0c0 .2.8 1 1.8 1.7 1.5 1.3 1.6 1.2.3-.4s-2.1-2.1-2.1-1.3m18 0c0 .2.8 1 1.8 1.7 1.5 1.3 1.6 1.2.3-.4s-2.1-2.1-2.1-1.3m66 0c0 .2.8 1 1.8 1.7 1.5 1.3 1.6 1.2.3-.4s-2.1-2.1-2.1-1.3M5.2 51c0 1.4.2 1.9.5 1.2.2-.6.2-1.8 0-2.5-.3-.6-.5-.1-.5 1.3m42 0c0 1.4.2 1.9.5 1.2.2-.6.2-1.8 0-2.5-.3-.6-.5-.1-.5 1.3m84 0c0 1.4.2 1.9.5 1.2.2-.6.2-1.8 0-2.5-.3-.6-.5-.1-.5 1.3m42 0c0 1.4.2 1.9.5 1.2.2-.6.2-1.8 0-2.5-.3-.6-.5-.1-.5 1.3m42 0c0 1.4.2 1.9.5 1.2.2-.6.2-1.8 0-2.5-.3-.6-.5-.1-.5 1.3m42 0c0 1.4.2 1.9.5 1.2.2-.6.2-1.8 0-2.5-.3-.6-.5-.1-.5 1.3m42 0c0 1.4.2 1.9.5 1.2.2-.6.2-1.8 0-2.5-.3-.6-.5-.1-.5 1.3m-282.1.6c0 1.1.3 1.4.6.6.3-.7.2-1.6-.1-1.9-.3-.4-.6.2-.5 1.3m24 0c0 1.1.3 1.4.6.6.3-.7.2-1.6-.1-1.9-.3-.4-.6.2-.5 1.3m84 0c0 1.1.3 1.4.6.6.3-.7.2-1.6-.1-1.9-.3-.4-.6.2-.5 1.3m42 0c0 1.1.3 1.4.6.6.3-.7.2-1.6-.1-1.9-.3-.4-.6.2-.5 1.3m42 0c0 1.1.3 1.4.6.6.3-.7.2-1.6-.1-1.9-.3-.4-.6.2-.5 1.3m18 0c0 1.1.3 1.4.6.6.3-.7.2-1.6-.1-1.9-.3-.4-.6.2-.5 1.3m66 0c0 1.1.3 1.4.6.6.3-.7.2-1.6-.1-1.9-.3-.4-.6.2-.5 1.3m84 0c0 1.1.3 1.4.6.6.3-.7.2-1.6-.1-1.9-.3-.4-.6.2-.5 1.3M6 54.4c0 .2.8 1 1.8 1.7 1.5 1.3 1.6 1.2.3-.4S6 53.6 6 54.4m24 0c0 .2.8 1 1.8 1.7 1.5 1.3 1.6 1.2.3-.4S30 53.6 30 54.4m18 0c0 .2.8 1 1.8 1.7 1.5 1.3 1.6 1.2.3-.4S48 53.6 48 54.4m12 0c0 .2.8 1 1.8 1.7 1.5 1.3 1.6 1.2.3-.4S60 53.6 60 54.4m12 0c0 .2.8 1 1.8 1.7 1.5 1.3 1.6 1.2.3-.4S72 53.6 72 54.4m18 0c0 .2.8 1 1.8 1.7 1.5 1.3 1.6 1.2.3-.4S90 53.6 90 54.4m12 0c0 .2.8 1 1.8 1.7 1.5 1.3 1.6 1.2.3-.4s-2.1-2.1-2.1-1.3m12 0c0 .2.8 1 1.8 1.7 1.5 1.3 1.6 1.2.3-.4s-2.1-2.1-2.1-1.3m18 0c0 .2.8 1 1.8 1.7 1.5 1.3 1.6 1.2.3-.4s-2.1-2.1-2.1-1.3m12 0c0 .2.8 1 1.8 1.7 1.5 1.3 1.6 1.2.3-.4s-2.1-2.1-2.1-1.3m12 0c0 .2.8 1 1.8 1.7 1.5 1.3 1.6 1.2.3-.4s-2.1-2.1-2.1-1.3m18 0c0 .2.8 1 1.8 1.7 1.5 1.3 1.6 1.2.3-.4s-2.1-2.1-2.1-1.3m12 0c0 .2.8 1 1.8 1.7 1.5 1.3 1.6 1.2.3-.4s-2.1-2.1-2.1-1.3m12 0c0 .2.8 1 1.8 1.7 1.5 1.3 1.6 1.2.3-.4s-2.1-2.1-2.1-1.3m18 0c0 .2.8 1 1.8 1.7 1.5 1.3 1.6 1.2.3-.4s-2.1-2.1-2.1-1.3m42 0c0 .2.8 1 1.8 1.7 1.5 1.3 1.6 1.2.3-.4s-2.1-2.1-2.1-1.3m12 0c0 .2.8 1 1.8 1.7 1.5 1.3 1.6 1.2.3-.4s-2.1-2.1-2.1-1.3m12 0c0 .2.8 1 1.8 1.7 1.5 1.3 1.6 1.2.3-.4s-2.1-2.1-2.1-1.3m18 0c0 .2.8 1 1.8 1.7 1.5 1.3 1.6 1.2.3-.4s-2.1-2.1-2.1-1.3m12 0c0 .2.8 1 1.8 1.7 1.5 1.3 1.6 1.2.3-.4s-2.1-2.1-2.1-1.3m12 0c0 .2.8 1 1.8 1.7 1.5 1.3 1.6 1.2.3-.4s-2.1-2.1-2.1-1.3m18 0c0 .2.8 1 1.8 1.7 1.5 1.3 1.6 1.2.3-.4s-2.1-2.1-2.1-1.3m12 0c0 .2.8 1 1.8 1.7 1.5 1.3 1.6 1.2.3-.4s-2.1-2.1-2.1-1.3m12 0c0 .2.8 1 1.8 1.7 1.5 1.3 1.6 1.2.3-.4s-2.1-2.1-2.1-1.3m-354 6c0 .2.8 1 1.8 1.7 1.5 1.3 1.6 1.2.3-.4S12 59.6 12 60.4m24 0c0 .2.8 1 1.8 1.7 1.5 1.3 1.6 1.2.3-.4S36 59.6 36 60.4m18 0c0 .2.8 1 1.8 1.7 1.5 1.3 1.6 1.2.3-.4S54 59.6 54 60.4m12 0c0 .2.8 1 1.8 1.7 1.5 1.3 1.6 1.2.3-.4S66 59.6 66 60.4m30 0c0 .2.8 1 1.8 1.7 1.5 1.3 1.6 1.2.3-.4S96 59.6 96 60.4m12 0c0 .2.8 1 1.8 1.7 1.5 1.3 1.6 1.2.3-.4s-2.1-2.1-2.1-1.3m30 0c0 .2.8 1 1.8 1.7 1.5 1.3 1.6 1.2.3-.4s-2.1-2.1-2.1-1.3m12 0c0 .2.8 1 1.8 1.7 1.5 1.3 1.6 1.2.3-.4s-2.1-2.1-2.1-1.3m30 0c0 .2.8 1 1.8 1.7 1.5 1.3 1.6 1.2.3-.4s-2.1-2.1-2.1-1.3m24 0c0 .2.8 1 1.8 1.7 1.5 1.3 1.6 1.2.3-.4s-2.1-2.1-2.1-1.3m18 0c0 .2.8 1 1.8 1.7 1.5 1.3 1.6 1.2.3-.4s-2.1-2.1-2.1-1.3m42 0c0 .2.8 1 1.8 1.7 1.5 1.3 1.6 1.2.3-.4s-2.1-2.1-2.1-1.3m12 0c0 .2.8 1 1.8 1.7 1.5 1.3 1.6 1.2.3-.4s-2.1-2.1-2.1-1.3m30 0c0 .2.8 1 1.8 1.7 1.5 1.3 1.6 1.2.3-.4s-2.1-2.1-2.1-1.3m12 0c0 .2.8 1 1.8 1.7 1.5 1.3 1.6 1.2.3-.4s-2.1-2.1-2.1-1.3m30 0c0 .2.8 1 1.8 1.7 1.5 1.3 1.6 1.2.3-.4s-2.1-2.1-2.1-1.3m12 0c0 .2.8 1 1.8 1.7 1.5 1.3 1.6 1.2.3-.4s-2.1-2.1-2.1-1.3"/><g stroke-width="0"><path d="M6 4.4c0 .8 1 2.2 2.2 3L10.4 9l-2.2 1.6C6.8 11.6 6 13.2 6 15s.8 3.4 2.2 4.4l2.2 1.6-2.2 1.6C6.8 23.6 6 25.2 6 27s.8 3.4 2.2 4.4l2.2 1.6-2.2 1.6C6.8 35.6 6 37.2 6 39s.8 3.4 2.2 4.4l2.2 1.6-2.2 1.6c-2.9 2-3 6.8 0 8.8l2.1 1.5L8 58.8c-1.2 1-2.1 2.5-1.8 3.2.3 1.1 1.1.8 2.9-1l2.4-2.5 2.4 2.5c1.8 1.8 2.6 2.1 2.9 1 .3-.7-.6-2.2-1.8-3.2l-2.3-1.9 2.1-1.5c2.9-2 2.9-6.8.1-8.7l-2-1.5 2.5-2.5c1.9-1.9 2.6-2.1 3-1.1.3.8 1.7 1.9 3.1 2.6 1.4.6 2.5 1.7 2.5 2.4 0 .8 1.1 2.1 2.5 3 2.1 1.4 3.1 1.5 5.1.6 1.3-.7 2.7-1.8 3-2.6.4-1.1 1.1-.8 2.9 1l2.4 2.4-2.3 2.3c-2.2 2.2-2.4 2.3-3.5.5-1.2-1.9-4.1-2.5-4.1-.9 0 .6 1 1.7 2.2 2.5l2.1 1.5-2.3 1.9c-1.2 1-2.1 2.5-1.8 3.2.3 1.1 1.1.8 2.9-1l2.4-2.5 2.4 2.5c1.8 1.8 2.6 2.1 2.9 1 .3-.7-.6-2.2-1.8-3.2l-2.3-1.9 2.1-1.5c3.4-2.3 3-7.1-.8-9.2-1.6-.9-3-2.2-3-2.9 0-.6-1-1.9-2.2-2.7L30.6 39l2.2-1.6c1.2-.8 2.2-2.1 2.2-2.7 0-.7 1.4-2 3-2.9 3.8-2.2 4.2-6.9.8-9.2L36.6 21l2.2-1.6c3.4-2.3 3-7-.8-9.2-1.6-.9-3-2.3-3-2.9 0-.7-1.1-2-2.5-2.9-2.1-1.4-3.1-1.5-5.1-.6-1.3.7-2.7 1.8-3 2.6-.4 1.1-1.1.8-2.9-1-1.3-1.3-3.1-2.4-4-2.4s-2.7 1.1-4 2.4c-1.7 1.7-2.5 2-2.9 1.1-.3-.8-1.4-1.9-2.5-2.5-1.7-.8-2.1-.8-2.1.4m13.7 6.9-2.2 2.2-2.2-2.3L13.1 9l2.2-2.3 2.2-2.2 2.2 2.3L21.9 9zm12 0-2.2 2.2-2.2-2.3L25.1 9l2.2-2.3 2.2-2.2 2.2 2.3L33.9 9zm-18 6-2.2 2.2-2.2-2.3L7.1 15l2.2-2.3 2.2-2.2 2.2 2.3 2.2 2.2zM29 15c.5 0 1 .6 1 1.4s1 2.2 2.2 3l2.2 1.6-2.2 1.6c-1.2.8-2.2 2.1-2.2 2.8s-1.1 1.8-2.5 2.4c-1.4.7-2.8 1.8-3.1 2.6-.4 1.1-1.1.8-2.9-1-1.3-1.3-2.9-2.4-3.5-2.4-.5 0-1-.6-1-1.4s-1-2.2-2.2-3L12.6 21l2.2-1.6c1.2-.8 2.2-2.1 2.2-2.8s1.1-1.8 2.5-2.4c1.4-.7 2.8-1.8 3.1-2.6.4-1.1 1.1-.8 2.9 1 1.3 1.3 2.9 2.4 3.5 2.4m8.7 2.3-2.2 2.2-2.2-2.3-2.2-2.2 2.2-2.3 2.2-2.2 2.2 2.3 2.2 2.2zm-24 12-2.2 2.2-2.2-2.3L7.1 27l2.2-2.3 2.2-2.2 2.2 2.3 2.2 2.2zm24 0-2.2 2.2-2.2-2.3-2.2-2.2 2.2-2.3 2.2-2.2 2.2 2.3 2.2 2.2zm-18 6-2.2 2.2-2.2-2.3-2.2-2.2 2.2-2.3 2.2-2.2 2.2 2.3 2.2 2.2zm12 0-2.2 2.2-2.2-2.3-2.2-2.2 2.2-2.3 2.2-2.2 2.2 2.3 2.2 2.2zm-18 6-2.2 2.2-2.2-2.3L7.1 39l2.2-2.3 2.2-2.2 2.2 2.3 2.2 2.2zm12 0-2.2 2.2-2.2-2.3-2.2-2.2 2.2-2.3 2.2-2.2 2.2 2.3 2.2 2.2zm6 6-2.2 2.2-2.2-2.3-2.2-2.2 2.2-2.3 2.2-2.2 2.2 2.3 2.2 2.2zm-18 6-2.2 2.2-2.2-2.3L7.1 51l2.2-2.3 2.2-2.2 2.2 2.3 2.2 2.2zm42.5-36.7c-1.2.8-2.2 2.1-2.2 2.7 0 .7-1.4 2-3 2.9-3.8 2.2-4.2 6.9-.8 9.2l2.2 1.6-2.2 1.6c-1.4 1-2.2 2.6-2.2 4.4s.8 3.4 2.2 4.4l2.2 1.6-2.2 1.6c-3.4 2.3-3 7 .8 9.2 1.6.9 3 2.2 3 2.9 0 1.4 3.9 4.3 5.8 4.3.7 0 2.4-1.1 3.7-2.4 1.8-1.8 2.5-2.1 2.9-1 .3.8 1.7 1.9 3 2.6 2 .9 3 .8 5.1-.6 1.4-.9 2.5-2.2 2.5-2.9 0-.6 1.4-2 3-2.9 3.5-2 4.4-5.6.9-3.8-1.1.6-2.3 1.8-2.6 2.6-.4 1.1-.8 1-2.2-.5-2.8-3.3-5.8-3.5-8.5-.8-1.9 1.9-2.6 2.2-3 1.1-.3-.8-1.7-1.9-3.1-2.6-1.4-.6-2.5-1.7-2.5-2.4s-.9-1.9-2.1-2.7l-2-1.5 2.3-2.3 2.3-2.4 2.2 2.2c1.2 1.3 2.9 2.3 3.6 2.3 2.3 0 6-3.5 5.5-5-.3-1.1-1.1-.8-3.1 1.2-1.9 1.9-2.7 2.2-3.1 1.2-.3-.8-1.7-1.9-3.1-2.6-1.4-.6-2.5-1.7-2.5-2.4s-1-2-2.2-2.8L54.6 33l2.2-1.6c1.2-.8 2.2-2.1 2.2-2.8s1.1-1.8 2.5-2.4c1.4-.7 2.8-1.8 3.1-2.6.4-1.1 1.1-.8 2.9 1 1.3 1.3 2.9 2.4 3.5 2.4.5 0 1 .6 1 1.4s1 2.2 2.2 3l2.2 1.6-2.2 1.6c-3 2.1-3.1 4.9-.1 3.3 1.2-.6 2.3-1.8 2.6-2.8.2-.9 1.7-2.4 3.4-3.3 4.1-2.4 4.1-7.2-.1-9.6-1.6-.9-3-2.3-3-2.9 0-.7-1.1-2-2.5-2.9-2.1-1.4-3.1-1.5-5.1-.6-1.3.7-2.7 1.8-3 2.6-.4 1.1-1.1.8-2.9-1-2.8-2.8-4.2-3-7.3-.8m5.5 6.7-2.2 2.2-2.2-2.3-2.2-2.2 2.2-2.3 2.2-2.2 2.2 2.3 2.2 2.2zm12 0-2.2 2.2-2.2-2.3-2.2-2.2 2.2-2.3 2.2-2.2 2.2 2.3 2.2 2.2zm-18 6-2.2 2.2-2.2-2.3-2.2-2.2 2.2-2.3 2.2-2.2 2.2 2.3 2.2 2.2zm24 0-2.2 2.2-2.2-2.3-2.2-2.2 2.2-2.3 2.2-2.2 2.2 2.3 2.2 2.2zm-24 12-2.2 2.2-2.2-2.3-2.2-2.2 2.2-2.3 2.2-2.2 2.2 2.3 2.2 2.2zm0 12-2.2 2.2-2.2-2.3-2.2-2.2 2.2-2.3 2.2-2.2 2.2 2.3 2.2 2.2zm6 6-2.2 2.2-2.2-2.3-2.2-2.2 2.2-2.3 2.2-2.2 2.2 2.3 2.2 2.2zm12 0-2.2 2.2-2.2-2.3-2.2-2.2 2.2-2.3 2.2-2.2 2.2 2.3 2.2 2.2zm24.5-42.7c-1.2.8-2.2 2.1-2.2 2.7 0 .7-1.4 2-3 2.9-4.2 2.4-4.2 7.2 0 9.6 1.6.9 3 2.3 3 3s1.3 2.1 3 3c1.6.9 3 2.3 3 2.9 0 .7 1.1 2 2.5 2.9 2.1 1.4 3.1 1.5 5.1.6 1.3-.7 2.7-1.8 3-2.6.4-1.1 1.1-.8 3 1.1l2.4 2.4-2.1 1.8c-1.2 1-2 2.4-1.7 3.1.3 1.1 1.1.8 2.9-1l2.4-2.5 2.2 2.2 2.2 2.3-2.3 2.3c-2.2 2.2-2.4 2.3-3.5.5-1.2-1.9-4.1-2.5-4.1-.9 0 .6.9 1.6 2.1 2.4l2 1.5-2.3 2.3-2.3 2.4-2.2-2.2-2.2-2.3 2.5-2.6c1.5-1.4 2.4-2.8 2-3.1-.8-.8-5.6 2.5-5.6 3.8 0 .6-.8.2-1.7-.9q-4.5-5.1-8.7-.9c-1.8 1.8-2.6 2.1-3 1.2-.3-.8-1.4-1.9-2.5-2.5-3.5-1.8-2.6 1.8.9 3.8 1.6.9 3 2.2 3 2.9 0 1.4 3.9 4.3 5.8 4.3.7 0 2.4-1.1 3.7-2.4 1.8-1.8 2.5-2.1 2.9-1 .3.8 1.7 1.9 3 2.6 2 .9 3 .8 5.1-.6 1.4-.9 2.5-2.2 2.5-2.9 0-.6 1.4-2 3-2.9 4.2-2.4 4.2-7.2 0-9.6-1.6-.9-3-2.3-3-3s-1.3-2.1-3-3c-1.6-.9-3-2.3-3-2.9 0-.7-1.1-2-2.5-2.9-2.1-1.4-3.1-1.5-5.1-.6-1.3.7-2.7 1.8-3 2.6-.4 1-1.1.8-3-1.1l-2.5-2.5 2-1.5c1.2-.8 2.1-2 2.1-2.7s1.1-1.8 2.5-2.4c1.4-.7 2.8-1.8 3.1-2.6.4-1.1 1.1-.8 2.9 1 3 3 5 3 8 0 1.7-1.7 2.5-2 2.9-1.1.3.8 1.4 1.9 2.5 2.5 3.5 1.8 2.6-1.8-.9-3.8-1.6-.9-3-2.3-3-2.9 0-.7-1.1-2-2.5-2.9-2.1-1.4-3.1-1.5-5.1-.6-1.3.7-2.7 1.8-3 2.6-.4 1.1-1.1.8-2.9-1-2.8-2.8-4.2-3-7.3-.8m5.5 6.7-2.2 2.2-2.2-2.3-2.2-2.2 2.2-2.3 2.2-2.2 2.2 2.3 2.2 2.2zm12 0-2.2 2.2-2.2-2.3-2.2-2.2 2.2-2.3 2.2-2.2 2.2 2.3 2.2 2.2zm-18 6-2.2 2.2-2.2-2.3-2.2-2.2 2.2-2.3 2.2-2.2 2.2 2.3 2.2 2.2zm12 12-2.2 2.2-2.2-2.3-2.2-2.2 2.2-2.3 2.2-2.2 2.2 2.3 2.2 2.2zm-6 18-2.2 2.2-2.2-2.3-2.2-2.2 2.2-2.3 2.2-2.2 2.2 2.3 2.2 2.2zm36.5-42.7c-1.2.8-2.2 2.1-2.2 2.7 0 .7-1.4 2-3 2.9-3.8 2.2-4.2 6.9-.8 9.2l2.2 1.6-2.2 1.6c-1.4 1-2.2 2.6-2.2 4.4s.8 3.4 2.2 4.4l2.2 1.6-2.2 1.6c-3.4 2.3-3 7 .8 9.2 1.6.9 3 2.2 3 2.9 0 1.4 3.9 4.3 5.8 4.3.7 0 2.4-1.1 3.7-2.4 1.8-1.8 2.5-2.1 2.9-1 .3.8 1.7 1.9 3 2.6 2 .9 3 .8 5.1-.6 1.4-.9 2.5-2.2 2.5-2.9 0-.6 1.4-2 3-2.9 3.8-2.2 4.2-6.9.8-9.2l-2.2-1.6 2.2-1.6c3-2 3-6.8 0-8.8l-2.2-1.6 2.2-1.6c3.4-2.3 3-7-.8-9.2-1.6-.9-3-2.3-3-2.9 0-.7-1.1-2-2.5-2.9-2.1-1.4-3.1-1.5-5.1-.6-1.3.7-2.7 1.8-3 2.6-.4 1.1-1.1.8-2.9-1-2.8-2.8-4.2-3-7.3-.8m5.5 6.7-2.2 2.2-2.2-2.3-2.2-2.2 2.2-2.3 2.2-2.2 2.2 2.3 2.2 2.2zm12 0-2.2 2.2-2.2-2.3-2.2-2.2 2.2-2.3 2.2-2.2 2.2 2.3 2.2 2.2zm-18 6-2.2 2.2-2.2-2.3-2.2-2.2 2.2-2.3 2.2-2.2 2.2 2.3 2.2 2.2zM155 27c.5 0 1 .6 1 1.4s1 2.2 2.2 3l2.2 1.6-2.2 1.6c-2.9 2-3 6.8 0 8.8l2.1 1.5-2.3 1.9c-1.2 1-2.1 2.5-1.8 3.2.3 1.1 1.1.8 2.9-1l2.4-2.5 2.2 2.2 2.2 2.3-2.3 2.3c-2.2 2.2-2.4 2.3-3.5.5-1.2-1.9-4.1-2.5-4.1-.9 0 .6.9 1.6 2.1 2.4l2 1.5-2.3 2.3-2.3 2.4-2.2-2.3-2.2-2.2 2.6-2.6c1.4-1.4 2.3-2.8 1.9-3.1-.8-.8-5.6 2.5-5.6 3.9 0 .7-.7.2-1.6-1-1.5-2.2-4.4-3-4.4-1.3 0 .6.9 1.6 2.1 2.4l2 1.5-2.3 2.3-2.3 2.4-2.2-2.2-2.2-2.3 2.4-2.4c2.7-2.7 2.4-5.8-.8-8.1l-2.1-1.5 2.2-1.6c3-2 3-6.8 0-8.8l-2.2-1.6 2.2-1.6c1.2-.8 2.2-2.1 2.2-2.8s1.1-1.8 2.5-2.4c1.4-.7 2.8-1.8 3.1-2.6.4-1.1 1.1-.8 2.9 1 1.3 1.3 2.9 2.4 3.5 2.4m8.7 2.3-2.2 2.2-2.2-2.3-2.2-2.2 2.2-2.3 2.2-2.2 2.2 2.3 2.2 2.2zm-24 12-2.2 2.2-2.2-2.3-2.2-2.2 2.2-2.3 2.2-2.2 2.2 2.3 2.2 2.2zm24 0-2.2 2.2-2.2-2.3-2.2-2.2 2.2-2.3 2.2-2.2 2.2 2.3 2.2 2.2zm-24 12-2.2 2.2-2.2-2.3-2.2-2.2 2.2-2.3 2.2-2.2 2.2 2.3 2.2 2.2zM174 16.4c0 .8 1 2.2 2.2 3l2.2 1.6-2.2 1.6c-1.4 1-2.2 2.6-2.2 4.4s.8 3.4 2.2 4.4l2.2 1.6-2.2 1.6c-3 2-3 6.8 0 8.8l2.2 1.6-2.2 1.6c-3.4 2.3-3 7 .7 9.2 1.7.9 3.2 2.5 3.4 3.4.3 1 1.7 2.3 3.1 2.9 2 1 3 .9 5.1-.5 1.4-.9 2.5-2.2 2.5-3 0-.7 1.1-1.8 2.4-2.4 2.7-1.2 5.4-5.2 3.6-5.2-.6 0-2.1 1-3.4 2.3-2.2 2.2-2.4 2.3-3.5.5-1.2-1.9-4.1-2.5-4.1-.9 0 .6.9 1.6 2.1 2.4l2 1.5-2.3 2.3-2.3 2.4-2.2-2.3-2.2-2.2 2.4-2.4c2.7-2.7 2.4-5.8-.8-8.1l-2.1-1.5 2.2-1.6c1.4-1 2.2-2.6 2.2-4.4s-.8-3.4-2.2-4.4l-2.2-1.6 2.2-1.6c2.9-2 3-6.8 0-8.8l-2.1-1.5 2.3-1.9c1.2-1 2.1-2.5 1.8-3.2-.3-1.1-1.1-.8-3.1 1.2-1.8 1.8-2.7 2.2-3.1 1.3-.3-.8-1.4-1.9-2.5-2.5-1.7-.8-2.1-.8-2.1.4m7.7 12.9-2.2 2.2-2.2-2.3-2.2-2.2 2.2-2.3 2.2-2.2 2.2 2.3 2.2 2.2zm0 12-2.2 2.2-2.2-2.3-2.2-2.2 2.2-2.3 2.2-2.2 2.2 2.3 2.2 2.2zm0 12-2.2 2.2-2.2-2.3-2.2-2.2 2.2-2.3 2.2-2.2 2.2 2.3 2.2 2.2z"/><path d="M198 16.4c0 .8 1 2.2 2.2 3l2.2 1.6-2.2 1.6c-1.4 1-2.2 2.6-2.2 4.4s.8 3.4 2.2 4.4l2.2 1.6-2.2 1.6c-2.9 2-3 6.8 0 8.8l2.1 1.5-2.3 1.9c-1.2 1-2.1 2.5-1.8 3.2.3 1.1 1.1.8 2.9-1l2.4-2.5 2.2 2.2 2.2 2.3-2.3 2.3c-2.2 2.2-2.4 2.3-3.5.5-1.2-1.9-4.1-2.5-4.1-.8 0 .6 1.3 1.9 2.9 2.8 1.7.9 3.2 2.4 3.4 3.3.3 1 1.4 2.2 2.6 2.8 3 1.6 2.9-1.2-.1-3.3l-2.2-1.6 2.2-1.6c1.4-1 2.2-2.6 2.2-4.4s-.8-3.4-2.2-4.4l-2.2-1.6 2.2-1.6c1.4-1 2.2-2.6 2.2-4.4s-.8-3.4-2.2-4.4l-2.2-1.6 2.2-1.6c2.9-2 3-6.8 0-8.8l-2.1-1.5 2.3-1.9c1.2-1 2.1-2.5 1.8-3.2-.3-1.1-1.1-.8-3.1 1.2-1.8 1.8-2.7 2.2-3.1 1.3-.3-.8-1.4-1.9-2.5-2.5-1.7-.8-2.1-.8-2.1.4m7.7 12.9-2.2 2.2-2.2-2.3-2.2-2.2 2.2-2.3 2.2-2.2 2.2 2.3 2.2 2.2zm0 12-2.2 2.2-2.2-2.3-2.2-2.2 2.2-2.3 2.2-2.2 2.2 2.3 2.2 2.2zM216 16.4c0 .8 1 2.2 2.2 3l2.2 1.6-2.2 1.6c-1.4 1-2.2 2.6-2.2 4.4s.8 3.4 2.2 4.4l2.2 1.6-2.2 1.6c-3 2-3 6.8 0 8.8l2.2 1.6-2.2 1.6c-2.9 2-3 6.8 0 8.8l2.1 1.5-2.3 1.9c-1.2 1-2.1 2.5-1.8 3.2.3 1.1 1.1.8 2.9-1l2.4-2.5 2.4 2.5c1.8 1.8 2.6 2.1 2.9 1 .3-.7-.6-2.2-1.8-3.2l-2.3-1.9 2.1-1.5c3-2 2.9-6.8 0-8.8l-2.2-1.6 2.2-1.6c1.4-1 2.2-2.6 2.2-4.4s-.8-3.4-2.2-4.4l-2.2-1.6 2.2-1.6c1.2-.8 2.2-2.1 2.2-2.8s1.1-1.8 2.5-2.4c1.4-.7 2.8-1.8 3.1-2.6.4-1.1 1.1-.8 2.9 1 1.3 1.3 2.8 2.4 3.3 2.4s1.2.9 1.5 2 1.7 2.5 3.1 3.1c2 1 3 .9 5.1-.5 3.7-2.4 3.5-7.1-.5-9.4-1.6-.9-3-2.3-3-2.9 0-.7-1.1-2-2.5-2.9-2.1-1.4-3.1-1.5-5.1-.5-1.4.6-2.8 2-3.1 3s-1.6 2.4-2.9 3c-1.4.6-2.7 1.7-3 2.5-.4 1.1-1.1.8-2.9-1-1.3-1.3-2.8-2.4-3.3-2.4s-1.2-.9-1.5-1.9c-.6-2.5-4.7-4.8-4.7-2.7m25.7 6.9-2.2 2.2-2.2-2.3-2.2-2.2 2.2-2.3 2.2-2.2 2.2 2.3 2.2 2.2zm-18 6-2.2 2.2-2.2-2.3-2.2-2.2 2.2-2.3 2.2-2.2 2.2 2.3 2.2 2.2zm24 0-2.2 2.2-2.2-2.3-2.2-2.2 2.2-2.3 2.2-2.2 2.2 2.3 2.2 2.2zm-24 12-2.2 2.2-2.2-2.3-2.2-2.2 2.2-2.3 2.2-2.2 2.2 2.3 2.2 2.2zm0 12-2.2 2.2-2.2-2.3-2.2-2.2 2.2-2.3 2.2-2.2 2.2 2.3 2.2 2.2zm42.5-36.7c-1.2.8-2.2 2.1-2.2 2.7 0 .7-1.4 2-3 2.9-3.8 2.2-4.2 6.9-.8 9.2l2.2 1.6-2.2 1.6c-1.4 1-2.2 2.6-2.2 4.4s.8 3.4 2.2 4.4l2.2 1.6-2.2 1.6c-3.4 2.3-3 7 .8 9.2 1.6.9 3 2.2 3 2.9 0 1.4 3.9 4.3 5.8 4.3.7 0 2.4-1.1 3.7-2.4 1.8-1.8 2.5-2.1 2.9-1 .3.8 1.7 1.9 3 2.6 2 .9 3 .8 5.1-.6 1.4-.9 2.5-2.2 2.5-2.9 0-.6 1.4-2 3-2.9 2.3-1.3 3-2.4 3-4.7 0-2.9-2.9-6.1-5.6-6.1-2 0-5.7 3.6-5.2 5 .3 1.1 1.1.8 2.9-1l2.4-2.5 2.2 2.2 2.2 2.3-2.3 2.3c-2.2 2.2-2.4 2.3-3.5.5-1.2-1.9-4.1-2.5-4.1-.9 0 .6.9 1.6 2.1 2.4l2 1.5-2.3 2.3-2.3 2.4-2.2-2.2-2.2-2.3 2.5-2.6c1.5-1.4 2.4-2.8 2-3.1-.8-.8-5.6 2.5-5.6 3.9 0 .7-.7.2-1.6-1-1.5-2.2-4.4-3-4.4-1.3 0 .6.9 1.6 2.1 2.4l2 1.5-2.3 2.3-2.3 2.4-2.2-2.3-2.2-2.2 2.4-2.4c2.7-2.7 2.4-5.8-.8-8.1l-2.1-1.5 2.2-1.6c1.4-1 2.2-2.6 2.2-4.4s-.8-3.4-2.2-4.4l-2.2-1.6 2.2-1.6c1.2-.8 2.2-2.1 2.2-2.8s1.1-1.8 2.5-2.4c1.4-.7 2.8-1.8 3.1-2.6.4-1.1 1.1-.8 2.9 1 3 3 5 3 8 0 1.7-1.7 2.5-2 2.9-1.1.3.8 1.4 1.9 2.5 2.5 3.5 1.8 2.6-1.8-.9-3.8-1.6-.9-3-2.3-3-2.9 0-.7-1.1-2-2.5-2.9-2.1-1.4-3.1-1.5-5.1-.6-1.3.7-2.7 1.8-3 2.6-.4 1.1-1.1.8-2.9-1-2.8-2.8-4.2-3-7.3-.8m5.5 6.7-2.2 2.2-2.2-2.3-2.2-2.2 2.2-2.3 2.2-2.2 2.2 2.3 2.2 2.2zm12 0-2.2 2.2-2.2-2.3-2.2-2.2 2.2-2.3 2.2-2.2 2.2 2.3 2.2 2.2zm-18 6-2.2 2.2-2.2-2.3-2.2-2.2 2.2-2.3 2.2-2.2 2.2 2.3 2.2 2.2zm0 12-2.2 2.2-2.2-2.3-2.2-2.2 2.2-2.3 2.2-2.2 2.2 2.3 2.2 2.2zm0 12-2.2 2.2-2.2-2.3-2.2-2.2 2.2-2.3 2.2-2.2 2.2 2.3 2.2 2.2zm42.5-36.7c-1.2.8-2.2 2.1-2.2 2.7 0 .7-1.4 2-3 2.9-3.8 2.2-4.2 6.9-.8 9.2l2.2 1.6-2.2 1.6c-1.4 1-2.2 2.6-2.2 4.4s.8 3.4 2.2 4.4l2.2 1.6-2.2 1.6c-3.4 2.3-3 7 .8 9.2 1.6.9 3 2.2 3 2.9 0 1.4 3.9 4.3 5.8 4.3.7 0 2.4-1.1 3.7-2.4 1.8-1.8 2.5-2.1 2.9-1 .3.8 1.7 1.9 3 2.6 2 .9 3 .8 5.1-.6 1.4-.9 2.5-2.2 2.5-2.9 0-.6 1.4-2 3-2.9 3.5-2 4.4-5.6.9-3.8-1.1.6-2.3 1.8-2.6 2.6-.4 1.1-.8 1-2.2-.5-2.8-3.3-5.8-3.5-8.5-.8-1.9 1.9-2.6 2.2-3 1.1-.3-.8-1.7-1.9-3.1-2.6-1.4-.6-2.5-1.7-2.5-2.4s-.9-1.9-2.1-2.7l-2-1.5 2.3-2.3 2.3-2.4 2.2 2.2c1.2 1.3 2.9 2.3 3.6 2.3 2.3 0 6-3.5 5.5-5-.3-1.1-1.1-.8-3.1 1.2-1.9 1.9-2.7 2.2-3.1 1.2-.3-.8-1.7-1.9-3.1-2.6-1.4-.6-2.5-1.7-2.5-2.4s-1-2-2.2-2.8l-2.2-1.6 2.2-1.6c1.2-.8 2.2-2.1 2.2-2.8s1.1-1.8 2.5-2.4c1.4-.7 2.8-1.8 3.1-2.6.4-1.1 1.1-.8 2.9 1 1.3 1.3 2.9 2.4 3.5 2.4.5 0 1 .6 1 1.4s1 2.2 2.2 3l2.2 1.6-2.2 1.6c-3 2.1-3.1 4.9-.1 3.3 1.2-.6 2.3-1.8 2.6-2.8.2-.9 1.7-2.4 3.4-3.3 4.1-2.4 4.1-7.2-.1-9.6-1.6-.9-3-2.3-3-2.9 0-.7-1.1-2-2.5-2.9-2.1-1.4-3.1-1.5-5.1-.6-1.3.7-2.7 1.8-3 2.6-.4 1.1-1.1.8-2.9-1-2.8-2.8-4.2-3-7.3-.8m5.5 6.7-2.2 2.2-2.2-2.3-2.2-2.2 2.2-2.3 2.2-2.2 2.2 2.3 2.2 2.2zm12 0-2.2 2.2-2.2-2.3-2.2-2.2 2.2-2.3 2.2-2.2 2.2 2.3 2.2 2.2zm-18 6-2.2 2.2-2.2-2.3-2.2-2.2 2.2-2.3 2.2-2.2 2.2 2.3 2.2 2.2zm24 0-2.2 2.2-2.2-2.3-2.2-2.2 2.2-2.3 2.2-2.2 2.2 2.3 2.2 2.2zm-24 12-2.2 2.2-2.2-2.3-2.2-2.2 2.2-2.3 2.2-2.2 2.2 2.3 2.2 2.2zm0 12-2.2 2.2-2.2-2.3-2.2-2.2 2.2-2.3 2.2-2.2 2.2 2.3 2.2 2.2zm6 6-2.2 2.2-2.2-2.3-2.2-2.2 2.2-2.3 2.2-2.2 2.2 2.3 2.2 2.2zm12 0-2.2 2.2-2.2-2.3-2.2-2.2 2.2-2.3 2.2-2.2 2.2 2.3 2.2 2.2zm24.5-42.7c-1.2.8-2.2 2.1-2.2 2.7 0 .7-1.4 2-3 2.9-2.3 1.3-3 2.4-3 4.8s.7 3.5 3 4.8c1.6.9 3 2.3 3 3s1.3 2.1 3 3c1.6.9 3 2.3 3 2.9 0 .7 1.1 2 2.5 2.9 2.1 1.4 3.1 1.5 5.1.6 1.3-.7 2.7-1.8 3-2.6.4-1.1 1.1-.8 3 1.1l2.4 2.4-2.1 1.8c-1.2 1-2 2.4-1.7 3.1.3 1.1 1.1.8 2.9-1l2.4-2.5 2.2 2.2 2.2 2.3-2.3 2.3c-2.2 2.2-2.4 2.3-3.5.5-1.2-1.9-4.1-2.5-4.1-.9 0 .6.9 1.6 2.1 2.4l2 1.5-2.3 2.3-2.3 2.4-2.2-2.2-2.2-2.3 2.5-2.6c1.5-1.4 2.4-2.8 2-3.1-.8-.8-5.6 2.5-5.6 3.8 0 .6-.8.2-1.7-.9q-4.5-5.1-8.7-.9c-1.8 1.8-2.6 2.1-3 1.2-.3-.8-1.4-1.9-2.5-2.5-3.5-1.8-2.6 1.8.9 3.8 1.6.9 3 2.2 3 2.9 0 1.4 3.9 4.3 5.8 4.3.7 0 2.4-1.1 3.7-2.4 1.8-1.8 2.5-2.1 2.9-1 .3.8 1.7 1.9 3 2.6 2 .9 3 .8 5.1-.6 1.4-.9 2.5-2.2 2.5-2.9 0-.6 1.4-2 3-2.9 4.2-2.4 4.2-7.2 0-9.6-1.6-.9-3-2.3-3-3s-1.3-2.1-3-3c-1.6-.9-3-2.3-3-2.9 0-.7-1.1-2-2.5-2.9-2.1-1.4-3.1-1.5-5.1-.6-1.3.7-2.7 1.8-3 2.6-.4 1-1.1.8-3-1.1l-2.5-2.5 2-1.5c1.2-.8 2.1-2 2.1-2.7s1.1-1.8 2.5-2.4c1.4-.7 2.8-1.8 3.1-2.6.4-1.1 1.1-.8 2.9 1 3 3 5 3 8 0 1.7-1.7 2.5-2 2.9-1.1.3.8 1.4 1.9 2.5 2.5 3.5 1.8 2.6-1.8-.9-3.8-1.6-.9-3-2.3-3-2.9 0-.7-1.1-2-2.5-2.9-2.1-1.4-3.1-1.5-5.1-.6-1.3.7-2.7 1.8-3 2.6-.4 1.1-1.1.8-2.9-1-2.8-2.8-4.2-3-7.3-.8m5.5 6.7-2.2 2.2-2.2-2.3-2.2-2.2 2.2-2.3 2.2-2.2 2.2 2.3 2.2 2.2zm12 0-2.2 2.2-2.2-2.3-2.2-2.2 2.2-2.3 2.2-2.2 2.2 2.3 2.2 2.2zm-18 6-2.2 2.2-2.2-2.3-2.2-2.2 2.2-2.3 2.2-2.2 2.2 2.3 2.2 2.2zm12 12-2.2 2.2-2.2-2.3-2.2-2.2 2.2-2.3 2.2-2.2 2.2 2.3 2.2 2.2zm-6 18-2.2 2.2-2.2-2.3-2.2-2.2 2.2-2.3 2.2-2.2 2.2 2.3 2.2 2.2z"/></g>
<path fill="#404040" d="M30.5 51c-.3.5-.1 1 .4 1 .6 0 1.1-.5 1.1-1 0-.6-.2-1-.4-1-.3 0-.8.4-1.1 1m83.5.5c-1.1 1.3-1 1.4.4.9.9-.3 1.6-1 1.6-1.5 0-1.3-.6-1.1-2 .6m42 0c-1.1 1.3-1 1.4.4.9.9-.3 1.6-1 1.6-1.5 0-1.3-.6-1.1-2 .6m42 0c-1.1 1.3-1 1.4.4.9.9-.3 1.6-1 1.6-1.5 0-1.3-.6-1.1-2 .6m84 0c-1.1 1.3-1 1.4.4.9.9-.3 1.6-1 1.6-1.5 0-1.3-.6-1.1-2 .6m84 0c-1.1 1.3-1 1.4.4.9.9-.3 1.6-1 1.6-1.5 0-1.3-.6-1.1-2 .6M71.5 52c-.3.6.1.7.9.4 1.8-.7 2.1-1.4.7-1.4-.6 0-1.3.4-1.6 1m30 0c-.3.6.1.7.9.4 1.8-.7 2.1-1.4.7-1.4-.6 0-1.3.4-1.6 1m42 0c-.3.6.1.7.9.4 1.8-.7 2.1-1.4.7-1.4-.6 0-1.3.4-1.6 1m42 0c-.3.6.1.7.9.4 1.8-.7 2.1-1.4.7-1.4-.6 0-1.3.4-1.6 1m84 0c-.3.6.1.7.9.4 1.8-.7 2.1-1.4.7-1.4-.6 0-1.3.4-1.6 1m54 0c-.3.6.1.7.9.4 1.8-.7 2.1-1.4.7-1.4-.6 0-1.3.4-1.6 1m30 0c-.3.6.1.7.9.4 1.8-.7 2.1-1.4.7-1.4-.6 0-1.3.4-1.6 1"/></svg>