<svg xmlns="http://www.w3.org/2000/svg" version="1.0" viewBox="0 0 287 96">
<g fill="none" stroke-width="0">
<path d="M0 48v47.9l143.4.1h143.4l.1-48V0H0zM129.4 6c.4 0 .4-.5 0-1.2s-.3-.8.5-.4c.9.6.9 1.1 0 2.2-.7.8-.9 2.7-.5 4.7.3 1.8.2 2.7-.2 1.9-.7-1-1.1-1-2.2.3s-1 1.8.4 3.3c.9 1 1.6 2.4 1.6 3.1 0 .8.6 1.1 1.8.6 1.4-.5 1.4-.3-.3 1.4-4.4 4.4-4.7 5.1-3.5 6.6 1.5 1.8 3.4 2 2.4.3-.5-.7-.3-.8.5-.3.9.5 1 1 .2 1.8-.6.6-1.1 2.2-1.1 3.5 0 1.4-.8 3.1-1.7 3.8-1.7 1.3-1.7 1.5.6 3.4 1.8 1.5 2.6 1.8 3.2.9.4-.7.6-.1.6 1.4-.2 1.9-.5 2.3-1.4 1.5-1-.8-1.3-.5-1.3.9 0 1 .6 2.5 1.3 3.3 1 1.2.9 1.2-.4.2s-1.9-.9-3 .4c-1.1 1.4-1.1 1.9.6 3.3 3.1 2.5 2.2 8-1.6 9.4-2.1.8-2.9 1.8-2.9 3.5 0 1.3-.4 2-1 1.7s-1.2 0-1.5.7c-.7 1.8-7 1.1-8.6-.8-1.8-2.2-4.4.2-2.7 2.5 1.1 1.4 1.1 1.4-.4.3-.9-.7-2.2-1.2-3-1.1-3.9.5-5.7-.3-7.2-3.4-.8-1.7-1.6-2.8-1.6-2.3s-1.1-.1-2.5-1.4c-2-1.8-2.5-3.2-2.3-6.1.2-2 .6-3.5 1-3.3s1 0 1.3-.6c.8-1.3-1.4-4.2-2.6-3.4-.5.3-.6-.2-.3-1 .4-.9.1-1.6-.6-1.6-.9 0-.7-.6.4-1.9 1-1.1 1.5-2.4 1.2-3-.4-.5-.1-1.3.5-1.7.8-.5.9-.3.4.7-.7 1.2-.6 1.2.6.1s1.1-1.5-.4-2.3c-1.4-.8-1.7-2.1-1.5-5.4.2-2.4.5-4.3.8-4.3 3.3.2 7.9-4.9 6.5-7.1-.2-.5 1.4-.6 3.8-.3 4.6.5 8.6 3 7.9 5-.2.7.5 1.2 1.6 1.2s2.3.7 2.6 1.6c.5 1.3.9 1.4 2.1.4 1.7-1.4 2-3 .6-3-.5 0-1.2.8-1.5 1.7-.4 1.5-.5 1.5-.4-.2.1-3.7-.2-4.6-1.1-4-.5.3-1.3 0-1.7-.6-.4-.8-.3-.9.4-.5 1.3.8 3.6-3.9 2.7-5.4-.3-.5 0-1.2.6-1.6.8-.5.9-.3.4.7-.7 1.2-.6 1.2.6.1s1.1-1.5-.4-2.3c-1.4-.8-1.7-2.1-1.5-5.4.2-2.4.5-4.3.8-4.3.3.1 1.2-.2 2-.5 3.5-1.4 5.6-1.2 7.6.5 1.1 1 2.4 1.8 2.8 1.8M16.9 5.4c1 1.2.9 1.3-.7.9-1.1-.2-2.3.1-2.8.8q-.75 1.35.9.6c1.1-.4 1.4-.2 1 .9-.7 1.8-1.9 1.8-2.7-.1-.3-.8.2-2.1 1-3 1.9-1.8 1.9-1.8 3.3-.1m6.1-.8c0 .8-1.9 1.3-2.4.6-.3-.5.1-.9.9-.9s1.5.2 1.5.3m17.9.8c1 1.2.9 1.3-.7.9-1.1-.2-2.3.1-2.8.8q-.75 1.35.9.6c1.1-.4 1.4-.2 1 .9-.7 1.8-1.9 1.8-2.7-.1-.3-.8.2-2.1 1-3 1.9-1.8 1.9-1.8 3.3-.1m6.1-.8c0 .8-1.9 1.3-2.4.6-.3-.5.1-.9.9-.9s1.5.2 1.5.3m137.9.8c1 1.2.9 1.3-.7.9-1.1-.2-2.3.1-2.8.8q-.75 1.35.9.6c1.1-.4 1.4-.2 1 .9-.7 1.8-1.9 1.8-2.7-.1-.3-.8.2-2.1 1-3 1.9-1.8 1.9-1.8 3.3-.1m6.1-.8c0 .8-1.9 1.3-2.4.6-.3-.5.1-.9.9-.9s1.5.2 1.5.3m-170.5 7c-2.5 3.3-2.6 3.7-1.1 5.3 2 2.2 2.1 6.5.1 8.1-1.3 1.1-1.3 1.6.2 4.1.9 1.5 2 2.6 2.3 2.4.4-.2.7.2.7 1s-.4 1.2-.9.9c-.4-.3-.8 0-.8.7s-.7 2.1-1.7 3.1c-1.5 1.7-1.5 1.9 0 3.6 2.1 2.3 2.2 6.5.3 8.2-1.3 1-1.3 1.6.2 4.5.9 1.9 2.1 3.5 2.6 3.5s1.7.7 2.6 1.5c1.5 1.4 1.8 1.4 3 0 .7-.8 1.8-1.5 2.4-1.5s1.9-1.4 2.9-3.1c1.6-3 1.7-3.3.1-5-1.1-1.3-1.5-2.8-1.1-4.8.4-1.9.2-3.2-.6-3.5-.7-.3-.3-.4.8-.3 1.2.1 2-.4 2-1.3 0-.8-.6-1.4-1.3-1.2-.8.1-1.1-.2-.8-.7.4-.5.2-1.2-.3-1.6-.7-.4-.7-1.5-.1-3.1.6-1.4.7-3 .4-3.6-.4-.6-.2-.8.4-.4 1.9 1.2 2.4-1.5.7-3.4-1.2-1.4-1.6-2.9-1.2-4.9.4-1.9.2-3.2-.6-3.5-.7-.3-.3-.4.8-.3 1.2.1 2-.4 2-1.3 0-.8-.7-1.4-1.5-1.2s-1.2 0-.8-.3c.4-.4.3-1.6-.3-2.6-.8-1.6-.6-1.9 1.4-1.9 1.4 0 3 .7 3.7 1.5 1.1 1.3 1.5 1.4 2.9.2.9-.8 2.9-1.7 4.5-2.1l2.9-.7-2.7 3.6c-2.6 3.3-2.7 3.8-1.2 5.4 2 2.2 2.1 6.5.1 8.1-1.4 1.1-1.4 1.6.1 3.9.9 1.4 2.4 3.2 3.3 4 1.5 1.3 1.5 1.3-.1.8-1-.4-1.8-.1-1.8.5s-.7 2-1.7 3c-1.5 1.7-1.5 1.9 0 3.6 2.1 2.3 2.2 6.5.2 8.2-1.3 1.1-1.3 1.6.2 4.4 3.2 6.2 3.4 6.8 2.9 7.4-.3.3-.6-.1-.6-.8 0-.9-.6-.8-2 .5-1.1 1-1.7 2.2-1.4 2.6.3.5-.2.6-1 .3-1.6-.6-4 2.9-2.8 4.1.4.3.3.6-.3.5-2.2-.5-2.7.1-1.4 1.8 1.2 1.5 1.2 1.6-.1.5-.9-.7-2.9-1.1-4.5-1-2 .2-3.6-.4-4.6-1.7-1.6-2-1.6-2-2.9 0-1.5 2.5-6.9 2.1-9.9-.7-1.2-1.2-2.1-1.5-2.1-.8s-.3.9-.6.6c-.4-.4-.1-1.3.6-2.2 1-1.2 1-1.5-.2-1.5-.8 0-2 .6-2.7 1.2-1.1 1.1-1.2.9-.7-.8.4-1.3.1-2.6-.8-3.3-1.1-.9-1.3-1.9-.5-3.8.5-1.3.6-2.9.3-3.5-.4-.6-.2-.8.4-.4 1.9 1.2 2.4-1.5.7-3.4-1.2-1.4-1.6-2.9-1.2-4.9.4-1.9.2-3.2-.6-3.5-.7-.3-.3-.4.8-.3 1.2.1 2-.4 2-1.3 0-.8-.6-1.4-1.3-1.2-.8.1-1.1-.2-.8-.7.4-.5.2-1.2-.3-1.6-.7-.4-.7-1.5-.1-3.1.6-1.4.7-3 .4-3.6-.4-.6-.2-.8.4-.4 1.9 1.2 2.4-1.5.7-3.4-1.2-1.4-1.6-2.9-1.2-4.9.4-1.9.2-3.2-.6-3.5-.7-.3-.3-.4.8-.3 1.2.1 2-.4 2-1.3 0-.8-.7-1.4-1.5-1.2s-1.2 0-.8-.3c.4-.4.3-1.6-.3-2.6C7.1 9.3 7.3 9 9.3 9c1.4 0 3 .7 3.7 1.5 1.1 1.3 1.5 1.4 2.9.1 1.4-1.2 3.7-2.1 6.5-2.5.4 0-.4 1.5-1.9 3.5m168 0c-2.5 3.3-2.6 3.7-1.1 5.3.9 1 1.6 2.3 1.6 2.9 0 .7.5 1.2 1.2 1.2.6 0 1.9.7 2.9 1.6 1.6 1.5 1.9 1.4 3-.4 1.6-2.5 4.6-1.7 5.4 1.5.3 1.4.4 2.8 0 3.1-.3.3-.5-.3-.5-1.3 0-1.8-.1-1.8-1.6-.3-1.7 1.7-1 4.3.8 3.2.6-.4.8-.2.4.4-.3.6.1 1.5 1.1 2.1 1.6.8 1.4 1-1 1.6-2 .5-3.3.2-4.7-1-1.8-1.7-2.5-1.4-2.1.8.1.5-.3.6-.8.3-.5-.4-1.2-.2-1.6.4s-1.1.8-1.6.5c-.5-.4-.9-.1-.9.6s-.7 2.1-1.7 3.1c-1.5 1.7-1.5 1.9 0 3.6 2.1 2.3 2.2 6.5.2 8.2-1.1.9-1.2 1.7-.4 3.2.9 1.7 1.3 1.8 2.7.5 2.1-1.8 7-2.8 7.8-1.5.3.4 1 .5 1.6.2.7-.4.8-.2.4.5-.4.6-.1 1.3.6 1.6.9.4 1.3 1.7 1 4.2-.4 2.8-1 3.8-3.3 4.7-2.1.7-2.9 1.7-2.9 3.4 0 1.3-.4 2-1 1.7s-1.2 0-1.5.7c-.8 2-6.8 1.1-9.4-1.3-1.2-1.2-2.1-1.5-2.1-.8s-.3.9-.6.6c-.4-.4-.1-1.3.6-2.2 1-1.2 1-1.5-.2-1.5-.8 0-2 .6-2.7 1.2-1.2 1.1-1.3 1-.7-.6.7-2-1.1-4.9-2.4-4.1-.5.3-1.2 0-1.6-.6-.4-.8-.3-.9.4-.5 1.4.8 3.6-4 2.6-5.6-.4-.6-.2-.8.4-.4 1.9 1.2 2.4-1.5.7-3.4-1.2-1.4-1.6-2.9-1.2-5 .6-2.8 0-3.6-2.6-3.1-.5.1-.6-.3-.2-.9.4-.7 1.2-.7 2.5 0s2.1.7 2.5 0c.9-1.4-.4-3.2-1.7-2.4-.6.4-.8.2-.4-.4.3-.6.2-1.3-.3-1.7-.7-.4-.7-1.5-.1-3.1.6-1.4.7-3 .4-3.6-.4-.6-.2-.8.4-.4 1.9 1.2 2.4-1.5.7-3.4-1.2-1.4-1.6-2.9-1.2-4.9.4-1.9.2-3.2-.6-3.5-.7-.3-.3-.4.8-.3 1.2.1 2-.4 2-1.3 0-.8-.7-1.4-1.5-1.2s-1.2 0-.8-.3c.4-.4.3-1.6-.3-2.6-.8-1.6-.6-1.9 1.4-1.9 1.4 0 3 .7 3.7 1.5 1.1 1.3 1.5 1.4 2.9.1 1.4-1.2 3.7-2.1 6.5-2.5.4 0-.4 1.5-1.9 3.5m-55.8-.1c0 .8-.4 1.5-.9 1.5-1 0-1.1-1.4-.1-2.3.9-1 1-.9 1 .8M114.5 14c.3.5.1 1-.4 1-.6 0-1.1-.5-1.1-1 0-.6.2-1 .4-1 .3 0 .8.4 1.1 1m20 3c.3.5-.1 1-.9 1-.9 0-1.6-.5-1.6-1 0-.6.4-1 .9-1 .6 0 1.3.4 1.6 1m-20.4 2.7c1.3 1.6 1.2 1.7-.3.4-1-.7-1.8-1.5-1.8-1.7 0-.8.8-.3 2.1 1.3M66.7 22c1 1.2 1.5 1.3 3.2.2 1.2-.6 3.2-1.2 4.7-1.2 3.1 0 7.2 3 6.6 4.8-.2.6.1 1.2.6 1.2.6 0 1.8.3 2.8.7 1.2.4 1.5.3 1-.5-1.1-1.8 0-1.4 1.5.5 1 1.1 1 1.4.2.9-1.6-.9-1.5-.9-.3 3.3.8 3 .7 3.6-1.1 4.9s-1.9 1.6-.5 3.6c2.2 3.5 2.3 6.2.2 8.5-1.7 1.9-1.8 2.3-.4 3.8 1.8 2 3.6 8.9 2.1 8-.9-.6-5 2.9-8.1 6.7-2.6 3.3-11.2.9-11.2-3.1 0-.7-.4-1.3-1-1.3-.5 0-.7.8-.4 1.7.4 1-.4.3-1.5-1.5-1.8-2.8-2.4-3.2-3.7-2.1-1.3 1-1.3 1.5.1 3.5 1.4 2.2 1.7 9.7.3 8.8-1.5-1-1.9 1.9-.4 3.5 2 2.2 2.1 6.5.1 8.1-1.8 1.5-1.9 3-.2 3 .7 0 1.4 1.1 1.5 2.5.2 2.7-2.4 3.5-4.5 1.4-1.4-1.4-4.7-.3-3.7 1.2.4.8-.1.9-1.6.4-1.3-.4-2-.3-1.7.2.4.5 0 1-.8 1s-1.4-.3-1.3-.6c0-.3 0-.8-.2-1.1-.1-.3-.3-1.9-.5-3.5-.3-2.5-.2-2.7.6-1.2.9 1.4 1.4 1.6 2.5.6 1.3-1 1.2-1.5-.1-3.5-1.9-3-1.9-6.3.1-8.5 1.5-1.7 1.1-4.5-.5-3.5-.4.3-.8-.9-.9-2.7-.2-1.7-.8-3.8-1.5-4.6-1-1.4-1-1.4.3-.4s1.8.8 2.9-.8c1-1.8 1-2.4-.4-3.9-1.5-1.7-1.9-9.4-.4-8.4 1.6 1 2-1.8.5-3.5-.9-1-1.6-2.6-1.6-3.7s-.6-2.6-1.2-3.4c-1.1-1.2-1-1.2.2-.3 1.3 1 1.8.8 2.9-.8 1-1.7 1-2.4-.3-3.8-3-3.3-1.1-10.1 2.8-10.1 1 0 1.5-.4 1.2-.9s.1-1.4.9-2.1 1.2-1.7.8-2.3c-.3-.6-.1-.7.5-.3.7.4 1.2.3 1.2-.2 0-1.6 6.4-.9 7.7.8m85.9.7c-.3-1.1-.2-1.6.4-1.2.6.3 1.5.3 2.2-.1 3.6-2.3 9.7.5 9.8 4.3 0 1.9 2.7 1.6 3.9-.5.6-.9 1.1-1.2 1.1-.7 0 .6-.5 1.6-1.1 2.2-.8.8-.6 1.5.8 2.4 1.7 1 1.9 1.8 1.3 4.5-.4 1.8-.5 3.6-.1 4q.45.6-.6 0c-1.9-1-2.6 1.4-1 3.2 1.9 2.2 2.8 9.5 1 8.8-2.1-.9-2.5 1.3-.6 3.7 1 1.3 2.5 2.2 3.3 2 1-.3.9 0-.2.7-1 .6-1.8 2.2-1.8 3.6s-.4 2.2-1 1.9c-.5-.3-1-.1-1 .4 0 .6-.9 1.1-1.9 1.1-1.6 0-3.7 3.8-3.3 6.1.2 1.1-10-.8-10.7-2-.6-.9-1.1-.8-2.1.4-2.6 3.1-11 .8-11-3.2 0-.7-.4-1.3-1-1.3-.5 0-.7.8-.4 1.8.3.9-.2.4-1.1-1.1-.9-1.6-2.1-2.5-2.7-2.1s-.8.3-.4-.4c.3-.6.2-1.3-.4-1.7s-.5-1.9.5-4.2c1.8-4.3 1.9-6.6.3-6-.7.2-1.2 1-1 1.6.1.7-.3.9-.9.6-.8-.5-.8-1 0-1.8.6-.6 1.1-2.2 1.1-3.5s.8-3.7 1.7-5.2c1.4-2.5 2.1-2.8 4.7-2.3 1.7.3 3.7 1 4.3 1.6 1.4 1 4.7.2 3.9-1.1s6.8-.1 8.5 1.4c1.4 1.3 1.8 1.2 2.9-.1 1-1.3 1-1.9-.4-3.3-.9-1-1.6-2.4-1.6-3s-.9-.9-2-.7-2-.1-2-.6c0-.6-.9-2.2-2-3.6s-2-2.2-2-1.8-.8-.3-1.9-1.6l-1.8-2.3-1.3 2.1c-1.7 2.7-4.8 1.9-4.6-1.2 0-1.3.3-2.3.6-2.3.3.1 1.2-.2 2-.5 3.5-1.4 6.6-1.1 8.3.8 1.7 1.8 1.8 1.8 1.3.2m70-1.8c-.3.5 0 1.4.8 2 1.1.9 1.5.9 1.8 0 .2-.6 2.5-1.5 5.1-1.9s4.5-.5 4.2-.2c-.2.3 1.7 2.6 4.3 5.2 4.1 4.1 4.7 5.1 4.4 8.3-.2 2.1-.7 3.5-1.3 3.2-.5-.4-.9-.1-.9.4 0 .6-.9 1.1-1.9 1.1-1.6 0-3.7 3.9-3.3 6.1 0 .3-1 .4-2.3.1-2-.3-2.5 0-2.5 1.5 0 2.3-3.2 4.1-8 4.5-4.6.4-5.2 3.2-1.3 6.3 2.1 1.7 3.1 2 4.1 1.2.8-.6.9-1.3.3-1.6-.5-.4-.3-1.4.6-2.6 1.5-2 1.5-2 .8.2-.6 2-.3 2.3 2.2 2.3 1.6 0 3.5-.6 4.2-1.3 1-1 1.1-.9.6.4-.3.9 0 2.1.8 2.8 1.1.9 1.7.8 2.8-.6.9-1.1 1-1.4.2-.9q-1.35.75-.6-.9c.4-1.1.8-1.3 1.3-.5.4.6 1.3 1 2.1.8.9-.2 1.5.7 1.7 2.6.2 1.8 0 2.6-.7 2.1-.6-.3-1.1-.1-1.1.4 0 .6-.9 1.1-1.9 1.1-1.6 0-3.7 3.8-3.3 6 .1 1.1-8.4-.3-9.9-1.6-1.4-1.3-1.8-1.2-2.9.1-2.6 3.1-11 .8-11-3 0-1.3-3.6-2.9-5.5-2.5-.5.1-.7-.2-.3-.6s.3-1.2-.2-1.9c-.6-.8-.3-2.4 1-5 1.5-2.8 1.7-4.2.9-5.2-.6-.7-1.4-1.1-1.8-.9-1.8 1.1.4-7.3 2.2-8.5.5-.4-.3-2.4-1.9-4.5s-2.4-3.5-1.8-3.2c.5.4 1.8-.8 2.8-2.7 1-1.8 2.3-3.2 3-2.9.6.2 1.8-.9 2.8-2.5 1.3-2.3 2.5-3.1 5.5-3.4 2.1-.2 3.9-.4 4.1-.5s.1.2-.2.7m42 1.2c2.2 2.1 2.3 2.1 3.4.2 2-3.2 11-.7 11 3.1 0 .6 1.4 1.7 3 2.4 1.7.8 3 2 3 2.9 0 1.6-3.8 5.2-5.5 5.2-.5 0-.2-.4.8-1 1.7-1 1.7-1.2.2-2.9-1.6-1.8-1.9-1.8-4-.2-1.3.9-2 2.1-1.7 2.7.3.5-.2.4-1.1-.4-1.2-.9-1.7-1-1.7-.2 0 .7-1.2.1-2.7-1.3-2.6-2.4-5-2.6-3.7-.3.4.7.4.9-.1.5-.4-.4-1.4-.3-2.2.3-.7.6-1.3.8-1.3.3s-.8.7-1.9 2.6c-1.3 2.5-1.6 3.9-.8 4.8.8 1 1.3 1 2.6-.1 2.9-2.5 5.8-2.6 8.9-.3 1.6 1.1 2.7 2.7 2.5 3.3-.3.7 0 1.3.6 1.3s1.1-.6 1.1-1.3c0-1.3 2.5 2.6 3.6 5.5.3 1 1.2 1.8 1.9 1.8 1.6 0 4.1 3 4.8 5.7.3 1.4-.2 2.8-1.4 3.9-1 .9-1.6 2.1-1.3 2.5.3.5-.2.6-1 .3-1.6-.6-4 2.9-2.8 4.1.4.3.2.6-.3.5-2.2-.5-2.7.1-1.4 1.7 1.2 1.6 1.2 1.7-.1.6-.9-.7-2.9-1.1-4.5-1-2 .2-3.6-.4-4.6-1.7-1.6-2-1.6-2-2.9 0-1.5 2.5-6.9 2.1-9.9-.7-1.2-1.2-2.1-1.5-2.1-.8s-.3.9-.6.6c-.4-.4-.1-1.3.6-2.2 1-1.2 1-1.5-.2-1.5-.8 0-2 .6-2.7 1.2-1.1 1.1-1.2.9-.7-.7.7-2.2-3.2-7.5-5.5-7.5-1.1 0-1.1-.2.1-1 1-.6 1.7-.5 2.3.5.4.8 1.8 1.5 3.1 1.5s2.9.7 3.6 1.5c1.2 1.4 1.5 1.4 3 0 .9-.8 2.9-1.5 4.5-1.5s3.6.7 4.5 1.5c1.5 1.4 1.8 1.4 3 0 .7-.8 1.8-1.5 2.4-1.5 1.7 0 4.9-6.1 3.7-7.3-1.5-1.5-4.4 0-3.7 1.9.5 1.4.4 1.5-.9.4-.8-.7-2.1-1-2.9-.7-.7.3-2.3-.1-3.4-.8-1-.8-2.3-1.1-2.7-.7-.3.4-.6.2-.5-.3.5-2.4-.1-4.5-1.3-4.5-.7 0-2.3-.9-3.5-2-1.3-1.2-2.2-1.6-2.2-.9s-.3.9-.6.6c-.4-.4-.1-1.3.6-2.2 1-1.2 1-1.5-.2-1.5-.8 0-2 .6-2.7 1.2-1.1 1.1-1.2.9-.7-.8.4-1.3.1-2.6-.8-3.3-2-1.7-.2-6.6 3.1-8.8 1.4-.9 2.2-2.2 1.9-3s-.1-1.1.4-.8c.6.3 1 .2 1-.4 0-.8 3.3-2.3 6.9-3 .3-.1 1.5.8 2.7 2m17.8 0c-.8 1.4-2.4 1-2.4-.6 0-.9.6-1.2 1.5-.9.8.4 1.2 1 .9 1.5m-75.9 0c1.1 1.6.1 1.9-1.3.3-.7-.8-.8-1.4-.3-1.4s1.3.5 1.6 1.1M85 23c0 .5-.2 1-.4 1-.3 0-.8-.5-1.1-1-.3-.6-.1-1 .4-1 .6 0 1.1.4 1.1 1m52.6-.1c-.4.5-.2 1.1.4 1.3s.1.9-.9 1.5c-1.5.9-2.2 1-2.7.1-.4-.6-.3-.8.4-.4.6.3 1.3.2 1.7-.3.3-.5-.3-1.4-1.2-2-1.6-.9-1.6-1 .5-1.1 1.3 0 2.1.4 1.8.9m-85.6.5c0 .3-.4.8-1 1.1-.5.3-1 .1-1-.4 0-.6.5-1.1 1-1.1.6 0 1 .2 1 .4m78.7 1.1c0 .8-.4 1.2-.9.9s-.6-1-.3-1.5c.9-1.3 1.2-1.1 1.2.6m79.3-.1c0 .2-.7.7-1.6 1-.8.3-1.2.2-.9-.4.6-1 2.5-1.4 2.5-.6m31.1 1.9c-1 .9-1.1.8-.5-.6.3-1 .9-1.5 1.2-1.2s0 1.1-.7 1.8m-231.6.5c-.3.3-1.1 0-1.8-.7-.9-1-.8-1.1.6-.5 1 .3 1.5.9 1.2 1.2m24 0c-.3.3-1.1 0-1.8-.7-.9-1-.8-1.1.6-.5 1 .3 1.5.9 1.2 1.2M177 26c.8.5 1.1 1 .5 1-.5 0-1.7-.5-2.5-1s-1-1-.5-1c.6 0 1.7.5 2.5 1m72.6.5c-.3 2-1.6 3.1-1.6 1.3 0-1.3.8-2.8 1.6-2.8.1 0 .1.7 0 1.5m-198.8 2c-.3.3-.9-.2-1.2-1.2-.6-1.4-.5-1.5.5-.6.7.7 1 1.5.7 1.8m123.9.7c-.3.8-.6.5-.6-.6-.1-1.1.2-1.7.5-1.3.3.3.4 1.2.1 1.9m29-.7c0 .8-.4 1.2-.9.9s-.6-1-.3-1.5c.9-1.3 1.2-1.1 1.2.6m43 .7c-.3.8-.6.5-.6-.6-.1-1.1.2-1.7.5-1.3.3.3.4 1.2.1 1.9m-224-.6c-.3.3-1.2.4-1.9.1-.8-.3-.5-.6.6-.6 1.1-.1 1.7.2 1.3.5m24 0c-.3.3-1.2.4-1.9.1-.8-.3-.5-.6.6-.6 1.1-.1 1.7.2 1.3.5m85.8 7.1c-.1 1 .2 2.7.7 3.8.7 1.6.5 1.5-1.2-.4-1.6-1.8-1.8-2.7-.9-3.7 1.5-1.8 1.8-1.8 1.4.3m-42 2.3c.3.5.1 1-.4 1-.6 0-1.1-.5-1.1-1 0-.6.2-1 .4-1 .3 0 .8.4 1.1 1m-1 4.9c.3.5.2 1.2-.3 1.5s-.9-.1-.9-.9c0-1.7.3-1.9 1.2-.6M198 45c.8.5 1.2 1.1 1 1.4-.3.2-1.4-.2-2.4-1-2.2-1.5-1-1.9 1.4-.4m6 0c.8.5 1.1 1.3.6 1.7s-1.1.2-1.3-.5c-.3-.6-.9-1-1.4-.6-.5.3-.9 0-.9-.5 0-1.3 1-1.4 3-.1m78.4 1.1c-.8 1.4-2.4 1-2.4-.6 0-.9.6-1.2 1.5-.9.8.4 1.2 1 .9 1.5m-90 1.4c-.4.8-1.1 1.2-1.6.9-.6-.4-.5-1 .3-1.5 1.9-1.2 1.9-1.1 1.3.6M9.5 50.8c-.3.3-1.1 0-1.8-.7-.9-1-.8-1.1.6-.5 1 .3 1.5.9 1.2 1.2m24 0c-.3.3-1.1 0-1.8-.7-.9-1-.8-1.1.6-.5 1 .3 1.5.9 1.2 1.2m144 0c-.3.3-1.1 0-1.8-.7-.9-1-.8-1.1.6-.5 1 .3 1.5.9 1.2 1.2m80.7.8c-.3 1.6-.1 2.5.5 2.1.5-.3 1 0 1 .8 0 2.5-1.4 1.7-2.5-1.4-1-2.8-.7-4.1.8-4.1.4 0 .5 1.2.2 2.6m-128.6-.1c.9.8 1.1 1.5.6 1.5s-1.5-.7-2.2-1.5-.9-1.5-.6-1.5c.4 0 1.4.7 2.2 1.5m108.7.5c-.4 1.7-.8 1.8-2 .8-1.3-1-1.3-1.3.4-1.9 1-.4 1.9-.8 2-.8 0-.1-.1.8-.4 1.9m17.2 2c.4.6.3 1-.2.9-2-.3-2.7.2-1.3 1.1.8.5 1.1 1.2.7 1.7-1.1 1-2.7-1.7-2-3.4.6-1.6 1.9-1.7 2.8-.3M48 54.4c0 .3-.4.8-1 1.1-.5.3-1 .1-1-.4 0-.6.5-1.1 1-1.1.6 0 1 .2 1 .4M91 64c-.7.5-2 .6-2.8.3-1.2-.5-1.2-.7.1-1.5 1-.5 1.4-1.6 1-2.6-.3-1 .1-.8 1.2.7 1.4 1.8 1.5 2.5.5 3.1m-44.4 2.6c.2 1.1-.1 1.2-1 .5s-1.6-.7-2.4.1c-.7.7-1.2.8-1.2.4 0-1.1 3.3-3.6 3.9-3 .3.3.6 1.1.7 2m239.1-1.1c0 .8-.3 1.3-.5 1-.3-.3-1.1 0-1.9.6-.7.6-1.3.8-1.3.4 0-.6 2.6-3.1 3.6-3.5 0 0 .1.7.1 1.5m-200 1c0 .8-.4 1.5-.9 1.5-1 0-1.1-1.4-.1-2.3.9-1 1-.9 1 .8m40.4 1.2c1.3 1.6 1.2 1.7-.3.4-1-.7-1.8-1.5-1.8-1.7 0-.8.8-.3 2.1 1.3m72 0c1.3 1.6 1.2 1.7-.3.4-1.7-1.3-2.2-2.1-1.4-2.1.2 0 1 .8 1.7 1.7M122 71.5c0 .8-.4 1.5-1 1.5-.5 0-.7-.7-.4-1.5.4-.8.8-1.5 1-1.5s.4.7.4 1.5m72 0c0 .8-.4 1.5-1 1.5-.5 0-.7-.7-.4-1.5.4-.8.8-1.5 1-1.5s.4.7.4 1.5M37.1 72.7c1.3 1.6 1.2 1.7-.3.4-1.7-1.3-2.2-2.1-1.4-2.1.2 0 1 .8 1.7 1.7m63.5.8c.1 1.4-.2 2.5-.8 2.5-.5 0-.6-.5-.3-1 .3-.6.2-1-.4-1s-.8-.7-.5-1.5c.9-2.3 1.9-1.8 2 1m8.5-.8c1.3 1.6 1.2 1.7-.3.4-1-.7-1.8-1.5-1.8-1.7 0-.8.8-.3 2.1 1.3m44 .6c-1 .9-1.1.8-.5-.6.3-1 .9-1.5 1.2-1.2s0 1.1-.7 1.8m72 0c-1 .9-1.1.8-.5-.6.3-1 .9-1.5 1.2-1.2s0 1.1-.7 1.8m52-.6c1.3 1.6 1.2 1.7-.3.4-1.7-1.3-2.2-2.1-1.4-2.1.2 0 1 .8 1.7 1.7m-258.5.8c-.3.8 0 1.5.6 1.5s.9.3.5.6c-1 1.1-2.6-.6-2-2.1.3-.8.7-1.5 1-1.5s.3.7-.1 1.5m86.4 2.1c0 .3-.7.1-1.5-.6s-1.5-1.7-1.5-2.2.7-.3 1.5.6c.8.8 1.5 1.8 1.5 2.2m9.6-2.1c-.3.8 0 1.5.6 1.5s.9.3.5.6c-1 1.1-2.6-.6-2-2.1.3-.8.7-1.5 1-1.5s.3.7-.1 1.5m72 0c-.3.8 0 1.5.6 1.5s.9.3.5.6c-1 1.1-2.6-.6-2-2.1.3-.8.7-1.5 1-1.5s.3.7-.1 1.5m72 0c-.3.8 0 1.5.6 1.5s.9.3.5.6c-1 1.1-2.6-.6-2-2.1.3-.8.7-1.5 1-1.5s.3.7-.1 1.5M30 75c0 .5-.2 1-.4 1-.3 0-.8-.5-1.1-1-.3-.6-.1-1 .4-1 .6 0 1.1.4 1.1 1m3 0c0 .5-.2 1-.4 1-.3 0-.8-.5-1.1-1-.3-.6-.1-1 .4-1 .6 0 1.1.4 1.1 1m133.5 0c-.3.5-1.4 1-2.3.9-1.4 0-1.3-.2.3-.9 2.7-1.1 2.7-1.1 2 0m72 0c-.3.5-1.4 1-2.3.9-1.4 0-1.3-.2.3-.9 2.7-1.1 2.7-1.1 2 0m31.5 0c0 .5-.2 1-.4 1-.3 0-.8-.5-1.1-1-.3-.6-.1-1 .4-1 .6 0 1.1.4 1.1 1m3 0c0 .5-.2 1-.4 1-.3 0-.8-.5-1.1-1-.3-.6-.1-1 .4-1 .6 0 1.1.4 1.1 1M49 85c0 .5-.2 1-.4 1-.3 0-.8-.5-1.1-1-.3-.6-.1-1 .4-1 .6 0 1.1.4 1.1 1m9 8c0 .5-.5 1-1.1 1-.5 0-.7-.5-.4-1 .3-.6.8-1 1.1-1 .2 0 .4.4.4 1"/><path d="M121 7.4c-1 1.3-1 1.9 0 3.2 1.2 1.4 1.5 1.4 2.9 0 1.4-1.5 1.4-1.7 0-3.2-1.4-1.4-1.7-1.4-2.9 0m0 12c-1 1.3-1 1.9 0 3.1 1.1 1.3 1.4 1.3 2.7-.1 1.4-1.4 1.4-1.7.1-3s-1.6-1.3-2.8 0m-18 6.1c-1.1 1.4-1.1 1.8.2 3.1 1.2 1.3 1.6 1.3 2.6.1.9-1 .9-1.8-.1-3.1-1.2-1.6-1.4-1.7-2.7-.1m-6 5.9c-1 1.3-1 1.9 0 3.2 1.2 1.4 1.5 1.4 2.9 0 1.4-1.5 1.4-1.7 0-3.2-1.4-1.4-1.7-1.4-2.9 0m12 .1c-.7.8-1.9 1.5-2.6 1.5-1 0-1.3.8-.8 2.7.4 1.9.2 2.4-.4 1.5-.7-1-1.1-1-2.2.3s-1 1.8.4 3.3c.9 1 1.6 2.4 1.6 3.1 0 .8.6 1.1 1.8.6 1.4-.5 1.4-.3-.3 1.4-5.1 5.1-5.1 5-.6 9.2 2.2 2.2 4.1 3.5 4.1 3 0-.6.8-.7 1.7-.4 1.2.5 1.5.2 1-1-.3-.9.1-2.1 1.1-2.9 1.5-1.1 1.5-1.1.5.3-1.3 1.6-.8 2.9.9 2.9.5 0 .6-.5.3-1-.3-.6-.2-1 .2-1 .5 0 1.4-.9 2.1-2.1 1-1.6 1-2.4.1-3.5-.6-.7-1.5-1.1-2-.8s-.6-.2-.3-1c.4-.9.1-1.6-.6-1.6-.9 0-.7-.6.4-1.9 1-1.1 1.5-2.4 1.2-3-.4-.5-.1-1.3.5-1.7.8-.5.9-.3.4.7-.7 1.2-.6 1.2.6.1s1.1-1.5-.3-2.3c-1-.6-1.8-1.9-1.8-2.9 0-1.1-.5-2-1.2-2-.6 0-1.9-.7-2.8-1.5-1.5-1.4-1.8-1.4-3 0m5.4 3.3c.3.5-.1.9-.9.9s-1.2-.4-.9-.9c.3-.4.7-.8.9-.8s.6.4.9.8m.1 3.2c.3.5.1 1-.4 1-.6 0-1.1-.5-1.1-1 0-.6.2-1 .4-1 .3 0 .8.4 1.1 1m-4 3c.3.5-.1 1-.9 1-.9 0-1.6-.5-1.6-1 0-.6.4-1 .9-1 .6 0 1.3.4 1.6 1m3 1.9c.3.5.2 1.2-.3 1.5s-.9-.1-.9-.9c0-1.7.3-1.9 1.2-.6m-6.8 5.6c0 .8-.4 1.2-.9.9s-.6-1-.3-1.5c.9-1.3 1.2-1.1 1.2.6M121 31.4c-1 1.3-1 1.9 0 3.2 1.2 1.4 1.5 1.4 2.9 0 1.4-1.5 1.4-1.7 0-3.2-1.4-1.4-1.7-1.4-2.9 0m-24 12c-1 1.3-1 1.9 0 3.1 1.1 1.3 1.4 1.3 2.7-.1 1.4-1.4 1.4-1.7.1-3s-1.6-1.3-2.8 0m24 0c-1 1.3-1 1.9 0 3.1 1.1 1.3 1.4 1.3 2.7-.1 1.4-1.4 1.4-1.7.1-3s-1.6-1.3-2.8 0m-24 12c-1 1.3-1 1.9 0 3.2 1.2 1.4 1.5 1.4 2.9 0 1.4-1.5 1.4-1.7 0-3.2-1.4-1.4-1.7-1.4-2.9 0m24 0c-1 1.3-1 1.9 0 3.2 1.2 1.4 1.5 1.4 2.9 0 1.4-1.5 1.4-1.7 0-3.2-1.4-1.4-1.7-1.4-2.9 0m-18 6c-1 1.3-1 1.9 0 3.2 1.2 1.4 1.5 1.4 2.9 0 1.4-1.5 1.4-1.7 0-3.2-1.4-1.4-1.7-1.4-2.9 0m12 0c-1 1.3-1 1.9 0 3.2 1.2 1.4 1.5 1.4 2.9 0 1.4-1.5 1.4-1.7 0-3.2-1.4-1.4-1.7-1.4-2.9 0M12.4 20.1c-.3.6 0 1.7.8 2.5 1.3 1.3 1.6 1.3 2.7 0 .7-.8 1-2 .6-2.6-.8-1.3-3.2-1.3-4.1.1m24 0c-.3.6 0 1.7.8 2.5 1.3 1.3 1.6 1.3 2.7 0 .7-.8 1-2 .6-2.6-.8-1.3-3.2-1.3-4.1.1M13.1 31.9c-1 1.7-.9 2.2.4 2.7 2.6 1 4.2-1.3 2.3-3.2-1.5-1.5-1.7-1.5-2.7.5m24 0c-1 1.7-.9 2.2.4 2.7 2.6 1 4.2-1.3 2.3-3.2-1.5-1.5-1.7-1.5-2.7.5M12.4 44.1c-.3.6 0 1.7.8 2.5 1.3 1.3 1.6 1.3 2.7 0 .7-.8 1-2 .6-2.6-.8-1.3-3.2-1.3-4.1.1m24 0c-.3.6 0 1.7.8 2.5 1.3 1.3 1.6 1.3 2.7 0 .7-.8 1-2 .6-2.6-.8-1.3-3.2-1.3-4.1.1M13.1 55.9c-1 1.7-.9 2.2.4 2.7 2.6 1 4.2-1.3 2.3-3.2-1.5-1.5-1.7-1.5-2.7.5m23.9-.4c-2 2.4.4 4.5 2.6 2.4 1.3-1.4 1.3-1.7.1-2.7-1.1-1-1.7-.9-2.7.3m2.5.4c.3.5.2 1.2-.3 1.5s-.9-.1-.9-.9c0-1.7.3-1.9 1.2-.6M19 61.4c-1 1.3-1 1.9 0 3.2 1.2 1.4 1.5 1.4 2.9 0 1.4-1.5 1.4-1.7 0-3.2-1.4-1.4-1.7-1.4-2.9 0m11.9.2c-1 1.2-1 1.8.3 3 1.3 1.3 1.6 1.3 2.8 0 .9-1.2.9-1.6.1-1.6-.7 0-1-.4-.6-.9 1-1.7-1.2-2.1-2.6-.5m149.5-41.5c-.3.6 0 1.7.8 2.5 1.3 1.3 1.6 1.3 2.7 0 .7-.8 1-2 .6-2.6-.8-1.3-3.2-1.3-4.1.1m6.6 5.3c-1 1.3-1 1.9 0 3.2 1.2 1.4 1.5 1.4 2.9 0 1.4-1.5 1.4-1.7 0-3.2-1.4-1.4-1.7-1.4-2.9 0m-6 6.6c-.9 1.6-.8 2.2.5 2.6 2.6 1 4.1-1.2 2.2-3.1-1.5-1.4-1.7-1.4-2.7.5m-.6 12.1c-.3.6 0 1.7.8 2.5 1.3 1.3 1.6 1.3 2.7 0 .7-.8 1-2 .6-2.6-.8-1.3-3.2-1.3-4.1.1m.7 11.8c-1 1.7-.9 2.2.4 2.7 2.6 1 4.2-1.3 2.3-3.2-1.5-1.5-1.7-1.5-2.7.5m11.9-.5c-1 1.3-1 1.9 0 3.2 1.2 1.4 1.5 1.4 2.9 0 1.4-1.5 1.4-1.7 0-3.2-1.4-1.4-1.7-1.4-2.9 0m-6 6c-1 1.3-1 1.9 0 3.2 1.2 1.4 1.5 1.4 2.9 0 1.4-1.5 1.4-1.7 0-3.2-1.4-1.4-1.7-1.4-2.9 0M62.3 25.2c.4 1.2.2 1.5-.9 1.1-1.8-.7-1.8 1.1 0 2.6 1.2 1 1.7.8 2.5-.7s.7-2.3-.6-3.3c-1.5-1.2-1.6-1.2-1 .3m10.8.6c-.8 1.5-.7 2.1.4 2.6q1.5.45 1.5-1.2c0-1.5.2-1.5 1-.2.5.8 1 1 1 .4s-.6-1.7-1.4-2.3c-1.2-1-1.7-.8-2.5.7m-17.9 5.4c-.7.7-1.2 1.7-1.2 2.2 0 .6.5.4 1-.4.8-1.2 1-1 1 1 0 2.3.1 2.3 1.7.7 1.5-1.5 1.6-1.9.2-3.2-1.2-1.2-1.7-1.3-2.7-.3m23.8.2c-1 1.3-1 1.9 0 3.1 1.1 1.3 1.4 1.3 2.7-.1 1.4-1.4 1.4-1.7.1-3s-1.6-1.3-2.8 0m-12.3.3c-.4.3-.1 1.3.5 2.2 1 1.3 1 1.4-.2.3-1.9-1.6-4-1.5-4 .2 0 .7-.7 1.9-1.5 2.6-1.4 1.2-1.4 1.5 0 3.6 2 3 1.9 6.3-.1 8.6-1.4 1.4-1.4 2-.4 3.3.7.8 1.6 1.3 2 1 .5-.3 1.2 0 1.6.6.4.8.3.9-.4.5s-1.2-.1-1.2.8c0 1.9 1.2 2 2.9.3 1-1 1.1-.9.6.4-.3.9 0 2.1.8 2.8 1.1.9 1.7.8 2.8-.6.9-1.1 1-1.4.2-.9-.9.5-1.1.2-.6-1 .4-1.1.8-1.3 1.1-.6.2.7 1 1.2 1.8 1.2.9 0 1.2-.5.9-1-.3-.6-.1-1 .6-1 .8 0 .8-.4-.1-1.5-1.1-1.3-1-1.4.3-1 2.2.9 3.1-1.4 1.3-3.4-.9-1-1.6-2.6-1.6-3.7s-.6-2.6-1.2-3.4c-1.1-1.2-1-1.2.2-.3 1.3 1 1.8.8 2.9-.8 1-1.7 1-2.4-.3-3.8-.9-1-1.6-2.2-1.6-2.7s-1.2-1.5-2.7-2.2c-3.1-1.4-3.7-1.5-4.6-.5M70 53c0 .5-.2 1-.4 1-.3 0-.8-.5-1.1-1-.3-.6-.1-1 .4-1 .6 0 1.1.4 1.1 1m-15-9.6c-1 1.3-1 1.9 0 3.2 1.2 1.4 1.5 1.4 2.9 0 1.4-1.5 1.4-1.7 0-3.2-1.4-1.4-1.7-1.4-2.9 0m24 0c-1 1.3-1 1.9 0 3.2 1.2 1.4 1.5 1.4 2.9 0 1.4-1.5 1.4-1.7 0-3.2-1.4-1.4-1.7-1.4-2.9 0m1.4 12c.5 1.4.2 1.7-.9 1.2-1.9-.7-2 .8-.1 2.3 1 .9 1.6.8 2.6-.4 1.1-1.3 1-1.9-.5-3.3-1.7-1.6-1.7-1.6-1.1.2m-25.9.6c-.4.6-.1 1.8.6 2.6 1.2 1.4 1.4 1.4 2.6-.2 1-1.4 1-1.9 0-2.6-1.6-1-2.5-1-3.2.2m18.6 5.3c-.8 1-.7 1.8.3 3.2 1.3 1.8 1.4 1.8 2.4-.2 1.5-2.7-.8-5.2-2.7-3m-18 6.6c-1 1.7-.9 2.1.4 2.1 1 0 1.3.5.9 1.2s.2.5 1.2-.5c1.7-1.6 1.7-1.8.2-3.3s-1.7-1.5-2.7.5m-.2 11.7c-1.2 1.6-1.2 1.7.5 1.1 1.6-.6 1.7-.5.7.7-.7.8-.8 1.7-.3 2 .6.3 1.5-.1 2.3-1 1-1.2 1-1.8-.3-3-1.3-1.3-1.6-1.3-2.9.2M157 25.5c-1.7 2.1.6 5.1 2.6 3.4 1.5-1.2.9-3.3-.7-2.4-.5.3-.6-.1-.3-.9.8-2 0-2-1.6-.1m6 5.9c-1 1.3-1 1.9 0 3.2 1.2 1.4 1.5 1.4 2.9 0 1.4-1.5 1.4-1.7 0-3.2-1.4-1.4-1.7-1.4-2.9 0m0 12c-1 1.3-1 1.9 0 3.2 1.2 1.4 1.5 1.4 2.9 0 1.4-1.5 1.4-1.7 0-3.2-1.4-1.4-1.7-1.4-2.9 0m-24.6.7c-.3.6 0 1.7.8 2.5 1.3 1.3 1.6 1.3 2.7 0 .7-.8 1-2 .6-2.6-.8-1.3-3.2-1.3-4.1.1M152 44c0 .5-.3.9-.7.9-2.5-.4-4 .5-5.5 3.6-1.5 2.9-1.5 3.5-.2 4.5.8.7 1.4 1.9 1.4 2.7 0 1 .7 1.4 2 1 1.1-.3 1.8-.2 1.5.3-.3.4.2 1.3 1 2 1.2 1 1.6.9 2.1-.4.3-.9 1.5-1.6 2.6-1.6 1.7 0 1.8-.2.8-1.5-.7-.9-1-1.8-.6-2.2.3-.3.6-.1.6.5 0 .7.5 1.2 1.1 1.2.5 0 .7-.5.4-1-.3-.6-.1-1 .4-1 .6 0 1.1-.9 1.1-2 0-2.1-3.6-4.2-5.5-3.2-.5.3-.4-.1.2-.8.9-1 1-1.7.2-2.7-1.3-1.5-2.9-1.7-2.9-.3m1.5 6c.3.5.1 1-.4 1-.6 0-1.1-.5-1.1-1 0-.6.2-1 .4-1 .3 0 .8.4 1.1 1m-3.5 2.6c0 .8-.5 1.2-1 .9-.6-.4-.8-1.1-.5-1.6.9-1.4 1.5-1.1 1.5.7m2.7 1.6c-.3.8-.6.5-.6-.6-.1-1.1.2-1.7.5-1.3.3.3.4 1.2.1 1.9"/><path d="M156.5 46c-.3.5-.1 1 .4 1 .6 0 1.1-.5 1.1-1 0-.6-.2-1-.4-1-.3 0-.8.4-1.1 1M139 55.4c-1 1.3-1 1.9 0 3.2 1.2 1.4 1.5 1.4 2.9 0 1.4-1.5 1.4-1.7 0-3.2-1.4-1.4-1.7-1.4-2.9 0m24.2.2c-1.1 1.2-1.1 1.8-.1 3 1.1 1.3 1.4 1.3 2.8 0 1.3-1.4 1.3-1.8.1-3-1.3-1.3-1.7-1.2-2.8 0m-18.1 5.7c-.8 1-.7 1.8.3 3.2 1.3 1.8 1.4 1.8 2.4-.2 1.5-2.7-.8-5.2-2.7-3m11.9.2c-1.1 1.4-1.1 1.8.2 3.1 1.2 1.3 1.6 1.3 2.6.1.9-1 .9-1.8-.1-3.1-1.2-1.6-1.4-1.7-2.7-.1m60.2-36.3c-1.3 1.3-.4 3.8 1.3 3.8 2.1 0 2.8-1.9 1.2-3.4-1-1-1.7-1.2-2.5-.4m11.8.2c-.9 1.2-.9 1.6-.1 1.6.7 0 .9.4.6 1-.3.5.1 1 .9 1 2.2 0 3-2 1.4-3.6-1.3-1.3-1.6-1.3-2.8 0m-18 6.1c-1.1 1.3-1.1 1.9.2 3.2 1.5 1.4 1.7 1.3 2.7-.5 1.5-2.7-1-5-2.9-2.7m12 0c-.7.8-1.9 1.5-2.6 1.5-1.2 0-1.9 1.9-1.5 4.3.1.5-.3.6-.8.3-1.8-1.1-2.3 1.5-.7 3.3.9 1 1.6 2.3 1.6 2.9 0 1.1 2.1 1.7 4.3 1.3.5-.1.6.3.3.8-1.1 1.6 1.1 2.2 2.4.6.7-.8 1.9-1.5 2.7-1.5 1 0 1.3-.6.9-1.6-.3-.8-.2-1.3.2-1s1.3-.4 2-1.4c.9-1.5.7-2.3-.8-4.3-1.1-1.3-1.6-2.7-1.3-3.1.3-.3-.1-.6-1-.6-.8 0-2.2-.7-3-1.5-1.3-1.3-1.6-1.3-2.7 0m.4 8.3c.3.5-.1.9-.9.9s-1.2-.4-.9-.9c.3-.4.7-.8.9-.8s.6.4.9.8m11.6-8.3c-1.1 1.3-1.1 1.9.2 3.2 1.5 1.4 1.7 1.3 2.7-.5 1.5-2.7-1-5-2.9-2.7m-23 11.8c0 1-.4 1.5-1 1.2-1.5-.9-1.2 1.1.4 2.4 1 .9 1.6.8 2.6-.4 1.1-1.3 1-1.9-.3-3.3-1.6-1.5-1.7-1.5-1.7.1m5.2 6c-.6.7-.7 1.9-.3 2.6.6.9 1.1 1 1.5.2.4-.6.4-1.1-.1-1.1-.4 0-.2-.4.6-.9s.9-1.1.3-1.5c-.5-.3-1.4 0-2 .7m-6.2 6.2c-1.1 1.3-1.1 1.9.2 3.2 1.5 1.4 1.7 1.3 2.7-.5 1.5-2.7-1-5-2.9-2.7m6.1 5.8c-.8 1-.7 1.8.3 3.2 1.3 1.8 1.4 1.8 2.4-.2 1.5-2.7-.8-5.2-2.7-3m11.9.2c-1.1 1.4-1.1 1.8.2 3.1 1.2 1.3 1.6 1.3 2.6.1.9-1 .9-1.8-.1-3.1-1.2-1.6-1.4-1.7-2.7-.1m30-36.1c-1 1.3-1 1.9 0 3.2 1.2 1.4 1.5 1.4 2.9 0 1.4-1.5 1.4-1.7 0-3.2-1.4-1.4-1.7-1.4-2.9 0m12 .1c-1.1 1.4-1.1 1.8.2 3.1 1.2 1.3 1.6 1.3 2.6.1.9-1 .9-1.8-.1-3.1-1.2-1.6-1.4-1.7-2.7-.1M253 32c-.9 1.6-.8 2.2.5 2.6 2.6 1 4.1-1.2 2.2-3.1-1.5-1.4-1.7-1.4-2.7.5m12 11.4c-1 1.3-1 1.9 0 3.2 1.2 1.4 1.5 1.4 2.9 0 1.4-1.5 1.4-1.7 0-3.2-1.4-1.4-1.7-1.4-2.9 0m12 12.1c-2 2.4.4 4.5 2.6 2.4 1.3-1.4 1.3-1.7.1-2.7-1.1-1-1.7-.9-2.7.3m2.5.4c.3.5.2 1.2-.3 1.5s-.9-.1-.9-.9c0-1.7.3-1.9 1.2-.6M259 61.4c-1 1.3-1 1.9 0 3.2 1.2 1.4 1.5 1.4 2.9 0 1.4-1.5 1.4-1.7 0-3.2-1.4-1.4-1.7-1.4-2.9 0m11.9.2c-1 1.2-1 1.8.3 3 1.3 1.3 1.6 1.3 2.8 0 .9-1.2.9-1.6.1-1.6-.7 0-1-.4-.6-.9 1-1.7-1.2-2.1-2.6-.5"/>
</g><path fill="#BFBFBF" d="M13.6 5.5c-.8.9-1.3 2.2-1 3 .8 1.9 2 1.9 2.7.1.4-1.1.1-1.3-1-.9q-1.65.75-.9-.6c.5-.7 1.7-1 2.8-.8 1.6.4 1.7.3.7-.9-1.4-1.7-1.4-1.7-3.3.1m7-.3c.3.5 1 .6 1.5.3 1.3-.9 1.1-1.2-.6-1.2-.8 0-1.2.4-.9.9m17 .3c-.8.9-1.3 2.2-1 3 .8 1.9 2 1.9 2.7.1.4-1.1.1-1.3-1-.9q-1.65.75-.9-.6c.5-.7 1.7-1 2.8-.8 1.6.4 1.7.3.7-.9-1.4-1.7-1.4-1.7-3.3.1m7-.3c.3.5 1 .6 1.5.3 1.3-.9 1.1-1.2-.6-1.2-.8 0-1.2.4-.9.9m84.8-.4c.3.5 0 1.3-.6 1.5-.9.4-1 .6-.1.6 1.7.1 2.5-1.6 1.2-2.5-.7-.4-.9-.3-.5.4m52.2.7c-.8.9-1.3 2.2-1 3 .8 1.9 2 1.9 2.7.1.4-1.1.1-1.3-1-.9q-1.65.75-.9-.6c.5-.7 1.7-1 2.8-.8 1.6.4 1.7.3.7-.9-1.4-1.7-1.4-1.7-3.3.1m7-.3c.3.5 1 .6 1.5.3 1.3-.9 1.1-1.2-.6-1.2-.8 0-1.2.4-.9.9M21 9.1c0 .5.5.7 1 .4.6-.3 1-.8 1-1.1 0-.2-.4-.4-1-.4-.5 0-1 .5-1 1.1m24 0c0 .5.5.7 1 .4.6-.3 1-.8 1-1.1 0-.2-.4-.4-1-.4-.5 0-1 .5-1 1.1m144 0c0 .5.5.7 1 .4.6-.3 1-.8 1-1.1 0-.2-.4-.4-1-.4-.5 0-1 .5-1 1.1m-57.3 1.6c-1 .9-.9 2.3.1 2.3.5 0 .9-.7.9-1.5 0-1.7-.1-1.8-1-.8M116 11.9c0 .6.4 1.3 1 1.6s.7-.1.4-.9c-.7-1.8-1.4-2.1-1.4-.7m12.6.4c.3 1 .9 1.5 1.2 1.2s0-1.1-.7-1.8c-1-.9-1.1-.8-.5.6M113 14c0 .5.5 1 1.1 1 .5 0 .7-.5.4-1-.3-.6-.8-1-1.1-1-.2 0-.4.4-.4 1m19 3c0 .5.7 1 1.6 1 .8 0 1.2-.5.9-1-.3-.6-1-1-1.6-1-.5 0-.9.4-.9 1m-20 1.4c0 .2.8 1 1.8 1.7 1.5 1.3 1.6 1.2.3-.4s-2.1-2.1-2.1-1.3m-12.4 2.8c.3.5 1 .6 1.5.3 1.3-.9 1.1-1.2-.6-1.2-.8 0-1.2.4-.9.9M130 21c-.9.6-1 1-.3 1 .6 0 1.5-.5 1.8-1 .8-1.2.4-1.2-1.5 0m30.5 0c.3.5.8 1 1.1 1 .2 0 .4-.5.4-1 0-.6-.5-1-1.1-1-.5 0-.7.4-.4 1m100.5-.6c0 .2.7.7 1.6 1 .8.3 1.2.2.9-.4-.6-1-2.5-1.4-2.5-.6m19 1.1c0 1.6 1.6 2 2.4.6.3-.5-.1-1.1-.9-1.5-.9-.3-1.5 0-1.5.9m-74.8.9c.7.8 1.5 1.2 1.7 1.1.5-.6-1-2.5-2-2.5-.5 0-.4.6.3 1.4M83.5 23c.3.5.8 1 1.1 1 .2 0 .4-.5.4-1 0-.6-.5-1-1.1-1-.5 0-.7.4-.4 1m30.1.1c.3.5 1 .7 1.5.4.9-.6 1.2.5 1 4l-.1 2 .9-2c1-2.4 0-4.8-2.3-5.1-.9-.1-1.4.2-1 .7m21.7 0c.9.6 1.5 1.5 1.2 2-.4.5-1.1.6-1.7.3-.7-.4-.8-.2-.4.4.5.9 1.2.8 2.7-.1 1-.6 1.5-1.3.9-1.5s-.8-.8-.4-1.3c.3-.5-.5-.9-1.8-.9-2.1.1-2.1.2-.5 1.1m-85.3 1c0 .5.5.7 1 .4.6-.3 1-.8 1-1.1 0-.2-.4-.4-1-.4-.5 0-1 .5-1 1.1m78-.6c0 .2.6.8 1.3 1.4 1 .8 1.4.7 1.4-.2 0-.8-.6-1.4-1.4-1.4-.7 0-1.3.1-1.3.2m72.7 1.6c.4 1.3.8 1.8 1.1 1 .2-.7-.1-1.8-.6-2.3-.8-.8-.9-.4-.5 1.3m-32.6 1.2c-1.3 2.1-1.2 2.1.5.5 1-1 1.6-2 1.3-2.2-.3-.3-1.1.5-1.8 1.7m39.4-1.3c-.3.6.1.7.9.4 1.8-.7 2.1-1.4.7-1.4-.6 0-1.3.4-1.6 1m30 1c1.4 1.5 2.1 1.7 3.2.9.7-.6 1.3-1.6 1.3-2.2s-.7-.2-1.5.9c-.8 1-1.5 1.4-1.5.8 0-.7-.8-1.5-1.7-1.8-1.5-.6-1.5-.4.2 1.4m-229.8.1c.7.7 1.5 1 1.8.7s-.2-.9-1.2-1.2c-1.4-.6-1.5-.5-.6.5m24 0c.7.7 1.5 1 1.8.7s-.2-.9-1.2-1.2c-1.4-.6-1.5-.5-.6.5m126.9-.3c-.3.5.1.9.9.9s1.2-.4.9-.9c-.3-.4-.7-.8-.9-.8s-.6.4-.9.8m16.4.2c.8.5 2 1 2.5 1 .6 0 .3-.5-.5-1s-1.9-1-2.5-1c-.5 0-.3.5.5 1m73.7-.3c-.4.3-.7 1.3-.7 2.1 0 1.8 1.3.7 1.6-1.3.2-1.7.1-1.8-.9-.8M49.6 27.3c.3 1 .9 1.5 1.2 1.2s0-1.1-.7-1.8c-1-.9-1.1-.8-.5.6m25.5 0c-.1 1-.5 1.5-1.1 1.2-.6-.4-.7.1-.3 1.1.6 1.5.7 1.5 1.5 0 .5-.9.7-2.2.4-2.9-.2-.7-.5-.4-.5.6m10.2 0c0 .8.6 1.4 1.4 1.4.9 0 1-.4.2-1.4-.6-.7-1.2-1.3-1.4-1.3-.1 0-.2.6-.2 1.3m65.7.6c0 .6.4 1.3 1 1.6s.7-.1.4-.9c-.7-1.8-1.4-2.1-1.4-.7m23.1.7c0 1.1.3 1.4.6.6.3-.7.2-1.6-.1-1.9-.3-.4-.6.2-.5 1.3m28.4-.7c-.3.5-.2 1.2.3 1.5s.9-.1.9-.9c0-1.7-.3-1.9-1.2-.6m25.3-.2c.7.3 1.6.2 1.9-.1.4-.3-.2-.6-1.3-.5-1.1 0-1.4.3-.6.6m18.3.9c0 1.1.3 1.4.6.6.3-.7.2-1.6-.1-1.9-.3-.4-.6.2-.5 1.3m-225.3.1c.7.3 1.6.2 1.9-.1.4-.3-.2-.6-1.3-.5-1.1 0-1.4.3-.6.6m24 0c.7.3 1.6.2 1.9-.1.4-.3-.2-.6-1.3-.5-1.1 0-1.4.3-.6.6m84.6.1c.3.5 0 1.3-.6 1.5-.9.4-1 .6-.1.6 1.7.1 2.5-1.6 1.2-2.5-.7-.4-.9-.3-.5.4m-83.3 2.6c-.9 1-.9 1.6-.1 2.1.6.4 1.4.4 1.7.1.4-.3.1-.6-.7-.6-1 0-1-.3 0-1.5.7-.8 1-1.5.7-1.5-.2 0-1 .6-1.6 1.4m154.6-.3c.7.7 1.5 1 1.8.7s-.2-.9-1.2-1.2c-1.4-.6-1.5-.5-.6.5m-179.2.8c-.3.5-.2 1.2.3 1.5s.9-.1.9-.9c0-1.7-.3-1.9-1.2-.6m33.6 1.7c0 1.1.3 1.4.6.6.3-.7.2-1.6-.1-1.9-.3-.4-.6.2-.5 1.3m225.5.9c-1.1.8-1.5 1.5-.9 1.5s1.6-.7 2.3-1.5c1.6-1.9 1.1-1.9-1.4 0M86.5 35c-.3.5-.1 1 .4 1 .6 0 1.1-.5 1.1-1 0-.6-.2-1-.4-1-.3 0-.8.4-1.1 1m26.1-.2c-.3.5.1.9.9.9s1.2-.4.9-.9c-.3-.4-.7-.8-.9-.8s-.6.4-.9.8m18.5.6c-.9 1-.7 1.9.9 3.7 1.7 1.9 1.9 2 1.2.4-.5-1.1-.8-2.8-.7-3.8.4-2.1.1-2.1-1.4-.3m-39.1.5c0 .6.4 1.3 1 1.6s.7-.1.4-.9c-.7-1.8-1.4-2.1-1.4-.7m12.6.6c.4.8.8 1.5 1 1.5s.4-.7.4-1.5-.4-1.5-1-1.5c-.5 0-.7.7-.4 1.5m11.4-.6c0 .6.4 1.3 1 1.6s.7-.1.4-.9c-.7-1.8-1.4-2.1-1.4-.7m126.1.7c0 1.1.3 1.4.6.6.3-.7.2-1.6-.1-1.9-.3-.4-.6.2-.5 1.3M89 38c0 .5.5 1 1.1 1 .5 0 .7-.5.4-1-.3-.6-.8-1-1.1-1-.2 0-.4.4-.4 1m24 0c0 .5.5 1 1.1 1 .5 0 .7-.5.4-1-.3-.6-.8-1-1.1-1-.2 0-.4.4-.4 1m136.7.7c-.4.3-.7 1.1-.7 1.7s.5.5 1.2-.2c.6-.6.9-1.4.7-1.7-.3-.3-.9-.2-1.2.2m-76.1 1.1c-.3.4.4.9 1.5.9 2.3.2 2.5-.3.4-1-.8-.4-1.6-.3-1.9.1m48 0c-.3.5.1.9.9.9s1.2-.4.9-.9c-.3-.4-.7-.8-.9-.8s-.6.4-.9.8M108 41c0 .5.7 1 1.6 1 .8 0 1.2-.5.9-1-.3-.6-1-1-1.6-1-.5 0-.9.4-.9 1m144.5.1c-.4.5-.4 1.3-.1 1.6.3.4.6 0 .6-.8 0-1.1.2-1.1 1 .1.6.9 1 1 1 .3 0-1.7-1.7-2.5-2.5-1.2M131 42c0 .5-.8.7-1.7.3-1.6-.6-1.6-.4.1 1.5 1.1 1.2 2 2.2 2 2.2.1 0 .2-1.1.2-2.5.1-1.4 0-2.5-.2-2.5s-.4.4-.4 1m20.6.5c-.9 2.6-.7 3.2.5 1.2.6-1 .9-2.1.6-2.3-.2-.3-.7.2-1.1 1.1m-63.3 1c0 .8.4 1.2.9.9s.6-1 .3-1.5c-.9-1.3-1.2-1.1-1.2.6m24 0c0 .8.4 1.2.9.9s.6-1 .3-1.5c-.9-1.3-1.2-1.1-1.2.6m122.2.4c-.3.5-.2 1.2.3 1.5s.9-.1.9-.9c0-1.7-.3-1.9-1.2-.6m40.6.7c0 1.1.3 1.4.6.6.3-.7.2-1.6-.1-1.9-.3-.4-.6.2-.5 1.3M90.5 45c-.3.5-.1 1 .4 1 .6 0 1.1-.5 1.1-1 0-.6-.2-1-.4-1-.3 0-.8.4-1.1 1m15.5 0c-.9.6-1 1-.3 1 .6 0 1.5-.5 1.8-1 .8-1.2.4-1.2-1.5 0m8.5 0c-.3.5-.1 1 .4 1 .6 0 1.1-.5 1.1-1 0-.6-.2-1-.4-1-.3 0-.8.4-1.1 1m82.1.4c1 .8 2.1 1.2 2.4 1 .5-.6-2.1-2.4-3.4-2.4-.6 0-.1.6 1 1.4m4.4-.2c0 .5.5.6 1 .3.6-.3 1-.1 1 .4 0 1.5 1.7 1.4 2.3-.2.3-.7-.5-1.3-1.9-1.3-1.3-.1-2.4.2-2.4.8m79 .3c0 1.6 1.6 2 2.4.6.3-.5-.1-1.1-.9-1.5-.9-.3-1.5 0-1.5.9m-124.8.8c-.8 1-.5 1.3 1.6 1.4 1.5 0 1.9-.1.9-.4-.9-.2-1.5-.9-1.2-1.4.9-1.4-.1-1.1-1.3.4m35.9.6c-.8.5-.9 1.1-.3 1.5.5.3 1.2-.1 1.6-.9.6-1.7.6-1.8-1.3-.6m-87.1.6c0 .2.6.8 1.3 1.4 1 .8 1.4.7 1.4-.2 0-.8-.6-1.4-1.4-1.4-.7 0-1.3.1-1.3.2m24-.1c0 .2.8 1 1.8 1.7 1.5 1.3 1.6 1.2.3-.4s-2.1-2.1-2.1-1.3m5.2 1.6c-.9 1.5-.9 2.1.1 2.6.6.4.9.4.5-.1-.4-.4-.3-1.4.4-2.2.6-.7.9-1.5.7-1.8-.3-.2-1 .4-1.7 1.5m36.8-.5c0 .8.4 1.5 1 1.5.5 0 .7-.7.4-1.5-.4-.8-.8-1.5-1-1.5s-.4.7-.4 1.5M7.7 50.1c.7.7 1.5 1 1.8.7s-.2-.9-1.2-1.2c-1.4-.6-1.5-.5-.6.5m24 0c.7.7 1.5 1 1.8.7s-.2-.9-1.2-1.2c-1.4-.6-1.5-.5-.6.5M152 50c0 .5.5 1 1.1 1 .5 0 .7-.5.4-1-.3-.6-.8-1-1.1-1-.2 0-.4.4-.4 1m23.7.1c.7.7 1.5 1 1.8.7s-.2-.9-1.2-1.2c-1.4-.6-1.5-.5-.6.5m81-.5c-.7.7 1.2 6.4 2.2 6.4.4 0 .8-.7.8-1.5s-.5-1.1-1-.8c-.6.4-.8-.5-.5-2.1.5-2.4-.1-3.3-1.5-2M128 51.5c.7.8 1.7 1.5 2.2 1.5s.3-.7-.6-1.5c-.8-.8-1.8-1.5-2.2-1.5-.3 0-.1.7.6 1.5m15.6-.7c-.3.5.1.9.9.9s1.2-.4.9-.9c-.3-.4-.7-.8-.9-.8s-.6.4-.9.8m74.7 1.9c-.1 1.6.1 2.1.4 1.3s1-2.1 1.6-2.8c.6-.8.5-1.2-.5-1.2-.8 0-1.4 1.1-1.5 2.7m18.4-1.8c-1.7.6-1.7.9-.4 1.9 1.2 1 1.6.9 2-.8.3-1.1.4-2 .4-1.9-.1 0-1 .4-2 .8m-88.2 1c-.3.5-.1 1.2.5 1.6.5.3 1-.1 1-.9 0-1.8-.6-2.1-1.5-.7m-80 1.1c.3.5.8 1 1.1 1 .2 0 .4-.5.4-1 0-.6-.5-1-1.1-1-.5 0-.7.4-.4 1m83.6.6c0 1.1.3 1.4.6.6.3-.7.2-1.6-.1-1.9-.3-.4-.6.2-.5 1.3m-96.1.3c0 .6.4 1.3 1 1.6s.7-.1.4-.9c-.7-1.8-1.4-2.1-1.4-.7m6.6-.1c-.3.5.1.9.9.9s1.2-.4.9-.9c-.3-.4-.7-.8-.9-.8s-.6.4-.9.8m50.5.6c-.9 1.1-.9 1.6.1 2.2.7.4 1 .4.6-.1-.4-.4-.3-1.4.3-2.2.6-.7.9-1.3.6-1.3-.2 0-1 .6-1.6 1.4m42.9-.5c0 .6.4 1.3 1 1.6s.7-.1.4-.9c-.7-1.8-1.4-2.1-1.4-.7m70.2 1.1c-.7 1.1-.8 2-.3 2 .9 0 2.4-3 1.8-3.6-.1-.2-.8.6-1.5 1.6m26.5-.7c-.7 1.7.9 4.4 2 3.4.4-.5.1-1.2-.7-1.7-1.4-.9-.7-1.4 1.3-1.1.5.1.6-.3.2-.9-.9-1.4-2.2-1.3-2.8.3M46 55.1c0 .5.5.7 1 .4.6-.3 1-.8 1-1.1 0-.2-.4-.4-1-.4-.5 0-1 .5-1 1.1m58-.9c0 .2.9 1.1 2 2.1 1.1.9 2 1.3 2 .7 0-.5-.9-1.4-2-2s-2-.9-2-.8m139.9.9c-1.2.7-1.1.9.3.9.9 0 1.8.6 2.1 1.2.2.7.7 1.1 1 .8s0-1.3-.7-2.2c-.8-1.1-1.7-1.4-2.7-.7m-205.5 3c-.1 1.7-.1 2.9 0 2.7s.7-1 1.4-1.9c1-1.3 1-1.9-.1-2.7-.9-.8-1.3-.4-1.3 1.9m27.1-2c-.4.6-.5 1.2-.2 1.5.2.3.7-.2 1-1.1.7-1.7.1-2-.8-.4m4.1.6c-.6 1.4-.5 1.5.5.6.7-.7 1-1.5.7-1.8s-.9.2-1.2 1.2M79 56c0 .5.5 1 1.1 1 .5 0 .7-.5.4-1-.3-.6-.8-1-1.1-1-.2 0-.4.4-.4 1m92.5 0c-.3.6.1.7.9.4 1.8-.7 2.1-1.4.7-1.4-.6 0-1.3.4-1.6 1m62 .1c-.4.6-.5 1.2-.2 1.5.2.3.7-.2 1-1.1.7-1.7.1-2-.8-.4m4.1.6c-.6 1.4-.5 1.5.5.6.7-.7 1-1.5.7-1.8s-.9.2-1.2 1.2m40.8 1.4c-.1 1.7-.1 2.9 0 2.7s.7-1 1.4-1.9c1-1.3 1-1.9-.1-2.7-.9-.8-1.3-.4-1.3 1.9m-168.4.8c0 2.5.6 2.7 1.3.6.4-.8.2-1.7-.3-2-.6-.4-1 .3-1 1.4m-65.6.2c-.4.7-.3.9.4.5.5-.3 1.3 0 1.5.6.4.9.6 1 .6.1.1-1.7-1.6-2.5-2.5-1.2m42.1-.2c-.3.5-.1 1.2.5 1.6.5.3 1-.1 1-.9 0-1.8-.6-2.1-1.5-.7m86.9-.1c.4.3 1.4.7 2.2.8.9.1 1.3 0 1-.4-.4-.3-1.4-.7-2.2-.8-.9-.1-1.3 0-1 .4m111 .3c-.4.7-.3.9.4.5.5-.3 1.3 0 1.5.6.4.9.6 1 .6.1.1-1.7-1.6-2.5-2.5-1.2M89.3 60.2c.4 1 0 2.1-1 2.6-1.3.8-1.3 1-.1 1.5.8.3 2.1.2 2.8-.3 1-.6.9-1.3-.5-3.1-1.1-1.5-1.5-1.7-1.2-.7m38.3.5c-.6 1.4-.5 1.5.5.6.7-.7 1-1.5.7-1.8s-.9.2-1.2 1.2m42.5-.1c0 1.1.3 1.4.6.6.3-.7.2-1.6-.1-1.9-.3-.4-.6.2-.5 1.3m29.5.1c-.6 1.4-.5 1.5.5.6.7-.7 1-1.5.7-1.8s-.9.2-1.2 1.2m42.5-.1c0 1.1.3 1.4.6.6.3-.7.2-1.6-.1-1.9-.3-.4-.6.2-.5 1.3M9.7 62.7c-.4.3-.7 1.1-.7 1.7s.5.5 1.2-.2c.6-.6.9-1.4.7-1.7-.3-.3-.9-.2-1.2.2m168 0c-.4.3-.7 1.1-.7 1.7s.5.5 1.2-.2c.6-.6.9-1.4.7-1.7-.3-.3-.9-.2-1.2.2m72 0c-.4.3-.7 1.1-.7 1.7s.5.5 1.2-.2c.6-.6.9-1.4.7-1.7-.3-.3-.9-.2-1.2.2M65.6 64.3c.3 1 .9 1.5 1.2 1.2s0-1.1-.7-1.8c-1-.9-1.1-.8-.5.6m72 0c.3 1 .9 1.5 1.2 1.2s0-1.1-.7-1.8c-1-.9-1.1-.8-.5.6m-125.1.8c-.4.5-.4 1.3-.1 1.6.3.4.6 0 .6-.8 0-1.1.2-1.1 1 .1.6.9 1 1 1 .3 0-1.7-1.7-2.5-2.5-1.2m31.2.3c-.9.7-1.7 1.7-1.7 2.2 0 .4.5.3 1.2-.4.8-.8 1.5-.8 2.4-.1s1.2.6 1-.5c-.3-2.3-.9-2.6-2.9-1.2m136.8-.3c-.4.5-.4 1.3-.1 1.6.3.4.6 0 .6-.8 0-1.1.2-1.1 1 .1.6.9 1 1 1 .3 0-1.7-1.7-2.5-2.5-1.2m72 0c-.4.5-.4 1.3-.1 1.6.3.4.6 0 .6-.8 0-1.1.2-1.1 1 .1.6.9 1 1 1 .3 0-1.7-1.7-2.5-2.5-1.2m31.2.3c-.9.7-1.7 1.7-1.7 2.2 0 .4.5.3 1.2-.4.8-.8 1.5-.8 2.4-.1s1.2.6 1-.5c-.3-2.3-.9-2.6-2.9-1.2m-199 .3c-1 .9-.9 2.3.1 2.3.5 0 .9-.7.9-1.5 0-1.7-.1-1.8-1-.8m37.4.9c0 1.1.3 1.4.6.6.3-.7.2-1.6-.1-1.9-.3-.4-.6.2-.5 1.3m72 0c0 1.1.3 1.4.6.6.3-.7.2-1.6-.1-1.9-.3-.4-.6.2-.5 1.3m-70.1-.2c0 .2.8 1 1.8 1.7 1.5 1.3 1.6 1.2.3-.4s-2.1-2.1-2.1-1.3m72 0c0 .2.8 1 1.8 1.7 1.5 1.3 1.6 1.2.3-.4s-2.1-2.1-2.1-1.3m-33.5 1.5c-.3.5-.2 1.2.3 1.5s.9-.1.9-.9c0-1.7-.3-1.9-1.2-.6m72 0c-.3.5-.2 1.2.3 1.5s.9-.1.9-.9c0-1.7-.3-1.9-1.2-.6m-113.9 3.6c-.3.8-.1 1.5.4 1.5.6 0 1-.7 1-1.5s-.2-1.5-.4-1.5-.6.7-1 1.5m72 0c-.3.8-.1 1.5.4 1.5.6 0 1-.7 1-1.5s-.2-1.5-.4-1.5-.6.7-1 1.5M35 71.4c0 .2.8 1 1.8 1.7 1.5 1.3 1.6 1.2.3-.4S35 70.6 35 71.4m63.6 1.1c-.3.8-.1 1.5.5 1.5s.7.4.4 1c-.3.5-.2 1 .3 1 .6 0 .9-1.1.8-2.5-.1-2.8-1.1-3.3-2-1m8.4-1.1c0 .2.8 1 1.8 1.7 1.5 1.3 1.6 1.2.3-.4s-2.1-2.1-2.1-1.3m45.6 1.3c-.6 1.4-.5 1.5.5.6.7-.7 1-1.5.7-1.8s-.9.2-1.2 1.2m72 0c-.6 1.4-.5 1.5.5.6.7-.7 1-1.5.7-1.8s-.9.2-1.2 1.2m50.4-1.3c0 .2.8 1 1.8 1.7 1.5 1.3 1.6 1.2.3-.4s-2.1-2.1-2.1-1.3M17.7 73.5c-.6 1.5 1 3.2 2 2.1.4-.3.1-.6-.5-.6s-.9-.7-.6-1.5c.4-.8.4-1.5.1-1.5s-.7.7-1 1.5m84.3-.7c0 .5.7 1.5 1.5 2.2s1.5.9 1.5.6c0-.4-.7-1.4-1.5-2.2-.8-.9-1.5-1.1-1.5-.6m11.7.7c-.6 1.5 1 3.2 2 2.1.4-.3.1-.6-.5-.6s-.9-.7-.6-1.5c.4-.8.4-1.5.1-1.5s-.7.7-1 1.5m72 0c-.6 1.5 1 3.2 2 2.1.4-.3.1-.6-.5-.6s-.9-.7-.6-1.5c.4-.8.4-1.5.1-1.5s-.7.7-1 1.5m72 0c-.6 1.5 1 3.2 2 2.1.4-.3.1-.6-.5-.6s-.9-.7-.6-1.5c.4-.8.4-1.5.1-1.5s-.7.7-1 1.5M28.5 75c.3.5.8 1 1.1 1 .2 0 .4-.5.4-1 0-.6-.5-1-1.1-1-.5 0-.7.4-.4 1m3 0c.3.5.8 1 1.1 1 .2 0 .4-.5.4-1 0-.6-.5-1-1.1-1-.5 0-.7.4-.4 1m133 0c-1.6.7-1.7.9-.3.9.9.1 2-.4 2.3-.9.7-1.1.7-1.1-2 0m72 0c-1.6.7-1.7.9-.3.9.9.1 2-.4 2.3-.9.7-1.1.7-1.1-2 0m32 0c.3.5.8 1 1.1 1 .2 0 .4-.5.4-1 0-.6-.5-1-1.1-1-.5 0-.7.4-.4 1m3 0c.3.5.8 1 1.1 1 .2 0 .4-.5.4-1 0-.6-.5-1-1.1-1-.5 0-.7.4-.4 1m-217 6c-1.6.7-1.7.9-.3.9.9.1 2-.4 2.3-.9.7-1.1.7-1.1-2 0m-7 4c.3.5.8 1 1.1 1 .2 0 .4-.5.4-1 0-.6-.5-1-1.1-1-.5 0-.7.4-.4 1m.9 4.2c.1 1.3.5 2.9.9 3.5.4.7-.1 1.6-1 2.2-1 .6-1.3 1.1-.6 1.1.6 0 1.5-.5 1.8-1 .4-.6 1.2-.7 1.8-.3.7.3.4-.3-.6-1.4-1-1.2-1.4-2.3-.8-2.4.6-.3.4-1.2-.4-2.3-1.3-1.7-1.4-1.7-1.1.6m8.1 3.8c-.3.5-.1 1 .4 1 .6 0 1.1-.5 1.1-1 0-.6-.2-1-.4-1-.3 0-.8.4-1.1 1"/>
<path fill="#404040" d="M33 57.5c-1.1 1.3-1 1.4.4.9.9-.3 1.6-1 1.6-1.5 0-1.3-.6-1.1-2 .6m42 0c-1.1 1.3-1 1.4.4.9.9-.3 1.6-1 1.6-1.5 0-1.3-.6-1.1-2 .6m42 0c-1.1 1.3-1 1.4.4.9.9-.3 1.6-1 1.6-1.5 0-1.3-.6-1.1-2 .6m42 0c-1.1 1.3-1 1.4.4.9.9-.3 1.6-1 1.6-1.5 0-1.3-.6-1.1-2 .6m30 0c-1.1 1.3-1 1.4.4.9.9-.3 1.6-1 1.6-1.5 0-1.3-.6-1.1-2 .6m84 0c-1.1 1.3-1 1.4.4.9.9-.3 1.6-1 1.6-1.5 0-1.3-.6-1.1-2 .6M20.5 58c-.3.6.1.7.9.4 1.8-.7 2.1-1.4.7-1.4-.6 0-1.3.4-1.6 1m42 0c-.3.6.1.7.9.4 1.8-.7 2.1-1.4.7-1.4-.6 0-1.3.4-1.6 1m42 0c-.3.6.1.7.9.4 1.8-.7 2.1-1.4.7-1.4-.6 0-1.3.4-1.6 1m42 0c-.3.6.1.7.9.4 1.8-.7 2.1-1.4.7-1.4-.6 0-1.3.4-1.6 1m84 0c-.3.6.1.7.9.4 1.8-.7 2.1-1.4.7-1.4-.6 0-1.3.4-1.6 1m30 0c-.3.6.1.7.9.4 1.8-.7 2.1-1.4.7-1.4-.6 0-1.3.4-1.6 1"/><path d="M119.2 4.6c-1.4 1-2.2 2.6-2.2 4.4s.8 3.4 2.2 4.4l2.2 1.6-2.2 1.6c-2.9 2-3 6.8-.1 8.7l2 1.5-2.5 2.5c-1.9 1.9-2.6 2.1-3 1.1-.3-.8-1.7-1.9-3.1-2.6-1.4-.6-2.5-1.7-2.5-2.4 0-.8-1.1-2.1-2.5-3-2.1-1.4-3.1-1.5-5.1-.5-1.4.6-2.8 1.9-3.1 2.9-.2.9-1.7 2.5-3.4 3.4-3.7 2.2-4.1 6.9-.7 9.2l2.2 1.6-2.2 1.6c-3 2-3 6.8 0 8.8l2.2 1.6-2.2 1.6c-3.4 2.3-3 7 .8 9.2 1.6.9 3 2.3 3 2.9 0 .7 1.1 2 2.5 2.9 2.1 1.4 3.1 1.5 5.1.6 1.3-.7 2.7-1.8 3-2.6.4-1.1 1.1-.8 2.9 1 1.3 1.3 3 2.4 3.7 2.4 1.9 0 5.8-2.9 5.8-4.3 0-.7 1.4-2 3-2.9 3.8-2.2 4.2-6.9.8-9.2l-2.2-1.6 2.2-1.6c1.4-1 2.2-2.6 2.2-4.4s-.8-3.4-2.2-4.4l-2.2-1.6 2.2-1.6c1.4-1 2.2-2.6 2.2-4.4s-.8-3.4-2.2-4.4l-2.2-1.6 2.2-1.6c1.4-1 2.2-2.6 2.2-4.4s-.8-3.4-2.2-4.4l-2.2-1.6 2.2-1.6c1.4-1 2.2-2.6 2.2-4.4 0-2.8-3-6-5.5-6-.6 0-2.1.7-3.3 1.6m5.5 6.7-2.2 2.2-2.2-2.3-2.2-2.2 2.2-2.3 2.2-2.2 2.2 2.3 2.2 2.2zm0 12-2.2 2.2-2.2-2.3-2.2-2.2 2.2-2.3 2.2-2.2 2.2 2.3 2.2 2.2zm-18 6-2.2 2.2-2.2-2.3-2.2-2.2 2.2-2.3 2.2-2.2 2.2 2.3 2.2 2.2zm-6 6-2.2 2.2-2.2-2.3-2.2-2.2 2.2-2.3 2.2-2.2 2.2 2.3 2.2 2.2zM116 33c.5 0 1 .6 1 1.4s1 2.2 2.2 3l2.2 1.6-2.2 1.6c-2.9 2-3 6.8 0 8.8l2.1 1.5-2.3 1.9c-1.2 1-2.1 2.5-1.8 3.2.3 1.1 1.1.8 2.9-1l2.4-2.5 2.2 2.2 2.2 2.3-2.3 2.3c-2.2 2.2-2.4 2.3-3.5.5-1.2-1.9-4.1-2.5-4.1-.9 0 .6.9 1.6 2.1 2.4l2 1.5-2.3 2.3-2.3 2.4-2.2-2.3-2.2-2.2 2.6-2.6c1.4-1.4 2.3-2.8 1.9-3.1-.8-.8-5.6 2.5-5.6 3.9 0 .7-.7.2-1.6-1-1.5-2.2-4.4-3-4.4-1.3 0 .6.9 1.6 2.1 2.4l2 1.5-2.3 2.3-2.3 2.4-2.2-2.2-2.2-2.3 2.4-2.4c2.7-2.7 2.4-5.8-.8-8.1L99.6 51l2.2-1.6c1.4-1 2.2-2.6 2.2-4.4s-.8-3.4-2.2-4.4L99.6 39l2.2-1.6c1.2-.8 2.2-2.1 2.2-2.8s1.1-1.8 2.5-2.4c1.4-.7 2.8-1.8 3.1-2.6.4-1.1 1.1-.8 2.9 1 1.3 1.3 2.9 2.4 3.5 2.4m8.7 2.3-2.2 2.2-2.2-2.3-2.2-2.2 2.2-2.3 2.2-2.2 2.2 2.3 2.2 2.2zm-24 12-2.2 2.2-2.2-2.3-2.2-2.2 2.2-2.3 2.2-2.2 2.2 2.3 2.2 2.2zm24 0-2.2 2.2-2.2-2.3-2.2-2.2 2.2-2.3 2.2-2.2 2.2 2.3 2.2 2.2zm-24 12-2.2 2.2-2.2-2.3-2.2-2.2 2.2-2.3 2.2-2.2 2.2 2.3 2.2 2.2zM9 10.4c0 .8 1 2.2 2.2 3l2.2 1.6-2.2 1.6c-3 2-3 6.8 0 8.8l2.2 1.6-2.2 1.6c-3 2-3 6.8 0 8.8l2.2 1.6-2.2 1.6C9.8 41.6 9 43.2 9 45s.8 3.4 2.2 4.4l2.2 1.6-2.2 1.6c-3.4 2.3-3 7 .8 9.2 1.6.9 3 2.3 3 2.9 0 .7 1.1 2 2.5 2.9 2.1 1.4 3.1 1.5 5.1.6 1.3-.7 2.7-1.8 3-2.6.4-1.1 1.1-.8 2.9 1 1.3 1.3 3 2.4 3.7 2.4 1.9 0 5.8-2.9 5.8-4.3 0-.7 1.4-2 3-2.9 3.8-2.2 4.2-6.9.8-9.2L39.6 51l2.2-1.6c1.4-1 2.2-2.6 2.2-4.4s-.8-3.4-2.2-4.4L39.6 39l2.2-1.6c3-2 3-6.8 0-8.8L39.6 27l2.2-1.6c2.9-2 3-6.8 0-8.8l-2.1-1.5 2.3-1.9c1.2-1 2.1-2.5 1.8-3.2-.3-1.1-1.1-.8-2.9 1l-2.4 2.5-2.4-2.5c-1.8-1.8-2.6-2.1-2.9-1-.3.7.6 2.2 1.8 3.2l2.3 1.9-2.1 1.5c-3 2-2.9 6.8 0 8.8l2.2 1.6-2.2 1.6c-1.4 1-2.2 2.6-2.2 4.4s.8 3.4 2.2 4.4l2.2 1.6-2.2 1.6c-2.9 2-3 6.8 0 8.8l2.1 1.5-2.3 1.9c-1.2 1-2.1 2.5-1.8 3.2.3 1.1 1.1.8 2.9-1l2.4-2.5 2.2 2.2 2.2 2.3-2.3 2.3c-2.2 2.2-2.4 2.3-3.5.5-1.2-1.9-4.1-2.5-4.1-.9 0 .6.9 1.6 2.1 2.4l2 1.5-2.3 2.3-2.3 2.4-2.2-2.3-2.2-2.2 2.6-2.6c1.4-1.4 2.3-2.8 1.9-3.1-.8-.8-5.6 2.5-5.6 3.9 0 .7-.7.2-1.6-1-1.5-2.2-4.4-3-4.4-1.3 0 .6.9 1.6 2.1 2.4l2 1.5-2.3 2.3-2.3 2.4-2.2-2.3-2.2-2.2 2.4-2.4c2.7-2.7 2.4-5.8-.8-8.1L15.6 51l2.2-1.6c3-2 3-6.8 0-8.8L15.6 39l2.2-1.6c3-2 3-6.8 0-8.8L15.6 27l2.2-1.6c2.9-2 3-6.8 0-8.8l-2.1-1.5 2.3-1.9c1.2-1 2.1-2.5 1.8-3.2-.3-1.1-1.1-.8-3.1 1.2-1.8 1.8-2.7 2.2-3.1 1.3-.3-.8-1.4-1.9-2.5-2.5-1.7-.8-2.1-.8-2.1.4m7.7 12.9-2.2 2.2-2.2-2.3-2.2-2.2 2.2-2.3 2.2-2.2 2.2 2.3 2.2 2.2zm24 0-2.2 2.2-2.2-2.3-2.2-2.2 2.2-2.3 2.2-2.2 2.2 2.3 2.2 2.2zm-24 12-2.2 2.2-2.2-2.3-2.2-2.2 2.2-2.3 2.2-2.2 2.2 2.3 2.2 2.2zm24 0-2.2 2.2-2.2-2.3-2.2-2.2 2.2-2.3 2.2-2.2 2.2 2.3 2.2 2.2zm-24 12-2.2 2.2-2.2-2.3-2.2-2.2 2.2-2.3 2.2-2.2 2.2 2.3 2.2 2.2zm24 0-2.2 2.2-2.2-2.3-2.2-2.2 2.2-2.3 2.2-2.2 2.2 2.3 2.2 2.2zm-24 12-2.2 2.2-2.2-2.3-2.2-2.2 2.2-2.3 2.2-2.2 2.2 2.3 2.2 2.2zM177 10.4c0 .8 1 2.2 2.2 3l2.2 1.6-2.2 1.6c-1.4 1-2.2 2.6-2.2 4.4s.8 3.4 2.2 4.4l2.2 1.6-2.2 1.6c-3 2-3 6.8 0 8.8l2.2 1.6-2.2 1.6c-3 2-3 6.8 0 8.8l2.2 1.6-2.2 1.6c-3.4 2.3-3 7 .7 9.2 1.7.9 3.2 2.5 3.4 3.4.3 1 1.7 2.3 3.1 2.9 2 1 3 .9 5.1-.5 1.4-.9 2.5-2.2 2.5-2.9 0-.6 1.4-2 3-2.9 2.3-1.3 3-2.4 3-4.7 0-4.2-4-6.9-7.6-5.3-1.3.7-2.7 1.8-3 2.6-.4 1-1.1.8-3-1.1l-2.5-2.5 2-1.5c2.9-1.9 2.8-6.7-.1-8.7l-2.2-1.6 2.2-1.6c1.2-.8 2.2-2.1 2.2-2.8s1.1-1.8 2.5-2.4c1.4-.7 2.8-1.8 3.1-2.6.4-1 1.2-.7 3.1 1.2 2 2 2.8 2.3 3.1 1.2.3-.7-.5-2.2-1.8-3.2l-2.2-1.8 2.2-1.8c1.3-1 2.1-2.5 1.8-3.2-.3-1.1-1.1-.8-3.1 1.2-1.9 1.9-2.7 2.2-3.1 1.2-.3-.8-1.7-1.9-3.1-2.6-1.4-.6-2.5-1.7-2.5-2.4s-1-2-2.2-2.8l-2.1-1.5 2.3-1.9c1.2-1 2.1-2.5 1.8-3.2-.3-1.1-1.1-.8-3.1 1.2-1.8 1.8-2.7 2.2-3.1 1.3-.3-.8-1.4-1.9-2.5-2.5-1.7-.8-2.1-.8-2.1.4m7.7 12.9-2.2 2.2-2.2-2.3-2.2-2.2 2.2-2.3 2.2-2.2 2.2 2.3 2.2 2.2zm6 6-2.2 2.2-2.2-2.3-2.2-2.2 2.2-2.3 2.2-2.2 2.2 2.3 2.2 2.2zm-6 6-2.2 2.2-2.2-2.3-2.2-2.2 2.2-2.3 2.2-2.2 2.2 2.3 2.2 2.2zm0 12-2.2 2.2-2.2-2.3-2.2-2.2 2.2-2.3 2.2-2.2 2.2 2.3 2.2 2.2zm0 12-2.2 2.2-2.2-2.3-2.2-2.2 2.2-2.3 2.2-2.2 2.2 2.3 2.2 2.2zm11.9 0c-2.2 2.2-2.4 2.3-3.5.5-1.2-1.9-4.1-2.5-4.1-.9 0 .6.9 1.6 2.1 2.4l2 1.5-2.3 2.3-2.3 2.4-2.2-2.3-2.2-2.2 5.2-5.3 5.2-5.2 2.2 2.2 2.2 2.3zM59.2 22.6c-1.2.8-2.2 2.1-2.2 2.7 0 .7-1.4 2-3 2.9-3.8 2.2-4.2 6.9-.8 9.2l2.2 1.6-2.2 1.6c-1.4 1-2.2 2.6-2.2 4.4s.8 3.4 2.2 4.4l2.2 1.6-2.2 1.6c-3 2-3 6.8 0 8.8l2.2 1.6-2.2 1.6c-3 2-3 6.8 0 8.8l2.2 1.6-2.2 1.6c-2.9 2-3 6.8 0 8.8l2.1 1.5-2.3 1.9c-1.2 1-2.1 2.5-1.8 3.2.3 1.1 1.1.8 2.9-1l2.4-2.5 2.4 2.5c1.8 1.8 2.6 2.1 2.9 1 .3-.7-.6-2.2-1.8-3.2l-2.3-1.9 2.1-1.5c3-2 2.9-6.8 0-8.8L57.6 75l2.2-1.6c2.9-2 3-6.8.1-8.7l-2-1.5 2.5-2.5c2.8-2.8 2.6-5.9-.7-8.2L57.6 51l2.2-1.6c1.4-1 2.2-2.6 2.2-4.4s-.8-3.4-2.2-4.4L57.6 39l2.2-1.6c1.2-.8 2.2-2.1 2.2-2.8s1.1-1.8 2.5-2.4c1.4-.7 2.8-1.8 3.1-2.6.4-1.1 1.1-.8 2.9 1 1.3 1.3 2.9 2.4 3.5 2.4.5 0 1 .6 1 1.4s1 2.2 2.2 3l2.2 1.6-2.2 1.6c-2.9 2-3 6.8 0 8.8l2.1 1.5-2.3 1.9c-1.2 1-2.1 2.5-1.8 3.2.3 1.1 1.1.8 2.9-1l2.4-2.5 2.2 2.2 2.2 2.3-2.3 2.3c-2.2 2.2-2.4 2.3-3.5.5-1.2-1.9-4.1-2.5-4.1-.9 0 .6.9 1.6 2.1 2.4l2 1.5-2.3 2.3-2.3 2.4-2.2-2.2-2.2-2.3 2.5-2.6c1.5-1.4 2.4-2.8 2-3.1-.8-.8-5.6 2.5-5.6 3.9 0 .7-.7.2-1.6-1-.8-1.2-2.2-2.2-3-2.2-2.4 0-1.6 2 1.5 3.8 1.7.9 3.2 2.5 3.4 3.4.3 1 1.7 2.3 3.1 2.9 2 1 3 .9 5.1-.5 1.4-.9 2.5-2.2 2.5-2.9 0-.6 1.4-2 3-2.9 3.8-2.2 4.2-6.9.8-9.2L81.6 51l2.2-1.6c1.4-1 2.2-2.6 2.2-4.4s-.8-3.4-2.2-4.4L81.6 39l2.2-1.6c3.4-2.3 3-7-.8-9.2-1.6-.9-3-2.3-3-2.9 0-.7-1.1-2-2.5-2.9-2.1-1.4-3.1-1.5-5.1-.6-1.3.7-2.7 1.8-3 2.6-.4 1.1-1.1.8-2.9-1-2.8-2.8-4.2-3-7.3-.8m5.5 6.7-2.2 2.2-2.2-2.3-2.2-2.2 2.2-2.3 2.2-2.2 2.2 2.3 2.2 2.2zm12 0-2.2 2.2-2.2-2.3-2.2-2.2 2.2-2.3 2.2-2.2 2.2 2.3 2.2 2.2zm-18 6-2.2 2.2-2.2-2.3-2.2-2.2 2.2-2.3 2.2-2.2 2.2 2.3 2.2 2.2zm24 0-2.2 2.2-2.2-2.3-2.2-2.2 2.2-2.3 2.2-2.2 2.2 2.3 2.2 2.2zm-24 12-2.2 2.2-2.2-2.3-2.2-2.2 2.2-2.3 2.2-2.2 2.2 2.3 2.2 2.2zm24 0-2.2 2.2-2.2-2.3-2.2-2.2 2.2-2.3 2.2-2.2 2.2 2.3 2.2 2.2zm-24 12-2.2 2.2-2.2-2.3-2.2-2.2 2.2-2.3 2.2-2.2 2.2 2.3 2.2 2.2zm0 12-2.2 2.2-2.2-2.3-2.2-2.2 2.2-2.3 2.2-2.2 2.2 2.3 2.2 2.2zm0 12-2.2 2.2-2.2-2.3-2.2-2.2 2.2-2.3 2.2-2.2 2.2 2.3 2.2 2.2zM143 22.8c-1.3 1-2.1 2.5-1.8 3.2.3 1.1 1.1.8 3.1-1.2 1.9-1.9 2.7-2.2 3.1-1.2.3.8 1.7 1.9 3.1 2.6 1.4.6 2.5 1.7 2.5 2.5s1.3 2.2 3 3.1c1.6.9 3 2.2 3 2.9 0 .6.9 1.8 2.1 2.6l2 1.5-2.3 2.3-2.3 2.4-2.2-2.3c-2.8-2.8-4.8-2.8-7.8.2-1.8 1.8-2.5 2.1-2.9 1-.3-.8-1.7-1.9-3-2.6-5.8-2.6-10.6 6-5.4 9.6l2.2 1.6-2.2 1.6c-3.4 2.3-3 7 .8 9.2 1.6.9 3 2.2 3 2.9 0 1.4 3.9 4.3 5.8 4.3.7 0 2.4-1.1 3.7-2.4 1.8-1.8 2.5-2.1 2.9-1 .3.8 1.7 1.9 3 2.6 2 .9 3 .8 5.1-.6 1.4-.9 2.5-2.2 2.5-2.9 0-.6 1.4-2 3-2.9 3.8-2.2 4.2-6.9.8-9.2l-2.2-1.6 2.2-1.6c3-2 3-6.8 0-8.8l-2.2-1.6 2.2-1.6c3.4-2.3 3-7-.8-9.2-1.6-.9-3-2.3-3-2.9 0-.7-1.1-2-2.5-2.9-2.1-1.4-3.1-1.5-5.1-.6-1.3.7-2.7 1.8-3 2.6-.4 1.1-1.1.8-2.9-1-2.9-2.9-4.5-3-7.5-.6m17.7 6.5-2.2 2.2-2.2-2.3-2.2-2.2 2.2-2.3 2.2-2.2 2.2 2.3 2.2 2.2zm6 6-2.2 2.2-2.2-2.3-2.2-2.2 2.2-2.3 2.2-2.2 2.2 2.3 2.2 2.2zm-24 12-2.2 2.2-2.2-2.3-2.2-2.2 2.2-2.3 2.2-2.2 2.2 2.3 2.2 2.2zM158 45c.5 0 1 .6 1 1.4s1 2.2 2.2 3l2.1 1.5-2.3 1.9c-1.2 1-2.1 2.5-1.8 3.2.3 1.1 1.1.8 2.9-1l2.4-2.5 2.2 2.2 2.2 2.3-2.3 2.3c-2.2 2.2-2.4 2.3-3.5.5-1.2-1.9-4.1-2.5-4.1-.9 0 .6.9 1.6 2.1 2.4l2 1.5-2.3 2.3-2.3 2.4-2.2-2.3-2.2-2.2 2.6-2.6c1.4-1.4 2.3-2.8 1.9-3.1-.8-.8-5.6 2.5-5.6 3.9 0 .7-.7.2-1.6-1-1.5-2.2-4.4-3-4.4-1.3 0 .6.9 1.6 2.1 2.4l2 1.5-2.3 2.3-2.3 2.4-2.2-2.2-2.2-2.3 2.4-2.4c2.7-2.7 2.4-5.8-.8-8.1l-2.1-1.5 2.2-1.6c1.2-.8 2.2-2.1 2.2-2.8s1.1-1.8 2.5-2.4c1.4-.7 2.8-1.8 3.1-2.6.4-1.1 1.1-.8 2.9 1 1.3 1.3 2.9 2.4 3.5 2.4m8.7 2.3-2.2 2.2-2.2-2.3-2.2-2.2 2.2-2.3 2.2-2.2 2.2 2.3 2.2 2.2zm-24 12-2.2 2.2-2.2-2.3-2.2-2.2 2.2-2.3 2.2-2.2 2.2 2.3 2.2 2.2zm72.5-36.7c-1.2.8-2.2 2.1-2.2 2.7 0 .7-1.4 2-3 2.9-3.8 2.2-4.2 6.9-.8 9.2l2.2 1.6-2.2 1.6c-1.4 1-2.2 2.6-2.2 4.4s.8 3.4 2.2 4.4l2.2 1.6-2.2 1.6c-3.4 2.3-3 7 .8 9.2 1.6.9 3 2.2 3 2.9 0 1.4 3.9 4.3 5.8 4.3.7 0 2.4-1.1 3.7-2.4 1.8-1.8 2.5-2.1 2.9-1 .3.8 1.7 1.9 3 2.6 2 .9 3 .8 5.1-.6 1.4-.9 2.5-2.2 2.5-2.9 0-.6 1.4-2 3-2.9 3.5-2 4.4-5.6.9-3.8-1.1.6-2.3 1.8-2.6 2.6-.4 1.1-.8 1-2.2-.5-2.8-3.3-5.8-3.5-8.5-.8-1.9 1.9-2.6 2.2-3 1.1-.3-.8-1.7-1.9-3.1-2.6-1.4-.6-2.5-1.7-2.5-2.4s-.9-1.9-2.1-2.7l-2-1.5 2.3-2.3 2.3-2.4 2.2 2.2c1.2 1.3 2.9 2.3 3.6 2.3 2.3 0 6-3.5 5.5-5-.3-1.1-1.1-.8-3.1 1.2-1.9 1.9-2.7 2.2-3.1 1.2-.3-.8-1.7-1.9-3.1-2.6-1.4-.6-2.5-1.7-2.5-2.4s-1-2-2.2-2.8l-2.2-1.6 2.2-1.6c1.2-.8 2.2-2.1 2.2-2.8s1.1-1.8 2.5-2.4c1.4-.7 2.8-1.8 3.1-2.6.4-1.1 1.1-.8 2.9 1 1.3 1.3 2.9 2.4 3.5 2.4.5 0 1 .6 1 1.4s1 2.2 2.2 3l2.2 1.6-2.2 1.6c-3 2.1-3.1 4.9-.1 3.3 1.2-.6 2.3-1.8 2.6-2.8.2-.9 1.7-2.4 3.4-3.3 4.1-2.4 4.1-7.2-.1-9.6-1.6-.9-3-2.3-3-2.9 0-.7-1.1-2-2.5-2.9-2.1-1.4-3.1-1.5-5.1-.6-1.3.7-2.7 1.8-3 2.6-.4 1.1-1.1.8-2.9-1-2.8-2.8-4.2-3-7.3-.8m5.5 6.7-2.2 2.2-2.2-2.3-2.2-2.2 2.2-2.3 2.2-2.2 2.2 2.3 2.2 2.2zm12 0-2.2 2.2-2.2-2.3-2.2-2.2 2.2-2.3 2.2-2.2 2.2 2.3 2.2 2.2zm-18 6-2.2 2.2-2.2-2.3-2.2-2.2 2.2-2.3 2.2-2.2 2.2 2.3 2.2 2.2zm24 0-2.2 2.2-2.2-2.3-2.2-2.2 2.2-2.3 2.2-2.2 2.2 2.3 2.2 2.2zm-24 12-2.2 2.2-2.2-2.3-2.2-2.2 2.2-2.3 2.2-2.2 2.2 2.3 2.2 2.2zm0 12-2.2 2.2-2.2-2.3-2.2-2.2 2.2-2.3 2.2-2.2 2.2 2.3 2.2 2.2zm6 6-2.2 2.2-2.2-2.3-2.2-2.2 2.2-2.3 2.2-2.2 2.2 2.3 2.2 2.2zm12 0-2.2 2.2-2.2-2.3-2.2-2.2 2.2-2.3 2.2-2.2 2.2 2.3 2.2 2.2zm24.5-42.7c-1.2.8-2.2 2.1-2.2 2.7 0 .7-1.4 2-3 2.9-2.3 1.3-3 2.4-3 4.8s.7 3.5 3 4.8c1.6.9 3 2.3 3 3s1.3 2.1 3 3c1.6.9 3 2.3 3 2.9 0 .7 1.1 2 2.5 2.9 2.1 1.4 3.1 1.5 5.1.6 1.3-.7 2.7-1.8 3-2.6.4-1.1 1.1-.8 3 1.1l2.4 2.4-2.1 1.8c-1.2 1-2 2.4-1.7 3.1.3 1.1 1.1.8 2.9-1l2.4-2.5 2.2 2.2 2.2 2.3-2.3 2.3c-2.2 2.2-2.4 2.3-3.5.5-1.2-1.9-4.1-2.5-4.1-.9 0 .6.9 1.6 2.1 2.4l2 1.5-2.3 2.3-2.3 2.4-2.2-2.2-2.2-2.3 2.5-2.6c1.5-1.4 2.4-2.8 2-3.1-.8-.8-5.6 2.5-5.6 3.8 0 .6-.8.2-1.7-.9q-4.5-5.1-8.7-.9c-1.8 1.8-2.6 2.1-3 1.2-.3-.8-1.4-1.9-2.5-2.5-3.5-1.8-2.6 1.8.9 3.8 1.6.9 3 2.2 3 2.9 0 1.4 3.9 4.3 5.8 4.3.7 0 2.4-1.1 3.7-2.4 1.8-1.8 2.5-2.1 2.9-1 .3.8 1.7 1.9 3 2.6 2 .9 3 .8 5.1-.6 1.4-.9 2.5-2.2 2.5-2.9 0-.6 1.4-2 3-2.9 4.2-2.4 4.2-7.2 0-9.6-1.6-.9-3-2.3-3-3s-1.3-2.1-3-3c-1.6-.9-3-2.3-3-2.9 0-.7-1.1-2-2.5-2.9-2.1-1.4-3.1-1.5-5.1-.6-1.3.7-2.7 1.8-3 2.6-.4 1-1.1.8-3-1.1l-2.5-2.5 2-1.5c1.2-.8 2.1-2 2.1-2.7s1.1-1.8 2.5-2.4c1.4-.7 2.8-1.8 3.1-2.6.4-1.1 1.1-.8 2.9 1 1.3 1.3 3.1 2.4 4 2.4s2.7-1.1 4-2.4c1.7-1.7 2.5-2 2.9-1.1.3.8 1.4 1.9 2.5 2.5 3.5 1.8 2.6-1.8-.9-3.8-1.6-.9-3-2.3-3-2.9 0-.7-1.1-2-2.5-2.9-2.1-1.4-3.1-1.5-5.1-.6-1.3.7-2.7 1.8-3 2.6-.4 1.1-1.1.8-2.9-1-2.8-2.8-4.2-3-7.3-.8m5.5 6.7-2.2 2.2-2.2-2.3-2.2-2.2 2.2-2.3 2.2-2.2 2.2 2.3 2.2 2.2zm12 0-2.2 2.2-2.2-2.3-2.2-2.2 2.2-2.3 2.2-2.2 2.2 2.3 2.2 2.2zm-18 6-2.2 2.2-2.2-2.3-2.2-2.2 2.2-2.3 2.2-2.2 2.2 2.3 2.2 2.2zm12 12-2.2 2.2-2.2-2.3-2.2-2.2 2.2-2.3 2.2-2.2 2.2 2.3 2.2 2.2zm-6 18-2.2 2.2-2.2-2.3-2.2-2.2 2.2-2.3 2.2-2.2 2.2 2.3 2.2 2.2z"/><path fill="gray" d="M123 6.4c0 .2.8 1 1.8 1.7 1.5 1.3 1.6 1.2.3-.4S123 5.6 123 6.4M116.2 9c0 1.4.2 1.9.5 1.2.2-.6.2-1.8 0-2.5-.3-.6-.5-.1-.5 1.3m11.9.6c0 1.1.3 1.4.6.6.3-.7.2-1.6-.1-1.9-.3-.4-.6.2-.5 1.3M9 12.4c0 .2.8 1 1.8 1.7 1.5 1.3 1.6 1.2.3-.4S9 11.6 9 12.4m24 0c0 .2.8 1 1.8 1.7 1.5 1.3 1.6 1.2.3-.4S33 11.6 33 12.4m84 0c0 .2.8 1 1.8 1.7 1.5 1.3 1.6 1.2.3-.4s-2.1-2.1-2.1-1.3m60 0c0 .2.8 1 1.8 1.7 1.5 1.3 1.6 1.2.3-.4s-2.1-2.1-2.1-1.3m-162 6c0 .2.8 1 1.8 1.7 1.5 1.3 1.6 1.2.3-.4S15 17.6 15 18.4m24 0c0 .2.8 1 1.8 1.7 1.5 1.3 1.6 1.2.3-.4S39 17.6 39 18.4m84 0c0 .2.8 1 1.8 1.7 1.5 1.3 1.6 1.2.3-.4s-2.1-2.1-2.1-1.3m60 0c0 .2.8 1 1.8 1.7 1.5 1.3 1.6 1.2.3-.4s-2.1-2.1-2.1-1.3M8.2 21c0 1.4.2 1.9.5 1.2.2-.6.2-1.8 0-2.5-.3-.6-.5-.1-.5 1.3m24 0c0 1.4.2 1.9.5 1.2.2-.6.2-1.8 0-2.5-.3-.6-.5-.1-.5 1.3m84 0c0 1.4.2 1.9.5 1.2.2-.6.2-1.8 0-2.5-.3-.6-.5-.1-.5 1.3m60 0c0 1.4.2 1.9.5 1.2.2-.6.2-1.8 0-2.5-.3-.6-.5-.1-.5 1.3m-156.1.6c0 1.1.3 1.4.6.6.3-.7.2-1.6-.1-1.9-.3-.4-.6.2-.5 1.3m24 0c0 1.1.3 1.4.6.6.3-.7.2-1.6-.1-1.9-.3-.4-.6.2-.5 1.3m84 0c0 1.1.3 1.4.6.6.3-.7.2-1.6-.1-1.9-.3-.4-.6.2-.5 1.3M9 24.4c0 .2.8 1 1.8 1.7 1.5 1.3 1.6 1.2.3-.4S9 23.6 9 24.4m24 0c0 .2.8 1 1.8 1.7 1.5 1.3 1.6 1.2.3-.4S33 23.6 33 24.4m30 0c0 .2.8 1 1.8 1.7 1.5 1.3 1.6 1.2.3-.4S63 23.6 63 24.4m12 0c0 .2.8 1 1.8 1.7 1.5 1.3 1.6 1.2.3-.4S75 23.6 75 24.4m30 0c0 .2.8 1 1.8 1.7 1.5 1.3 1.6 1.2.3-.4s-2.1-2.1-2.1-1.3m12 0c0 .2.8 1 1.8 1.7 1.5 1.3 1.6 1.2.3-.4s-2.1-2.1-2.1-1.3m30 0c0 .2.8 1 1.8 1.7 1.5 1.3 1.6 1.2.3-.4s-2.1-2.1-2.1-1.3m12 0c0 .2.8 1 1.8 1.7 1.5 1.3 1.6 1.2.3-.4s-2.1-2.1-2.1-1.3m18 0c0 .2.8 1 1.8 1.7 1.5 1.3 1.6 1.2.3-.4s-2.1-2.1-2.1-1.3m12 0c0 .2.8 1 1.8 1.7 1.5 1.3 1.6 1.2.3-.4s-2.1-2.1-2.1-1.3m30 0c0 .2.8 1 1.8 1.7 1.5 1.3 1.6 1.2.3-.4s-2.1-2.1-2.1-1.3m12 0c0 .2.8 1 1.8 1.7 1.5 1.3 1.6 1.2.3-.4s-2.1-2.1-2.1-1.3m30 0c0 .2.8 1 1.8 1.7 1.5 1.3 1.6 1.2.3-.4s-2.1-2.1-2.1-1.3m12 0c0 .2.8 1 1.8 1.7 1.5 1.3 1.6 1.2.3-.4s-2.1-2.1-2.1-1.3m-258 6c0 .2.8 1 1.8 1.7 1.5 1.3 1.6 1.2.3-.4S15 29.6 15 30.4m24 0c0 .2.8 1 1.8 1.7 1.5 1.3 1.6 1.2.3-.4S39 29.6 39 30.4m18 0c0 .2.8 1 1.8 1.7 1.5 1.3 1.6 1.2.3-.4S57 29.6 57 30.4m12 0c0 .2.8 1 1.8 1.7 1.5 1.3 1.6 1.2.3-.4S69 29.6 69 30.4m12 0c0 .2.8 1 1.8 1.7 1.5 1.3 1.6 1.2.3-.4S81 29.6 81 30.4m18 0c0 .2.8 1 1.8 1.7 1.5 1.3 1.6 1.2.3-.4S99 29.6 99 30.4m12 0c0 .2.8 1 1.8 1.7 1.5 1.3 1.6 1.2.3-.4s-2.1-2.1-2.1-1.3m12 0c0 .2.8 1 1.8 1.7 1.5 1.3 1.6 1.2.3-.4s-2.1-2.1-2.1-1.3m30 0c0 .2.8 1 1.8 1.7 1.5 1.3 1.6 1.2.3-.4s-2.1-2.1-2.1-1.3m12 0c0 .2.8 1 1.8 1.7 1.5 1.3 1.6 1.2.3-.4s-2.1-2.1-2.1-1.3m18 0c0 .2.8 1 1.8 1.7 1.5 1.3 1.6 1.2.3-.4s-2.1-2.1-2.1-1.3m12 0c0 .2.8 1 1.8 1.7 1.5 1.3 1.6 1.2.3-.4s-2.1-2.1-2.1-1.3m18 0c0 .2.8 1 1.8 1.7 1.5 1.3 1.6 1.2.3-.4s-2.1-2.1-2.1-1.3m12 0c0 .2.8 1 1.8 1.7 1.5 1.3 1.6 1.2.3-.4s-2.1-2.1-2.1-1.3m12 0c0 .2.8 1 1.8 1.7 1.5 1.3 1.6 1.2.3-.4s-2.1-2.1-2.1-1.3m18 0c0 .2.8 1 1.8 1.7 1.5 1.3 1.6 1.2.3-.4s-2.1-2.1-2.1-1.3m12 0c0 .2.8 1 1.8 1.7 1.5 1.3 1.6 1.2.3-.4s-2.1-2.1-2.1-1.3m12 0c0 .2.8 1 1.8 1.7 1.5 1.3 1.6 1.2.3-.4s-2.1-2.1-2.1-1.3M8.2 33c0 1.4.2 1.9.5 1.2.2-.6.2-1.8 0-2.5-.3-.6-.5-.1-.5 1.3m24 0c0 1.4.2 1.9.5 1.2.2-.6.2-1.8 0-2.5-.3-.6-.5-.1-.5 1.3m18 0c0 1.4.2 1.9.5 1.2.2-.6.2-1.8 0-2.5-.3-.6-.5-.1-.5 1.3m42 0c0 1.4.2 1.9.5 1.2.2-.6.2-1.8 0-2.5-.3-.6-.5-.1-.5 1.3m84 0c0 1.4.2 1.9.5 1.2.2-.6.2-1.8 0-2.5-.3-.6-.5-.1-.5 1.3m30 0c0 1.4.2 1.9.5 1.2.2-.6.2-1.8 0-2.5-.3-.6-.5-.1-.5 1.3m42 0c0 1.4.2 1.9.5 1.2.2-.6.2-1.8 0-2.5-.3-.6-.5-.1-.5 1.3m-228.1.6c0 1.1.3 1.4.6.6.3-.7.2-1.6-.1-1.9-.3-.4-.6.2-.5 1.3m24 0c0 1.1.3 1.4.6.6.3-.7.2-1.6-.1-1.9-.3-.4-.6.2-.5 1.3m42 0c0 1.1.3 1.4.6.6.3-.7.2-1.6-.1-1.9-.3-.4-.6.2-.5 1.3m42 0c0 1.1.3 1.4.6.6.3-.7.2-1.6-.1-1.9-.3-.4-.6.2-.5 1.3m42 0c0 1.1.3 1.4.6.6.3-.7.2-1.6-.1-1.9-.3-.4-.6.2-.5 1.3m72 0c0 1.1.3 1.4.6.6.3-.7.2-1.6-.1-1.9-.3-.4-.6.2-.5 1.3M9 36.4c0 .2.8 1 1.8 1.7 1.5 1.3 1.6 1.2.3-.4S9 35.6 9 36.4m24 0c0 .2.8 1 1.8 1.7 1.5 1.3 1.6 1.2.3-.4S33 35.6 33 36.4m18 0c0 .2.8 1 1.8 1.7 1.5 1.3 1.6 1.2.3-.4S51 35.6 51 36.4m24 0c0 .2.8 1 1.8 1.7 1.5 1.3 1.6 1.2.3-.4S75 35.6 75 36.4m18 0c0 .2.8 1 1.8 1.7 1.5 1.3 1.6 1.2.3-.4S93 35.6 93 36.4m24 0c0 .2.8 1 1.8 1.7 1.5 1.3 1.6 1.2.3-.4s-2.1-2.1-2.1-1.3m42 0c0 .2.8 1 1.8 1.7 1.5 1.3 1.6 1.2.3-.4s-2.1-2.1-2.1-1.3m18 0c0 .2.8 1 1.8 1.7 1.5 1.3 1.6 1.2.3-.4s-2.1-2.1-2.1-1.3m30 0c0 .2.8 1 1.8 1.7 1.5 1.3 1.6 1.2.3-.4s-2.1-2.1-2.1-1.3m24 0c0 .2.8 1 1.8 1.7 1.5 1.3 1.6 1.2.3-.4s-2.1-2.1-2.1-1.3m18 0c0 .2.8 1 1.8 1.7 1.5 1.3 1.6 1.2.3-.4s-2.1-2.1-2.1-1.3m-234 6c0 .2.8 1 1.8 1.7 1.5 1.3 1.6 1.2.3-.4S15 41.6 15 42.4m24 0c0 .2.8 1 1.8 1.7 1.5 1.3 1.6 1.2.3-.4S39 41.6 39 42.4m18 0c0 .2.8 1 1.8 1.7 1.5 1.3 1.6 1.2.3-.4S57 41.6 57 42.4m24 0c0 .2.8 1 1.8 1.7 1.5 1.3 1.6 1.2.3-.4S81 41.6 81 42.4m18 0c0 .2.8 1 1.8 1.7 1.5 1.3 1.6 1.2.3-.4S99 41.6 99 42.4m24 0c0 .2.8 1 1.8 1.7 1.5 1.3 1.6 1.2.3-.4s-2.1-2.1-2.1-1.3m18 0c0 .2.8 1 1.8 1.7 1.5 1.3 1.6 1.2.3-.4s-2.1-2.1-2.1-1.3m12 0c0 .2.8 1 1.8 1.7 1.5 1.3 1.6 1.2.3-.4s-2.1-2.1-2.1-1.3m12 0c0 .2.8 1 1.8 1.7 1.5 1.3 1.6 1.2.3-.4s-2.1-2.1-2.1-1.3m18 0c0 .2.8 1 1.8 1.7 1.5 1.3 1.6 1.2.3-.4s-2.1-2.1-2.1-1.3m30 0c0 .2.8 1 1.8 1.7 1.5 1.3 1.6 1.2.3-.4s-2.1-2.1-2.1-1.3m42 0c0 .2.8 1 1.8 1.7 1.5 1.3 1.6 1.2.3-.4s-2.1-2.1-2.1-1.3m12 0c0 .2.8 1 1.8 1.7 1.5 1.3 1.6 1.2.3-.4s-2.1-2.1-2.1-1.3M8.2 45c0 1.4.2 1.9.5 1.2.2-.6.2-1.8 0-2.5-.3-.6-.5-.1-.5 1.3m24 0c0 1.4.2 1.9.5 1.2.2-.6.2-1.8 0-2.5-.3-.6-.5-.1-.5 1.3m18 0c0 1.4.2 1.9.5 1.2.2-.6.2-1.8 0-2.5-.3-.6-.5-.1-.5 1.3m24 0c0 1.4.2 1.9.5 1.2.2-.6.2-1.8 0-2.5-.3-.6-.5-.1-.5 1.3m18 0c0 1.4.2 1.9.5 1.2.2-.6.2-1.8 0-2.5-.3-.6-.5-.1-.5 1.3m24 0c0 1.4.2 1.9.5 1.2.2-.6.2-1.8 0-2.5-.3-.6-.5-.1-.5 1.3m18 0c0 1.4.2 1.9.5 1.2.2-.6.2-1.8 0-2.5-.3-.6-.5-.1-.5 1.3m42 0c0 1.4.2 1.9.5 1.2.2-.6.2-1.8 0-2.5-.3-.6-.5-.1-.5 1.3m30 0c0 1.4.2 1.9.5 1.2.2-.6.2-1.8 0-2.5-.3-.6-.5-.1-.5 1.3m24 0c0 1.4.2 1.9.5 1.2.2-.6.2-1.8 0-2.5-.3-.6-.5-.1-.5 1.3m-210.1.6c0 1.1.3 1.4.6.6.3-.7.2-1.6-.1-1.9-.3-.4-.6.2-.5 1.3m24 0c0 1.1.3 1.4.6.6.3-.7.2-1.6-.1-1.9-.3-.4-.6.2-.5 1.3m18 0c0 1.1.3 1.4.6.6.3-.7.2-1.6-.1-1.9-.3-.4-.6.2-.5 1.3m24 0c0 1.1.3 1.4.6.6.3-.7.2-1.6-.1-1.9-.3-.4-.6.2-.5 1.3m18 0c0 1.1.3 1.4.6.6.3-.7.2-1.6-.1-1.9-.3-.4-.6.2-.5 1.3m24 0c0 1.1.3 1.4.6.6.3-.7.2-1.6-.1-1.9-.3-.4-.6.2-.5 1.3m42 0c0 1.1.3 1.4.6.6.3-.7.2-1.6-.1-1.9-.3-.4-.6.2-.5 1.3m18 0c0 1.1.3 1.4.6.6.3-.7.2-1.6-.1-1.9-.3-.4-.6.2-.5 1.3M9 48.4c0 .2.8 1 1.8 1.7 1.5 1.3 1.6 1.2.3-.4S9 47.6 9 48.4m24 0c0 .2.8 1 1.8 1.7 1.5 1.3 1.6 1.2.3-.4S33 47.6 33 48.4m18 0c0 .2.8 1 1.8 1.7 1.5 1.3 1.6 1.2.3-.4S51 47.6 51 48.4m24 0c0 .2.8 1 1.8 1.7 1.5 1.3 1.6 1.2.3-.4S75 47.6 75 48.4m18 0c0 .2.8 1 1.8 1.7 1.5 1.3 1.6 1.2.3-.4S93 47.6 93 48.4m24 0c0 .2.8 1 1.8 1.7 1.5 1.3 1.6 1.2.3-.4s-2.1-2.1-2.1-1.3m18 0c0 .2.8 1 1.8 1.7 1.5 1.3 1.6 1.2.3-.4s-2.1-2.1-2.1-1.3m24 0c0 .2.8 1 1.8 1.7 1.5 1.3 1.6 1.2.3-.4s-2.1-2.1-2.1-1.3m18 0c0 .2.8 1 1.8 1.7 1.5 1.3 1.6 1.2.3-.4s-2.1-2.1-2.1-1.3m30 0c0 .2.8 1 1.8 1.7 1.5 1.3 1.6 1.2.3-.4s-2.1-2.1-2.1-1.3m12 0c0 .2.8 1 1.8 1.7 1.5 1.3 1.6 1.2.3-.4s-2.1-2.1-2.1-1.3m42 0c0 .2.8 1 1.8 1.7 1.5 1.3 1.6 1.2.3-.4s-2.1-2.1-2.1-1.3m12 0c0 .2.8 1 1.8 1.7 1.5 1.3 1.6 1.2.3-.4s-2.1-2.1-2.1-1.3m-258 6c0 .2.8 1 1.8 1.7 1.5 1.3 1.6 1.2.3-.4S15 53.6 15 54.4m24 0c0 .2.8 1 1.8 1.7 1.5 1.3 1.6 1.2.3-.4S39 53.6 39 54.4m18 0c0 .2.8 1 1.8 1.7 1.5 1.3 1.6 1.2.3-.4S57 53.6 57 54.4m24 0c0 .2.8 1 1.8 1.7 1.5 1.3 1.6 1.2.3-.4S81 53.6 81 54.4m18 0c0 .2.8 1 1.8 1.7 1.5 1.3 1.6 1.2.3-.4S99 53.6 99 54.4m24 0c0 .2.8 1 1.8 1.7 1.5 1.3 1.6 1.2.3-.4s-2.1-2.1-2.1-1.3m18 0c0 .2.8 1 1.8 1.7 1.5 1.3 1.6 1.2.3-.4s-2.1-2.1-2.1-1.3m24 0c0 .2.8 1 1.8 1.7 1.5 1.3 1.6 1.2.3-.4s-2.1-2.1-2.1-1.3m18 0c0 .2.8 1 1.8 1.7 1.5 1.3 1.6 1.2.3-.4s-2.1-2.1-2.1-1.3m12 0c0 .2.8 1 1.8 1.7 1.5 1.3 1.6 1.2.3-.4s-2.1-2.1-2.1-1.3m18 0c0 .2.8 1 1.8 1.7 1.5 1.3 1.6 1.2.3-.4s-2.1-2.1-2.1-1.3m66 0c0 .2.8 1 1.8 1.7 1.5 1.3 1.6 1.2.3-.4s-2.1-2.1-2.1-1.3M8.2 57c0 1.4.2 1.9.5 1.2.2-.6.2-1.8 0-2.5-.3-.6-.5-.1-.5 1.3m42 0c0 1.4.2 1.9.5 1.2.2-.6.2-1.8 0-2.5-.3-.6-.5-.1-.5 1.3m42 0c0 1.4.2 1.9.5 1.2.2-.6.2-1.8 0-2.5-.3-.6-.5-.1-.5 1.3m42 0c0 1.4.2 1.9.5 1.2.2-.6.2-1.8 0-2.5-.3-.6-.5-.1-.5 1.3m42 0c0 1.4.2 1.9.5 1.2.2-.6.2-1.8 0-2.5-.3-.6-.5-.1-.5 1.3m30 0c0 1.4.2 1.9.5 1.2.2-.6.2-1.8 0-2.5-.3-.6-.5-.1-.5 1.3m-162.1.6c0 1.1.3 1.4.6.6.3-.7.2-1.6-.1-1.9-.3-.4-.6.2-.5 1.3m42 0c0 1.1.3 1.4.6.6.3-.7.2-1.6-.1-1.9-.3-.4-.6.2-.5 1.3m42 0c0 1.1.3 1.4.6.6.3-.7.2-1.6-.1-1.9-.3-.4-.6.2-.5 1.3m42 0c0 1.1.3 1.4.6.6.3-.7.2-1.6-.1-1.9-.3-.4-.6.2-.5 1.3m30 0c0 1.1.3 1.4.6.6.3-.7.2-1.6-.1-1.9-.3-.4-.6.2-.5 1.3m84 0c0 1.1.3 1.4.6.6.3-.7.2-1.6-.1-1.9-.3-.4-.6.2-.5 1.3M9 60.4c0 .2.8 1 1.8 1.7 1.5 1.3 1.6 1.2.3-.4S9 59.6 9 60.4m12 0c0 .2.8 1 1.8 1.7 1.5 1.3 1.6 1.2.3-.4S21 59.6 21 60.4m12 0c0 .2.8 1 1.8 1.7 1.5 1.3 1.6 1.2.3-.4S33 59.6 33 60.4m18 0c0 .2.8 1 1.8 1.7 1.5 1.3 1.6 1.2.3-.4S51 59.6 51 60.4m12 0c0 .2.8 1 1.8 1.7 1.5 1.3 1.6 1.2.3-.4S63 59.6 63 60.4m12 0c0 .2.8 1 1.8 1.7 1.5 1.3 1.6 1.2.3-.4S75 59.6 75 60.4m18 0c0 .2.8 1 1.8 1.7 1.5 1.3 1.6 1.2.3-.4S93 59.6 93 60.4m12 0c0 .2.8 1 1.8 1.7 1.5 1.3 1.6 1.2.3-.4s-2.1-2.1-2.1-1.3m12 0c0 .2.8 1 1.8 1.7 1.5 1.3 1.6 1.2.3-.4s-2.1-2.1-2.1-1.3m18 0c0 .2.8 1 1.8 1.7 1.5 1.3 1.6 1.2.3-.4s-2.1-2.1-2.1-1.3m12 0c0 .2.8 1 1.8 1.7 1.5 1.3 1.6 1.2.3-.4s-2.1-2.1-2.1-1.3m12 0c0 .2.8 1 1.8 1.7 1.5 1.3 1.6 1.2.3-.4s-2.1-2.1-2.1-1.3m18 0c0 .2.8 1 1.8 1.7 1.5 1.3 1.6 1.2.3-.4s-2.1-2.1-2.1-1.3m12 0c0 .2.8 1 1.8 1.7 1.5 1.3 1.6 1.2.3-.4s-2.1-2.1-2.1-1.3m18 0c0 .2.8 1 1.8 1.7 1.5 1.3 1.6 1.2.3-.4s-2.1-2.1-2.1-1.3m12 0c0 .2.8 1 1.8 1.7 1.5 1.3 1.6 1.2.3-.4s-2.1-2.1-2.1-1.3m12 0c0 .2.8 1 1.8 1.7 1.5 1.3 1.6 1.2.3-.4s-2.1-2.1-2.1-1.3m18 0c0 .2.8 1 1.8 1.7 1.5 1.3 1.6 1.2.3-.4s-2.1-2.1-2.1-1.3m12 0c0 .2.8 1 1.8 1.7 1.5 1.3 1.6 1.2.3-.4s-2.1-2.1-2.1-1.3m12 0c0 .2.8 1 1.8 1.7 1.5 1.3 1.6 1.2.3-.4s-2.1-2.1-2.1-1.3m-258 6c0 .2.8 1 1.8 1.7 1.5 1.3 1.6 1.2.3-.4S15 65.6 15 66.4m12 0c0 .2.8 1 1.8 1.7 1.5 1.3 1.6 1.2.3-.4S27 65.6 27 66.4m30 0c0 .2.8 1 1.8 1.7 1.5 1.3 1.6 1.2.3-.4S57 65.6 57 66.4m12 0c0 .2.8 1 1.8 1.7 1.5 1.3 1.6 1.2.3-.4S69 65.6 69 66.4m30 0c0 .2.8 1 1.8 1.7 1.5 1.3 1.6 1.2.3-.4S99 65.6 99 66.4m12 0c0 .2.8 1 1.8 1.7 1.5 1.3 1.6 1.2.3-.4s-2.1-2.1-2.1-1.3m30 0c0 .2.8 1 1.8 1.7 1.5 1.3 1.6 1.2.3-.4s-2.1-2.1-2.1-1.3m12 0c0 .2.8 1 1.8 1.7 1.5 1.3 1.6 1.2.3-.4s-2.1-2.1-2.1-1.3m30 0c0 .2.8 1 1.8 1.7 1.5 1.3 1.6 1.2.3-.4s-2.1-2.1-2.1-1.3m30 0c0 .2.8 1 1.8 1.7 1.5 1.3 1.6 1.2.3-.4s-2.1-2.1-2.1-1.3m12 0c0 .2.8 1 1.8 1.7 1.5 1.3 1.6 1.2.3-.4s-2.1-2.1-2.1-1.3m30 0c0 .2.8 1 1.8 1.7 1.5 1.3 1.6 1.2.3-.4s-2.1-2.1-2.1-1.3m12 0c0 .2.8 1 1.8 1.7 1.5 1.3 1.6 1.2.3-.4s-2.1-2.1-2.1-1.3M50.2 69c0 1.4.2 1.9.5 1.2.2-.6.2-1.8 0-2.5-.3-.6-.5-.1-.5 1.3m11.9.6c0 1.1.3 1.4.6.6.3-.7.2-1.6-.1-1.9-.3-.4-.6.2-.5 1.3M50.2 81c0 1.4.2 1.9.5 1.2.2-.6.2-1.8 0-2.5-.3-.6-.5-.1-.5 1.3m12 0c0 1.4.2 1.9.5 1.2.2-.6.2-1.8 0-2.5-.3-.6-.5-.1-.5 1.3"/></svg>